M48
; DRILL file {KiCad 9.0.5} date 2026-03-19T11:44:48+0100
; FORMAT={-:-/ absolute / metric / decimal}
; #@! TF.CreationDate,2026-03-19T11:44:48+01:00
; #@! TF.GenerationSoftware,Kicad,Pcbnew,9.0.5
; #@! TF.FileFunction,Plated,1,4,PTH
FMAT,2
METRIC
; #@! TA.AperFunction,Plated,PTH,ViaDrill
T1C0.500
; #@! TA.AperFunction,Plated,PTH,ComponentDrill
T2C1.000
; #@! TA.AperFunction,Plated,PTH,ComponentDrill
T3C1.600
%
G90
G05
T1
X47.4Y-23.2
X47.4Y-25.78
X47.4Y-28.32
X47.4Y-30.86
X47.4Y-33.4
X47.4Y-35.94
X47.4Y-38.48
X47.4Y-41.02
X47.4Y-43.56
X47.4Y-46.1
X47.4Y-48.64
X47.4Y-51.18
X47.4Y-53.72
X47.4Y-56.26
X47.4Y-58.8
X47.4Y-61.34
X47.4Y-63.88
X47.4Y-66.42
X47.4Y-68.96
X47.4Y-71.5
X47.4Y-74.04
X47.4Y-76.58
X47.4Y-79.12
X47.4Y-81.66
X47.4Y-84.2
X47.4Y-86.74
X47.4Y-89.28
X47.4Y-91.82
X47.4Y-94.36
X47.4Y-96.9
X47.4Y-99.44
X47.4Y-101.98
X47.4Y-104.52
X47.4Y-107.06
X47.4Y-109.6
X47.4Y-112.14
X47.4Y-114.68
X47.4Y-117.22
X47.4Y-119.76
X47.4Y-122.3
X47.4Y-124.84
X47.4Y-127.38
X47.4Y-129.92
X47.4Y-132.46
X47.4Y-135.0
X47.4Y-137.54
X49.74Y-138.0
X49.94Y-23.2
X52.28Y-138.0
X52.48Y-23.2
X53.2Y-126.5
X53.2Y-128.2
X54.82Y-138.0
X55.02Y-23.2
X56.999Y-86.501
X57.018Y-91.518
X57.36Y-138.0
X57.56Y-23.2
X58.499Y-86.501
X58.5Y-91.518
X59.9Y-138.0
X60.1Y-23.2
X62.44Y-138.0
X62.64Y-23.2
X64.98Y-138.0
X65.0Y-111.0
X65.0Y-113.5
X65.18Y-23.2
X65.5Y-120.5
X65.5Y-123.5
X65.5Y-125.0
X65.5Y-128.0
X66.0Y-82.5
X66.5Y-102.0
X67.0Y-27.0
X67.52Y-138.0
X67.72Y-23.2
X69.0Y-86.0
X69.0Y-126.5
X69.5Y-49.5
X69.5Y-117.0
X70.06Y-138.0
X70.26Y-23.2
X70.5Y-46.5
X72.0Y-126.5
X72.5Y-44.0
X72.5Y-58.0
X72.6Y-138.0
X72.8Y-23.2
X74.0Y-50.5
X74.0Y-125.5
X74.2Y-128.3
X74.5Y-75.5
X74.5Y-94.0
X74.951Y-103.222
X75.0Y-85.0
X75.14Y-138.0
X75.34Y-23.2
X75.5Y-43.5
X76.5Y-46.5
X76.5Y-52.0
X76.5Y-53.0
X76.5Y-56.0
X76.5Y-117.0
X77.68Y-138.0
X77.88Y-23.2
X78.0Y-52.0
X78.0Y-53.0
X78.0Y-56.5
X79.0Y-129.5
X79.35Y-54.5
X79.5Y-56.0
X79.5Y-96.5
X79.5Y-117.0
X80.0Y-78.0
X80.22Y-138.0
X80.42Y-23.2
X81.0Y-55.0
X82.0Y-78.0
X82.0Y-96.5
X82.76Y-138.0
X82.96Y-23.2
X83.0Y-55.0
X83.5Y-34.0
X84.0Y-46.5
X84.5Y-77.0
X84.5Y-95.0
X85.0Y-53.5
X85.0Y-121.2
X85.3Y-138.0
X85.5Y-23.2
X87.0Y-29.0
X87.84Y-138.0
X88.04Y-23.2
X89.5Y-103.0
X90.38Y-138.0
X90.58Y-23.2
X91.0Y-103.0
X92.92Y-138.0
X93.12Y-23.2
X95.0Y-130.0
X95.46Y-138.0
X95.66Y-23.2
X96.767Y-130.0
X98.0Y-138.0
X98.2Y-23.2
X100.54Y-138.0
X100.74Y-23.2
X101.5Y-130.0
X103.08Y-138.0
X103.25Y-130.25
X103.28Y-23.2
X105.62Y-138.0
X105.82Y-23.2
X107.6Y-23.4
X107.6Y-25.94
X107.6Y-28.48
X107.6Y-31.02
X107.6Y-33.56
X107.6Y-36.1
X107.6Y-38.64
X107.6Y-41.18
X107.6Y-43.72
X107.6Y-46.26
X107.6Y-48.8
X107.6Y-51.34
X107.6Y-53.88
X107.6Y-56.42
X107.6Y-58.96
X107.6Y-61.5
X107.6Y-64.04
X107.6Y-66.58
X107.6Y-69.12
X107.6Y-71.66
X107.6Y-74.2
X107.6Y-76.74
X107.6Y-79.28
X107.6Y-81.82
X107.6Y-84.36
X107.6Y-86.9
X107.6Y-89.44
X107.6Y-91.98
X107.6Y-94.52
X107.6Y-97.06
X107.6Y-99.6
X107.6Y-102.14
X107.6Y-104.68
X107.6Y-107.22
X107.6Y-109.76
X107.6Y-112.3
X107.6Y-114.84
X107.6Y-117.38
X107.6Y-119.92
X107.6Y-122.46
X107.6Y-125.0
X107.6Y-127.54
X107.6Y-130.08
X107.6Y-132.62
X107.6Y-135.16
X107.6Y-137.7
T2
X53.34Y-27.94
X53.34Y-30.48
X53.34Y-33.02
X53.34Y-35.56
X53.34Y-38.1
X53.34Y-40.64
X53.34Y-43.18
X53.34Y-45.72
X53.34Y-48.26
X53.34Y-50.8
X53.34Y-53.34
X53.34Y-55.88
X53.34Y-58.42
X53.34Y-60.96
X53.34Y-63.5
X53.34Y-66.04
X53.34Y-68.58
X53.34Y-71.12
X53.34Y-73.66
X53.34Y-76.2
X53.34Y-78.74
X53.34Y-81.28
X53.34Y-83.82
X53.34Y-86.36
X53.34Y-88.9
X53.34Y-91.44
X53.34Y-93.98
X53.34Y-96.52
X53.34Y-99.06
X53.34Y-101.6
X53.34Y-104.14
X53.34Y-106.68
X61.974Y-83.898
X61.974Y-86.438
X61.974Y-88.978
X61.974Y-91.518
X61.974Y-94.058
X89.88Y-112.5
X92.42Y-112.5
X94.96Y-112.5
X97.5Y-112.5
X100.04Y-112.5
X101.6Y-27.94
X101.6Y-30.48
X101.6Y-33.02
X101.6Y-35.56
X101.6Y-38.1
X101.6Y-40.64
X101.6Y-43.18
X101.6Y-45.72
X101.6Y-48.26
X101.6Y-50.8
X101.6Y-53.34
X101.6Y-55.88
X101.6Y-58.42
X101.6Y-60.96
X101.6Y-63.5
X101.6Y-66.04
X101.6Y-68.58
X101.6Y-71.12
X101.6Y-73.66
X101.6Y-76.2
X101.6Y-78.74
X101.6Y-81.28
X101.6Y-83.82
X101.6Y-86.36
X101.6Y-88.9
X101.6Y-91.44
X101.6Y-93.98
X101.6Y-96.52
X101.6Y-99.06
X101.6Y-101.6
X101.6Y-104.14
X101.6Y-106.68
X102.58Y-112.5
T3
X55.0Y-134.5
X55.617Y-124.218
X55.767Y-112.218
X72.5Y-113.5
X82.5Y-113.5
X94.5Y-85.5
X94.5Y-104.5
M30
