%TF.GenerationSoftware,KiCad,Pcbnew,9.0.4*%
%TF.CreationDate,2026-03-19T22:20:33+01:00*%
%TF.ProjectId,HW_template,48575f74-656d-4706-9c61-74652e6b6963,rev?*%
%TF.SameCoordinates,Original*%
%TF.FileFunction,Copper,L4,Bot*%
%TF.FilePolarity,Positive*%
%FSLAX46Y46*%
G04 Gerber Fmt 4.6, Leading zero omitted, Abs format (unit mm)*
G04 Created by KiCad (PCBNEW 9.0.4) date 2026-03-19 22:20:33*
%MOMM*%
%LPD*%
G01*
G04 APERTURE LIST*
%TA.AperFunction,ComponentPad*%
%ADD10R,1.700000X1.700000*%
%TD*%
%TA.AperFunction,ComponentPad*%
%ADD11O,1.700000X1.700000*%
%TD*%
%TA.AperFunction,ComponentPad*%
%ADD12C,3.000000*%
%TD*%
%TA.AperFunction,ComponentPad*%
%ADD13C,1.700000*%
%TD*%
%TA.AperFunction,ViaPad*%
%ADD14C,1.000000*%
%TD*%
G04 APERTURE END LIST*
D10*
%TO.P,Y1,1,IF_Q*%
%TO.N,IF_Q*%
X61973562Y-94058478D03*
D11*
%TO.P,Y1,2,VCC*%
%TO.N,3V3_INT*%
X61973562Y-91518478D03*
%TO.P,Y1,3,IF_I*%
%TO.N,IF_I*%
X61973562Y-88978478D03*
%TO.P,Y1,4,GND*%
%TO.N,GND*%
X61973562Y-86438478D03*
%TO.P,Y1,5,VCO_in*%
%TO.N,/Analog/VCO_in*%
X61973562Y-83898478D03*
%TD*%
D12*
%TO.P,TP6,1,1*%
%TO.N,Net-(JP3-A)*%
X55617500Y-124218246D03*
%TD*%
%TO.P,TP4,1,1*%
%TO.N,Vref*%
X72500000Y-113500000D03*
%TD*%
D10*
%TO.P,Y2,1,GRN*%
%TO.N,unconnected-(Y2-GRN-Pad1)*%
X89880000Y-112500000D03*
D13*
%TO.P,Y2,2,RXI*%
%TO.N,PG14_*%
X92420000Y-112500000D03*
%TO.P,Y2,3,TXO*%
%TO.N,unconnected-(Y2-TXO-Pad3)*%
X94960000Y-112500000D03*
%TO.P,Y2,4,VCC*%
%TO.N,+5V*%
X97500000Y-112500000D03*
%TO.P,Y2,5,GND*%
%TO.N,GND*%
X100040000Y-112500000D03*
%TO.P,Y2,6,BLK*%
X102580000Y-112500000D03*
%TD*%
D12*
%TO.P,TP3,1,1*%
%TO.N,PC3*%
X94500000Y-85500000D03*
%TD*%
%TO.P,TP7,1,1*%
%TO.N,GND*%
X55000000Y-134500000D03*
%TD*%
%TO.P,TP2,1,1*%
%TO.N,PC1*%
X94500000Y-104500000D03*
%TD*%
%TO.P,TP1,1,1*%
%TO.N,/Analog/VCO_in*%
X82500000Y-113500000D03*
%TD*%
%TO.P,TP5,1,1*%
%TO.N,+5V*%
X55767500Y-112218246D03*
%TD*%
D10*
%TO.P,P1,1,Pin_1*%
%TO.N,+5V*%
X53340000Y-106680000D03*
D13*
%TO.P,P1,2,Pin_2*%
%TO.N,unconnected-(P1-Pin_2-Pad2)*%
X53340000Y-104140000D03*
%TO.P,P1,3,Pin_3*%
%TO.N,unconnected-(P1-Pin_3-Pad3)*%
X53340000Y-101600000D03*
%TO.P,P1,4,Pin_4*%
%TO.N,unconnected-(P1-Pin_4-Pad4)*%
X53340000Y-99060000D03*
%TO.P,P1,5,Pin_5*%
%TO.N,unconnected-(P1-Pin_5-Pad5)*%
X53340000Y-96520000D03*
%TO.P,P1,6,Pin_6*%
%TO.N,PC13*%
X53340000Y-93980000D03*
%TO.P,P1,7,Pin_7*%
%TO.N,PE5*%
X53340000Y-91440000D03*
%TO.P,P1,8,Pin_8*%
%TO.N,PE3*%
X53340000Y-88900000D03*
%TO.P,P1,9,Pin_9*%
%TO.N,unconnected-(P1-Pin_9-Pad9)*%
X53340000Y-86360000D03*
%TO.P,P1,10,Pin_10*%
%TO.N,unconnected-(P1-Pin_10-Pad10)*%
X53340000Y-83820000D03*
%TO.P,P1,11,Pin_11*%
%TO.N,unconnected-(P1-Pin_11-Pad11)*%
X53340000Y-81280000D03*
%TO.P,P1,12,Pin_12*%
%TO.N,PB7*%
X53340000Y-78740000D03*
%TO.P,P1,13,Pin_13*%
%TO.N,unconnected-(P1-Pin_13-Pad13)*%
X53340000Y-76200000D03*
%TO.P,P1,14,Pin_14*%
%TO.N,unconnected-(P1-Pin_14-Pad14)*%
X53340000Y-73660000D03*
%TO.P,P1,15,Pin_15*%
%TO.N,PG14_*%
X53340000Y-71120000D03*
%TO.P,P1,16,Pin_16*%
%TO.N,unconnected-(P1-Pin_16-Pad16)*%
X53340000Y-68580000D03*
%TO.P,P1,17,Pin_17*%
%TO.N,unconnected-(P1-Pin_17-Pad17)*%
X53340000Y-66040000D03*
%TO.P,P1,18,Pin_18*%
%TO.N,unconnected-(P1-Pin_18-Pad18)*%
X53340000Y-63500000D03*
%TO.P,P1,19,Pin_19*%
%TO.N,PD4*%
X53340000Y-60960000D03*
%TO.P,P1,20,Pin_20*%
%TO.N,PD2*%
X53340000Y-58420000D03*
%TO.P,P1,21,Pin_21*%
%TO.N,PD0*%
X53340000Y-55880000D03*
%TO.P,P1,22,Pin_22*%
%TO.N,PC11*%
X53340000Y-53340000D03*
%TO.P,P1,23,Pin_23*%
%TO.N,unconnected-(P1-Pin_23-Pad23)*%
X53340000Y-50800000D03*
%TO.P,P1,24,Pin_24*%
%TO.N,unconnected-(P1-Pin_24-Pad24)*%
X53340000Y-48260000D03*
%TO.P,P1,25,Pin_25*%
%TO.N,unconnected-(P1-Pin_25-Pad25)*%
X53340000Y-45720000D03*
%TO.P,P1,26,Pin_26*%
%TO.N,unconnected-(P1-Pin_26-Pad26)*%
X53340000Y-43180000D03*
%TO.P,P1,27,Pin_27*%
%TO.N,unconnected-(P1-Pin_27-Pad27)*%
X53340000Y-40640000D03*
%TO.P,P1,28,Pin_28*%
%TO.N,unconnected-(P1-Pin_28-Pad28)*%
X53340000Y-38100000D03*
%TO.P,P1,29,Pin_29*%
%TO.N,unconnected-(P1-Pin_29-Pad29)*%
X53340000Y-35560000D03*
%TO.P,P1,30,Pin_30*%
%TO.N,unconnected-(P1-Pin_30-Pad30)*%
X53340000Y-33020000D03*
%TO.P,P1,31,Pin_31*%
%TO.N,unconnected-(P1-Pin_31-Pad31)*%
X53340000Y-30480000D03*
%TO.P,P1,32,Pin_32*%
%TO.N,GND*%
X53340000Y-27940000D03*
%TD*%
D10*
%TO.P,P2,1,Pin_1*%
%TO.N,+3V0*%
X101600000Y-106680000D03*
D13*
%TO.P,P2,2,Pin_2*%
%TO.N,PF6*%
X101600000Y-104140000D03*
%TO.P,P2,3,Pin_3*%
%TO.N,PF8*%
X101600000Y-101600000D03*
%TO.P,P2,4,Pin_4*%
%TO.N,unconnected-(P2-Pin_4-Pad4)*%
X101600000Y-99060000D03*
%TO.P,P2,5,Pin_5*%
%TO.N,unconnected-(P2-Pin_5-Pad5)*%
X101600000Y-96520000D03*
%TO.P,P2,6,Pin_6*%
%TO.N,GND*%
X101600000Y-93980000D03*
%TO.P,P2,7,Pin_7*%
%TO.N,PC1*%
X101600000Y-91440000D03*
%TO.P,P2,8,Pin_8*%
%TO.N,PC3*%
X101600000Y-88900000D03*
%TO.P,P2,9,Pin_9*%
%TO.N,unconnected-(P2-Pin_9-Pad9)*%
X101600000Y-86360000D03*
%TO.P,P2,10,Pin_10*%
%TO.N,unconnected-(P2-Pin_10-Pad10)*%
X101600000Y-83820000D03*
%TO.P,P2,11,Pin_11*%
%TO.N,PA5*%
X101600000Y-81280000D03*
%TO.P,P2,12,Pin_12*%
%TO.N,unconnected-(P2-Pin_12-Pad12)*%
X101600000Y-78740000D03*
%TO.P,P2,13,Pin_13*%
%TO.N,unconnected-(P2-Pin_13-Pad13)*%
X101600000Y-76200000D03*
%TO.P,P2,14,Pin_14*%
%TO.N,unconnected-(P2-Pin_14-Pad14)*%
X101600000Y-73660000D03*
%TO.P,P2,15,Pin_15*%
%TO.N,GND*%
X101600000Y-71120000D03*
%TO.P,P2,16,Pin_16*%
%TO.N,unconnected-(P2-Pin_16-Pad16)*%
X101600000Y-68580000D03*
%TO.P,P2,17,Pin_17*%
%TO.N,unconnected-(P2-Pin_17-Pad17)*%
X101600000Y-66040000D03*
%TO.P,P2,18,Pin_18*%
%TO.N,unconnected-(P2-Pin_18-Pad18)*%
X101600000Y-63500000D03*
%TO.P,P2,19,Pin_19*%
%TO.N,PE7*%
X101600000Y-60960000D03*
%TO.P,P2,20,Pin_20*%
%TO.N,PE9*%
X101600000Y-58420000D03*
%TO.P,P2,21,Pin_21*%
%TO.N,PE11*%
X101600000Y-55880000D03*
%TO.P,P2,22,Pin_22*%
%TO.N,PE13*%
X101600000Y-53340000D03*
%TO.P,P2,23,Pin_23*%
%TO.N,PE15*%
X101600000Y-50800000D03*
%TO.P,P2,24,Pin_24*%
%TO.N,unconnected-(P2-Pin_24-Pad24)*%
X101600000Y-48260000D03*
%TO.P,P2,25,Pin_25*%
%TO.N,unconnected-(P2-Pin_25-Pad25)*%
X101600000Y-45720000D03*
%TO.P,P2,26,Pin_26*%
%TO.N,unconnected-(P2-Pin_26-Pad26)*%
X101600000Y-43180000D03*
%TO.P,P2,27,Pin_27*%
%TO.N,PD9*%
X101600000Y-40640000D03*
%TO.P,P2,28,Pin_28*%
%TO.N,unconnected-(P2-Pin_28-Pad28)*%
X101600000Y-38100000D03*
%TO.P,P2,29,Pin_29*%
%TO.N,unconnected-(P2-Pin_29-Pad29)*%
X101600000Y-35560000D03*
%TO.P,P2,30,Pin_30*%
%TO.N,PD15*%
X101600000Y-33020000D03*
%TO.P,P2,31,Pin_31*%
%TO.N,PG3*%
X101600000Y-30480000D03*
%TO.P,P2,32,Pin_32*%
%TO.N,GND*%
X101600000Y-27940000D03*
%TD*%
D14*
%TO.N,GND*%
X75000000Y-85000000D03*
X80420000Y-23200000D03*
X47400000Y-135000000D03*
X88040000Y-23200000D03*
X76500000Y-53000000D03*
X83000000Y-55000000D03*
X47400000Y-99440000D03*
X79350000Y-54500000D03*
X47400000Y-23200000D03*
X107600000Y-61500000D03*
X98200000Y-23200000D03*
X59900000Y-138000000D03*
X107600000Y-89440000D03*
X47400000Y-25780000D03*
X74500000Y-75500000D03*
X52280000Y-138000000D03*
X85300000Y-138000000D03*
X100740000Y-23200000D03*
X107600000Y-28480000D03*
X47400000Y-129920000D03*
X107600000Y-38640000D03*
X74951438Y-103221522D03*
X107600000Y-41180000D03*
X77680000Y-138000000D03*
X65500000Y-123500000D03*
X107600000Y-48800000D03*
X65000000Y-111000000D03*
X107600000Y-76740000D03*
X47400000Y-101980000D03*
X107600000Y-112300000D03*
X47400000Y-58800000D03*
X107600000Y-130080000D03*
X47400000Y-79120000D03*
X107600000Y-84360000D03*
X65000000Y-113500000D03*
X47400000Y-89280000D03*
X107600000Y-99600000D03*
X65500000Y-128000000D03*
X47400000Y-112140000D03*
X47400000Y-81660000D03*
X107600000Y-64040000D03*
X107600000Y-114840000D03*
X107600000Y-94520000D03*
X47400000Y-109600000D03*
X49940000Y-23200000D03*
X47400000Y-41020000D03*
X89500000Y-103000000D03*
X64980000Y-138000000D03*
X107600000Y-25940000D03*
X60100000Y-23200000D03*
X92920000Y-138000000D03*
X55020000Y-23200000D03*
X103080000Y-138000000D03*
X47400000Y-46100000D03*
X107600000Y-58960000D03*
X65180000Y-23200000D03*
X47400000Y-137540000D03*
X107600000Y-102140000D03*
X47400000Y-28320000D03*
X80220000Y-138000000D03*
X47400000Y-35940000D03*
X80000000Y-78000000D03*
X107600000Y-117380000D03*
X77880000Y-23200000D03*
X47400000Y-68960000D03*
X105620000Y-138000000D03*
X47400000Y-61340000D03*
X47400000Y-53720000D03*
X72600000Y-138000000D03*
X62640000Y-23200000D03*
X67720000Y-23200000D03*
X47400000Y-71500000D03*
X107600000Y-43720000D03*
X47400000Y-30860000D03*
X47400000Y-76580000D03*
X47400000Y-119760000D03*
X90380000Y-138000000D03*
X49740000Y-138000000D03*
X79500000Y-96500000D03*
X107600000Y-71660000D03*
X107600000Y-46260000D03*
X105820000Y-23200000D03*
X47400000Y-63880000D03*
X107600000Y-33560000D03*
X107600000Y-137700000D03*
X107600000Y-97060000D03*
X65500000Y-120500000D03*
X107600000Y-69120000D03*
X65500000Y-125000000D03*
X95460000Y-138000000D03*
X74500000Y-94000000D03*
X91000000Y-103000000D03*
X54820000Y-138000000D03*
X78000000Y-53000000D03*
X75340000Y-23200000D03*
X78000000Y-56500000D03*
X90580000Y-23200000D03*
X52480000Y-23200000D03*
X107600000Y-122460000D03*
X98000000Y-138000000D03*
X47400000Y-117220000D03*
X47400000Y-56260000D03*
X47400000Y-51180000D03*
X93120000Y-23200000D03*
X57560000Y-23200000D03*
X47400000Y-66420000D03*
X100540000Y-138000000D03*
X82960000Y-23200000D03*
X107600000Y-132620000D03*
X87840000Y-138000000D03*
X47400000Y-91820000D03*
X107600000Y-79280000D03*
X95000000Y-130000000D03*
X47400000Y-114680000D03*
X75140000Y-138000000D03*
X47400000Y-84200000D03*
X47400000Y-86740000D03*
X47400000Y-38480000D03*
X47400000Y-124840000D03*
X62440000Y-138000000D03*
X107600000Y-107220000D03*
X84500000Y-95000000D03*
X47400000Y-132460000D03*
X47400000Y-33400000D03*
X47400000Y-104520000D03*
X58498562Y-86501438D03*
X107600000Y-23400000D03*
X47400000Y-74040000D03*
X79000000Y-129500000D03*
X107600000Y-109760000D03*
X107600000Y-74200000D03*
X78000000Y-52000000D03*
X47400000Y-107060000D03*
X107600000Y-81820000D03*
X107600000Y-91980000D03*
X95660000Y-23200000D03*
X107600000Y-36100000D03*
X107600000Y-66580000D03*
X82760000Y-138000000D03*
X57360000Y-138000000D03*
X107600000Y-135160000D03*
X101500000Y-130000000D03*
X107600000Y-119920000D03*
X47400000Y-127380000D03*
X47400000Y-94360000D03*
X107600000Y-53880000D03*
X107600000Y-31020000D03*
X47400000Y-48640000D03*
X76500000Y-117000000D03*
X70060000Y-138000000D03*
X76500000Y-52000000D03*
X74000000Y-125500000D03*
X107600000Y-86900000D03*
X69000000Y-126500000D03*
X72000000Y-126500000D03*
X107600000Y-127540000D03*
X47400000Y-122300000D03*
X47400000Y-96900000D03*
X107600000Y-125000000D03*
X107600000Y-56420000D03*
X103280000Y-23200000D03*
X72800000Y-23200000D03*
X107600000Y-104680000D03*
X85500000Y-23200000D03*
X85000000Y-121200000D03*
X107600000Y-51340000D03*
X67520000Y-138000000D03*
X70260000Y-23200000D03*
X47400000Y-43560000D03*
X56998562Y-86501438D03*
X84500000Y-77000000D03*
%TO.N,3V3_INT*%
X58500000Y-91518478D03*
X79500000Y-117000000D03*
X82000000Y-96500000D03*
X85000000Y-53500000D03*
X87000000Y-29000000D03*
X53200000Y-126500000D03*
X53200000Y-128200000D03*
X82000000Y-78000000D03*
X79500000Y-56000000D03*
X81000000Y-55000000D03*
X67000000Y-27000000D03*
X69500000Y-117000000D03*
X76500000Y-56000000D03*
X57018478Y-91518478D03*
%TO.N,PE5*%
X96767500Y-130000000D03*
%TO.N,PE3*%
X103250000Y-130250000D03*
%TO.N,PF6*%
X72500000Y-58000000D03*
%TO.N,PA5*%
X74200000Y-128300000D03*
%TO.N,IF_Q*%
X66000000Y-82500000D03*
%TO.N,Vref*%
X66500000Y-102000000D03*
X69000000Y-86000000D03*
%TO.N,Net-(U5-SW)*%
X74000000Y-50500000D03*
X76500000Y-46500000D03*
%TO.N,REFOUT*%
X75500000Y-43500000D03*
X69500000Y-49500000D03*
%TO.N,Net-(U5--IN)*%
X72500000Y-44000000D03*
X83500000Y-34000000D03*
%TO.N,Net-(U5-IAOUT)*%
X84000000Y-46500000D03*
X70500000Y-46500000D03*
%TD*%
%TA.AperFunction,Conductor*%
%TO.N,GND*%
G36*
X108566694Y-22243306D02*
G01*
X108585000Y-22287500D01*
X108585000Y-139002500D01*
X108566694Y-139046694D01*
X108522500Y-139065000D01*
X46417500Y-139065000D01*
X46373306Y-139046694D01*
X46355000Y-139002500D01*
X46355000Y-134368384D01*
X52992000Y-134368384D01*
X52992000Y-134631615D01*
X53026357Y-134892585D01*
X53026357Y-134892586D01*
X53094482Y-135146830D01*
X53195212Y-135390016D01*
X53195218Y-135390028D01*
X53326824Y-135617976D01*
X53411916Y-135728872D01*
X54282495Y-134858292D01*
X54291049Y-134878942D01*
X54378599Y-135009970D01*
X54490030Y-135121401D01*
X54621058Y-135208951D01*
X54641705Y-135217503D01*
X53771127Y-136088081D01*
X53882027Y-136173177D01*
X54109971Y-136304781D01*
X54109983Y-136304787D01*
X54353169Y-136405517D01*
X54353168Y-136405517D01*
X54607413Y-136473642D01*
X54868384Y-136507999D01*
X54868395Y-136508000D01*
X55131605Y-136508000D01*
X55131615Y-136507999D01*
X55392585Y-136473642D01*
X55392586Y-136473642D01*
X55646830Y-136405517D01*
X55890016Y-136304787D01*
X55890028Y-136304781D01*
X56117978Y-136173174D01*
X56117985Y-136173169D01*
X56228872Y-136088082D01*
X55358293Y-135217503D01*
X55378942Y-135208951D01*
X55509970Y-135121401D01*
X55621401Y-135009970D01*
X55708951Y-134878942D01*
X55717503Y-134858293D01*
X56588082Y-135728872D01*
X56673169Y-135617985D01*
X56673174Y-135617978D01*
X56804781Y-135390028D01*
X56804787Y-135390016D01*
X56905517Y-135146830D01*
X56973642Y-134892586D01*
X56973642Y-134892585D01*
X57007999Y-134631615D01*
X57008000Y-134631604D01*
X57008000Y-134368395D01*
X57007999Y-134368384D01*
X56973642Y-134107414D01*
X56973642Y-134107413D01*
X56905517Y-133853169D01*
X56804787Y-133609983D01*
X56804781Y-133609971D01*
X56673177Y-133382027D01*
X56588081Y-133271127D01*
X55717503Y-134141705D01*
X55708951Y-134121058D01*
X55621401Y-133990030D01*
X55509970Y-133878599D01*
X55378942Y-133791049D01*
X55358292Y-133782495D01*
X56228872Y-132911916D01*
X56117976Y-132826824D01*
X55890028Y-132695218D01*
X55890016Y-132695212D01*
X55646830Y-132594482D01*
X55646831Y-132594482D01*
X55392586Y-132526357D01*
X55131615Y-132492000D01*
X54868384Y-132492000D01*
X54607414Y-132526357D01*
X54607413Y-132526357D01*
X54353169Y-132594482D01*
X54109983Y-132695212D01*
X54109971Y-132695218D01*
X53882023Y-132826824D01*
X53771126Y-132911916D01*
X54641706Y-133782496D01*
X54621058Y-133791049D01*
X54490030Y-133878599D01*
X54378599Y-133990030D01*
X54291049Y-134121058D01*
X54282496Y-134141706D01*
X53411916Y-133271126D01*
X53326824Y-133382023D01*
X53195218Y-133609971D01*
X53195212Y-133609983D01*
X53094482Y-133853169D01*
X53026357Y-134107413D01*
X53026357Y-134107414D01*
X52992000Y-134368384D01*
X46355000Y-134368384D01*
X46355000Y-129926080D01*
X96017000Y-129926080D01*
X96017000Y-130073919D01*
X96045841Y-130218911D01*
X96045841Y-130218912D01*
X96102416Y-130355495D01*
X96102417Y-130355497D01*
X96178199Y-130468913D01*
X96184549Y-130478416D01*
X96289084Y-130582951D01*
X96412005Y-130665084D01*
X96548587Y-130721658D01*
X96693582Y-130750500D01*
X96841418Y-130750500D01*
X96986413Y-130721658D01*
X97122995Y-130665084D01*
X97245916Y-130582951D01*
X97350451Y-130478416D01*
X97432584Y-130355495D01*
X97489158Y-130218913D01*
X97497678Y-130176080D01*
X102499500Y-130176080D01*
X102499500Y-130323919D01*
X102528341Y-130468911D01*
X102528341Y-130468912D01*
X102584916Y-130605495D01*
X102584917Y-130605497D01*
X102624731Y-130665083D01*
X102667049Y-130728416D01*
X102771584Y-130832951D01*
X102894505Y-130915084D01*
X103031087Y-130971658D01*
X103176082Y-131000500D01*
X103323918Y-131000500D01*
X103468913Y-130971658D01*
X103605495Y-130915084D01*
X103728416Y-130832951D01*
X103832951Y-130728416D01*
X103915084Y-130605495D01*
X103971658Y-130468913D01*
X104000500Y-130323918D01*
X104000500Y-130176082D01*
X103971658Y-130031087D01*
X103915084Y-129894505D01*
X103832951Y-129771584D01*
X103728416Y-129667049D01*
X103728415Y-129667048D01*
X103605497Y-129584917D01*
X103605495Y-129584916D01*
X103468911Y-129528341D01*
X103323919Y-129499500D01*
X103323918Y-129499500D01*
X103176082Y-129499500D01*
X103176080Y-129499500D01*
X103031088Y-129528341D01*
X103031087Y-129528341D01*
X102894504Y-129584916D01*
X102894502Y-129584917D01*
X102771584Y-129667048D01*
X102667048Y-129771584D01*
X102584917Y-129894502D01*
X102584916Y-129894504D01*
X102528341Y-130031087D01*
X102528341Y-130031088D01*
X102499500Y-130176080D01*
X97497678Y-130176080D01*
X97518000Y-130073918D01*
X97518000Y-129926082D01*
X97489158Y-129781087D01*
X97432584Y-129644505D01*
X97350451Y-129521584D01*
X97245916Y-129417049D01*
X97245915Y-129417048D01*
X97122997Y-129334917D01*
X97122995Y-129334916D01*
X96986411Y-129278341D01*
X96841419Y-129249500D01*
X96841418Y-129249500D01*
X96693582Y-129249500D01*
X96693580Y-129249500D01*
X96548588Y-129278341D01*
X96548587Y-129278341D01*
X96412004Y-129334916D01*
X96412002Y-129334917D01*
X96289084Y-129417048D01*
X96184548Y-129521584D01*
X96102417Y-129644502D01*
X96102416Y-129644504D01*
X96045841Y-129781087D01*
X96045841Y-129781088D01*
X96017000Y-129926080D01*
X46355000Y-129926080D01*
X46355000Y-128126080D01*
X52449500Y-128126080D01*
X52449500Y-128273919D01*
X52478341Y-128418911D01*
X52478341Y-128418912D01*
X52534916Y-128555495D01*
X52534917Y-128555497D01*
X52601735Y-128655497D01*
X52617049Y-128678416D01*
X52721584Y-128782951D01*
X52844505Y-128865084D01*
X52981087Y-128921658D01*
X53126082Y-128950500D01*
X53273918Y-128950500D01*
X53418913Y-128921658D01*
X53555495Y-128865084D01*
X53678416Y-128782951D01*
X53782951Y-128678416D01*
X53865084Y-128555495D01*
X53921658Y-128418913D01*
X53950500Y-128273918D01*
X53950500Y-128226080D01*
X73449500Y-128226080D01*
X73449500Y-128373919D01*
X73478341Y-128518911D01*
X73478341Y-128518912D01*
X73534916Y-128655495D01*
X73534917Y-128655497D01*
X73550231Y-128678416D01*
X73617049Y-128778416D01*
X73721584Y-128882951D01*
X73844505Y-128965084D01*
X73981087Y-129021658D01*
X74126082Y-129050500D01*
X74273918Y-129050500D01*
X74418913Y-129021658D01*
X74555495Y-128965084D01*
X74678416Y-128882951D01*
X74782951Y-128778416D01*
X74865084Y-128655495D01*
X74921658Y-128518913D01*
X74950500Y-128373918D01*
X74950500Y-128226082D01*
X74921658Y-128081087D01*
X74865084Y-127944505D01*
X74782951Y-127821584D01*
X74678416Y-127717049D01*
X74678415Y-127717048D01*
X74555497Y-127634917D01*
X74555495Y-127634916D01*
X74418911Y-127578341D01*
X74273919Y-127549500D01*
X74273918Y-127549500D01*
X74126082Y-127549500D01*
X74126080Y-127549500D01*
X73981088Y-127578341D01*
X73981087Y-127578341D01*
X73844504Y-127634916D01*
X73844502Y-127634917D01*
X73721584Y-127717048D01*
X73617048Y-127821584D01*
X73534917Y-127944502D01*
X73534916Y-127944504D01*
X73478341Y-128081087D01*
X73478341Y-128081088D01*
X73449500Y-128226080D01*
X53950500Y-128226080D01*
X53950500Y-128126082D01*
X53921658Y-127981087D01*
X53865084Y-127844505D01*
X53782951Y-127721584D01*
X53678416Y-127617049D01*
X53620487Y-127578342D01*
X53555497Y-127534917D01*
X53555495Y-127534916D01*
X53418911Y-127478341D01*
X53273919Y-127449500D01*
X53273918Y-127449500D01*
X53126082Y-127449500D01*
X53126080Y-127449500D01*
X52981088Y-127478341D01*
X52981087Y-127478341D01*
X52844504Y-127534916D01*
X52844502Y-127534917D01*
X52721584Y-127617048D01*
X52617048Y-127721584D01*
X52534917Y-127844502D01*
X52534916Y-127844504D01*
X52478341Y-127981087D01*
X52478341Y-127981088D01*
X52449500Y-128126080D01*
X46355000Y-128126080D01*
X46355000Y-126426080D01*
X52449500Y-126426080D01*
X52449500Y-126573919D01*
X52478341Y-126718911D01*
X52478341Y-126718912D01*
X52534916Y-126855495D01*
X52617049Y-126978416D01*
X52721584Y-127082951D01*
X52844505Y-127165084D01*
X52981087Y-127221658D01*
X53126082Y-127250500D01*
X53273918Y-127250500D01*
X53418913Y-127221658D01*
X53555495Y-127165084D01*
X53678416Y-127082951D01*
X53782951Y-126978416D01*
X53865084Y-126855495D01*
X53921658Y-126718913D01*
X53950500Y-126573918D01*
X53950500Y-126426082D01*
X53921658Y-126281087D01*
X53865084Y-126144505D01*
X53782951Y-126021584D01*
X53678416Y-125917049D01*
X53622078Y-125879405D01*
X53555497Y-125834917D01*
X53555495Y-125834916D01*
X53418911Y-125778341D01*
X53273919Y-125749500D01*
X53273918Y-125749500D01*
X53126082Y-125749500D01*
X53126080Y-125749500D01*
X52981088Y-125778341D01*
X52981087Y-125778341D01*
X52844504Y-125834916D01*
X52844502Y-125834917D01*
X52721584Y-125917048D01*
X52617048Y-126021584D01*
X52534917Y-126144502D01*
X52534916Y-126144504D01*
X52478341Y-126281087D01*
X52478341Y-126281088D01*
X52449500Y-126426080D01*
X46355000Y-126426080D01*
X46355000Y-124103507D01*
X53867000Y-124103507D01*
X53867000Y-124332984D01*
X53896952Y-124560486D01*
X53896952Y-124560488D01*
X53956340Y-124782127D01*
X54044153Y-124994128D01*
X54044156Y-124994134D01*
X54158889Y-125192858D01*
X54298581Y-125374907D01*
X54460839Y-125537165D01*
X54642888Y-125676857D01*
X54841612Y-125791590D01*
X55053613Y-125879404D01*
X55275262Y-125938794D01*
X55502766Y-125968746D01*
X55502772Y-125968746D01*
X55732228Y-125968746D01*
X55732234Y-125968746D01*
X55959738Y-125938794D01*
X56181387Y-125879404D01*
X56393388Y-125791590D01*
X56592112Y-125676857D01*
X56774161Y-125537165D01*
X56936419Y-125374907D01*
X57076111Y-125192858D01*
X57190844Y-124994134D01*
X57278658Y-124782133D01*
X57338048Y-124560484D01*
X57368000Y-124332980D01*
X57368000Y-124103512D01*
X57338048Y-123876008D01*
X57278658Y-123654359D01*
X57190844Y-123442358D01*
X57076111Y-123243634D01*
X56936419Y-123061585D01*
X56774161Y-122899327D01*
X56592112Y-122759635D01*
X56575816Y-122750226D01*
X56393394Y-122644905D01*
X56393382Y-122644899D01*
X56284263Y-122599700D01*
X56181387Y-122557088D01*
X56181383Y-122557087D01*
X56181381Y-122557086D01*
X56181382Y-122557086D01*
X55959741Y-122497698D01*
X55732238Y-122467746D01*
X55732234Y-122467746D01*
X55502766Y-122467746D01*
X55502761Y-122467746D01*
X55275259Y-122497698D01*
X55275257Y-122497698D01*
X55053618Y-122557086D01*
X54841617Y-122644899D01*
X54841605Y-122644905D01*
X54642894Y-122759631D01*
X54642891Y-122759633D01*
X54642888Y-122759635D01*
X54546323Y-122833732D01*
X54460837Y-122899328D01*
X54298582Y-123061583D01*
X54232986Y-123147069D01*
X54158889Y-123243634D01*
X54158887Y-123243637D01*
X54158885Y-123243640D01*
X54044159Y-123442351D01*
X54044153Y-123442363D01*
X53956340Y-123654364D01*
X53896952Y-123876003D01*
X53896952Y-123876005D01*
X53867000Y-124103507D01*
X46355000Y-124103507D01*
X46355000Y-116926080D01*
X68749500Y-116926080D01*
X68749500Y-117073919D01*
X68778341Y-117218911D01*
X68778341Y-117218912D01*
X68834916Y-117355495D01*
X68917049Y-117478416D01*
X69021584Y-117582951D01*
X69144505Y-117665084D01*
X69281087Y-117721658D01*
X69426082Y-117750500D01*
X69573918Y-117750500D01*
X69718913Y-117721658D01*
X69855495Y-117665084D01*
X69978416Y-117582951D01*
X70082951Y-117478416D01*
X70165084Y-117355495D01*
X70221658Y-117218913D01*
X70250500Y-117073918D01*
X70250500Y-116926082D01*
X70250500Y-116926080D01*
X78749500Y-116926080D01*
X78749500Y-117073919D01*
X78778341Y-117218911D01*
X78778341Y-117218912D01*
X78834916Y-117355495D01*
X78917049Y-117478416D01*
X79021584Y-117582951D01*
X79144505Y-117665084D01*
X79281087Y-117721658D01*
X79426082Y-117750500D01*
X79573918Y-117750500D01*
X79718913Y-117721658D01*
X79855495Y-117665084D01*
X79978416Y-117582951D01*
X80082951Y-117478416D01*
X80165084Y-117355495D01*
X80221658Y-117218913D01*
X80250500Y-117073918D01*
X80250500Y-116926082D01*
X80221658Y-116781087D01*
X80165084Y-116644505D01*
X80082951Y-116521584D01*
X79978416Y-116417049D01*
X79978415Y-116417048D01*
X79855497Y-116334917D01*
X79855495Y-116334916D01*
X79718911Y-116278341D01*
X79573919Y-116249500D01*
X79573918Y-116249500D01*
X79426082Y-116249500D01*
X79426080Y-116249500D01*
X79281088Y-116278341D01*
X79281087Y-116278341D01*
X79144504Y-116334916D01*
X79144502Y-116334917D01*
X79021584Y-116417048D01*
X78917048Y-116521584D01*
X78834917Y-116644502D01*
X78834916Y-116644504D01*
X78778341Y-116781087D01*
X78778341Y-116781088D01*
X78749500Y-116926080D01*
X70250500Y-116926080D01*
X70221658Y-116781087D01*
X70165084Y-116644505D01*
X70082951Y-116521584D01*
X69978416Y-116417049D01*
X69978415Y-116417048D01*
X69855497Y-116334917D01*
X69855495Y-116334916D01*
X69718911Y-116278341D01*
X69573919Y-116249500D01*
X69573918Y-116249500D01*
X69426082Y-116249500D01*
X69426080Y-116249500D01*
X69281088Y-116278341D01*
X69281087Y-116278341D01*
X69144504Y-116334916D01*
X69144502Y-116334917D01*
X69021584Y-116417048D01*
X68917048Y-116521584D01*
X68834917Y-116644502D01*
X68834916Y-116644504D01*
X68778341Y-116781087D01*
X68778341Y-116781088D01*
X68749500Y-116926080D01*
X46355000Y-116926080D01*
X46355000Y-112103507D01*
X54017000Y-112103507D01*
X54017000Y-112332984D01*
X54046952Y-112560486D01*
X54046952Y-112560488D01*
X54106340Y-112782127D01*
X54106342Y-112782133D01*
X54148954Y-112885009D01*
X54194153Y-112994128D01*
X54194159Y-112994140D01*
X54259914Y-113108031D01*
X54308889Y-113192858D01*
X54448581Y-113374907D01*
X54610839Y-113537165D01*
X54792888Y-113676857D01*
X54991612Y-113791590D01*
X55203613Y-113879404D01*
X55425262Y-113938794D01*
X55652766Y-113968746D01*
X55652772Y-113968746D01*
X55882228Y-113968746D01*
X55882234Y-113968746D01*
X56109738Y-113938794D01*
X56331387Y-113879404D01*
X56543388Y-113791590D01*
X56742112Y-113676857D01*
X56924161Y-113537165D01*
X57076065Y-113385261D01*
X70749500Y-113385261D01*
X70749500Y-113614738D01*
X70779452Y-113842240D01*
X70779452Y-113842242D01*
X70838840Y-114063881D01*
X70926653Y-114275882D01*
X70926656Y-114275888D01*
X71041389Y-114474612D01*
X71181081Y-114656661D01*
X71343339Y-114818919D01*
X71525388Y-114958611D01*
X71724112Y-115073344D01*
X71936113Y-115161158D01*
X72157762Y-115220548D01*
X72385266Y-115250500D01*
X72385272Y-115250500D01*
X72614728Y-115250500D01*
X72614734Y-115250500D01*
X72842238Y-115220548D01*
X73063887Y-115161158D01*
X73275888Y-115073344D01*
X73474612Y-114958611D01*
X73656661Y-114818919D01*
X73818919Y-114656661D01*
X73958611Y-114474612D01*
X74073344Y-114275888D01*
X74161158Y-114063887D01*
X74220548Y-113842238D01*
X74250500Y-113614734D01*
X74250500Y-113385266D01*
X74250499Y-113385261D01*
X80749500Y-113385261D01*
X80749500Y-113614738D01*
X80779452Y-113842240D01*
X80779452Y-113842242D01*
X80838840Y-114063881D01*
X80926653Y-114275882D01*
X80926656Y-114275888D01*
X81041389Y-114474612D01*
X81181081Y-114656661D01*
X81343339Y-114818919D01*
X81525388Y-114958611D01*
X81724112Y-115073344D01*
X81936113Y-115161158D01*
X82157762Y-115220548D01*
X82385266Y-115250500D01*
X82385272Y-115250500D01*
X82614728Y-115250500D01*
X82614734Y-115250500D01*
X82842238Y-115220548D01*
X83063887Y-115161158D01*
X83275888Y-115073344D01*
X83474612Y-114958611D01*
X83656661Y-114818919D01*
X83818919Y-114656661D01*
X83958611Y-114474612D01*
X84073344Y-114275888D01*
X84161158Y-114063887D01*
X84220548Y-113842238D01*
X84250500Y-113614734D01*
X84250500Y-113385266D01*
X84220548Y-113157762D01*
X84198898Y-113076964D01*
X84183983Y-113021297D01*
X84161158Y-112936113D01*
X84073344Y-112724112D01*
X83958611Y-112525388D01*
X83818919Y-112343339D01*
X83656661Y-112181081D01*
X83474612Y-112041389D01*
X83402924Y-112000000D01*
X83275894Y-111926659D01*
X83275882Y-111926653D01*
X83153601Y-111876003D01*
X83063887Y-111838842D01*
X83063883Y-111838841D01*
X83063881Y-111838840D01*
X83063882Y-111838840D01*
X82842241Y-111779452D01*
X82614738Y-111749500D01*
X82614734Y-111749500D01*
X82385266Y-111749500D01*
X82385261Y-111749500D01*
X82157759Y-111779452D01*
X82157757Y-111779452D01*
X81936118Y-111838840D01*
X81724117Y-111926653D01*
X81724105Y-111926659D01*
X81525394Y-112041385D01*
X81525391Y-112041387D01*
X81525388Y-112041389D01*
X81428823Y-112115486D01*
X81343337Y-112181082D01*
X81181082Y-112343337D01*
X81127340Y-112413375D01*
X81041389Y-112525388D01*
X81041387Y-112525391D01*
X81041385Y-112525394D01*
X80926659Y-112724105D01*
X80926653Y-112724117D01*
X80838840Y-112936118D01*
X80779452Y-113157757D01*
X80779452Y-113157759D01*
X80749500Y-113385261D01*
X74250499Y-113385261D01*
X74220548Y-113157762D01*
X74198898Y-113076964D01*
X74183983Y-113021297D01*
X74161158Y-112936113D01*
X74073344Y-112724112D01*
X73958611Y-112525388D01*
X73818919Y-112343339D01*
X73656661Y-112181081D01*
X73474612Y-112041389D01*
X73402924Y-112000000D01*
X73275894Y-111926659D01*
X73275882Y-111926653D01*
X73153601Y-111876003D01*
X73063887Y-111838842D01*
X73063883Y-111838841D01*
X73063881Y-111838840D01*
X73063882Y-111838840D01*
X72842241Y-111779452D01*
X72614738Y-111749500D01*
X72614734Y-111749500D01*
X72385266Y-111749500D01*
X72385261Y-111749500D01*
X72157759Y-111779452D01*
X72157757Y-111779452D01*
X71936118Y-111838840D01*
X71724117Y-111926653D01*
X71724105Y-111926659D01*
X71525394Y-112041385D01*
X71525391Y-112041387D01*
X71525388Y-112041389D01*
X71428823Y-112115486D01*
X71343337Y-112181082D01*
X71181082Y-112343337D01*
X71127340Y-112413375D01*
X71041389Y-112525388D01*
X71041387Y-112525391D01*
X71041385Y-112525394D01*
X70926659Y-112724105D01*
X70926653Y-112724117D01*
X70838840Y-112936118D01*
X70779452Y-113157757D01*
X70779452Y-113157759D01*
X70749500Y-113385261D01*
X57076065Y-113385261D01*
X57086419Y-113374907D01*
X57226111Y-113192858D01*
X57340844Y-112994134D01*
X57428658Y-112782133D01*
X57488048Y-112560484D01*
X57518000Y-112332980D01*
X57518000Y-112103512D01*
X57488048Y-111876008D01*
X57464534Y-111788253D01*
X57428661Y-111654370D01*
X57428659Y-111654364D01*
X57428658Y-111654359D01*
X57416632Y-111625325D01*
X88779500Y-111625325D01*
X88779500Y-113374674D01*
X88794033Y-113447739D01*
X88794034Y-113447741D01*
X88821716Y-113489170D01*
X88849399Y-113530601D01*
X88911403Y-113572030D01*
X88932258Y-113585965D01*
X88932260Y-113585966D01*
X89005326Y-113600500D01*
X90754674Y-113600500D01*
X90827740Y-113585966D01*
X90910601Y-113530601D01*
X90965966Y-113447740D01*
X90980500Y-113374674D01*
X90980500Y-112413391D01*
X91319500Y-112413391D01*
X91319500Y-112586608D01*
X91319501Y-112586624D01*
X91346597Y-112757698D01*
X91346597Y-112757699D01*
X91400126Y-112922443D01*
X91400130Y-112922451D01*
X91478769Y-113076790D01*
X91580585Y-113216927D01*
X91580592Y-113216935D01*
X91703064Y-113339407D01*
X91703072Y-113339414D01*
X91843212Y-113441232D01*
X91997555Y-113519873D01*
X92162299Y-113573402D01*
X92234407Y-113584822D01*
X92333375Y-113600498D01*
X92333381Y-113600498D01*
X92333389Y-113600500D01*
X92333391Y-113600500D01*
X92506609Y-113600500D01*
X92506611Y-113600500D01*
X92677701Y-113573402D01*
X92842445Y-113519873D01*
X92996788Y-113441232D01*
X93136928Y-113339414D01*
X93259414Y-113216928D01*
X93361232Y-113076788D01*
X93439873Y-112922445D01*
X93493402Y-112757701D01*
X93520500Y-112586611D01*
X93520500Y-112413391D01*
X93859500Y-112413391D01*
X93859500Y-112586608D01*
X93859501Y-112586624D01*
X93886597Y-112757698D01*
X93886597Y-112757699D01*
X93940126Y-112922443D01*
X93940130Y-112922451D01*
X94018769Y-113076790D01*
X94120585Y-113216927D01*
X94120592Y-113216935D01*
X94243064Y-113339407D01*
X94243072Y-113339414D01*
X94383212Y-113441232D01*
X94537555Y-113519873D01*
X94702299Y-113573402D01*
X94774407Y-113584822D01*
X94873375Y-113600498D01*
X94873381Y-113600498D01*
X94873389Y-113600500D01*
X94873391Y-113600500D01*
X95046609Y-113600500D01*
X95046611Y-113600500D01*
X95217701Y-113573402D01*
X95382445Y-113519873D01*
X95536788Y-113441232D01*
X95676928Y-113339414D01*
X95799414Y-113216928D01*
X95901232Y-113076788D01*
X95979873Y-112922445D01*
X96033402Y-112757701D01*
X96060500Y-112586611D01*
X96060500Y-112413391D01*
X96399500Y-112413391D01*
X96399500Y-112586608D01*
X96399501Y-112586624D01*
X96426597Y-112757698D01*
X96426597Y-112757699D01*
X96480126Y-112922443D01*
X96480130Y-112922451D01*
X96558769Y-113076790D01*
X96660585Y-113216927D01*
X96660592Y-113216935D01*
X96783064Y-113339407D01*
X96783072Y-113339414D01*
X96923212Y-113441232D01*
X97077555Y-113519873D01*
X97242299Y-113573402D01*
X97314407Y-113584822D01*
X97413375Y-113600498D01*
X97413381Y-113600498D01*
X97413389Y-113600500D01*
X97413391Y-113600500D01*
X97586609Y-113600500D01*
X97586611Y-113600500D01*
X97757701Y-113573402D01*
X97922445Y-113519873D01*
X98076788Y-113441232D01*
X98216928Y-113339414D01*
X98339414Y-113216928D01*
X98441232Y-113076788D01*
X98519873Y-112922445D01*
X98573402Y-112757701D01*
X98577915Y-112729206D01*
X98602908Y-112688422D01*
X98649422Y-112677254D01*
X98690208Y-112702248D01*
X98701375Y-112729207D01*
X98715438Y-112817998D01*
X98715439Y-112818001D01*
X98781490Y-113021285D01*
X98781495Y-113021297D01*
X98878532Y-113211744D01*
X98878535Y-113211749D01*
X98916621Y-113264168D01*
X99555841Y-112624947D01*
X99574075Y-112692993D01*
X99639901Y-112807007D01*
X99732993Y-112900099D01*
X99847007Y-112965925D01*
X99915051Y-112984157D01*
X99275830Y-113623377D01*
X99328253Y-113661466D01*
X99518702Y-113758504D01*
X99518714Y-113758509D01*
X99721998Y-113824560D01*
X99722003Y-113824561D01*
X99933109Y-113857998D01*
X99933125Y-113858000D01*
X100146875Y-113858000D01*
X100146890Y-113857998D01*
X100357996Y-113824561D01*
X100358001Y-113824560D01*
X100561285Y-113758509D01*
X100561297Y-113758504D01*
X100751738Y-113661470D01*
X100751745Y-113661466D01*
X100804168Y-113623377D01*
X100164948Y-112984157D01*
X100232993Y-112965925D01*
X100347007Y-112900099D01*
X100440099Y-112807007D01*
X100505925Y-112692993D01*
X100524157Y-112624948D01*
X101163377Y-113264168D01*
X101201466Y-113211745D01*
X101201470Y-113211738D01*
X101254312Y-113108031D01*
X101290686Y-113076964D01*
X101338374Y-113080717D01*
X101365688Y-113108031D01*
X101418532Y-113211744D01*
X101418535Y-113211749D01*
X101456621Y-113264168D01*
X102095841Y-112624947D01*
X102114075Y-112692993D01*
X102179901Y-112807007D01*
X102272993Y-112900099D01*
X102387007Y-112965925D01*
X102455051Y-112984157D01*
X101815830Y-113623377D01*
X101868253Y-113661466D01*
X102058702Y-113758504D01*
X102058714Y-113758509D01*
X102261998Y-113824560D01*
X102262003Y-113824561D01*
X102473109Y-113857998D01*
X102473125Y-113858000D01*
X102686875Y-113858000D01*
X102686890Y-113857998D01*
X102897996Y-113824561D01*
X102898001Y-113824560D01*
X103101285Y-113758509D01*
X103101297Y-113758504D01*
X103291738Y-113661470D01*
X103291745Y-113661466D01*
X103344168Y-113623377D01*
X102704948Y-112984157D01*
X102772993Y-112965925D01*
X102887007Y-112900099D01*
X102980099Y-112807007D01*
X103045925Y-112692993D01*
X103064157Y-112624948D01*
X103703377Y-113264168D01*
X103741466Y-113211745D01*
X103741470Y-113211738D01*
X103838504Y-113021297D01*
X103838509Y-113021285D01*
X103904560Y-112818001D01*
X103904561Y-112817996D01*
X103937998Y-112606890D01*
X103938000Y-112606874D01*
X103938000Y-112393125D01*
X103937998Y-112393109D01*
X103904561Y-112182003D01*
X103904560Y-112181998D01*
X103838509Y-111978714D01*
X103838504Y-111978702D01*
X103741466Y-111788253D01*
X103703377Y-111735830D01*
X103064157Y-112375050D01*
X103045925Y-112307007D01*
X102980099Y-112192993D01*
X102887007Y-112099901D01*
X102772993Y-112034075D01*
X102704947Y-112015841D01*
X103344168Y-111376621D01*
X103291749Y-111338535D01*
X103291744Y-111338532D01*
X103101297Y-111241495D01*
X103101285Y-111241490D01*
X102898001Y-111175439D01*
X102897996Y-111175438D01*
X102686890Y-111142001D01*
X102686875Y-111142000D01*
X102473125Y-111142000D01*
X102473109Y-111142001D01*
X102262003Y-111175438D01*
X102261998Y-111175439D01*
X102058714Y-111241490D01*
X102058702Y-111241495D01*
X101868255Y-111338533D01*
X101815831Y-111376621D01*
X102455052Y-112015842D01*
X102387007Y-112034075D01*
X102272993Y-112099901D01*
X102179901Y-112192993D01*
X102114075Y-112307007D01*
X102095842Y-112375052D01*
X101456621Y-111735831D01*
X101418533Y-111788255D01*
X101365688Y-111891969D01*
X101329313Y-111923036D01*
X101281626Y-111919283D01*
X101254312Y-111891969D01*
X101201466Y-111788253D01*
X101163377Y-111735830D01*
X100524157Y-112375050D01*
X100505925Y-112307007D01*
X100440099Y-112192993D01*
X100347007Y-112099901D01*
X100232993Y-112034075D01*
X100164947Y-112015841D01*
X100804168Y-111376621D01*
X100751749Y-111338535D01*
X100751744Y-111338532D01*
X100561297Y-111241495D01*
X100561285Y-111241490D01*
X100358001Y-111175439D01*
X100357996Y-111175438D01*
X100146890Y-111142001D01*
X100146875Y-111142000D01*
X99933125Y-111142000D01*
X99933109Y-111142001D01*
X99722003Y-111175438D01*
X99721998Y-111175439D01*
X99518714Y-111241490D01*
X99518702Y-111241495D01*
X99328255Y-111338533D01*
X99275831Y-111376621D01*
X99915052Y-112015842D01*
X99847007Y-112034075D01*
X99732993Y-112099901D01*
X99639901Y-112192993D01*
X99574075Y-112307007D01*
X99555842Y-112375052D01*
X98916621Y-111735831D01*
X98878533Y-111788255D01*
X98781495Y-111978702D01*
X98781490Y-111978714D01*
X98715439Y-112181998D01*
X98715438Y-112182001D01*
X98701375Y-112270792D01*
X98676381Y-112311578D01*
X98629867Y-112322744D01*
X98589081Y-112297750D01*
X98577915Y-112270791D01*
X98573402Y-112242301D01*
X98573402Y-112242300D01*
X98527134Y-112099901D01*
X98519873Y-112077555D01*
X98441232Y-111923212D01*
X98438377Y-111919283D01*
X98339414Y-111783072D01*
X98339407Y-111783064D01*
X98216935Y-111660592D01*
X98216927Y-111660585D01*
X98076790Y-111558769D01*
X97922451Y-111480130D01*
X97922443Y-111480126D01*
X97886622Y-111468487D01*
X97806205Y-111442358D01*
X97757699Y-111426597D01*
X97586624Y-111399501D01*
X97586612Y-111399500D01*
X97586611Y-111399500D01*
X97413389Y-111399500D01*
X97413387Y-111399500D01*
X97413375Y-111399501D01*
X97242301Y-111426597D01*
X97242300Y-111426597D01*
X97077556Y-111480126D01*
X97077548Y-111480130D01*
X96923209Y-111558769D01*
X96783072Y-111660585D01*
X96783064Y-111660592D01*
X96660592Y-111783064D01*
X96660585Y-111783072D01*
X96558769Y-111923209D01*
X96480130Y-112077548D01*
X96480126Y-112077556D01*
X96426597Y-112242300D01*
X96426597Y-112242301D01*
X96399501Y-112413375D01*
X96399500Y-112413391D01*
X96060500Y-112413391D01*
X96060500Y-112413389D01*
X96057290Y-112393125D01*
X96043651Y-112307007D01*
X96033402Y-112242299D01*
X95979873Y-112077555D01*
X95901232Y-111923212D01*
X95898377Y-111919283D01*
X95799414Y-111783072D01*
X95799407Y-111783064D01*
X95676935Y-111660592D01*
X95676927Y-111660585D01*
X95536790Y-111558769D01*
X95382451Y-111480130D01*
X95382443Y-111480126D01*
X95217699Y-111426597D01*
X95046624Y-111399501D01*
X95046612Y-111399500D01*
X95046611Y-111399500D01*
X94873389Y-111399500D01*
X94873387Y-111399500D01*
X94873375Y-111399501D01*
X94702301Y-111426597D01*
X94702300Y-111426597D01*
X94537556Y-111480126D01*
X94537548Y-111480130D01*
X94383209Y-111558769D01*
X94243072Y-111660585D01*
X94243064Y-111660592D01*
X94120592Y-111783064D01*
X94120585Y-111783072D01*
X94018769Y-111923209D01*
X93940130Y-112077548D01*
X93940126Y-112077556D01*
X93886597Y-112242300D01*
X93886597Y-112242301D01*
X93859501Y-112413375D01*
X93859500Y-112413391D01*
X93520500Y-112413391D01*
X93520500Y-112413389D01*
X93517290Y-112393125D01*
X93503651Y-112307007D01*
X93493402Y-112242299D01*
X93439873Y-112077555D01*
X93361232Y-111923212D01*
X93358377Y-111919283D01*
X93259414Y-111783072D01*
X93259407Y-111783064D01*
X93136935Y-111660592D01*
X93136927Y-111660585D01*
X92996790Y-111558769D01*
X92842451Y-111480130D01*
X92842443Y-111480126D01*
X92677699Y-111426597D01*
X92506624Y-111399501D01*
X92506612Y-111399500D01*
X92506611Y-111399500D01*
X92333389Y-111399500D01*
X92333387Y-111399500D01*
X92333375Y-111399501D01*
X92162301Y-111426597D01*
X92162300Y-111426597D01*
X91997556Y-111480126D01*
X91997548Y-111480130D01*
X91843209Y-111558769D01*
X91703072Y-111660585D01*
X91703064Y-111660592D01*
X91580592Y-111783064D01*
X91580585Y-111783072D01*
X91478769Y-111923209D01*
X91400130Y-112077548D01*
X91400126Y-112077556D01*
X91346597Y-112242300D01*
X91346597Y-112242301D01*
X91319501Y-112413375D01*
X91319500Y-112413391D01*
X90980500Y-112413391D01*
X90980500Y-111625326D01*
X90965966Y-111552260D01*
X90910601Y-111469399D01*
X90846544Y-111426598D01*
X90827741Y-111414034D01*
X90827739Y-111414033D01*
X90754674Y-111399500D01*
X89005326Y-111399500D01*
X88932260Y-111414033D01*
X88932258Y-111414034D01*
X88849399Y-111469399D01*
X88794034Y-111552258D01*
X88794033Y-111552260D01*
X88779500Y-111625325D01*
X57416632Y-111625325D01*
X57340844Y-111442358D01*
X57226111Y-111243634D01*
X57086419Y-111061585D01*
X56924161Y-110899327D01*
X56742112Y-110759635D01*
X56725816Y-110750226D01*
X56543394Y-110644905D01*
X56543382Y-110644899D01*
X56434263Y-110599700D01*
X56331387Y-110557088D01*
X56331383Y-110557087D01*
X56331381Y-110557086D01*
X56331382Y-110557086D01*
X56109741Y-110497698D01*
X55882238Y-110467746D01*
X55882234Y-110467746D01*
X55652766Y-110467746D01*
X55652761Y-110467746D01*
X55425259Y-110497698D01*
X55425257Y-110497698D01*
X55203618Y-110557086D01*
X54991617Y-110644899D01*
X54991605Y-110644905D01*
X54792894Y-110759631D01*
X54792891Y-110759633D01*
X54792888Y-110759635D01*
X54696323Y-110833732D01*
X54610837Y-110899328D01*
X54448582Y-111061583D01*
X54386876Y-111142000D01*
X54308889Y-111243634D01*
X54308887Y-111243637D01*
X54308885Y-111243640D01*
X54194159Y-111442351D01*
X54194153Y-111442363D01*
X54106340Y-111654364D01*
X54046952Y-111876003D01*
X54046952Y-111876005D01*
X54017000Y-112103507D01*
X46355000Y-112103507D01*
X46355000Y-105805325D01*
X52239500Y-105805325D01*
X52239500Y-107554674D01*
X52254033Y-107627739D01*
X52254034Y-107627741D01*
X52281716Y-107669170D01*
X52309399Y-107710601D01*
X52371403Y-107752030D01*
X52392258Y-107765965D01*
X52392260Y-107765966D01*
X52465326Y-107780500D01*
X54214674Y-107780500D01*
X54287740Y-107765966D01*
X54370601Y-107710601D01*
X54425966Y-107627740D01*
X54440500Y-107554674D01*
X54440500Y-105805326D01*
X54425966Y-105732260D01*
X54370601Y-105649399D01*
X54329170Y-105621716D01*
X54287741Y-105594034D01*
X54287739Y-105594033D01*
X54214674Y-105579500D01*
X52465326Y-105579500D01*
X52392260Y-105594033D01*
X52392258Y-105594034D01*
X52309399Y-105649399D01*
X52254034Y-105732258D01*
X52254033Y-105732260D01*
X52239500Y-105805325D01*
X46355000Y-105805325D01*
X46355000Y-104053391D01*
X52239500Y-104053391D01*
X52239500Y-104226608D01*
X52239501Y-104226624D01*
X52266597Y-104397698D01*
X52266597Y-104397699D01*
X52320126Y-104562443D01*
X52320130Y-104562451D01*
X52398769Y-104716790D01*
X52500585Y-104856927D01*
X52500592Y-104856935D01*
X52623064Y-104979407D01*
X52623072Y-104979414D01*
X52763212Y-105081232D01*
X52917555Y-105159873D01*
X53082299Y-105213402D01*
X53154407Y-105224822D01*
X53253375Y-105240498D01*
X53253381Y-105240498D01*
X53253389Y-105240500D01*
X53253391Y-105240500D01*
X53426609Y-105240500D01*
X53426611Y-105240500D01*
X53597701Y-105213402D01*
X53762445Y-105159873D01*
X53916788Y-105081232D01*
X54056928Y-104979414D01*
X54179414Y-104856928D01*
X54281232Y-104716788D01*
X54359873Y-104562445D01*
X54413402Y-104397701D01*
X54415372Y-104385261D01*
X92749500Y-104385261D01*
X92749500Y-104614738D01*
X92779452Y-104842240D01*
X92779452Y-104842242D01*
X92838840Y-105063881D01*
X92926653Y-105275882D01*
X92926656Y-105275888D01*
X93041389Y-105474612D01*
X93181081Y-105656661D01*
X93343339Y-105818919D01*
X93525388Y-105958611D01*
X93724112Y-106073344D01*
X93936113Y-106161158D01*
X94157762Y-106220548D01*
X94385266Y-106250500D01*
X94385272Y-106250500D01*
X94614728Y-106250500D01*
X94614734Y-106250500D01*
X94842238Y-106220548D01*
X95063887Y-106161158D01*
X95275888Y-106073344D01*
X95474612Y-105958611D01*
X95656661Y-105818919D01*
X95670255Y-105805325D01*
X100499500Y-105805325D01*
X100499500Y-107554674D01*
X100514033Y-107627739D01*
X100514034Y-107627741D01*
X100541716Y-107669170D01*
X100569399Y-107710601D01*
X100631403Y-107752030D01*
X100652258Y-107765965D01*
X100652260Y-107765966D01*
X100725326Y-107780500D01*
X102474674Y-107780500D01*
X102547740Y-107765966D01*
X102630601Y-107710601D01*
X102685966Y-107627740D01*
X102700500Y-107554674D01*
X102700500Y-105805326D01*
X102685966Y-105732260D01*
X102630601Y-105649399D01*
X102589170Y-105621716D01*
X102547741Y-105594034D01*
X102547739Y-105594033D01*
X102474674Y-105579500D01*
X100725326Y-105579500D01*
X100652260Y-105594033D01*
X100652258Y-105594034D01*
X100569399Y-105649399D01*
X100514034Y-105732258D01*
X100514033Y-105732260D01*
X100499500Y-105805325D01*
X95670255Y-105805325D01*
X95818919Y-105656661D01*
X95958611Y-105474612D01*
X96073344Y-105275888D01*
X96161158Y-105063887D01*
X96220548Y-104842238D01*
X96250500Y-104614734D01*
X96250500Y-104385266D01*
X96220548Y-104157762D01*
X96192582Y-104053391D01*
X100499500Y-104053391D01*
X100499500Y-104226608D01*
X100499501Y-104226624D01*
X100526597Y-104397698D01*
X100526597Y-104397699D01*
X100580126Y-104562443D01*
X100580130Y-104562451D01*
X100658769Y-104716790D01*
X100760585Y-104856927D01*
X100760592Y-104856935D01*
X100883064Y-104979407D01*
X100883072Y-104979414D01*
X101023212Y-105081232D01*
X101177555Y-105159873D01*
X101342299Y-105213402D01*
X101414407Y-105224822D01*
X101513375Y-105240498D01*
X101513381Y-105240498D01*
X101513389Y-105240500D01*
X101513391Y-105240500D01*
X101686609Y-105240500D01*
X101686611Y-105240500D01*
X101857701Y-105213402D01*
X102022445Y-105159873D01*
X102176788Y-105081232D01*
X102316928Y-104979414D01*
X102439414Y-104856928D01*
X102541232Y-104716788D01*
X102619873Y-104562445D01*
X102673402Y-104397701D01*
X102700500Y-104226611D01*
X102700500Y-104053389D01*
X102673402Y-103882299D01*
X102619873Y-103717555D01*
X102541232Y-103563212D01*
X102439414Y-103423072D01*
X102439407Y-103423064D01*
X102316935Y-103300592D01*
X102316927Y-103300585D01*
X102176790Y-103198769D01*
X102022451Y-103120130D01*
X102022443Y-103120126D01*
X101857699Y-103066597D01*
X101686624Y-103039501D01*
X101686612Y-103039500D01*
X101686611Y-103039500D01*
X101513389Y-103039500D01*
X101513387Y-103039500D01*
X101513375Y-103039501D01*
X101342301Y-103066597D01*
X101342300Y-103066597D01*
X101177556Y-103120126D01*
X101177548Y-103120130D01*
X101023209Y-103198769D01*
X100883072Y-103300585D01*
X100883064Y-103300592D01*
X100760592Y-103423064D01*
X100760585Y-103423072D01*
X100658769Y-103563209D01*
X100580130Y-103717548D01*
X100580126Y-103717556D01*
X100526597Y-103882300D01*
X100526597Y-103882301D01*
X100499501Y-104053375D01*
X100499500Y-104053391D01*
X96192582Y-104053391D01*
X96161158Y-103936113D01*
X96073344Y-103724112D01*
X95958611Y-103525388D01*
X95818919Y-103343339D01*
X95656661Y-103181081D01*
X95474612Y-103041389D01*
X95458316Y-103031980D01*
X95275894Y-102926659D01*
X95275882Y-102926653D01*
X95166763Y-102881454D01*
X95063887Y-102838842D01*
X95063883Y-102838841D01*
X95063881Y-102838840D01*
X95063882Y-102838840D01*
X94842241Y-102779452D01*
X94614738Y-102749500D01*
X94614734Y-102749500D01*
X94385266Y-102749500D01*
X94385261Y-102749500D01*
X94157759Y-102779452D01*
X94157757Y-102779452D01*
X93936118Y-102838840D01*
X93724117Y-102926653D01*
X93724105Y-102926659D01*
X93525394Y-103041385D01*
X93525391Y-103041387D01*
X93525388Y-103041389D01*
X93428823Y-103115486D01*
X93343337Y-103181082D01*
X93181082Y-103343337D01*
X93119905Y-103423064D01*
X93041389Y-103525388D01*
X93041387Y-103525391D01*
X93041385Y-103525394D01*
X92926659Y-103724105D01*
X92926653Y-103724117D01*
X92838840Y-103936118D01*
X92779452Y-104157757D01*
X92779452Y-104157759D01*
X92749500Y-104385261D01*
X54415372Y-104385261D01*
X54440500Y-104226611D01*
X54440500Y-104053389D01*
X54413402Y-103882299D01*
X54359873Y-103717555D01*
X54281232Y-103563212D01*
X54179414Y-103423072D01*
X54179407Y-103423064D01*
X54056935Y-103300592D01*
X54056927Y-103300585D01*
X53916790Y-103198769D01*
X53762451Y-103120130D01*
X53762443Y-103120126D01*
X53597699Y-103066597D01*
X53426624Y-103039501D01*
X53426612Y-103039500D01*
X53426611Y-103039500D01*
X53253389Y-103039500D01*
X53253387Y-103039500D01*
X53253375Y-103039501D01*
X53082301Y-103066597D01*
X53082300Y-103066597D01*
X52917556Y-103120126D01*
X52917548Y-103120130D01*
X52763209Y-103198769D01*
X52623072Y-103300585D01*
X52623064Y-103300592D01*
X52500592Y-103423064D01*
X52500585Y-103423072D01*
X52398769Y-103563209D01*
X52320130Y-103717548D01*
X52320126Y-103717556D01*
X52266597Y-103882300D01*
X52266597Y-103882301D01*
X52239501Y-104053375D01*
X52239500Y-104053391D01*
X46355000Y-104053391D01*
X46355000Y-101513391D01*
X52239500Y-101513391D01*
X52239500Y-101686608D01*
X52239501Y-101686624D01*
X52266597Y-101857698D01*
X52266597Y-101857699D01*
X52320126Y-102022443D01*
X52320130Y-102022451D01*
X52398769Y-102176790D01*
X52500585Y-102316927D01*
X52500592Y-102316935D01*
X52623064Y-102439407D01*
X52623072Y-102439414D01*
X52763212Y-102541232D01*
X52917555Y-102619873D01*
X53082299Y-102673402D01*
X53154407Y-102684822D01*
X53253375Y-102700498D01*
X53253381Y-102700498D01*
X53253389Y-102700500D01*
X53253391Y-102700500D01*
X53426609Y-102700500D01*
X53426611Y-102700500D01*
X53597701Y-102673402D01*
X53762445Y-102619873D01*
X53916788Y-102541232D01*
X54056928Y-102439414D01*
X54179414Y-102316928D01*
X54281232Y-102176788D01*
X54359873Y-102022445D01*
X54391184Y-101926080D01*
X65749500Y-101926080D01*
X65749500Y-102073919D01*
X65778341Y-102218911D01*
X65778341Y-102218912D01*
X65834916Y-102355495D01*
X65834917Y-102355497D01*
X65917048Y-102478415D01*
X65917049Y-102478416D01*
X66021584Y-102582951D01*
X66144505Y-102665084D01*
X66281087Y-102721658D01*
X66426082Y-102750500D01*
X66573918Y-102750500D01*
X66718913Y-102721658D01*
X66855495Y-102665084D01*
X66978416Y-102582951D01*
X67082951Y-102478416D01*
X67165084Y-102355495D01*
X67221658Y-102218913D01*
X67250500Y-102073918D01*
X67250500Y-101926082D01*
X67221658Y-101781087D01*
X67165084Y-101644505D01*
X67082951Y-101521584D01*
X67074758Y-101513391D01*
X100499500Y-101513391D01*
X100499500Y-101686608D01*
X100499501Y-101686624D01*
X100526597Y-101857698D01*
X100526597Y-101857699D01*
X100580126Y-102022443D01*
X100580130Y-102022451D01*
X100658769Y-102176790D01*
X100760585Y-102316927D01*
X100760592Y-102316935D01*
X100883064Y-102439407D01*
X100883072Y-102439414D01*
X101023212Y-102541232D01*
X101177555Y-102619873D01*
X101342299Y-102673402D01*
X101414407Y-102684822D01*
X101513375Y-102700498D01*
X101513381Y-102700498D01*
X101513389Y-102700500D01*
X101513391Y-102700500D01*
X101686609Y-102700500D01*
X101686611Y-102700500D01*
X101857701Y-102673402D01*
X102022445Y-102619873D01*
X102176788Y-102541232D01*
X102316928Y-102439414D01*
X102439414Y-102316928D01*
X102541232Y-102176788D01*
X102619873Y-102022445D01*
X102673402Y-101857701D01*
X102700500Y-101686611D01*
X102700500Y-101513389D01*
X102673402Y-101342299D01*
X102619873Y-101177555D01*
X102541232Y-101023212D01*
X102439414Y-100883072D01*
X102439407Y-100883064D01*
X102316935Y-100760592D01*
X102316927Y-100760585D01*
X102176790Y-100658769D01*
X102022451Y-100580130D01*
X102022443Y-100580126D01*
X101857699Y-100526597D01*
X101686624Y-100499501D01*
X101686612Y-100499500D01*
X101686611Y-100499500D01*
X101513389Y-100499500D01*
X101513387Y-100499500D01*
X101513375Y-100499501D01*
X101342301Y-100526597D01*
X101342300Y-100526597D01*
X101177556Y-100580126D01*
X101177548Y-100580130D01*
X101023209Y-100658769D01*
X100883072Y-100760585D01*
X100883064Y-100760592D01*
X100760592Y-100883064D01*
X100760585Y-100883072D01*
X100658769Y-101023209D01*
X100580130Y-101177548D01*
X100580126Y-101177556D01*
X100526597Y-101342300D01*
X100526597Y-101342301D01*
X100499501Y-101513375D01*
X100499500Y-101513391D01*
X67074758Y-101513391D01*
X66978416Y-101417049D01*
X66978415Y-101417048D01*
X66855497Y-101334917D01*
X66855495Y-101334916D01*
X66718911Y-101278341D01*
X66573919Y-101249500D01*
X66573918Y-101249500D01*
X66426082Y-101249500D01*
X66426080Y-101249500D01*
X66281088Y-101278341D01*
X66281087Y-101278341D01*
X66144504Y-101334916D01*
X66144502Y-101334917D01*
X66021584Y-101417048D01*
X65917048Y-101521584D01*
X65834917Y-101644502D01*
X65834916Y-101644504D01*
X65778341Y-101781087D01*
X65778341Y-101781088D01*
X65749500Y-101926080D01*
X54391184Y-101926080D01*
X54413402Y-101857701D01*
X54440500Y-101686611D01*
X54440500Y-101513389D01*
X54413402Y-101342299D01*
X54359873Y-101177555D01*
X54281232Y-101023212D01*
X54179414Y-100883072D01*
X54179407Y-100883064D01*
X54056935Y-100760592D01*
X54056927Y-100760585D01*
X53916790Y-100658769D01*
X53762451Y-100580130D01*
X53762443Y-100580126D01*
X53597699Y-100526597D01*
X53426624Y-100499501D01*
X53426612Y-100499500D01*
X53426611Y-100499500D01*
X53253389Y-100499500D01*
X53253387Y-100499500D01*
X53253375Y-100499501D01*
X53082301Y-100526597D01*
X53082300Y-100526597D01*
X52917556Y-100580126D01*
X52917548Y-100580130D01*
X52763209Y-100658769D01*
X52623072Y-100760585D01*
X52623064Y-100760592D01*
X52500592Y-100883064D01*
X52500585Y-100883072D01*
X52398769Y-101023209D01*
X52320130Y-101177548D01*
X52320126Y-101177556D01*
X52266597Y-101342300D01*
X52266597Y-101342301D01*
X52239501Y-101513375D01*
X52239500Y-101513391D01*
X46355000Y-101513391D01*
X46355000Y-98973391D01*
X52239500Y-98973391D01*
X52239500Y-99146608D01*
X52239501Y-99146624D01*
X52266597Y-99317698D01*
X52266597Y-99317699D01*
X52320126Y-99482443D01*
X52320130Y-99482451D01*
X52398769Y-99636790D01*
X52500585Y-99776927D01*
X52500592Y-99776935D01*
X52623064Y-99899407D01*
X52623072Y-99899414D01*
X52763212Y-100001232D01*
X52917555Y-100079873D01*
X53082299Y-100133402D01*
X53154407Y-100144822D01*
X53253375Y-100160498D01*
X53253381Y-100160498D01*
X53253389Y-100160500D01*
X53253391Y-100160500D01*
X53426609Y-100160500D01*
X53426611Y-100160500D01*
X53597701Y-100133402D01*
X53762445Y-100079873D01*
X53916788Y-100001232D01*
X54056928Y-99899414D01*
X54179414Y-99776928D01*
X54281232Y-99636788D01*
X54359873Y-99482445D01*
X54413402Y-99317701D01*
X54440500Y-99146611D01*
X54440500Y-98973391D01*
X100499500Y-98973391D01*
X100499500Y-99146608D01*
X100499501Y-99146624D01*
X100526597Y-99317698D01*
X100526597Y-99317699D01*
X100580126Y-99482443D01*
X100580130Y-99482451D01*
X100658769Y-99636790D01*
X100760585Y-99776927D01*
X100760592Y-99776935D01*
X100883064Y-99899407D01*
X100883072Y-99899414D01*
X101023212Y-100001232D01*
X101177555Y-100079873D01*
X101342299Y-100133402D01*
X101414407Y-100144822D01*
X101513375Y-100160498D01*
X101513381Y-100160498D01*
X101513389Y-100160500D01*
X101513391Y-100160500D01*
X101686609Y-100160500D01*
X101686611Y-100160500D01*
X101857701Y-100133402D01*
X102022445Y-100079873D01*
X102176788Y-100001232D01*
X102316928Y-99899414D01*
X102439414Y-99776928D01*
X102541232Y-99636788D01*
X102619873Y-99482445D01*
X102673402Y-99317701D01*
X102700500Y-99146611D01*
X102700500Y-98973389D01*
X102673402Y-98802299D01*
X102619873Y-98637555D01*
X102541232Y-98483212D01*
X102439414Y-98343072D01*
X102439407Y-98343064D01*
X102316935Y-98220592D01*
X102316927Y-98220585D01*
X102176790Y-98118769D01*
X102022451Y-98040130D01*
X102022443Y-98040126D01*
X101857699Y-97986597D01*
X101686624Y-97959501D01*
X101686612Y-97959500D01*
X101686611Y-97959500D01*
X101513389Y-97959500D01*
X101513387Y-97959500D01*
X101513375Y-97959501D01*
X101342301Y-97986597D01*
X101342300Y-97986597D01*
X101177556Y-98040126D01*
X101177548Y-98040130D01*
X101023209Y-98118769D01*
X100883072Y-98220585D01*
X100883064Y-98220592D01*
X100760592Y-98343064D01*
X100760585Y-98343072D01*
X100658769Y-98483209D01*
X100580130Y-98637548D01*
X100580126Y-98637556D01*
X100526597Y-98802300D01*
X100526597Y-98802301D01*
X100499501Y-98973375D01*
X100499500Y-98973391D01*
X54440500Y-98973391D01*
X54440500Y-98973389D01*
X54413402Y-98802299D01*
X54359873Y-98637555D01*
X54281232Y-98483212D01*
X54179414Y-98343072D01*
X54179407Y-98343064D01*
X54056935Y-98220592D01*
X54056927Y-98220585D01*
X53916790Y-98118769D01*
X53762451Y-98040130D01*
X53762443Y-98040126D01*
X53597699Y-97986597D01*
X53426624Y-97959501D01*
X53426612Y-97959500D01*
X53426611Y-97959500D01*
X53253389Y-97959500D01*
X53253387Y-97959500D01*
X53253375Y-97959501D01*
X53082301Y-97986597D01*
X53082300Y-97986597D01*
X52917556Y-98040126D01*
X52917548Y-98040130D01*
X52763209Y-98118769D01*
X52623072Y-98220585D01*
X52623064Y-98220592D01*
X52500592Y-98343064D01*
X52500585Y-98343072D01*
X52398769Y-98483209D01*
X52320130Y-98637548D01*
X52320126Y-98637556D01*
X52266597Y-98802300D01*
X52266597Y-98802301D01*
X52239501Y-98973375D01*
X52239500Y-98973391D01*
X46355000Y-98973391D01*
X46355000Y-96433391D01*
X52239500Y-96433391D01*
X52239500Y-96606608D01*
X52239501Y-96606624D01*
X52266597Y-96777698D01*
X52266597Y-96777699D01*
X52320126Y-96942443D01*
X52320130Y-96942451D01*
X52398769Y-97096790D01*
X52500585Y-97236927D01*
X52500592Y-97236935D01*
X52623064Y-97359407D01*
X52623072Y-97359414D01*
X52763212Y-97461232D01*
X52917555Y-97539873D01*
X53082299Y-97593402D01*
X53154407Y-97604822D01*
X53253375Y-97620498D01*
X53253381Y-97620498D01*
X53253389Y-97620500D01*
X53253391Y-97620500D01*
X53426609Y-97620500D01*
X53426611Y-97620500D01*
X53597701Y-97593402D01*
X53762445Y-97539873D01*
X53916788Y-97461232D01*
X54056928Y-97359414D01*
X54179414Y-97236928D01*
X54281232Y-97096788D01*
X54359873Y-96942445D01*
X54413402Y-96777701D01*
X54440500Y-96606611D01*
X54440500Y-96433389D01*
X54440498Y-96433375D01*
X54440405Y-96432783D01*
X54440405Y-96432782D01*
X54439343Y-96426080D01*
X81249500Y-96426080D01*
X81249500Y-96573919D01*
X81278341Y-96718911D01*
X81278341Y-96718912D01*
X81334916Y-96855495D01*
X81334917Y-96855497D01*
X81393014Y-96942445D01*
X81417049Y-96978416D01*
X81521584Y-97082951D01*
X81644505Y-97165084D01*
X81781087Y-97221658D01*
X81926082Y-97250500D01*
X82073918Y-97250500D01*
X82218913Y-97221658D01*
X82355495Y-97165084D01*
X82478416Y-97082951D01*
X82582951Y-96978416D01*
X82665084Y-96855495D01*
X82721658Y-96718913D01*
X82750500Y-96573918D01*
X82750500Y-96426082D01*
X82721658Y-96281087D01*
X82665084Y-96144505D01*
X82582951Y-96021584D01*
X82478416Y-95917049D01*
X82478415Y-95917048D01*
X82355497Y-95834917D01*
X82355495Y-95834916D01*
X82218911Y-95778341D01*
X82073919Y-95749500D01*
X82073918Y-95749500D01*
X81926082Y-95749500D01*
X81926080Y-95749500D01*
X81781088Y-95778341D01*
X81781087Y-95778341D01*
X81644504Y-95834916D01*
X81644502Y-95834917D01*
X81521584Y-95917048D01*
X81417048Y-96021584D01*
X81334917Y-96144502D01*
X81334916Y-96144504D01*
X81278341Y-96281087D01*
X81278341Y-96281088D01*
X81249500Y-96426080D01*
X54439343Y-96426080D01*
X54413402Y-96262301D01*
X54413402Y-96262300D01*
X54375128Y-96144504D01*
X54359873Y-96097555D01*
X54281232Y-95943212D01*
X54262223Y-95917049D01*
X54179414Y-95803072D01*
X54179407Y-95803064D01*
X54056935Y-95680592D01*
X54056927Y-95680585D01*
X53916790Y-95578769D01*
X53762451Y-95500130D01*
X53762443Y-95500126D01*
X53597699Y-95446597D01*
X53426624Y-95419501D01*
X53426612Y-95419500D01*
X53426611Y-95419500D01*
X53253389Y-95419500D01*
X53253387Y-95419500D01*
X53253375Y-95419501D01*
X53082301Y-95446597D01*
X53082300Y-95446597D01*
X52917556Y-95500126D01*
X52917548Y-95500130D01*
X52763209Y-95578769D01*
X52623072Y-95680585D01*
X52623064Y-95680592D01*
X52500592Y-95803064D01*
X52500585Y-95803072D01*
X52398769Y-95943209D01*
X52320130Y-96097548D01*
X52320126Y-96097556D01*
X52266597Y-96262300D01*
X52266597Y-96262301D01*
X52239501Y-96433375D01*
X52239500Y-96433391D01*
X46355000Y-96433391D01*
X46355000Y-93893391D01*
X52239500Y-93893391D01*
X52239500Y-94066608D01*
X52239501Y-94066624D01*
X52266597Y-94237698D01*
X52266597Y-94237699D01*
X52320126Y-94402443D01*
X52320130Y-94402451D01*
X52398769Y-94556790D01*
X52500585Y-94696927D01*
X52500592Y-94696935D01*
X52623064Y-94819407D01*
X52623072Y-94819414D01*
X52763212Y-94921232D01*
X52917555Y-94999873D01*
X53082299Y-95053402D01*
X53154407Y-95064822D01*
X53253375Y-95080498D01*
X53253381Y-95080498D01*
X53253389Y-95080500D01*
X53253391Y-95080500D01*
X53426609Y-95080500D01*
X53426611Y-95080500D01*
X53597701Y-95053402D01*
X53762445Y-94999873D01*
X53916788Y-94921232D01*
X54056928Y-94819414D01*
X54179414Y-94696928D01*
X54281232Y-94556788D01*
X54359873Y-94402445D01*
X54413402Y-94237701D01*
X54440500Y-94066611D01*
X54440500Y-93893389D01*
X54437290Y-93873125D01*
X54413402Y-93722301D01*
X54413402Y-93722300D01*
X54367134Y-93579901D01*
X54359873Y-93557555D01*
X54281232Y-93403212D01*
X54179414Y-93263072D01*
X54179407Y-93263064D01*
X54100146Y-93183803D01*
X60873062Y-93183803D01*
X60873062Y-94933152D01*
X60887595Y-95006217D01*
X60887596Y-95006219D01*
X60915278Y-95047648D01*
X60942961Y-95089079D01*
X61004965Y-95130508D01*
X61025820Y-95144443D01*
X61025822Y-95144444D01*
X61098888Y-95158978D01*
X62848236Y-95158978D01*
X62921302Y-95144444D01*
X63004163Y-95089079D01*
X63059528Y-95006218D01*
X63074062Y-94933152D01*
X63074062Y-93873125D01*
X100242000Y-93873125D01*
X100242000Y-94086874D01*
X100242001Y-94086890D01*
X100275438Y-94297996D01*
X100275439Y-94298001D01*
X100341490Y-94501285D01*
X100341495Y-94501297D01*
X100438532Y-94691744D01*
X100438535Y-94691749D01*
X100476621Y-94744168D01*
X101115841Y-94104947D01*
X101134075Y-94172993D01*
X101199901Y-94287007D01*
X101292993Y-94380099D01*
X101407007Y-94445925D01*
X101475051Y-94464157D01*
X100835830Y-95103377D01*
X100888253Y-95141466D01*
X101078702Y-95238504D01*
X101078714Y-95238509D01*
X101281994Y-95304559D01*
X101370791Y-95318623D01*
X101411577Y-95343617D01*
X101422745Y-95390131D01*
X101397751Y-95430917D01*
X101370793Y-95442084D01*
X101342299Y-95446597D01*
X101177556Y-95500126D01*
X101177548Y-95500130D01*
X101023209Y-95578769D01*
X100883072Y-95680585D01*
X100883064Y-95680592D01*
X100760592Y-95803064D01*
X100760585Y-95803072D01*
X100658769Y-95943209D01*
X100580130Y-96097548D01*
X100580126Y-96097556D01*
X100526597Y-96262300D01*
X100526597Y-96262301D01*
X100499501Y-96433375D01*
X100499500Y-96433391D01*
X100499500Y-96606608D01*
X100499501Y-96606624D01*
X100526597Y-96777698D01*
X100526597Y-96777699D01*
X100580126Y-96942443D01*
X100580130Y-96942451D01*
X100658769Y-97096790D01*
X100760585Y-97236927D01*
X100760592Y-97236935D01*
X100883064Y-97359407D01*
X100883072Y-97359414D01*
X101023212Y-97461232D01*
X101177555Y-97539873D01*
X101342299Y-97593402D01*
X101414407Y-97604822D01*
X101513375Y-97620498D01*
X101513381Y-97620498D01*
X101513389Y-97620500D01*
X101513391Y-97620500D01*
X101686609Y-97620500D01*
X101686611Y-97620500D01*
X101857701Y-97593402D01*
X102022445Y-97539873D01*
X102176788Y-97461232D01*
X102316928Y-97359414D01*
X102439414Y-97236928D01*
X102541232Y-97096788D01*
X102619873Y-96942445D01*
X102673402Y-96777701D01*
X102700500Y-96606611D01*
X102700500Y-96433389D01*
X102699342Y-96426080D01*
X102676378Y-96281088D01*
X102673402Y-96262299D01*
X102619873Y-96097555D01*
X102541232Y-95943212D01*
X102522223Y-95917049D01*
X102439414Y-95803072D01*
X102439407Y-95803064D01*
X102316935Y-95680592D01*
X102316927Y-95680585D01*
X102176790Y-95578769D01*
X102022451Y-95500130D01*
X102022443Y-95500126D01*
X101857700Y-95446597D01*
X101829206Y-95442084D01*
X101788420Y-95417089D01*
X101777255Y-95370575D01*
X101802250Y-95329789D01*
X101829208Y-95318623D01*
X101918005Y-95304559D01*
X102121285Y-95238509D01*
X102121297Y-95238504D01*
X102311738Y-95141470D01*
X102311745Y-95141466D01*
X102364168Y-95103377D01*
X101724948Y-94464157D01*
X101792993Y-94445925D01*
X101907007Y-94380099D01*
X102000099Y-94287007D01*
X102065925Y-94172993D01*
X102084157Y-94104948D01*
X102723377Y-94744168D01*
X102761466Y-94691745D01*
X102761470Y-94691738D01*
X102858504Y-94501297D01*
X102858509Y-94501285D01*
X102924560Y-94298001D01*
X102924561Y-94297996D01*
X102957998Y-94086890D01*
X102958000Y-94086874D01*
X102958000Y-93873125D01*
X102957998Y-93873109D01*
X102924561Y-93662003D01*
X102924560Y-93661998D01*
X102858509Y-93458714D01*
X102858504Y-93458702D01*
X102761466Y-93268253D01*
X102723377Y-93215830D01*
X102084157Y-93855050D01*
X102065925Y-93787007D01*
X102000099Y-93672993D01*
X101907007Y-93579901D01*
X101792993Y-93514075D01*
X101724947Y-93495841D01*
X102364168Y-92856621D01*
X102311749Y-92818535D01*
X102311744Y-92818532D01*
X102121297Y-92721495D01*
X102121285Y-92721490D01*
X101918001Y-92655439D01*
X101917998Y-92655438D01*
X101829207Y-92641375D01*
X101788421Y-92616381D01*
X101777255Y-92569867D01*
X101802249Y-92529081D01*
X101829204Y-92517915D01*
X101857701Y-92513402D01*
X102022445Y-92459873D01*
X102176788Y-92381232D01*
X102316928Y-92279414D01*
X102439414Y-92156928D01*
X102541232Y-92016788D01*
X102619873Y-91862445D01*
X102673402Y-91697701D01*
X102700500Y-91526611D01*
X102700500Y-91353389D01*
X102673402Y-91182299D01*
X102619873Y-91017555D01*
X102541232Y-90863212D01*
X102439414Y-90723072D01*
X102439407Y-90723064D01*
X102316935Y-90600592D01*
X102316927Y-90600585D01*
X102176790Y-90498769D01*
X102022451Y-90420130D01*
X102022443Y-90420126D01*
X101857699Y-90366597D01*
X101686624Y-90339501D01*
X101686612Y-90339500D01*
X101686611Y-90339500D01*
X101513389Y-90339500D01*
X101513387Y-90339500D01*
X101513375Y-90339501D01*
X101342301Y-90366597D01*
X101342300Y-90366597D01*
X101177556Y-90420126D01*
X101177548Y-90420130D01*
X101023209Y-90498769D01*
X100883072Y-90600585D01*
X100883064Y-90600592D01*
X100760592Y-90723064D01*
X100760585Y-90723072D01*
X100658769Y-90863209D01*
X100580130Y-91017548D01*
X100580126Y-91017556D01*
X100526597Y-91182300D01*
X100526597Y-91182301D01*
X100499501Y-91353375D01*
X100499500Y-91353391D01*
X100499500Y-91526608D01*
X100499501Y-91526624D01*
X100526597Y-91697698D01*
X100526597Y-91697699D01*
X100580126Y-91862443D01*
X100580130Y-91862451D01*
X100658769Y-92016790D01*
X100760585Y-92156927D01*
X100760592Y-92156935D01*
X100883064Y-92279407D01*
X100883072Y-92279414D01*
X101023212Y-92381232D01*
X101177555Y-92459873D01*
X101342299Y-92513402D01*
X101351944Y-92514929D01*
X101370791Y-92517915D01*
X101411578Y-92542909D01*
X101422744Y-92589422D01*
X101397750Y-92630209D01*
X101370792Y-92641375D01*
X101282001Y-92655438D01*
X101281998Y-92655439D01*
X101078714Y-92721490D01*
X101078702Y-92721495D01*
X100888255Y-92818533D01*
X100835831Y-92856621D01*
X101475052Y-93495842D01*
X101407007Y-93514075D01*
X101292993Y-93579901D01*
X101199901Y-93672993D01*
X101134075Y-93787007D01*
X101115842Y-93855052D01*
X100476621Y-93215831D01*
X100438533Y-93268255D01*
X100341495Y-93458702D01*
X100341490Y-93458714D01*
X100275439Y-93661998D01*
X100275438Y-93662003D01*
X100242001Y-93873109D01*
X100242000Y-93873125D01*
X63074062Y-93873125D01*
X63074062Y-93183804D01*
X63059528Y-93110738D01*
X63004163Y-93027877D01*
X62962732Y-93000194D01*
X62921303Y-92972512D01*
X62921301Y-92972511D01*
X62848236Y-92957978D01*
X61098888Y-92957978D01*
X61025822Y-92972511D01*
X61025820Y-92972512D01*
X60942961Y-93027877D01*
X60887596Y-93110736D01*
X60887595Y-93110738D01*
X60873062Y-93183803D01*
X54100146Y-93183803D01*
X54056935Y-93140592D01*
X54056927Y-93140585D01*
X53916790Y-93038769D01*
X53762451Y-92960130D01*
X53762443Y-92960126D01*
X53597699Y-92906597D01*
X53426624Y-92879501D01*
X53426612Y-92879500D01*
X53426611Y-92879500D01*
X53253389Y-92879500D01*
X53253387Y-92879500D01*
X53253375Y-92879501D01*
X53082301Y-92906597D01*
X53082300Y-92906597D01*
X52917556Y-92960126D01*
X52917548Y-92960130D01*
X52763209Y-93038769D01*
X52623072Y-93140585D01*
X52623064Y-93140592D01*
X52500592Y-93263064D01*
X52500585Y-93263072D01*
X52398769Y-93403209D01*
X52320130Y-93557548D01*
X52320126Y-93557556D01*
X52266597Y-93722300D01*
X52266597Y-93722301D01*
X52239501Y-93893375D01*
X52239500Y-93893391D01*
X46355000Y-93893391D01*
X46355000Y-91353391D01*
X52239500Y-91353391D01*
X52239500Y-91526608D01*
X52239501Y-91526624D01*
X52266597Y-91697698D01*
X52266597Y-91697699D01*
X52320126Y-91862443D01*
X52320130Y-91862451D01*
X52398769Y-92016790D01*
X52500585Y-92156927D01*
X52500592Y-92156935D01*
X52623064Y-92279407D01*
X52623072Y-92279414D01*
X52763212Y-92381232D01*
X52917555Y-92459873D01*
X53082299Y-92513402D01*
X53154407Y-92524822D01*
X53253375Y-92540498D01*
X53253381Y-92540498D01*
X53253389Y-92540500D01*
X53253391Y-92540500D01*
X53426609Y-92540500D01*
X53426611Y-92540500D01*
X53597701Y-92513402D01*
X53762445Y-92459873D01*
X53916788Y-92381232D01*
X54056928Y-92279414D01*
X54179414Y-92156928D01*
X54281232Y-92016788D01*
X54359873Y-91862445D01*
X54413402Y-91697701D01*
X54440500Y-91526611D01*
X54440500Y-91444558D01*
X56267978Y-91444558D01*
X56267978Y-91592397D01*
X56296819Y-91737389D01*
X56296819Y-91737390D01*
X56348618Y-91862443D01*
X56353394Y-91873973D01*
X56435527Y-91996894D01*
X56540062Y-92101429D01*
X56662983Y-92183562D01*
X56799565Y-92240136D01*
X56944560Y-92268978D01*
X57092396Y-92268978D01*
X57237391Y-92240136D01*
X57373973Y-92183562D01*
X57496894Y-92101429D01*
X57601429Y-91996894D01*
X57683562Y-91873973D01*
X57701498Y-91830670D01*
X57735321Y-91796849D01*
X57783157Y-91796848D01*
X57816981Y-91830673D01*
X57834916Y-91873973D01*
X57917049Y-91996894D01*
X58021584Y-92101429D01*
X58144505Y-92183562D01*
X58281087Y-92240136D01*
X58426082Y-92268978D01*
X58573918Y-92268978D01*
X58718913Y-92240136D01*
X58855495Y-92183562D01*
X58978416Y-92101429D01*
X59082951Y-91996894D01*
X59165084Y-91873973D01*
X59221658Y-91737391D01*
X59250500Y-91592396D01*
X59250500Y-91444560D01*
X59247976Y-91431869D01*
X60873062Y-91431869D01*
X60873062Y-91605086D01*
X60873063Y-91605102D01*
X60900159Y-91776176D01*
X60900159Y-91776177D01*
X60953688Y-91940921D01*
X60953692Y-91940929D01*
X61032331Y-92095268D01*
X61134147Y-92235405D01*
X61134154Y-92235413D01*
X61256626Y-92357885D01*
X61256634Y-92357892D01*
X61396774Y-92459710D01*
X61551117Y-92538351D01*
X61715861Y-92591880D01*
X61787969Y-92603300D01*
X61886937Y-92618976D01*
X61886943Y-92618976D01*
X61886951Y-92618978D01*
X61886953Y-92618978D01*
X62060171Y-92618978D01*
X62060173Y-92618978D01*
X62231263Y-92591880D01*
X62396007Y-92538351D01*
X62550350Y-92459710D01*
X62690490Y-92357892D01*
X62812976Y-92235406D01*
X62914794Y-92095266D01*
X62993435Y-91940923D01*
X63046964Y-91776179D01*
X63074062Y-91605089D01*
X63074062Y-91431867D01*
X63046964Y-91260777D01*
X62993435Y-91096033D01*
X62914794Y-90941690D01*
X62812976Y-90801550D01*
X62812969Y-90801542D01*
X62690497Y-90679070D01*
X62690489Y-90679063D01*
X62550352Y-90577247D01*
X62396013Y-90498608D01*
X62396005Y-90498604D01*
X62231261Y-90445075D01*
X62060186Y-90417979D01*
X62060174Y-90417978D01*
X62060173Y-90417978D01*
X61886951Y-90417978D01*
X61886949Y-90417978D01*
X61886937Y-90417979D01*
X61715863Y-90445075D01*
X61715862Y-90445075D01*
X61551118Y-90498604D01*
X61551110Y-90498608D01*
X61396771Y-90577247D01*
X61256634Y-90679063D01*
X61256626Y-90679070D01*
X61134154Y-90801542D01*
X61134147Y-90801550D01*
X61032331Y-90941687D01*
X60953692Y-91096026D01*
X60953688Y-91096034D01*
X60900159Y-91260778D01*
X60900159Y-91260779D01*
X60873063Y-91431853D01*
X60873062Y-91431869D01*
X59247976Y-91431869D01*
X59221658Y-91299565D01*
X59165084Y-91162983D01*
X59082951Y-91040062D01*
X58978416Y-90935527D01*
X58870189Y-90863212D01*
X58855497Y-90853395D01*
X58855495Y-90853394D01*
X58718911Y-90796819D01*
X58573919Y-90767978D01*
X58573918Y-90767978D01*
X58426082Y-90767978D01*
X58426080Y-90767978D01*
X58281088Y-90796819D01*
X58281087Y-90796819D01*
X58144504Y-90853394D01*
X58144502Y-90853395D01*
X58021584Y-90935526D01*
X57917048Y-91040062D01*
X57834917Y-91162980D01*
X57834916Y-91162982D01*
X57816981Y-91206282D01*
X57783156Y-91240107D01*
X57735321Y-91240106D01*
X57701497Y-91206282D01*
X57701375Y-91205989D01*
X57683562Y-91162983D01*
X57601429Y-91040062D01*
X57496894Y-90935527D01*
X57388667Y-90863212D01*
X57373975Y-90853395D01*
X57373973Y-90853394D01*
X57237389Y-90796819D01*
X57092397Y-90767978D01*
X57092396Y-90767978D01*
X56944560Y-90767978D01*
X56944558Y-90767978D01*
X56799566Y-90796819D01*
X56799565Y-90796819D01*
X56662982Y-90853394D01*
X56662980Y-90853395D01*
X56540062Y-90935526D01*
X56435526Y-91040062D01*
X56353395Y-91162980D01*
X56353394Y-91162982D01*
X56296819Y-91299565D01*
X56296819Y-91299566D01*
X56267978Y-91444558D01*
X54440500Y-91444558D01*
X54440500Y-91353389D01*
X54413402Y-91182299D01*
X54359873Y-91017555D01*
X54281232Y-90863212D01*
X54179414Y-90723072D01*
X54179407Y-90723064D01*
X54056935Y-90600592D01*
X54056927Y-90600585D01*
X53916790Y-90498769D01*
X53762451Y-90420130D01*
X53762443Y-90420126D01*
X53597699Y-90366597D01*
X53426624Y-90339501D01*
X53426612Y-90339500D01*
X53426611Y-90339500D01*
X53253389Y-90339500D01*
X53253387Y-90339500D01*
X53253375Y-90339501D01*
X53082301Y-90366597D01*
X53082300Y-90366597D01*
X52917556Y-90420126D01*
X52917548Y-90420130D01*
X52763209Y-90498769D01*
X52623072Y-90600585D01*
X52623064Y-90600592D01*
X52500592Y-90723064D01*
X52500585Y-90723072D01*
X52398769Y-90863209D01*
X52320130Y-91017548D01*
X52320126Y-91017556D01*
X52266597Y-91182300D01*
X52266597Y-91182301D01*
X52239501Y-91353375D01*
X52239500Y-91353391D01*
X46355000Y-91353391D01*
X46355000Y-88813391D01*
X52239500Y-88813391D01*
X52239500Y-88986608D01*
X52239501Y-88986624D01*
X52266597Y-89157698D01*
X52266597Y-89157699D01*
X52320126Y-89322443D01*
X52320130Y-89322451D01*
X52398769Y-89476790D01*
X52500585Y-89616927D01*
X52500592Y-89616935D01*
X52623064Y-89739407D01*
X52623072Y-89739414D01*
X52763212Y-89841232D01*
X52917555Y-89919873D01*
X53082299Y-89973402D01*
X53154407Y-89984822D01*
X53253375Y-90000498D01*
X53253381Y-90000498D01*
X53253389Y-90000500D01*
X53253391Y-90000500D01*
X53426609Y-90000500D01*
X53426611Y-90000500D01*
X53597701Y-89973402D01*
X53762445Y-89919873D01*
X53916788Y-89841232D01*
X54056928Y-89739414D01*
X54179414Y-89616928D01*
X54281232Y-89476788D01*
X54359873Y-89322445D01*
X54413402Y-89157701D01*
X54440500Y-88986611D01*
X54440500Y-88813389D01*
X54413402Y-88642299D01*
X54359873Y-88477555D01*
X54281232Y-88323212D01*
X54179414Y-88183072D01*
X54179407Y-88183064D01*
X54056935Y-88060592D01*
X54056927Y-88060585D01*
X53916790Y-87958769D01*
X53762451Y-87880130D01*
X53762443Y-87880126D01*
X53597699Y-87826597D01*
X53426624Y-87799501D01*
X53426612Y-87799500D01*
X53426611Y-87799500D01*
X53253389Y-87799500D01*
X53253387Y-87799500D01*
X53253375Y-87799501D01*
X53082301Y-87826597D01*
X53082300Y-87826597D01*
X52917556Y-87880126D01*
X52917548Y-87880130D01*
X52763209Y-87958769D01*
X52623072Y-88060585D01*
X52623064Y-88060592D01*
X52500592Y-88183064D01*
X52500585Y-88183072D01*
X52398769Y-88323209D01*
X52320130Y-88477548D01*
X52320126Y-88477556D01*
X52266597Y-88642300D01*
X52266597Y-88642301D01*
X52239501Y-88813375D01*
X52239500Y-88813391D01*
X46355000Y-88813391D01*
X46355000Y-86273391D01*
X52239500Y-86273391D01*
X52239500Y-86446608D01*
X52239501Y-86446624D01*
X52266597Y-86617698D01*
X52266597Y-86617699D01*
X52320126Y-86782443D01*
X52320130Y-86782451D01*
X52398769Y-86936790D01*
X52500585Y-87076927D01*
X52500592Y-87076935D01*
X52623064Y-87199407D01*
X52623072Y-87199414D01*
X52693385Y-87250500D01*
X52763212Y-87301232D01*
X52917555Y-87379873D01*
X53082299Y-87433402D01*
X53154407Y-87444822D01*
X53253375Y-87460498D01*
X53253381Y-87460498D01*
X53253389Y-87460500D01*
X53253391Y-87460500D01*
X53426609Y-87460500D01*
X53426611Y-87460500D01*
X53597701Y-87433402D01*
X53762445Y-87379873D01*
X53916788Y-87301232D01*
X54056928Y-87199414D01*
X54179414Y-87076928D01*
X54281232Y-86936788D01*
X54359873Y-86782445D01*
X54413402Y-86617701D01*
X54440500Y-86446611D01*
X54440500Y-86273389D01*
X54426418Y-86184477D01*
X60638863Y-86184477D01*
X60638864Y-86184478D01*
X61542859Y-86184478D01*
X61507637Y-86245485D01*
X61473562Y-86372652D01*
X61473562Y-86504304D01*
X61507637Y-86631471D01*
X61542859Y-86692478D01*
X60638864Y-86692478D01*
X60649000Y-86756476D01*
X60649001Y-86756479D01*
X60715052Y-86959763D01*
X60715057Y-86959775D01*
X60812097Y-87150227D01*
X60937737Y-87323154D01*
X60937744Y-87323162D01*
X61088877Y-87474295D01*
X61088885Y-87474302D01*
X61261812Y-87599942D01*
X61452264Y-87696982D01*
X61452276Y-87696987D01*
X61655556Y-87763037D01*
X61744353Y-87777101D01*
X61785139Y-87802095D01*
X61796307Y-87848609D01*
X61771313Y-87889395D01*
X61744355Y-87900562D01*
X61715861Y-87905075D01*
X61551118Y-87958604D01*
X61551110Y-87958608D01*
X61396771Y-88037247D01*
X61256634Y-88139063D01*
X61256626Y-88139070D01*
X61134154Y-88261542D01*
X61134147Y-88261550D01*
X61032331Y-88401687D01*
X60953692Y-88556026D01*
X60953688Y-88556034D01*
X60900159Y-88720778D01*
X60900159Y-88720779D01*
X60873063Y-88891853D01*
X60873062Y-88891869D01*
X60873062Y-89065086D01*
X60873063Y-89065102D01*
X60900159Y-89236176D01*
X60900159Y-89236177D01*
X60953688Y-89400921D01*
X60953692Y-89400929D01*
X61032331Y-89555268D01*
X61134147Y-89695405D01*
X61134154Y-89695413D01*
X61256626Y-89817885D01*
X61256634Y-89817892D01*
X61396774Y-89919710D01*
X61551117Y-89998351D01*
X61715861Y-90051880D01*
X61787969Y-90063300D01*
X61886937Y-90078976D01*
X61886943Y-90078976D01*
X61886951Y-90078978D01*
X61886953Y-90078978D01*
X62060171Y-90078978D01*
X62060173Y-90078978D01*
X62231263Y-90051880D01*
X62396007Y-89998351D01*
X62550350Y-89919710D01*
X62690490Y-89817892D01*
X62812976Y-89695406D01*
X62914794Y-89555266D01*
X62993435Y-89400923D01*
X63046964Y-89236179D01*
X63074062Y-89065089D01*
X63074062Y-88891867D01*
X63061633Y-88813391D01*
X100499500Y-88813391D01*
X100499500Y-88986608D01*
X100499501Y-88986624D01*
X100526597Y-89157698D01*
X100526597Y-89157699D01*
X100580126Y-89322443D01*
X100580130Y-89322451D01*
X100658769Y-89476790D01*
X100760585Y-89616927D01*
X100760592Y-89616935D01*
X100883064Y-89739407D01*
X100883072Y-89739414D01*
X101023212Y-89841232D01*
X101177555Y-89919873D01*
X101342299Y-89973402D01*
X101414407Y-89984822D01*
X101513375Y-90000498D01*
X101513381Y-90000498D01*
X101513389Y-90000500D01*
X101513391Y-90000500D01*
X101686609Y-90000500D01*
X101686611Y-90000500D01*
X101857701Y-89973402D01*
X102022445Y-89919873D01*
X102176788Y-89841232D01*
X102316928Y-89739414D01*
X102439414Y-89616928D01*
X102541232Y-89476788D01*
X102619873Y-89322445D01*
X102673402Y-89157701D01*
X102700500Y-88986611D01*
X102700500Y-88813389D01*
X102673402Y-88642299D01*
X102619873Y-88477555D01*
X102541232Y-88323212D01*
X102439414Y-88183072D01*
X102439407Y-88183064D01*
X102316935Y-88060592D01*
X102316927Y-88060585D01*
X102176790Y-87958769D01*
X102022451Y-87880130D01*
X102022443Y-87880126D01*
X101857699Y-87826597D01*
X101686624Y-87799501D01*
X101686612Y-87799500D01*
X101686611Y-87799500D01*
X101513389Y-87799500D01*
X101513387Y-87799500D01*
X101513375Y-87799501D01*
X101342301Y-87826597D01*
X101342300Y-87826597D01*
X101177556Y-87880126D01*
X101177548Y-87880130D01*
X101023209Y-87958769D01*
X100883072Y-88060585D01*
X100883064Y-88060592D01*
X100760592Y-88183064D01*
X100760585Y-88183072D01*
X100658769Y-88323209D01*
X100580130Y-88477548D01*
X100580126Y-88477556D01*
X100526597Y-88642300D01*
X100526597Y-88642301D01*
X100499501Y-88813375D01*
X100499500Y-88813391D01*
X63061633Y-88813391D01*
X63046964Y-88720777D01*
X62993435Y-88556033D01*
X62914794Y-88401690D01*
X62812976Y-88261550D01*
X62812969Y-88261542D01*
X62690497Y-88139070D01*
X62690489Y-88139063D01*
X62550352Y-88037247D01*
X62396013Y-87958608D01*
X62396005Y-87958604D01*
X62231262Y-87905075D01*
X62202768Y-87900562D01*
X62161982Y-87875567D01*
X62150817Y-87829053D01*
X62175812Y-87788267D01*
X62202770Y-87777101D01*
X62291567Y-87763037D01*
X62494847Y-87696987D01*
X62494859Y-87696982D01*
X62685311Y-87599942D01*
X62858238Y-87474302D01*
X62858246Y-87474295D01*
X63009379Y-87323162D01*
X63009386Y-87323154D01*
X63135026Y-87150227D01*
X63232066Y-86959775D01*
X63232071Y-86959763D01*
X63298122Y-86756479D01*
X63298123Y-86756476D01*
X63308260Y-86692478D01*
X62404265Y-86692478D01*
X62439487Y-86631471D01*
X62473562Y-86504304D01*
X62473562Y-86372652D01*
X62439487Y-86245485D01*
X62404265Y-86184478D01*
X63308260Y-86184478D01*
X63308260Y-86184477D01*
X63298123Y-86120479D01*
X63240237Y-85942325D01*
X63240237Y-85942324D01*
X63234959Y-85926080D01*
X68249500Y-85926080D01*
X68249500Y-86073919D01*
X68278341Y-86218911D01*
X68278341Y-86218912D01*
X68334916Y-86355495D01*
X68334917Y-86355497D01*
X68414507Y-86474612D01*
X68417049Y-86478416D01*
X68521584Y-86582951D01*
X68644505Y-86665084D01*
X68781087Y-86721658D01*
X68926082Y-86750500D01*
X69073918Y-86750500D01*
X69218913Y-86721658D01*
X69355495Y-86665084D01*
X69478416Y-86582951D01*
X69582951Y-86478416D01*
X69665084Y-86355495D01*
X69721658Y-86218913D01*
X69750500Y-86073918D01*
X69750500Y-85926082D01*
X69721658Y-85781087D01*
X69665084Y-85644505D01*
X69582951Y-85521584D01*
X69478416Y-85417049D01*
X69478415Y-85417048D01*
X69430842Y-85385261D01*
X92749500Y-85385261D01*
X92749500Y-85614738D01*
X92779452Y-85842240D01*
X92779452Y-85842242D01*
X92814369Y-85972553D01*
X92838842Y-86063887D01*
X92854754Y-86102301D01*
X92926653Y-86275882D01*
X92926659Y-86275894D01*
X93025221Y-86446608D01*
X93041389Y-86474612D01*
X93181081Y-86656661D01*
X93343339Y-86818919D01*
X93525388Y-86958611D01*
X93724112Y-87073344D01*
X93936113Y-87161158D01*
X94157762Y-87220548D01*
X94385266Y-87250500D01*
X94385272Y-87250500D01*
X94614728Y-87250500D01*
X94614734Y-87250500D01*
X94842238Y-87220548D01*
X95063887Y-87161158D01*
X95275888Y-87073344D01*
X95474612Y-86958611D01*
X95656661Y-86818919D01*
X95818919Y-86656661D01*
X95958611Y-86474612D01*
X96073344Y-86275888D01*
X96074378Y-86273391D01*
X100499500Y-86273391D01*
X100499500Y-86446608D01*
X100499501Y-86446624D01*
X100526597Y-86617698D01*
X100526597Y-86617699D01*
X100580126Y-86782443D01*
X100580130Y-86782451D01*
X100658769Y-86936790D01*
X100760585Y-87076927D01*
X100760592Y-87076935D01*
X100883064Y-87199407D01*
X100883072Y-87199414D01*
X100953385Y-87250500D01*
X101023212Y-87301232D01*
X101177555Y-87379873D01*
X101342299Y-87433402D01*
X101414407Y-87444822D01*
X101513375Y-87460498D01*
X101513381Y-87460498D01*
X101513389Y-87460500D01*
X101513391Y-87460500D01*
X101686609Y-87460500D01*
X101686611Y-87460500D01*
X101857701Y-87433402D01*
X102022445Y-87379873D01*
X102176788Y-87301232D01*
X102316928Y-87199414D01*
X102439414Y-87076928D01*
X102541232Y-86936788D01*
X102619873Y-86782445D01*
X102673402Y-86617701D01*
X102700500Y-86446611D01*
X102700500Y-86273389D01*
X102696080Y-86245485D01*
X102673402Y-86102301D01*
X102673402Y-86102300D01*
X102664181Y-86073919D01*
X102619873Y-85937555D01*
X102541232Y-85783212D01*
X102439414Y-85643072D01*
X102439407Y-85643064D01*
X102316935Y-85520592D01*
X102316927Y-85520585D01*
X102176790Y-85418769D01*
X102022451Y-85340130D01*
X102022443Y-85340126D01*
X101857699Y-85286597D01*
X101686624Y-85259501D01*
X101686612Y-85259500D01*
X101686611Y-85259500D01*
X101513389Y-85259500D01*
X101513387Y-85259500D01*
X101513375Y-85259501D01*
X101342301Y-85286597D01*
X101342300Y-85286597D01*
X101177556Y-85340126D01*
X101177548Y-85340130D01*
X101023209Y-85418769D01*
X100883072Y-85520585D01*
X100883064Y-85520592D01*
X100760592Y-85643064D01*
X100760585Y-85643072D01*
X100658769Y-85783209D01*
X100580130Y-85937548D01*
X100580126Y-85937556D01*
X100526597Y-86102300D01*
X100526597Y-86102301D01*
X100499501Y-86273375D01*
X100499500Y-86273391D01*
X96074378Y-86273391D01*
X96161158Y-86063887D01*
X96220548Y-85842238D01*
X96250500Y-85614734D01*
X96250500Y-85385266D01*
X96220548Y-85157762D01*
X96198334Y-85074859D01*
X96171951Y-84976393D01*
X96161158Y-84936113D01*
X96073344Y-84724112D01*
X95958611Y-84525388D01*
X95818919Y-84343339D01*
X95656661Y-84181081D01*
X95474612Y-84041389D01*
X95377120Y-83985102D01*
X95275894Y-83926659D01*
X95275882Y-83926653D01*
X95166763Y-83881454D01*
X95063887Y-83838842D01*
X95063883Y-83838841D01*
X95063881Y-83838840D01*
X95063882Y-83838840D01*
X94886469Y-83791303D01*
X94842241Y-83779452D01*
X94614738Y-83749500D01*
X94614734Y-83749500D01*
X94385266Y-83749500D01*
X94385261Y-83749500D01*
X94157759Y-83779452D01*
X94157757Y-83779452D01*
X93936118Y-83838840D01*
X93724117Y-83926653D01*
X93724105Y-83926659D01*
X93525394Y-84041385D01*
X93525391Y-84041387D01*
X93525388Y-84041389D01*
X93478066Y-84077701D01*
X93343337Y-84181082D01*
X93181082Y-84343337D01*
X93140068Y-84396788D01*
X93041389Y-84525388D01*
X93041387Y-84525391D01*
X93041385Y-84525394D01*
X92926659Y-84724105D01*
X92926653Y-84724117D01*
X92838840Y-84936118D01*
X92779452Y-85157757D01*
X92779452Y-85157759D01*
X92749500Y-85385261D01*
X69430842Y-85385261D01*
X69355497Y-85334917D01*
X69355495Y-85334916D01*
X69218911Y-85278341D01*
X69073919Y-85249500D01*
X69073918Y-85249500D01*
X68926082Y-85249500D01*
X68926080Y-85249500D01*
X68781088Y-85278341D01*
X68781087Y-85278341D01*
X68644504Y-85334916D01*
X68644502Y-85334917D01*
X68521584Y-85417048D01*
X68417048Y-85521584D01*
X68334917Y-85644502D01*
X68334916Y-85644504D01*
X68278341Y-85781087D01*
X68278341Y-85781088D01*
X68249500Y-85926080D01*
X63234959Y-85926080D01*
X63232071Y-85917191D01*
X63232066Y-85917180D01*
X63135026Y-85726728D01*
X63009386Y-85553801D01*
X63009379Y-85553793D01*
X62858246Y-85402660D01*
X62858238Y-85402653D01*
X62685311Y-85277013D01*
X62494859Y-85179973D01*
X62494847Y-85179968D01*
X62291563Y-85113917D01*
X62291560Y-85113916D01*
X62202769Y-85099853D01*
X62161983Y-85074859D01*
X62150817Y-85028345D01*
X62175811Y-84987559D01*
X62202766Y-84976393D01*
X62231263Y-84971880D01*
X62396007Y-84918351D01*
X62550350Y-84839710D01*
X62690490Y-84737892D01*
X62812976Y-84615406D01*
X62914794Y-84475266D01*
X62993435Y-84320923D01*
X63046964Y-84156179D01*
X63074062Y-83985089D01*
X63074062Y-83811867D01*
X63061633Y-83733391D01*
X100499500Y-83733391D01*
X100499500Y-83906608D01*
X100499501Y-83906624D01*
X100526597Y-84077698D01*
X100526597Y-84077699D01*
X100580126Y-84242443D01*
X100580130Y-84242451D01*
X100658769Y-84396790D01*
X100760585Y-84536927D01*
X100760592Y-84536935D01*
X100883064Y-84659407D01*
X100883072Y-84659414D01*
X101023212Y-84761232D01*
X101177555Y-84839873D01*
X101342299Y-84893402D01*
X101414407Y-84904822D01*
X101513375Y-84920498D01*
X101513381Y-84920498D01*
X101513389Y-84920500D01*
X101513391Y-84920500D01*
X101686609Y-84920500D01*
X101686611Y-84920500D01*
X101857701Y-84893402D01*
X102022445Y-84839873D01*
X102176788Y-84761232D01*
X102316928Y-84659414D01*
X102439414Y-84536928D01*
X102541232Y-84396788D01*
X102619873Y-84242445D01*
X102673402Y-84077701D01*
X102700500Y-83906611D01*
X102700500Y-83733389D01*
X102673402Y-83562299D01*
X102619873Y-83397555D01*
X102541232Y-83243212D01*
X102439414Y-83103072D01*
X102439407Y-83103064D01*
X102316935Y-82980592D01*
X102316927Y-82980585D01*
X102176790Y-82878769D01*
X102022451Y-82800130D01*
X102022443Y-82800126D01*
X101857699Y-82746597D01*
X101686624Y-82719501D01*
X101686612Y-82719500D01*
X101686611Y-82719500D01*
X101513389Y-82719500D01*
X101513387Y-82719500D01*
X101513375Y-82719501D01*
X101342301Y-82746597D01*
X101342300Y-82746597D01*
X101177556Y-82800126D01*
X101177548Y-82800130D01*
X101023209Y-82878769D01*
X100883072Y-82980585D01*
X100883064Y-82980592D01*
X100760592Y-83103064D01*
X100760585Y-83103072D01*
X100658769Y-83243209D01*
X100580130Y-83397548D01*
X100580126Y-83397556D01*
X100526597Y-83562300D01*
X100526597Y-83562301D01*
X100499501Y-83733375D01*
X100499500Y-83733391D01*
X63061633Y-83733391D01*
X63046964Y-83640777D01*
X62993435Y-83476033D01*
X62914794Y-83321690D01*
X62812976Y-83181550D01*
X62812969Y-83181542D01*
X62690497Y-83059070D01*
X62690489Y-83059063D01*
X62550352Y-82957247D01*
X62396013Y-82878608D01*
X62396005Y-82878604D01*
X62231261Y-82825075D01*
X62060186Y-82797979D01*
X62060174Y-82797978D01*
X62060173Y-82797978D01*
X61886951Y-82797978D01*
X61886949Y-82797978D01*
X61886937Y-82797979D01*
X61715863Y-82825075D01*
X61715862Y-82825075D01*
X61551118Y-82878604D01*
X61551110Y-82878608D01*
X61396771Y-82957247D01*
X61256634Y-83059063D01*
X61256626Y-83059070D01*
X61134154Y-83181542D01*
X61134147Y-83181550D01*
X61032331Y-83321687D01*
X60953692Y-83476026D01*
X60953688Y-83476034D01*
X60900159Y-83640778D01*
X60900159Y-83640779D01*
X60873063Y-83811853D01*
X60873062Y-83811869D01*
X60873062Y-83985086D01*
X60873063Y-83985102D01*
X60900159Y-84156176D01*
X60900159Y-84156177D01*
X60953688Y-84320921D01*
X60953692Y-84320929D01*
X61032331Y-84475268D01*
X61134147Y-84615405D01*
X61134154Y-84615413D01*
X61256626Y-84737885D01*
X61256634Y-84737892D01*
X61396774Y-84839710D01*
X61551117Y-84918351D01*
X61715861Y-84971880D01*
X61725506Y-84973407D01*
X61744353Y-84976393D01*
X61785140Y-85001387D01*
X61796306Y-85047900D01*
X61771312Y-85088687D01*
X61744354Y-85099853D01*
X61655563Y-85113916D01*
X61655560Y-85113917D01*
X61452276Y-85179968D01*
X61452264Y-85179973D01*
X61261812Y-85277013D01*
X61088885Y-85402653D01*
X61088877Y-85402660D01*
X60937744Y-85553793D01*
X60937737Y-85553801D01*
X60812097Y-85726728D01*
X60715057Y-85917180D01*
X60715052Y-85917192D01*
X60649001Y-86120476D01*
X60649000Y-86120479D01*
X60638863Y-86184477D01*
X54426418Y-86184477D01*
X54413402Y-86102299D01*
X54359873Y-85937555D01*
X54281232Y-85783212D01*
X54179414Y-85643072D01*
X54179407Y-85643064D01*
X54056935Y-85520592D01*
X54056927Y-85520585D01*
X53916790Y-85418769D01*
X53762451Y-85340130D01*
X53762443Y-85340126D01*
X53597699Y-85286597D01*
X53426624Y-85259501D01*
X53426612Y-85259500D01*
X53426611Y-85259500D01*
X53253389Y-85259500D01*
X53253387Y-85259500D01*
X53253375Y-85259501D01*
X53082301Y-85286597D01*
X53082300Y-85286597D01*
X52917556Y-85340126D01*
X52917548Y-85340130D01*
X52763209Y-85418769D01*
X52623072Y-85520585D01*
X52623064Y-85520592D01*
X52500592Y-85643064D01*
X52500585Y-85643072D01*
X52398769Y-85783209D01*
X52320130Y-85937548D01*
X52320126Y-85937556D01*
X52266597Y-86102300D01*
X52266597Y-86102301D01*
X52239501Y-86273375D01*
X52239500Y-86273391D01*
X46355000Y-86273391D01*
X46355000Y-83733391D01*
X52239500Y-83733391D01*
X52239500Y-83906608D01*
X52239501Y-83906624D01*
X52266597Y-84077698D01*
X52266597Y-84077699D01*
X52320126Y-84242443D01*
X52320130Y-84242451D01*
X52398769Y-84396790D01*
X52500585Y-84536927D01*
X52500592Y-84536935D01*
X52623064Y-84659407D01*
X52623072Y-84659414D01*
X52763212Y-84761232D01*
X52917555Y-84839873D01*
X53082299Y-84893402D01*
X53154407Y-84904822D01*
X53253375Y-84920498D01*
X53253381Y-84920498D01*
X53253389Y-84920500D01*
X53253391Y-84920500D01*
X53426609Y-84920500D01*
X53426611Y-84920500D01*
X53597701Y-84893402D01*
X53762445Y-84839873D01*
X53916788Y-84761232D01*
X54056928Y-84659414D01*
X54179414Y-84536928D01*
X54281232Y-84396788D01*
X54359873Y-84242445D01*
X54413402Y-84077701D01*
X54440500Y-83906611D01*
X54440500Y-83733389D01*
X54413402Y-83562299D01*
X54359873Y-83397555D01*
X54281232Y-83243212D01*
X54179414Y-83103072D01*
X54179407Y-83103064D01*
X54056935Y-82980592D01*
X54056927Y-82980585D01*
X53916790Y-82878769D01*
X53762451Y-82800130D01*
X53762443Y-82800126D01*
X53597699Y-82746597D01*
X53426624Y-82719501D01*
X53426612Y-82719500D01*
X53426611Y-82719500D01*
X53253389Y-82719500D01*
X53253387Y-82719500D01*
X53253375Y-82719501D01*
X53082301Y-82746597D01*
X53082300Y-82746597D01*
X52917556Y-82800126D01*
X52917548Y-82800130D01*
X52763209Y-82878769D01*
X52623072Y-82980585D01*
X52623064Y-82980592D01*
X52500592Y-83103064D01*
X52500585Y-83103072D01*
X52398769Y-83243209D01*
X52320130Y-83397548D01*
X52320126Y-83397556D01*
X52266597Y-83562300D01*
X52266597Y-83562301D01*
X52239501Y-83733375D01*
X52239500Y-83733391D01*
X46355000Y-83733391D01*
X46355000Y-82426080D01*
X65249500Y-82426080D01*
X65249500Y-82573919D01*
X65278341Y-82718911D01*
X65278341Y-82718912D01*
X65334916Y-82855495D01*
X65334917Y-82855497D01*
X65402904Y-82957247D01*
X65417049Y-82978416D01*
X65521584Y-83082951D01*
X65644505Y-83165084D01*
X65781087Y-83221658D01*
X65926082Y-83250500D01*
X66073918Y-83250500D01*
X66218913Y-83221658D01*
X66355495Y-83165084D01*
X66478416Y-83082951D01*
X66582951Y-82978416D01*
X66665084Y-82855495D01*
X66721658Y-82718913D01*
X66750500Y-82573918D01*
X66750500Y-82426082D01*
X66721658Y-82281087D01*
X66665084Y-82144505D01*
X66582951Y-82021584D01*
X66478416Y-81917049D01*
X66388229Y-81856788D01*
X66355497Y-81834917D01*
X66355495Y-81834916D01*
X66218911Y-81778341D01*
X66073919Y-81749500D01*
X66073918Y-81749500D01*
X65926082Y-81749500D01*
X65926080Y-81749500D01*
X65781088Y-81778341D01*
X65781087Y-81778341D01*
X65644504Y-81834916D01*
X65644502Y-81834917D01*
X65521584Y-81917048D01*
X65417048Y-82021584D01*
X65334917Y-82144502D01*
X65334916Y-82144504D01*
X65278341Y-82281087D01*
X65278341Y-82281088D01*
X65249500Y-82426080D01*
X46355000Y-82426080D01*
X46355000Y-81193391D01*
X52239500Y-81193391D01*
X52239500Y-81366608D01*
X52239501Y-81366624D01*
X52266597Y-81537698D01*
X52266597Y-81537699D01*
X52320126Y-81702443D01*
X52320130Y-81702451D01*
X52398769Y-81856790D01*
X52500585Y-81996927D01*
X52500592Y-81996935D01*
X52623064Y-82119407D01*
X52623072Y-82119414D01*
X52657602Y-82144502D01*
X52763212Y-82221232D01*
X52917555Y-82299873D01*
X53082299Y-82353402D01*
X53132045Y-82361281D01*
X53253375Y-82380498D01*
X53253381Y-82380498D01*
X53253389Y-82380500D01*
X53253391Y-82380500D01*
X53426609Y-82380500D01*
X53426611Y-82380500D01*
X53426624Y-82380498D01*
X53547958Y-82361281D01*
X53572980Y-82357317D01*
X53597701Y-82353402D01*
X53762445Y-82299873D01*
X53916788Y-82221232D01*
X54056928Y-82119414D01*
X54179414Y-81996928D01*
X54281232Y-81856788D01*
X54359873Y-81702445D01*
X54413402Y-81537701D01*
X54440500Y-81366611D01*
X54440500Y-81193391D01*
X100499500Y-81193391D01*
X100499500Y-81366608D01*
X100499501Y-81366624D01*
X100526597Y-81537698D01*
X100526597Y-81537699D01*
X100580126Y-81702443D01*
X100580130Y-81702451D01*
X100658769Y-81856790D01*
X100760585Y-81996927D01*
X100760592Y-81996935D01*
X100883064Y-82119407D01*
X100883072Y-82119414D01*
X100917602Y-82144502D01*
X101023212Y-82221232D01*
X101177555Y-82299873D01*
X101342299Y-82353402D01*
X101392045Y-82361281D01*
X101513375Y-82380498D01*
X101513381Y-82380498D01*
X101513389Y-82380500D01*
X101513391Y-82380500D01*
X101686609Y-82380500D01*
X101686611Y-82380500D01*
X101857701Y-82353402D01*
X102022445Y-82299873D01*
X102176788Y-82221232D01*
X102316928Y-82119414D01*
X102439414Y-81996928D01*
X102541232Y-81856788D01*
X102619873Y-81702445D01*
X102673402Y-81537701D01*
X102700500Y-81366611D01*
X102700500Y-81193389D01*
X102673402Y-81022299D01*
X102619873Y-80857555D01*
X102541232Y-80703212D01*
X102439414Y-80563072D01*
X102439407Y-80563064D01*
X102316935Y-80440592D01*
X102316927Y-80440585D01*
X102176790Y-80338769D01*
X102022451Y-80260130D01*
X102022443Y-80260126D01*
X101857699Y-80206597D01*
X101686624Y-80179501D01*
X101686612Y-80179500D01*
X101686611Y-80179500D01*
X101513389Y-80179500D01*
X101513387Y-80179500D01*
X101513375Y-80179501D01*
X101342301Y-80206597D01*
X101342300Y-80206597D01*
X101177556Y-80260126D01*
X101177548Y-80260130D01*
X101023209Y-80338769D01*
X100883072Y-80440585D01*
X100883064Y-80440592D01*
X100760592Y-80563064D01*
X100760585Y-80563072D01*
X100658769Y-80703209D01*
X100580130Y-80857548D01*
X100580126Y-80857556D01*
X100526597Y-81022300D01*
X100526597Y-81022301D01*
X100499501Y-81193375D01*
X100499500Y-81193391D01*
X54440500Y-81193391D01*
X54440500Y-81193389D01*
X54413402Y-81022299D01*
X54359873Y-80857555D01*
X54281232Y-80703212D01*
X54179414Y-80563072D01*
X54179407Y-80563064D01*
X54056935Y-80440592D01*
X54056927Y-80440585D01*
X53916790Y-80338769D01*
X53762451Y-80260130D01*
X53762443Y-80260126D01*
X53597699Y-80206597D01*
X53426624Y-80179501D01*
X53426612Y-80179500D01*
X53426611Y-80179500D01*
X53253389Y-80179500D01*
X53253387Y-80179500D01*
X53253375Y-80179501D01*
X53082301Y-80206597D01*
X53082300Y-80206597D01*
X52917556Y-80260126D01*
X52917548Y-80260130D01*
X52763209Y-80338769D01*
X52623072Y-80440585D01*
X52623064Y-80440592D01*
X52500592Y-80563064D01*
X52500585Y-80563072D01*
X52398769Y-80703209D01*
X52320130Y-80857548D01*
X52320126Y-80857556D01*
X52266597Y-81022300D01*
X52266597Y-81022301D01*
X52239501Y-81193375D01*
X52239500Y-81193391D01*
X46355000Y-81193391D01*
X46355000Y-78653391D01*
X52239500Y-78653391D01*
X52239500Y-78826608D01*
X52239501Y-78826624D01*
X52266597Y-78997698D01*
X52266597Y-78997699D01*
X52320126Y-79162443D01*
X52320130Y-79162451D01*
X52398769Y-79316790D01*
X52500585Y-79456927D01*
X52500592Y-79456935D01*
X52623064Y-79579407D01*
X52623072Y-79579414D01*
X52763212Y-79681232D01*
X52917555Y-79759873D01*
X53082299Y-79813402D01*
X53154407Y-79824822D01*
X53253375Y-79840498D01*
X53253381Y-79840498D01*
X53253389Y-79840500D01*
X53253391Y-79840500D01*
X53426609Y-79840500D01*
X53426611Y-79840500D01*
X53597701Y-79813402D01*
X53762445Y-79759873D01*
X53916788Y-79681232D01*
X54056928Y-79579414D01*
X54179414Y-79456928D01*
X54281232Y-79316788D01*
X54359873Y-79162445D01*
X54413402Y-78997701D01*
X54440500Y-78826611D01*
X54440500Y-78653389D01*
X54413402Y-78482299D01*
X54359873Y-78317555D01*
X54281232Y-78163212D01*
X54179414Y-78023072D01*
X54179407Y-78023064D01*
X54082423Y-77926080D01*
X81249500Y-77926080D01*
X81249500Y-78073919D01*
X81278341Y-78218911D01*
X81278341Y-78218912D01*
X81319198Y-78317548D01*
X81334916Y-78355495D01*
X81417049Y-78478416D01*
X81521584Y-78582951D01*
X81644505Y-78665084D01*
X81781087Y-78721658D01*
X81926082Y-78750500D01*
X82073918Y-78750500D01*
X82218913Y-78721658D01*
X82355495Y-78665084D01*
X82372995Y-78653391D01*
X100499500Y-78653391D01*
X100499500Y-78826608D01*
X100499501Y-78826624D01*
X100526597Y-78997698D01*
X100526597Y-78997699D01*
X100580126Y-79162443D01*
X100580130Y-79162451D01*
X100658769Y-79316790D01*
X100760585Y-79456927D01*
X100760592Y-79456935D01*
X100883064Y-79579407D01*
X100883072Y-79579414D01*
X101023212Y-79681232D01*
X101177555Y-79759873D01*
X101342299Y-79813402D01*
X101414407Y-79824822D01*
X101513375Y-79840498D01*
X101513381Y-79840498D01*
X101513389Y-79840500D01*
X101513391Y-79840500D01*
X101686609Y-79840500D01*
X101686611Y-79840500D01*
X101857701Y-79813402D01*
X102022445Y-79759873D01*
X102176788Y-79681232D01*
X102316928Y-79579414D01*
X102439414Y-79456928D01*
X102541232Y-79316788D01*
X102619873Y-79162445D01*
X102673402Y-78997701D01*
X102700500Y-78826611D01*
X102700500Y-78653389D01*
X102673402Y-78482299D01*
X102619873Y-78317555D01*
X102541232Y-78163212D01*
X102439414Y-78023072D01*
X102439407Y-78023064D01*
X102316935Y-77900592D01*
X102316927Y-77900585D01*
X102176790Y-77798769D01*
X102022451Y-77720130D01*
X102022443Y-77720126D01*
X101857699Y-77666597D01*
X101686624Y-77639501D01*
X101686612Y-77639500D01*
X101686611Y-77639500D01*
X101513389Y-77639500D01*
X101513387Y-77639500D01*
X101513375Y-77639501D01*
X101342301Y-77666597D01*
X101342300Y-77666597D01*
X101177556Y-77720126D01*
X101177548Y-77720130D01*
X101023209Y-77798769D01*
X100883072Y-77900585D01*
X100883064Y-77900592D01*
X100760592Y-78023064D01*
X100760585Y-78023072D01*
X100658769Y-78163209D01*
X100580130Y-78317548D01*
X100580126Y-78317556D01*
X100526597Y-78482300D01*
X100526597Y-78482301D01*
X100499501Y-78653375D01*
X100499500Y-78653391D01*
X82372995Y-78653391D01*
X82478416Y-78582951D01*
X82582951Y-78478416D01*
X82665084Y-78355495D01*
X82721658Y-78218913D01*
X82750500Y-78073918D01*
X82750500Y-77926082D01*
X82721658Y-77781087D01*
X82665084Y-77644505D01*
X82582951Y-77521584D01*
X82478416Y-77417049D01*
X82478415Y-77417048D01*
X82355497Y-77334917D01*
X82355495Y-77334916D01*
X82218911Y-77278341D01*
X82073919Y-77249500D01*
X82073918Y-77249500D01*
X81926082Y-77249500D01*
X81926080Y-77249500D01*
X81781088Y-77278341D01*
X81781087Y-77278341D01*
X81644504Y-77334916D01*
X81644502Y-77334917D01*
X81521584Y-77417048D01*
X81417048Y-77521584D01*
X81334917Y-77644502D01*
X81334916Y-77644504D01*
X81278341Y-77781087D01*
X81278341Y-77781088D01*
X81249500Y-77926080D01*
X54082423Y-77926080D01*
X54056935Y-77900592D01*
X54056927Y-77900585D01*
X53916790Y-77798769D01*
X53762451Y-77720130D01*
X53762443Y-77720126D01*
X53597699Y-77666597D01*
X53426624Y-77639501D01*
X53426612Y-77639500D01*
X53426611Y-77639500D01*
X53253389Y-77639500D01*
X53253387Y-77639500D01*
X53253375Y-77639501D01*
X53082301Y-77666597D01*
X53082300Y-77666597D01*
X52917556Y-77720126D01*
X52917548Y-77720130D01*
X52763209Y-77798769D01*
X52623072Y-77900585D01*
X52623064Y-77900592D01*
X52500592Y-78023064D01*
X52500585Y-78023072D01*
X52398769Y-78163209D01*
X52320130Y-78317548D01*
X52320126Y-78317556D01*
X52266597Y-78482300D01*
X52266597Y-78482301D01*
X52239501Y-78653375D01*
X52239500Y-78653391D01*
X46355000Y-78653391D01*
X46355000Y-76113391D01*
X52239500Y-76113391D01*
X52239500Y-76286608D01*
X52239501Y-76286624D01*
X52266597Y-76457698D01*
X52266597Y-76457699D01*
X52320126Y-76622443D01*
X52320130Y-76622451D01*
X52398769Y-76776790D01*
X52500585Y-76916927D01*
X52500592Y-76916935D01*
X52623064Y-77039407D01*
X52623072Y-77039414D01*
X52763212Y-77141232D01*
X52917555Y-77219873D01*
X53082299Y-77273402D01*
X53113483Y-77278341D01*
X53253375Y-77300498D01*
X53253381Y-77300498D01*
X53253389Y-77300500D01*
X53253391Y-77300500D01*
X53426609Y-77300500D01*
X53426611Y-77300500D01*
X53597701Y-77273402D01*
X53762445Y-77219873D01*
X53916788Y-77141232D01*
X54056928Y-77039414D01*
X54179414Y-76916928D01*
X54281232Y-76776788D01*
X54359873Y-76622445D01*
X54413402Y-76457701D01*
X54440500Y-76286611D01*
X54440500Y-76113391D01*
X100499500Y-76113391D01*
X100499500Y-76286608D01*
X100499501Y-76286624D01*
X100526597Y-76457698D01*
X100526597Y-76457699D01*
X100580126Y-76622443D01*
X100580130Y-76622451D01*
X100658769Y-76776790D01*
X100760585Y-76916927D01*
X100760592Y-76916935D01*
X100883064Y-77039407D01*
X100883072Y-77039414D01*
X101023212Y-77141232D01*
X101177555Y-77219873D01*
X101342299Y-77273402D01*
X101373483Y-77278341D01*
X101513375Y-77300498D01*
X101513381Y-77300498D01*
X101513389Y-77300500D01*
X101513391Y-77300500D01*
X101686609Y-77300500D01*
X101686611Y-77300500D01*
X101857701Y-77273402D01*
X102022445Y-77219873D01*
X102176788Y-77141232D01*
X102316928Y-77039414D01*
X102439414Y-76916928D01*
X102541232Y-76776788D01*
X102619873Y-76622445D01*
X102673402Y-76457701D01*
X102700500Y-76286611D01*
X102700500Y-76113389D01*
X102673402Y-75942299D01*
X102619873Y-75777555D01*
X102541232Y-75623212D01*
X102439414Y-75483072D01*
X102439407Y-75483064D01*
X102316935Y-75360592D01*
X102316927Y-75360585D01*
X102176790Y-75258769D01*
X102022451Y-75180130D01*
X102022443Y-75180126D01*
X101857699Y-75126597D01*
X101686624Y-75099501D01*
X101686612Y-75099500D01*
X101686611Y-75099500D01*
X101513389Y-75099500D01*
X101513387Y-75099500D01*
X101513375Y-75099501D01*
X101342301Y-75126597D01*
X101342300Y-75126597D01*
X101177556Y-75180126D01*
X101177548Y-75180130D01*
X101023209Y-75258769D01*
X100883072Y-75360585D01*
X100883064Y-75360592D01*
X100760592Y-75483064D01*
X100760585Y-75483072D01*
X100658769Y-75623209D01*
X100580130Y-75777548D01*
X100580126Y-75777556D01*
X100526597Y-75942300D01*
X100526597Y-75942301D01*
X100499501Y-76113375D01*
X100499500Y-76113391D01*
X54440500Y-76113391D01*
X54440500Y-76113389D01*
X54413402Y-75942299D01*
X54359873Y-75777555D01*
X54281232Y-75623212D01*
X54179414Y-75483072D01*
X54179407Y-75483064D01*
X54056935Y-75360592D01*
X54056927Y-75360585D01*
X53916790Y-75258769D01*
X53762451Y-75180130D01*
X53762443Y-75180126D01*
X53597699Y-75126597D01*
X53426624Y-75099501D01*
X53426612Y-75099500D01*
X53426611Y-75099500D01*
X53253389Y-75099500D01*
X53253387Y-75099500D01*
X53253375Y-75099501D01*
X53082301Y-75126597D01*
X53082300Y-75126597D01*
X52917556Y-75180126D01*
X52917548Y-75180130D01*
X52763209Y-75258769D01*
X52623072Y-75360585D01*
X52623064Y-75360592D01*
X52500592Y-75483064D01*
X52500585Y-75483072D01*
X52398769Y-75623209D01*
X52320130Y-75777548D01*
X52320126Y-75777556D01*
X52266597Y-75942300D01*
X52266597Y-75942301D01*
X52239501Y-76113375D01*
X52239500Y-76113391D01*
X46355000Y-76113391D01*
X46355000Y-73573391D01*
X52239500Y-73573391D01*
X52239500Y-73746608D01*
X52239501Y-73746624D01*
X52266597Y-73917698D01*
X52266597Y-73917699D01*
X52320126Y-74082443D01*
X52320130Y-74082451D01*
X52398769Y-74236790D01*
X52500585Y-74376927D01*
X52500592Y-74376935D01*
X52623064Y-74499407D01*
X52623072Y-74499414D01*
X52763212Y-74601232D01*
X52917555Y-74679873D01*
X53082299Y-74733402D01*
X53154407Y-74744822D01*
X53253375Y-74760498D01*
X53253381Y-74760498D01*
X53253389Y-74760500D01*
X53253391Y-74760500D01*
X53426609Y-74760500D01*
X53426611Y-74760500D01*
X53597701Y-74733402D01*
X53762445Y-74679873D01*
X53916788Y-74601232D01*
X54056928Y-74499414D01*
X54179414Y-74376928D01*
X54281232Y-74236788D01*
X54359873Y-74082445D01*
X54413402Y-73917701D01*
X54440500Y-73746611D01*
X54440500Y-73573389D01*
X54413402Y-73402299D01*
X54359873Y-73237555D01*
X54281232Y-73083212D01*
X54179414Y-72943072D01*
X54179407Y-72943064D01*
X54056935Y-72820592D01*
X54056927Y-72820585D01*
X53916790Y-72718769D01*
X53762451Y-72640130D01*
X53762443Y-72640126D01*
X53597699Y-72586597D01*
X53426624Y-72559501D01*
X53426612Y-72559500D01*
X53426611Y-72559500D01*
X53253389Y-72559500D01*
X53253387Y-72559500D01*
X53253375Y-72559501D01*
X53082301Y-72586597D01*
X53082300Y-72586597D01*
X52917556Y-72640126D01*
X52917548Y-72640130D01*
X52763209Y-72718769D01*
X52623072Y-72820585D01*
X52623064Y-72820592D01*
X52500592Y-72943064D01*
X52500585Y-72943072D01*
X52398769Y-73083209D01*
X52320130Y-73237548D01*
X52320126Y-73237556D01*
X52266597Y-73402300D01*
X52266597Y-73402301D01*
X52239501Y-73573375D01*
X52239500Y-73573391D01*
X46355000Y-73573391D01*
X46355000Y-71033391D01*
X52239500Y-71033391D01*
X52239500Y-71206608D01*
X52239501Y-71206624D01*
X52266597Y-71377698D01*
X52266597Y-71377699D01*
X52320126Y-71542443D01*
X52320130Y-71542451D01*
X52398769Y-71696790D01*
X52500585Y-71836927D01*
X52500592Y-71836935D01*
X52623064Y-71959407D01*
X52623072Y-71959414D01*
X52763212Y-72061232D01*
X52917555Y-72139873D01*
X53082299Y-72193402D01*
X53154407Y-72204822D01*
X53253375Y-72220498D01*
X53253381Y-72220498D01*
X53253389Y-72220500D01*
X53253391Y-72220500D01*
X53426609Y-72220500D01*
X53426611Y-72220500D01*
X53597701Y-72193402D01*
X53762445Y-72139873D01*
X53916788Y-72061232D01*
X54056928Y-71959414D01*
X54179414Y-71836928D01*
X54281232Y-71696788D01*
X54359873Y-71542445D01*
X54413402Y-71377701D01*
X54440500Y-71206611D01*
X54440500Y-71033389D01*
X54438450Y-71020443D01*
X54438450Y-71020441D01*
X54437291Y-71013125D01*
X100242000Y-71013125D01*
X100242000Y-71226874D01*
X100242001Y-71226890D01*
X100275438Y-71437996D01*
X100275439Y-71438001D01*
X100341490Y-71641285D01*
X100341495Y-71641297D01*
X100438532Y-71831744D01*
X100438535Y-71831749D01*
X100476621Y-71884168D01*
X101115841Y-71244947D01*
X101134075Y-71312993D01*
X101199901Y-71427007D01*
X101292993Y-71520099D01*
X101407007Y-71585925D01*
X101475051Y-71604157D01*
X100835830Y-72243377D01*
X100888253Y-72281466D01*
X101078702Y-72378504D01*
X101078714Y-72378509D01*
X101281994Y-72444559D01*
X101370791Y-72458623D01*
X101411577Y-72483617D01*
X101422745Y-72530131D01*
X101397751Y-72570917D01*
X101370793Y-72582084D01*
X101342299Y-72586597D01*
X101177556Y-72640126D01*
X101177548Y-72640130D01*
X101023209Y-72718769D01*
X100883072Y-72820585D01*
X100883064Y-72820592D01*
X100760592Y-72943064D01*
X100760585Y-72943072D01*
X100658769Y-73083209D01*
X100580130Y-73237548D01*
X100580126Y-73237556D01*
X100526597Y-73402300D01*
X100526597Y-73402301D01*
X100499501Y-73573375D01*
X100499500Y-73573391D01*
X100499500Y-73746608D01*
X100499501Y-73746624D01*
X100526597Y-73917698D01*
X100526597Y-73917699D01*
X100580126Y-74082443D01*
X100580130Y-74082451D01*
X100658769Y-74236790D01*
X100760585Y-74376927D01*
X100760592Y-74376935D01*
X100883064Y-74499407D01*
X100883072Y-74499414D01*
X101023212Y-74601232D01*
X101177555Y-74679873D01*
X101342299Y-74733402D01*
X101414407Y-74744822D01*
X101513375Y-74760498D01*
X101513381Y-74760498D01*
X101513389Y-74760500D01*
X101513391Y-74760500D01*
X101686609Y-74760500D01*
X101686611Y-74760500D01*
X101857701Y-74733402D01*
X102022445Y-74679873D01*
X102176788Y-74601232D01*
X102316928Y-74499414D01*
X102439414Y-74376928D01*
X102541232Y-74236788D01*
X102619873Y-74082445D01*
X102673402Y-73917701D01*
X102700500Y-73746611D01*
X102700500Y-73573389D01*
X102673402Y-73402299D01*
X102619873Y-73237555D01*
X102541232Y-73083212D01*
X102439414Y-72943072D01*
X102439407Y-72943064D01*
X102316935Y-72820592D01*
X102316927Y-72820585D01*
X102176790Y-72718769D01*
X102022451Y-72640130D01*
X102022443Y-72640126D01*
X101857700Y-72586597D01*
X101829206Y-72582084D01*
X101788420Y-72557089D01*
X101777255Y-72510575D01*
X101802250Y-72469789D01*
X101829208Y-72458623D01*
X101918005Y-72444559D01*
X102121285Y-72378509D01*
X102121297Y-72378504D01*
X102311738Y-72281470D01*
X102311745Y-72281466D01*
X102364168Y-72243377D01*
X101724948Y-71604157D01*
X101792993Y-71585925D01*
X101907007Y-71520099D01*
X102000099Y-71427007D01*
X102065925Y-71312993D01*
X102084157Y-71244948D01*
X102723377Y-71884168D01*
X102761466Y-71831745D01*
X102761470Y-71831738D01*
X102858504Y-71641297D01*
X102858509Y-71641285D01*
X102924560Y-71438001D01*
X102924561Y-71437996D01*
X102957998Y-71226890D01*
X102958000Y-71226874D01*
X102958000Y-71013125D01*
X102957998Y-71013109D01*
X102924561Y-70802003D01*
X102924560Y-70801998D01*
X102858509Y-70598714D01*
X102858504Y-70598702D01*
X102761466Y-70408253D01*
X102723377Y-70355830D01*
X102084157Y-70995050D01*
X102065925Y-70927007D01*
X102000099Y-70812993D01*
X101907007Y-70719901D01*
X101792993Y-70654075D01*
X101724947Y-70635841D01*
X102364168Y-69996621D01*
X102311749Y-69958535D01*
X102311744Y-69958532D01*
X102121297Y-69861495D01*
X102121285Y-69861490D01*
X101918001Y-69795439D01*
X101917998Y-69795438D01*
X101829207Y-69781375D01*
X101788421Y-69756381D01*
X101777255Y-69709867D01*
X101802249Y-69669081D01*
X101829204Y-69657915D01*
X101857701Y-69653402D01*
X102022445Y-69599873D01*
X102176788Y-69521232D01*
X102316928Y-69419414D01*
X102439414Y-69296928D01*
X102541232Y-69156788D01*
X102619873Y-69002445D01*
X102673402Y-68837701D01*
X102700500Y-68666611D01*
X102700500Y-68493389D01*
X102673402Y-68322299D01*
X102619873Y-68157555D01*
X102541232Y-68003212D01*
X102439414Y-67863072D01*
X102439407Y-67863064D01*
X102316935Y-67740592D01*
X102316927Y-67740585D01*
X102176790Y-67638769D01*
X102022451Y-67560130D01*
X102022443Y-67560126D01*
X101857699Y-67506597D01*
X101686624Y-67479501D01*
X101686612Y-67479500D01*
X101686611Y-67479500D01*
X101513389Y-67479500D01*
X101513387Y-67479500D01*
X101513375Y-67479501D01*
X101342301Y-67506597D01*
X101342300Y-67506597D01*
X101177556Y-67560126D01*
X101177548Y-67560130D01*
X101023209Y-67638769D01*
X100883072Y-67740585D01*
X100883064Y-67740592D01*
X100760592Y-67863064D01*
X100760585Y-67863072D01*
X100658769Y-68003209D01*
X100580130Y-68157548D01*
X100580126Y-68157556D01*
X100526597Y-68322300D01*
X100526597Y-68322301D01*
X100499501Y-68493375D01*
X100499500Y-68493391D01*
X100499500Y-68666608D01*
X100499501Y-68666624D01*
X100526597Y-68837698D01*
X100526597Y-68837699D01*
X100580126Y-69002443D01*
X100580130Y-69002451D01*
X100658769Y-69156790D01*
X100760585Y-69296927D01*
X100760592Y-69296935D01*
X100883064Y-69419407D01*
X100883072Y-69419414D01*
X101023212Y-69521232D01*
X101177555Y-69599873D01*
X101342299Y-69653402D01*
X101351944Y-69654929D01*
X101370791Y-69657915D01*
X101411578Y-69682909D01*
X101422744Y-69729422D01*
X101397750Y-69770209D01*
X101370792Y-69781375D01*
X101282001Y-69795438D01*
X101281998Y-69795439D01*
X101078714Y-69861490D01*
X101078702Y-69861495D01*
X100888255Y-69958533D01*
X100835831Y-69996621D01*
X101475052Y-70635842D01*
X101407007Y-70654075D01*
X101292993Y-70719901D01*
X101199901Y-70812993D01*
X101134075Y-70927007D01*
X101115842Y-70995052D01*
X100476621Y-70355831D01*
X100438533Y-70408255D01*
X100341495Y-70598702D01*
X100341490Y-70598714D01*
X100275439Y-70801998D01*
X100275438Y-70802003D01*
X100242001Y-71013109D01*
X100242000Y-71013125D01*
X54437291Y-71013125D01*
X54413402Y-70862299D01*
X54380419Y-70760790D01*
X54359873Y-70697555D01*
X54281232Y-70543212D01*
X54179414Y-70403072D01*
X54179407Y-70403064D01*
X54056935Y-70280592D01*
X54056927Y-70280585D01*
X53916790Y-70178769D01*
X53762451Y-70100130D01*
X53762443Y-70100126D01*
X53597699Y-70046597D01*
X53426624Y-70019501D01*
X53426612Y-70019500D01*
X53426611Y-70019500D01*
X53253389Y-70019500D01*
X53253387Y-70019500D01*
X53253375Y-70019501D01*
X53082301Y-70046597D01*
X53082300Y-70046597D01*
X52917556Y-70100126D01*
X52917548Y-70100130D01*
X52763209Y-70178769D01*
X52623072Y-70280585D01*
X52623064Y-70280592D01*
X52500592Y-70403064D01*
X52500585Y-70403072D01*
X52398769Y-70543209D01*
X52320130Y-70697548D01*
X52320126Y-70697556D01*
X52266597Y-70862300D01*
X52266597Y-70862301D01*
X52239501Y-71033375D01*
X52239500Y-71033391D01*
X46355000Y-71033391D01*
X46355000Y-68493391D01*
X52239500Y-68493391D01*
X52239500Y-68666608D01*
X52239501Y-68666624D01*
X52266597Y-68837698D01*
X52266597Y-68837699D01*
X52320126Y-69002443D01*
X52320130Y-69002451D01*
X52398769Y-69156790D01*
X52500585Y-69296927D01*
X52500592Y-69296935D01*
X52623064Y-69419407D01*
X52623072Y-69419414D01*
X52763212Y-69521232D01*
X52917555Y-69599873D01*
X53082299Y-69653402D01*
X53154407Y-69664822D01*
X53253375Y-69680498D01*
X53253381Y-69680498D01*
X53253389Y-69680500D01*
X53253391Y-69680500D01*
X53426609Y-69680500D01*
X53426611Y-69680500D01*
X53597701Y-69653402D01*
X53762445Y-69599873D01*
X53916788Y-69521232D01*
X54056928Y-69419414D01*
X54179414Y-69296928D01*
X54281232Y-69156788D01*
X54359873Y-69002445D01*
X54413402Y-68837701D01*
X54440500Y-68666611D01*
X54440500Y-68493389D01*
X54413402Y-68322299D01*
X54359873Y-68157555D01*
X54281232Y-68003212D01*
X54179414Y-67863072D01*
X54179407Y-67863064D01*
X54056935Y-67740592D01*
X54056927Y-67740585D01*
X53916790Y-67638769D01*
X53762451Y-67560130D01*
X53762443Y-67560126D01*
X53597699Y-67506597D01*
X53426624Y-67479501D01*
X53426612Y-67479500D01*
X53426611Y-67479500D01*
X53253389Y-67479500D01*
X53253387Y-67479500D01*
X53253375Y-67479501D01*
X53082301Y-67506597D01*
X53082300Y-67506597D01*
X52917556Y-67560126D01*
X52917548Y-67560130D01*
X52763209Y-67638769D01*
X52623072Y-67740585D01*
X52623064Y-67740592D01*
X52500592Y-67863064D01*
X52500585Y-67863072D01*
X52398769Y-68003209D01*
X52320130Y-68157548D01*
X52320126Y-68157556D01*
X52266597Y-68322300D01*
X52266597Y-68322301D01*
X52239501Y-68493375D01*
X52239500Y-68493391D01*
X46355000Y-68493391D01*
X46355000Y-65953391D01*
X52239500Y-65953391D01*
X52239500Y-66126608D01*
X52239501Y-66126624D01*
X52266597Y-66297698D01*
X52266597Y-66297699D01*
X52320126Y-66462443D01*
X52320130Y-66462451D01*
X52398769Y-66616790D01*
X52500585Y-66756927D01*
X52500592Y-66756935D01*
X52623064Y-66879407D01*
X52623072Y-66879414D01*
X52763212Y-66981232D01*
X52917555Y-67059873D01*
X53082299Y-67113402D01*
X53154407Y-67124822D01*
X53253375Y-67140498D01*
X53253381Y-67140498D01*
X53253389Y-67140500D01*
X53253391Y-67140500D01*
X53426609Y-67140500D01*
X53426611Y-67140500D01*
X53597701Y-67113402D01*
X53762445Y-67059873D01*
X53916788Y-66981232D01*
X54056928Y-66879414D01*
X54179414Y-66756928D01*
X54281232Y-66616788D01*
X54359873Y-66462445D01*
X54413402Y-66297701D01*
X54440500Y-66126611D01*
X54440500Y-65953391D01*
X100499500Y-65953391D01*
X100499500Y-66126608D01*
X100499501Y-66126624D01*
X100526597Y-66297698D01*
X100526597Y-66297699D01*
X100580126Y-66462443D01*
X100580130Y-66462451D01*
X100658769Y-66616790D01*
X100760585Y-66756927D01*
X100760592Y-66756935D01*
X100883064Y-66879407D01*
X100883072Y-66879414D01*
X101023212Y-66981232D01*
X101177555Y-67059873D01*
X101342299Y-67113402D01*
X101414407Y-67124822D01*
X101513375Y-67140498D01*
X101513381Y-67140498D01*
X101513389Y-67140500D01*
X101513391Y-67140500D01*
X101686609Y-67140500D01*
X101686611Y-67140500D01*
X101857701Y-67113402D01*
X102022445Y-67059873D01*
X102176788Y-66981232D01*
X102316928Y-66879414D01*
X102439414Y-66756928D01*
X102541232Y-66616788D01*
X102619873Y-66462445D01*
X102673402Y-66297701D01*
X102700500Y-66126611D01*
X102700500Y-65953389D01*
X102673402Y-65782299D01*
X102619873Y-65617555D01*
X102541232Y-65463212D01*
X102439414Y-65323072D01*
X102439407Y-65323064D01*
X102316935Y-65200592D01*
X102316927Y-65200585D01*
X102176790Y-65098769D01*
X102022451Y-65020130D01*
X102022443Y-65020126D01*
X101857699Y-64966597D01*
X101686624Y-64939501D01*
X101686612Y-64939500D01*
X101686611Y-64939500D01*
X101513389Y-64939500D01*
X101513387Y-64939500D01*
X101513375Y-64939501D01*
X101342301Y-64966597D01*
X101342300Y-64966597D01*
X101177556Y-65020126D01*
X101177548Y-65020130D01*
X101023209Y-65098769D01*
X100883072Y-65200585D01*
X100883064Y-65200592D01*
X100760592Y-65323064D01*
X100760585Y-65323072D01*
X100658769Y-65463209D01*
X100580130Y-65617548D01*
X100580126Y-65617556D01*
X100526597Y-65782300D01*
X100526597Y-65782301D01*
X100499501Y-65953375D01*
X100499500Y-65953391D01*
X54440500Y-65953391D01*
X54440500Y-65953389D01*
X54413402Y-65782299D01*
X54359873Y-65617555D01*
X54281232Y-65463212D01*
X54179414Y-65323072D01*
X54179407Y-65323064D01*
X54056935Y-65200592D01*
X54056927Y-65200585D01*
X53916790Y-65098769D01*
X53762451Y-65020130D01*
X53762443Y-65020126D01*
X53597699Y-64966597D01*
X53426624Y-64939501D01*
X53426612Y-64939500D01*
X53426611Y-64939500D01*
X53253389Y-64939500D01*
X53253387Y-64939500D01*
X53253375Y-64939501D01*
X53082301Y-64966597D01*
X53082300Y-64966597D01*
X52917556Y-65020126D01*
X52917548Y-65020130D01*
X52763209Y-65098769D01*
X52623072Y-65200585D01*
X52623064Y-65200592D01*
X52500592Y-65323064D01*
X52500585Y-65323072D01*
X52398769Y-65463209D01*
X52320130Y-65617548D01*
X52320126Y-65617556D01*
X52266597Y-65782300D01*
X52266597Y-65782301D01*
X52239501Y-65953375D01*
X52239500Y-65953391D01*
X46355000Y-65953391D01*
X46355000Y-63413391D01*
X52239500Y-63413391D01*
X52239500Y-63586608D01*
X52239501Y-63586624D01*
X52266597Y-63757698D01*
X52266597Y-63757699D01*
X52320126Y-63922443D01*
X52320130Y-63922451D01*
X52398769Y-64076790D01*
X52500585Y-64216927D01*
X52500592Y-64216935D01*
X52623064Y-64339407D01*
X52623072Y-64339414D01*
X52763212Y-64441232D01*
X52917555Y-64519873D01*
X53082299Y-64573402D01*
X53154407Y-64584822D01*
X53253375Y-64600498D01*
X53253381Y-64600498D01*
X53253389Y-64600500D01*
X53253391Y-64600500D01*
X53426609Y-64600500D01*
X53426611Y-64600500D01*
X53597701Y-64573402D01*
X53762445Y-64519873D01*
X53916788Y-64441232D01*
X54056928Y-64339414D01*
X54179414Y-64216928D01*
X54281232Y-64076788D01*
X54359873Y-63922445D01*
X54413402Y-63757701D01*
X54440500Y-63586611D01*
X54440500Y-63413391D01*
X100499500Y-63413391D01*
X100499500Y-63586608D01*
X100499501Y-63586624D01*
X100526597Y-63757698D01*
X100526597Y-63757699D01*
X100580126Y-63922443D01*
X100580130Y-63922451D01*
X100658769Y-64076790D01*
X100760585Y-64216927D01*
X100760592Y-64216935D01*
X100883064Y-64339407D01*
X100883072Y-64339414D01*
X101023212Y-64441232D01*
X101177555Y-64519873D01*
X101342299Y-64573402D01*
X101414407Y-64584822D01*
X101513375Y-64600498D01*
X101513381Y-64600498D01*
X101513389Y-64600500D01*
X101513391Y-64600500D01*
X101686609Y-64600500D01*
X101686611Y-64600500D01*
X101857701Y-64573402D01*
X102022445Y-64519873D01*
X102176788Y-64441232D01*
X102316928Y-64339414D01*
X102439414Y-64216928D01*
X102541232Y-64076788D01*
X102619873Y-63922445D01*
X102673402Y-63757701D01*
X102700500Y-63586611D01*
X102700500Y-63413389D01*
X102673402Y-63242299D01*
X102619873Y-63077555D01*
X102541232Y-62923212D01*
X102439414Y-62783072D01*
X102439407Y-62783064D01*
X102316935Y-62660592D01*
X102316927Y-62660585D01*
X102176790Y-62558769D01*
X102022451Y-62480130D01*
X102022443Y-62480126D01*
X101857699Y-62426597D01*
X101686624Y-62399501D01*
X101686612Y-62399500D01*
X101686611Y-62399500D01*
X101513389Y-62399500D01*
X101513387Y-62399500D01*
X101513375Y-62399501D01*
X101342301Y-62426597D01*
X101342300Y-62426597D01*
X101177556Y-62480126D01*
X101177548Y-62480130D01*
X101023209Y-62558769D01*
X100883072Y-62660585D01*
X100883064Y-62660592D01*
X100760592Y-62783064D01*
X100760585Y-62783072D01*
X100658769Y-62923209D01*
X100580130Y-63077548D01*
X100580126Y-63077556D01*
X100526597Y-63242300D01*
X100526597Y-63242301D01*
X100499501Y-63413375D01*
X100499500Y-63413391D01*
X54440500Y-63413391D01*
X54440500Y-63413389D01*
X54413402Y-63242299D01*
X54359873Y-63077555D01*
X54281232Y-62923212D01*
X54179414Y-62783072D01*
X54179407Y-62783064D01*
X54056935Y-62660592D01*
X54056927Y-62660585D01*
X53916790Y-62558769D01*
X53762451Y-62480130D01*
X53762443Y-62480126D01*
X53597699Y-62426597D01*
X53426624Y-62399501D01*
X53426612Y-62399500D01*
X53426611Y-62399500D01*
X53253389Y-62399500D01*
X53253387Y-62399500D01*
X53253375Y-62399501D01*
X53082301Y-62426597D01*
X53082300Y-62426597D01*
X52917556Y-62480126D01*
X52917548Y-62480130D01*
X52763209Y-62558769D01*
X52623072Y-62660585D01*
X52623064Y-62660592D01*
X52500592Y-62783064D01*
X52500585Y-62783072D01*
X52398769Y-62923209D01*
X52320130Y-63077548D01*
X52320126Y-63077556D01*
X52266597Y-63242300D01*
X52266597Y-63242301D01*
X52239501Y-63413375D01*
X52239500Y-63413391D01*
X46355000Y-63413391D01*
X46355000Y-60873391D01*
X52239500Y-60873391D01*
X52239500Y-61046608D01*
X52239501Y-61046624D01*
X52266597Y-61217698D01*
X52266597Y-61217699D01*
X52320126Y-61382443D01*
X52320130Y-61382451D01*
X52398769Y-61536790D01*
X52500585Y-61676927D01*
X52500592Y-61676935D01*
X52623064Y-61799407D01*
X52623072Y-61799414D01*
X52763212Y-61901232D01*
X52917555Y-61979873D01*
X53082299Y-62033402D01*
X53154407Y-62044822D01*
X53253375Y-62060498D01*
X53253381Y-62060498D01*
X53253389Y-62060500D01*
X53253391Y-62060500D01*
X53426609Y-62060500D01*
X53426611Y-62060500D01*
X53597701Y-62033402D01*
X53762445Y-61979873D01*
X53916788Y-61901232D01*
X54056928Y-61799414D01*
X54179414Y-61676928D01*
X54281232Y-61536788D01*
X54359873Y-61382445D01*
X54413402Y-61217701D01*
X54440500Y-61046611D01*
X54440500Y-60873391D01*
X100499500Y-60873391D01*
X100499500Y-61046608D01*
X100499501Y-61046624D01*
X100526597Y-61217698D01*
X100526597Y-61217699D01*
X100580126Y-61382443D01*
X100580130Y-61382451D01*
X100658769Y-61536790D01*
X100760585Y-61676927D01*
X100760592Y-61676935D01*
X100883064Y-61799407D01*
X100883072Y-61799414D01*
X101023212Y-61901232D01*
X101177555Y-61979873D01*
X101342299Y-62033402D01*
X101414407Y-62044822D01*
X101513375Y-62060498D01*
X101513381Y-62060498D01*
X101513389Y-62060500D01*
X101513391Y-62060500D01*
X101686609Y-62060500D01*
X101686611Y-62060500D01*
X101857701Y-62033402D01*
X102022445Y-61979873D01*
X102176788Y-61901232D01*
X102316928Y-61799414D01*
X102439414Y-61676928D01*
X102541232Y-61536788D01*
X102619873Y-61382445D01*
X102673402Y-61217701D01*
X102700500Y-61046611D01*
X102700500Y-60873389D01*
X102673402Y-60702299D01*
X102619873Y-60537555D01*
X102541232Y-60383212D01*
X102439414Y-60243072D01*
X102439407Y-60243064D01*
X102316935Y-60120592D01*
X102316927Y-60120585D01*
X102176790Y-60018769D01*
X102022451Y-59940130D01*
X102022443Y-59940126D01*
X101857699Y-59886597D01*
X101686624Y-59859501D01*
X101686612Y-59859500D01*
X101686611Y-59859500D01*
X101513389Y-59859500D01*
X101513387Y-59859500D01*
X101513375Y-59859501D01*
X101342301Y-59886597D01*
X101342300Y-59886597D01*
X101177556Y-59940126D01*
X101177548Y-59940130D01*
X101023209Y-60018769D01*
X100883072Y-60120585D01*
X100883064Y-60120592D01*
X100760592Y-60243064D01*
X100760585Y-60243072D01*
X100658769Y-60383209D01*
X100580130Y-60537548D01*
X100580126Y-60537556D01*
X100526597Y-60702300D01*
X100526597Y-60702301D01*
X100499501Y-60873375D01*
X100499500Y-60873391D01*
X54440500Y-60873391D01*
X54440500Y-60873389D01*
X54413402Y-60702299D01*
X54359873Y-60537555D01*
X54281232Y-60383212D01*
X54179414Y-60243072D01*
X54179407Y-60243064D01*
X54056935Y-60120592D01*
X54056927Y-60120585D01*
X53916790Y-60018769D01*
X53762451Y-59940130D01*
X53762443Y-59940126D01*
X53597699Y-59886597D01*
X53426624Y-59859501D01*
X53426612Y-59859500D01*
X53426611Y-59859500D01*
X53253389Y-59859500D01*
X53253387Y-59859500D01*
X53253375Y-59859501D01*
X53082301Y-59886597D01*
X53082300Y-59886597D01*
X52917556Y-59940126D01*
X52917548Y-59940130D01*
X52763209Y-60018769D01*
X52623072Y-60120585D01*
X52623064Y-60120592D01*
X52500592Y-60243064D01*
X52500585Y-60243072D01*
X52398769Y-60383209D01*
X52320130Y-60537548D01*
X52320126Y-60537556D01*
X52266597Y-60702300D01*
X52266597Y-60702301D01*
X52239501Y-60873375D01*
X52239500Y-60873391D01*
X46355000Y-60873391D01*
X46355000Y-58333391D01*
X52239500Y-58333391D01*
X52239500Y-58506608D01*
X52239501Y-58506624D01*
X52266597Y-58677698D01*
X52266597Y-58677699D01*
X52320126Y-58842443D01*
X52320130Y-58842451D01*
X52398769Y-58996790D01*
X52500585Y-59136927D01*
X52500592Y-59136935D01*
X52623064Y-59259407D01*
X52623072Y-59259414D01*
X52763212Y-59361232D01*
X52917555Y-59439873D01*
X53082299Y-59493402D01*
X53154407Y-59504822D01*
X53253375Y-59520498D01*
X53253381Y-59520498D01*
X53253389Y-59520500D01*
X53253391Y-59520500D01*
X53426609Y-59520500D01*
X53426611Y-59520500D01*
X53597701Y-59493402D01*
X53762445Y-59439873D01*
X53916788Y-59361232D01*
X54056928Y-59259414D01*
X54179414Y-59136928D01*
X54281232Y-58996788D01*
X54359873Y-58842445D01*
X54413402Y-58677701D01*
X54440500Y-58506611D01*
X54440500Y-58333389D01*
X54436323Y-58307019D01*
X54422369Y-58218913D01*
X54413402Y-58162299D01*
X54359873Y-57997555D01*
X54323455Y-57926080D01*
X71749500Y-57926080D01*
X71749500Y-58073919D01*
X71778341Y-58218911D01*
X71778341Y-58218912D01*
X71825754Y-58333375D01*
X71834916Y-58355495D01*
X71917049Y-58478416D01*
X72021584Y-58582951D01*
X72144505Y-58665084D01*
X72281087Y-58721658D01*
X72426082Y-58750500D01*
X72573918Y-58750500D01*
X72718913Y-58721658D01*
X72855495Y-58665084D01*
X72978416Y-58582951D01*
X73082951Y-58478416D01*
X73165084Y-58355495D01*
X73174240Y-58333391D01*
X100499500Y-58333391D01*
X100499500Y-58506608D01*
X100499501Y-58506624D01*
X100526597Y-58677698D01*
X100526597Y-58677699D01*
X100580126Y-58842443D01*
X100580130Y-58842451D01*
X100658769Y-58996790D01*
X100760585Y-59136927D01*
X100760592Y-59136935D01*
X100883064Y-59259407D01*
X100883072Y-59259414D01*
X101023212Y-59361232D01*
X101177555Y-59439873D01*
X101342299Y-59493402D01*
X101414407Y-59504822D01*
X101513375Y-59520498D01*
X101513381Y-59520498D01*
X101513389Y-59520500D01*
X101513391Y-59520500D01*
X101686609Y-59520500D01*
X101686611Y-59520500D01*
X101857701Y-59493402D01*
X102022445Y-59439873D01*
X102176788Y-59361232D01*
X102316928Y-59259414D01*
X102439414Y-59136928D01*
X102541232Y-58996788D01*
X102619873Y-58842445D01*
X102673402Y-58677701D01*
X102700500Y-58506611D01*
X102700500Y-58333389D01*
X102696323Y-58307019D01*
X102682369Y-58218913D01*
X102673402Y-58162299D01*
X102619873Y-57997555D01*
X102541232Y-57843212D01*
X102439414Y-57703072D01*
X102439407Y-57703064D01*
X102316935Y-57580592D01*
X102316927Y-57580585D01*
X102176790Y-57478769D01*
X102022451Y-57400130D01*
X102022443Y-57400126D01*
X101857699Y-57346597D01*
X101686624Y-57319501D01*
X101686612Y-57319500D01*
X101686611Y-57319500D01*
X101513389Y-57319500D01*
X101513387Y-57319500D01*
X101513375Y-57319501D01*
X101342301Y-57346597D01*
X101342300Y-57346597D01*
X101177556Y-57400126D01*
X101177548Y-57400130D01*
X101023209Y-57478769D01*
X100883072Y-57580585D01*
X100883064Y-57580592D01*
X100760592Y-57703064D01*
X100760585Y-57703072D01*
X100658769Y-57843209D01*
X100580130Y-57997548D01*
X100580126Y-57997556D01*
X100526597Y-58162300D01*
X100526597Y-58162301D01*
X100499501Y-58333375D01*
X100499500Y-58333391D01*
X73174240Y-58333391D01*
X73221658Y-58218913D01*
X73250500Y-58073918D01*
X73250500Y-57926082D01*
X73221658Y-57781087D01*
X73165084Y-57644505D01*
X73082951Y-57521584D01*
X72978416Y-57417049D01*
X72953095Y-57400130D01*
X72855497Y-57334917D01*
X72855495Y-57334916D01*
X72718911Y-57278341D01*
X72573919Y-57249500D01*
X72573918Y-57249500D01*
X72426082Y-57249500D01*
X72426080Y-57249500D01*
X72281088Y-57278341D01*
X72281087Y-57278341D01*
X72144504Y-57334916D01*
X72144502Y-57334917D01*
X72021584Y-57417048D01*
X71917048Y-57521584D01*
X71834917Y-57644502D01*
X71834916Y-57644504D01*
X71778341Y-57781087D01*
X71778341Y-57781088D01*
X71749500Y-57926080D01*
X54323455Y-57926080D01*
X54281232Y-57843212D01*
X54179414Y-57703072D01*
X54179407Y-57703064D01*
X54056935Y-57580592D01*
X54056927Y-57580585D01*
X53916790Y-57478769D01*
X53762451Y-57400130D01*
X53762443Y-57400126D01*
X53597699Y-57346597D01*
X53426624Y-57319501D01*
X53426612Y-57319500D01*
X53426611Y-57319500D01*
X53253389Y-57319500D01*
X53253387Y-57319500D01*
X53253375Y-57319501D01*
X53082301Y-57346597D01*
X53082300Y-57346597D01*
X52917556Y-57400126D01*
X52917548Y-57400130D01*
X52763209Y-57478769D01*
X52623072Y-57580585D01*
X52623064Y-57580592D01*
X52500592Y-57703064D01*
X52500585Y-57703072D01*
X52398769Y-57843209D01*
X52320130Y-57997548D01*
X52320126Y-57997556D01*
X52266597Y-58162300D01*
X52266597Y-58162301D01*
X52239501Y-58333375D01*
X52239500Y-58333391D01*
X46355000Y-58333391D01*
X46355000Y-55793391D01*
X52239500Y-55793391D01*
X52239500Y-55966608D01*
X52239501Y-55966624D01*
X52266597Y-56137698D01*
X52266597Y-56137699D01*
X52320126Y-56302443D01*
X52320130Y-56302451D01*
X52398769Y-56456790D01*
X52500585Y-56596927D01*
X52500592Y-56596935D01*
X52623064Y-56719407D01*
X52623072Y-56719414D01*
X52763212Y-56821232D01*
X52917555Y-56899873D01*
X53082299Y-56953402D01*
X53154407Y-56964822D01*
X53253375Y-56980498D01*
X53253381Y-56980498D01*
X53253389Y-56980500D01*
X53253391Y-56980500D01*
X53426609Y-56980500D01*
X53426611Y-56980500D01*
X53597701Y-56953402D01*
X53762445Y-56899873D01*
X53916788Y-56821232D01*
X54056928Y-56719414D01*
X54179414Y-56596928D01*
X54281232Y-56456788D01*
X54359873Y-56302445D01*
X54413402Y-56137701D01*
X54440500Y-55966611D01*
X54440500Y-55926080D01*
X75749500Y-55926080D01*
X75749500Y-56073919D01*
X75778341Y-56218911D01*
X75778341Y-56218912D01*
X75834916Y-56355495D01*
X75834917Y-56355497D01*
X75902599Y-56456790D01*
X75917049Y-56478416D01*
X76021584Y-56582951D01*
X76144505Y-56665084D01*
X76281087Y-56721658D01*
X76426082Y-56750500D01*
X76573918Y-56750500D01*
X76718913Y-56721658D01*
X76855495Y-56665084D01*
X76978416Y-56582951D01*
X77082951Y-56478416D01*
X77165084Y-56355495D01*
X77221658Y-56218913D01*
X77250500Y-56073918D01*
X77250500Y-55926082D01*
X77250500Y-55926080D01*
X78749500Y-55926080D01*
X78749500Y-56073919D01*
X78778341Y-56218911D01*
X78778341Y-56218912D01*
X78834916Y-56355495D01*
X78834917Y-56355497D01*
X78902599Y-56456790D01*
X78917049Y-56478416D01*
X79021584Y-56582951D01*
X79144505Y-56665084D01*
X79281087Y-56721658D01*
X79426082Y-56750500D01*
X79573918Y-56750500D01*
X79718913Y-56721658D01*
X79855495Y-56665084D01*
X79978416Y-56582951D01*
X80082951Y-56478416D01*
X80165084Y-56355495D01*
X80221658Y-56218913D01*
X80250500Y-56073918D01*
X80250500Y-55926082D01*
X80224105Y-55793391D01*
X100499500Y-55793391D01*
X100499500Y-55966608D01*
X100499501Y-55966624D01*
X100526597Y-56137698D01*
X100526597Y-56137699D01*
X100580126Y-56302443D01*
X100580130Y-56302451D01*
X100658769Y-56456790D01*
X100760585Y-56596927D01*
X100760592Y-56596935D01*
X100883064Y-56719407D01*
X100883072Y-56719414D01*
X101023212Y-56821232D01*
X101177555Y-56899873D01*
X101342299Y-56953402D01*
X101414407Y-56964822D01*
X101513375Y-56980498D01*
X101513381Y-56980498D01*
X101513389Y-56980500D01*
X101513391Y-56980500D01*
X101686609Y-56980500D01*
X101686611Y-56980500D01*
X101857701Y-56953402D01*
X102022445Y-56899873D01*
X102176788Y-56821232D01*
X102316928Y-56719414D01*
X102439414Y-56596928D01*
X102541232Y-56456788D01*
X102619873Y-56302445D01*
X102673402Y-56137701D01*
X102700500Y-55966611D01*
X102700500Y-55793389D01*
X102673402Y-55622299D01*
X102619873Y-55457555D01*
X102541232Y-55303212D01*
X102439414Y-55163072D01*
X102439407Y-55163064D01*
X102316935Y-55040592D01*
X102316927Y-55040585D01*
X102176790Y-54938769D01*
X102022451Y-54860130D01*
X102022443Y-54860126D01*
X101857699Y-54806597D01*
X101686624Y-54779501D01*
X101686612Y-54779500D01*
X101686611Y-54779500D01*
X101513389Y-54779500D01*
X101513387Y-54779500D01*
X101513375Y-54779501D01*
X101342301Y-54806597D01*
X101342300Y-54806597D01*
X101177556Y-54860126D01*
X101177548Y-54860130D01*
X101023209Y-54938769D01*
X100883072Y-55040585D01*
X100883064Y-55040592D01*
X100760592Y-55163064D01*
X100760585Y-55163072D01*
X100658769Y-55303209D01*
X100580130Y-55457548D01*
X100580126Y-55457556D01*
X100526597Y-55622300D01*
X100526597Y-55622301D01*
X100499501Y-55793375D01*
X100499500Y-55793391D01*
X80224105Y-55793391D01*
X80221658Y-55781087D01*
X80165084Y-55644505D01*
X80082951Y-55521584D01*
X79978416Y-55417049D01*
X79886294Y-55355495D01*
X79855497Y-55334917D01*
X79855495Y-55334916D01*
X79718911Y-55278341D01*
X79573919Y-55249500D01*
X79573918Y-55249500D01*
X79426082Y-55249500D01*
X79426080Y-55249500D01*
X79281088Y-55278341D01*
X79281087Y-55278341D01*
X79144504Y-55334916D01*
X79144502Y-55334917D01*
X79021584Y-55417048D01*
X78917048Y-55521584D01*
X78834917Y-55644502D01*
X78834916Y-55644504D01*
X78778341Y-55781087D01*
X78778341Y-55781088D01*
X78749500Y-55926080D01*
X77250500Y-55926080D01*
X77221658Y-55781087D01*
X77165084Y-55644505D01*
X77082951Y-55521584D01*
X76978416Y-55417049D01*
X76886294Y-55355495D01*
X76855497Y-55334917D01*
X76855495Y-55334916D01*
X76718911Y-55278341D01*
X76573919Y-55249500D01*
X76573918Y-55249500D01*
X76426082Y-55249500D01*
X76426080Y-55249500D01*
X76281088Y-55278341D01*
X76281087Y-55278341D01*
X76144504Y-55334916D01*
X76144502Y-55334917D01*
X76021584Y-55417048D01*
X75917048Y-55521584D01*
X75834917Y-55644502D01*
X75834916Y-55644504D01*
X75778341Y-55781087D01*
X75778341Y-55781088D01*
X75749500Y-55926080D01*
X54440500Y-55926080D01*
X54440500Y-55793389D01*
X54413402Y-55622299D01*
X54359873Y-55457555D01*
X54281232Y-55303212D01*
X54179414Y-55163072D01*
X54179407Y-55163064D01*
X54056935Y-55040592D01*
X54056931Y-55040589D01*
X54056928Y-55040586D01*
X53937519Y-54953830D01*
X53916790Y-54938769D01*
X53891886Y-54926080D01*
X80249500Y-54926080D01*
X80249500Y-55073919D01*
X80278341Y-55218911D01*
X80278341Y-55218912D01*
X80334916Y-55355495D01*
X80334917Y-55355497D01*
X80417048Y-55478415D01*
X80417049Y-55478416D01*
X80521584Y-55582951D01*
X80644505Y-55665084D01*
X80781087Y-55721658D01*
X80926082Y-55750500D01*
X81073918Y-55750500D01*
X81218913Y-55721658D01*
X81355495Y-55665084D01*
X81478416Y-55582951D01*
X81582951Y-55478416D01*
X81665084Y-55355495D01*
X81721658Y-55218913D01*
X81750500Y-55073918D01*
X81750500Y-54926082D01*
X81721658Y-54781087D01*
X81665084Y-54644505D01*
X81582951Y-54521584D01*
X81478416Y-54417049D01*
X81392840Y-54359869D01*
X81355497Y-54334917D01*
X81355495Y-54334916D01*
X81218911Y-54278341D01*
X81073919Y-54249500D01*
X81073918Y-54249500D01*
X80926082Y-54249500D01*
X80926080Y-54249500D01*
X80781088Y-54278341D01*
X80781087Y-54278341D01*
X80644504Y-54334916D01*
X80644502Y-54334917D01*
X80521584Y-54417048D01*
X80417048Y-54521584D01*
X80334917Y-54644502D01*
X80334916Y-54644504D01*
X80278341Y-54781087D01*
X80278341Y-54781088D01*
X80249500Y-54926080D01*
X53891886Y-54926080D01*
X53762451Y-54860130D01*
X53762443Y-54860126D01*
X53597699Y-54806597D01*
X53426624Y-54779501D01*
X53426612Y-54779500D01*
X53426611Y-54779500D01*
X53253389Y-54779500D01*
X53253387Y-54779500D01*
X53253375Y-54779501D01*
X53082301Y-54806597D01*
X53082300Y-54806597D01*
X52917556Y-54860126D01*
X52917548Y-54860130D01*
X52763209Y-54938769D01*
X52623072Y-55040585D01*
X52623064Y-55040592D01*
X52500592Y-55163064D01*
X52500585Y-55163072D01*
X52398769Y-55303209D01*
X52320130Y-55457548D01*
X52320126Y-55457556D01*
X52266597Y-55622300D01*
X52266597Y-55622301D01*
X52239501Y-55793375D01*
X52239500Y-55793391D01*
X46355000Y-55793391D01*
X46355000Y-53253391D01*
X52239500Y-53253391D01*
X52239500Y-53426608D01*
X52239501Y-53426624D01*
X52266597Y-53597698D01*
X52266597Y-53597699D01*
X52320126Y-53762443D01*
X52320130Y-53762451D01*
X52398769Y-53916790D01*
X52500585Y-54056927D01*
X52500592Y-54056935D01*
X52623064Y-54179407D01*
X52623072Y-54179414D01*
X52763212Y-54281232D01*
X52917555Y-54359873D01*
X53082299Y-54413402D01*
X53154407Y-54424822D01*
X53253375Y-54440498D01*
X53253381Y-54440498D01*
X53253389Y-54440500D01*
X53253391Y-54440500D01*
X53426609Y-54440500D01*
X53426611Y-54440500D01*
X53597701Y-54413402D01*
X53762445Y-54359873D01*
X53916788Y-54281232D01*
X54056928Y-54179414D01*
X54179414Y-54056928D01*
X54281232Y-53916788D01*
X54359873Y-53762445D01*
X54413402Y-53597701D01*
X54440500Y-53426611D01*
X54440500Y-53426080D01*
X84249500Y-53426080D01*
X84249500Y-53573919D01*
X84278341Y-53718911D01*
X84278341Y-53718912D01*
X84334916Y-53855495D01*
X84334917Y-53855497D01*
X84375872Y-53916790D01*
X84417049Y-53978416D01*
X84521584Y-54082951D01*
X84644505Y-54165084D01*
X84781087Y-54221658D01*
X84926082Y-54250500D01*
X85073918Y-54250500D01*
X85218913Y-54221658D01*
X85355495Y-54165084D01*
X85478416Y-54082951D01*
X85582951Y-53978416D01*
X85665084Y-53855495D01*
X85721658Y-53718913D01*
X85750500Y-53573918D01*
X85750500Y-53426082D01*
X85721658Y-53281087D01*
X85710186Y-53253391D01*
X100499500Y-53253391D01*
X100499500Y-53426608D01*
X100499501Y-53426624D01*
X100526597Y-53597698D01*
X100526597Y-53597699D01*
X100580126Y-53762443D01*
X100580130Y-53762451D01*
X100658769Y-53916790D01*
X100760585Y-54056927D01*
X100760592Y-54056935D01*
X100883064Y-54179407D01*
X100883072Y-54179414D01*
X101023212Y-54281232D01*
X101177555Y-54359873D01*
X101342299Y-54413402D01*
X101414407Y-54424822D01*
X101513375Y-54440498D01*
X101513381Y-54440498D01*
X101513389Y-54440500D01*
X101513391Y-54440500D01*
X101686609Y-54440500D01*
X101686611Y-54440500D01*
X101857701Y-54413402D01*
X102022445Y-54359873D01*
X102176788Y-54281232D01*
X102316928Y-54179414D01*
X102439414Y-54056928D01*
X102541232Y-53916788D01*
X102619873Y-53762445D01*
X102673402Y-53597701D01*
X102700500Y-53426611D01*
X102700500Y-53253389D01*
X102673402Y-53082299D01*
X102619873Y-52917555D01*
X102541232Y-52763212D01*
X102439414Y-52623072D01*
X102439407Y-52623064D01*
X102316935Y-52500592D01*
X102316927Y-52500585D01*
X102176790Y-52398769D01*
X102022451Y-52320130D01*
X102022443Y-52320126D01*
X101857699Y-52266597D01*
X101686624Y-52239501D01*
X101686612Y-52239500D01*
X101686611Y-52239500D01*
X101513389Y-52239500D01*
X101513387Y-52239500D01*
X101513375Y-52239501D01*
X101342301Y-52266597D01*
X101342300Y-52266597D01*
X101177556Y-52320126D01*
X101177548Y-52320130D01*
X101023209Y-52398769D01*
X100883072Y-52500585D01*
X100883064Y-52500592D01*
X100760592Y-52623064D01*
X100760585Y-52623072D01*
X100658769Y-52763209D01*
X100580130Y-52917548D01*
X100580126Y-52917556D01*
X100526597Y-53082300D01*
X100526597Y-53082301D01*
X100499501Y-53253375D01*
X100499500Y-53253391D01*
X85710186Y-53253391D01*
X85665084Y-53144505D01*
X85582951Y-53021584D01*
X85478416Y-52917049D01*
X85478415Y-52917048D01*
X85355497Y-52834917D01*
X85355495Y-52834916D01*
X85218911Y-52778341D01*
X85073919Y-52749500D01*
X85073918Y-52749500D01*
X84926082Y-52749500D01*
X84926080Y-52749500D01*
X84781088Y-52778341D01*
X84781087Y-52778341D01*
X84644504Y-52834916D01*
X84644502Y-52834917D01*
X84521584Y-52917048D01*
X84417048Y-53021584D01*
X84334917Y-53144502D01*
X84334916Y-53144504D01*
X84278341Y-53281087D01*
X84278341Y-53281088D01*
X84249500Y-53426080D01*
X54440500Y-53426080D01*
X54440500Y-53253389D01*
X54413402Y-53082299D01*
X54359873Y-52917555D01*
X54281232Y-52763212D01*
X54179414Y-52623072D01*
X54179407Y-52623064D01*
X54056935Y-52500592D01*
X54056927Y-52500585D01*
X53916790Y-52398769D01*
X53762451Y-52320130D01*
X53762443Y-52320126D01*
X53597699Y-52266597D01*
X53426624Y-52239501D01*
X53426612Y-52239500D01*
X53426611Y-52239500D01*
X53253389Y-52239500D01*
X53253387Y-52239500D01*
X53253375Y-52239501D01*
X53082301Y-52266597D01*
X53082300Y-52266597D01*
X52917556Y-52320126D01*
X52917548Y-52320130D01*
X52763209Y-52398769D01*
X52623072Y-52500585D01*
X52623064Y-52500592D01*
X52500592Y-52623064D01*
X52500585Y-52623072D01*
X52398769Y-52763209D01*
X52320130Y-52917548D01*
X52320126Y-52917556D01*
X52266597Y-53082300D01*
X52266597Y-53082301D01*
X52239501Y-53253375D01*
X52239500Y-53253391D01*
X46355000Y-53253391D01*
X46355000Y-50713391D01*
X52239500Y-50713391D01*
X52239500Y-50886608D01*
X52239501Y-50886624D01*
X52266597Y-51057698D01*
X52266597Y-51057699D01*
X52320126Y-51222443D01*
X52320130Y-51222451D01*
X52398769Y-51376790D01*
X52500585Y-51516927D01*
X52500592Y-51516935D01*
X52623064Y-51639407D01*
X52623072Y-51639414D01*
X52763212Y-51741232D01*
X52917555Y-51819873D01*
X53082299Y-51873402D01*
X53154407Y-51884822D01*
X53253375Y-51900498D01*
X53253381Y-51900498D01*
X53253389Y-51900500D01*
X53253391Y-51900500D01*
X53426609Y-51900500D01*
X53426611Y-51900500D01*
X53597701Y-51873402D01*
X53762445Y-51819873D01*
X53916788Y-51741232D01*
X54056928Y-51639414D01*
X54179414Y-51516928D01*
X54281232Y-51376788D01*
X54359873Y-51222445D01*
X54413402Y-51057701D01*
X54440500Y-50886611D01*
X54440500Y-50713389D01*
X54413402Y-50542299D01*
X54375640Y-50426080D01*
X73249500Y-50426080D01*
X73249500Y-50573919D01*
X73278341Y-50718911D01*
X73278341Y-50718912D01*
X73334916Y-50855495D01*
X73334917Y-50855497D01*
X73417048Y-50978415D01*
X73417049Y-50978416D01*
X73521584Y-51082951D01*
X73644505Y-51165084D01*
X73781087Y-51221658D01*
X73926082Y-51250500D01*
X74073918Y-51250500D01*
X74218913Y-51221658D01*
X74355495Y-51165084D01*
X74478416Y-51082951D01*
X74582951Y-50978416D01*
X74665084Y-50855495D01*
X74721658Y-50718913D01*
X74722756Y-50713391D01*
X100499500Y-50713391D01*
X100499500Y-50886608D01*
X100499501Y-50886624D01*
X100526597Y-51057698D01*
X100526597Y-51057699D01*
X100580126Y-51222443D01*
X100580130Y-51222451D01*
X100658769Y-51376790D01*
X100760585Y-51516927D01*
X100760592Y-51516935D01*
X100883064Y-51639407D01*
X100883072Y-51639414D01*
X101023212Y-51741232D01*
X101177555Y-51819873D01*
X101342299Y-51873402D01*
X101414407Y-51884822D01*
X101513375Y-51900498D01*
X101513381Y-51900498D01*
X101513389Y-51900500D01*
X101513391Y-51900500D01*
X101686609Y-51900500D01*
X101686611Y-51900500D01*
X101857701Y-51873402D01*
X102022445Y-51819873D01*
X102176788Y-51741232D01*
X102316928Y-51639414D01*
X102439414Y-51516928D01*
X102541232Y-51376788D01*
X102619873Y-51222445D01*
X102673402Y-51057701D01*
X102700500Y-50886611D01*
X102700500Y-50713389D01*
X102673402Y-50542299D01*
X102619873Y-50377555D01*
X102541232Y-50223212D01*
X102498999Y-50165084D01*
X102439414Y-50083072D01*
X102439407Y-50083064D01*
X102316935Y-49960592D01*
X102316927Y-49960585D01*
X102176790Y-49858769D01*
X102022451Y-49780130D01*
X102022443Y-49780126D01*
X101857699Y-49726597D01*
X101686624Y-49699501D01*
X101686612Y-49699500D01*
X101686611Y-49699500D01*
X101513389Y-49699500D01*
X101513387Y-49699500D01*
X101513375Y-49699501D01*
X101342301Y-49726597D01*
X101342300Y-49726597D01*
X101177556Y-49780126D01*
X101177548Y-49780130D01*
X101023209Y-49858769D01*
X100883072Y-49960585D01*
X100883064Y-49960592D01*
X100760592Y-50083064D01*
X100760585Y-50083072D01*
X100658769Y-50223209D01*
X100580130Y-50377548D01*
X100580126Y-50377556D01*
X100526597Y-50542300D01*
X100526597Y-50542301D01*
X100499501Y-50713375D01*
X100499500Y-50713391D01*
X74722756Y-50713391D01*
X74750500Y-50573918D01*
X74750500Y-50426082D01*
X74721658Y-50281087D01*
X74665084Y-50144505D01*
X74582951Y-50021584D01*
X74478416Y-49917049D01*
X74391194Y-49858769D01*
X74355497Y-49834917D01*
X74355495Y-49834916D01*
X74218911Y-49778341D01*
X74073919Y-49749500D01*
X74073918Y-49749500D01*
X73926082Y-49749500D01*
X73926080Y-49749500D01*
X73781088Y-49778341D01*
X73781087Y-49778341D01*
X73644504Y-49834916D01*
X73644502Y-49834917D01*
X73521584Y-49917048D01*
X73417048Y-50021584D01*
X73334917Y-50144502D01*
X73334916Y-50144504D01*
X73278341Y-50281087D01*
X73278341Y-50281088D01*
X73249500Y-50426080D01*
X54375640Y-50426080D01*
X54359873Y-50377555D01*
X54281232Y-50223212D01*
X54238999Y-50165084D01*
X54179414Y-50083072D01*
X54179407Y-50083064D01*
X54056935Y-49960592D01*
X54056927Y-49960585D01*
X53916790Y-49858769D01*
X53762451Y-49780130D01*
X53762443Y-49780126D01*
X53597699Y-49726597D01*
X53426624Y-49699501D01*
X53426612Y-49699500D01*
X53426611Y-49699500D01*
X53253389Y-49699500D01*
X53253387Y-49699500D01*
X53253375Y-49699501D01*
X53082301Y-49726597D01*
X53082300Y-49726597D01*
X52917556Y-49780126D01*
X52917548Y-49780130D01*
X52763209Y-49858769D01*
X52623072Y-49960585D01*
X52623064Y-49960592D01*
X52500592Y-50083064D01*
X52500585Y-50083072D01*
X52398769Y-50223209D01*
X52320130Y-50377548D01*
X52320126Y-50377556D01*
X52266597Y-50542300D01*
X52266597Y-50542301D01*
X52239501Y-50713375D01*
X52239500Y-50713391D01*
X46355000Y-50713391D01*
X46355000Y-49426080D01*
X68749500Y-49426080D01*
X68749500Y-49573919D01*
X68778341Y-49718911D01*
X68778341Y-49718912D01*
X68834916Y-49855495D01*
X68834917Y-49855497D01*
X68905135Y-49960586D01*
X68917049Y-49978416D01*
X69021584Y-50082951D01*
X69144505Y-50165084D01*
X69281087Y-50221658D01*
X69426082Y-50250500D01*
X69573918Y-50250500D01*
X69718913Y-50221658D01*
X69855495Y-50165084D01*
X69978416Y-50082951D01*
X70082951Y-49978416D01*
X70165084Y-49855495D01*
X70221658Y-49718913D01*
X70250500Y-49573918D01*
X70250500Y-49426082D01*
X70221658Y-49281087D01*
X70165084Y-49144505D01*
X70082951Y-49021584D01*
X69978416Y-48917049D01*
X69858297Y-48836788D01*
X69855497Y-48834917D01*
X69855495Y-48834916D01*
X69718911Y-48778341D01*
X69573919Y-48749500D01*
X69573918Y-48749500D01*
X69426082Y-48749500D01*
X69426080Y-48749500D01*
X69281088Y-48778341D01*
X69281087Y-48778341D01*
X69144504Y-48834916D01*
X69144502Y-48834917D01*
X69021584Y-48917048D01*
X68917048Y-49021584D01*
X68834917Y-49144502D01*
X68834916Y-49144504D01*
X68778341Y-49281087D01*
X68778341Y-49281088D01*
X68749500Y-49426080D01*
X46355000Y-49426080D01*
X46355000Y-48173391D01*
X52239500Y-48173391D01*
X52239500Y-48346608D01*
X52239501Y-48346624D01*
X52266597Y-48517698D01*
X52266597Y-48517699D01*
X52320126Y-48682443D01*
X52320130Y-48682451D01*
X52398769Y-48836790D01*
X52500585Y-48976927D01*
X52500592Y-48976935D01*
X52623064Y-49099407D01*
X52623072Y-49099414D01*
X52763212Y-49201232D01*
X52917555Y-49279873D01*
X53082299Y-49333402D01*
X53154407Y-49344822D01*
X53253375Y-49360498D01*
X53253381Y-49360498D01*
X53253389Y-49360500D01*
X53253391Y-49360500D01*
X53426609Y-49360500D01*
X53426611Y-49360500D01*
X53597701Y-49333402D01*
X53762445Y-49279873D01*
X53916788Y-49201232D01*
X54056928Y-49099414D01*
X54179414Y-48976928D01*
X54281232Y-48836788D01*
X54359873Y-48682445D01*
X54413402Y-48517701D01*
X54440500Y-48346611D01*
X54440500Y-48173391D01*
X100499500Y-48173391D01*
X100499500Y-48346608D01*
X100499501Y-48346624D01*
X100526597Y-48517698D01*
X100526597Y-48517699D01*
X100580126Y-48682443D01*
X100580130Y-48682451D01*
X100658769Y-48836790D01*
X100760585Y-48976927D01*
X100760592Y-48976935D01*
X100883064Y-49099407D01*
X100883072Y-49099414D01*
X101023212Y-49201232D01*
X101177555Y-49279873D01*
X101342299Y-49333402D01*
X101414407Y-49344822D01*
X101513375Y-49360498D01*
X101513381Y-49360498D01*
X101513389Y-49360500D01*
X101513391Y-49360500D01*
X101686609Y-49360500D01*
X101686611Y-49360500D01*
X101857701Y-49333402D01*
X102022445Y-49279873D01*
X102176788Y-49201232D01*
X102316928Y-49099414D01*
X102439414Y-48976928D01*
X102541232Y-48836788D01*
X102619873Y-48682445D01*
X102673402Y-48517701D01*
X102700500Y-48346611D01*
X102700500Y-48173389D01*
X102673402Y-48002299D01*
X102619873Y-47837555D01*
X102541232Y-47683212D01*
X102439414Y-47543072D01*
X102439407Y-47543064D01*
X102316935Y-47420592D01*
X102316927Y-47420585D01*
X102176790Y-47318769D01*
X102022451Y-47240130D01*
X102022443Y-47240126D01*
X101857699Y-47186597D01*
X101686624Y-47159501D01*
X101686612Y-47159500D01*
X101686611Y-47159500D01*
X101513389Y-47159500D01*
X101513387Y-47159500D01*
X101513375Y-47159501D01*
X101342301Y-47186597D01*
X101342300Y-47186597D01*
X101177556Y-47240126D01*
X101177548Y-47240130D01*
X101023209Y-47318769D01*
X100883072Y-47420585D01*
X100883064Y-47420592D01*
X100760592Y-47543064D01*
X100760585Y-47543072D01*
X100658769Y-47683209D01*
X100580130Y-47837548D01*
X100580126Y-47837556D01*
X100526597Y-48002300D01*
X100526597Y-48002301D01*
X100499501Y-48173375D01*
X100499500Y-48173391D01*
X54440500Y-48173391D01*
X54440500Y-48173389D01*
X54413402Y-48002299D01*
X54359873Y-47837555D01*
X54281232Y-47683212D01*
X54179414Y-47543072D01*
X54179407Y-47543064D01*
X54056935Y-47420592D01*
X54056927Y-47420585D01*
X53916790Y-47318769D01*
X53762451Y-47240130D01*
X53762443Y-47240126D01*
X53597699Y-47186597D01*
X53426624Y-47159501D01*
X53426612Y-47159500D01*
X53426611Y-47159500D01*
X53253389Y-47159500D01*
X53253387Y-47159500D01*
X53253375Y-47159501D01*
X53082301Y-47186597D01*
X53082300Y-47186597D01*
X52917556Y-47240126D01*
X52917548Y-47240130D01*
X52763209Y-47318769D01*
X52623072Y-47420585D01*
X52623064Y-47420592D01*
X52500592Y-47543064D01*
X52500585Y-47543072D01*
X52398769Y-47683209D01*
X52320130Y-47837548D01*
X52320126Y-47837556D01*
X52266597Y-48002300D01*
X52266597Y-48002301D01*
X52239501Y-48173375D01*
X52239500Y-48173391D01*
X46355000Y-48173391D01*
X46355000Y-45633391D01*
X52239500Y-45633391D01*
X52239500Y-45806608D01*
X52239501Y-45806624D01*
X52266597Y-45977698D01*
X52266597Y-45977699D01*
X52320126Y-46142443D01*
X52320130Y-46142451D01*
X52398769Y-46296790D01*
X52500585Y-46436927D01*
X52500592Y-46436935D01*
X52623064Y-46559407D01*
X52623072Y-46559414D01*
X52763212Y-46661232D01*
X52917555Y-46739873D01*
X53082299Y-46793402D01*
X53154407Y-46804822D01*
X53253375Y-46820498D01*
X53253381Y-46820498D01*
X53253389Y-46820500D01*
X53253391Y-46820500D01*
X53426609Y-46820500D01*
X53426611Y-46820500D01*
X53597701Y-46793402D01*
X53762445Y-46739873D01*
X53916788Y-46661232D01*
X54056928Y-46559414D01*
X54179414Y-46436928D01*
X54187296Y-46426080D01*
X69749500Y-46426080D01*
X69749500Y-46573919D01*
X69778341Y-46718911D01*
X69778341Y-46718912D01*
X69834916Y-46855495D01*
X69917049Y-46978416D01*
X70021584Y-47082951D01*
X70144505Y-47165084D01*
X70281087Y-47221658D01*
X70426082Y-47250500D01*
X70573918Y-47250500D01*
X70718913Y-47221658D01*
X70855495Y-47165084D01*
X70978416Y-47082951D01*
X71082951Y-46978416D01*
X71165084Y-46855495D01*
X71221658Y-46718913D01*
X71250500Y-46573918D01*
X71250500Y-46426082D01*
X71250500Y-46426080D01*
X75749500Y-46426080D01*
X75749500Y-46573919D01*
X75778341Y-46718911D01*
X75778341Y-46718912D01*
X75834916Y-46855495D01*
X75917049Y-46978416D01*
X76021584Y-47082951D01*
X76144505Y-47165084D01*
X76281087Y-47221658D01*
X76426082Y-47250500D01*
X76573918Y-47250500D01*
X76718913Y-47221658D01*
X76855495Y-47165084D01*
X76978416Y-47082951D01*
X77082951Y-46978416D01*
X77165084Y-46855495D01*
X77221658Y-46718913D01*
X77250500Y-46573918D01*
X77250500Y-46426082D01*
X77250500Y-46426080D01*
X83249500Y-46426080D01*
X83249500Y-46573919D01*
X83278341Y-46718911D01*
X83278341Y-46718912D01*
X83334916Y-46855495D01*
X83417049Y-46978416D01*
X83521584Y-47082951D01*
X83644505Y-47165084D01*
X83781087Y-47221658D01*
X83926082Y-47250500D01*
X84073918Y-47250500D01*
X84218913Y-47221658D01*
X84355495Y-47165084D01*
X84478416Y-47082951D01*
X84582951Y-46978416D01*
X84665084Y-46855495D01*
X84721658Y-46718913D01*
X84750500Y-46573918D01*
X84750500Y-46426082D01*
X84721658Y-46281087D01*
X84665084Y-46144505D01*
X84582951Y-46021584D01*
X84478416Y-45917049D01*
X84478415Y-45917048D01*
X84355497Y-45834917D01*
X84355495Y-45834916D01*
X84218911Y-45778341D01*
X84073919Y-45749500D01*
X84073918Y-45749500D01*
X83926082Y-45749500D01*
X83926080Y-45749500D01*
X83781088Y-45778341D01*
X83781087Y-45778341D01*
X83644504Y-45834916D01*
X83644502Y-45834917D01*
X83521584Y-45917048D01*
X83417048Y-46021584D01*
X83334917Y-46144502D01*
X83334916Y-46144504D01*
X83278341Y-46281087D01*
X83278341Y-46281088D01*
X83249500Y-46426080D01*
X77250500Y-46426080D01*
X77221658Y-46281087D01*
X77165084Y-46144505D01*
X77082951Y-46021584D01*
X76978416Y-45917049D01*
X76978415Y-45917048D01*
X76855497Y-45834917D01*
X76855495Y-45834916D01*
X76718911Y-45778341D01*
X76573919Y-45749500D01*
X76573918Y-45749500D01*
X76426082Y-45749500D01*
X76426080Y-45749500D01*
X76281088Y-45778341D01*
X76281087Y-45778341D01*
X76144504Y-45834916D01*
X76144502Y-45834917D01*
X76021584Y-45917048D01*
X75917048Y-46021584D01*
X75834917Y-46144502D01*
X75834916Y-46144504D01*
X75778341Y-46281087D01*
X75778341Y-46281088D01*
X75749500Y-46426080D01*
X71250500Y-46426080D01*
X71221658Y-46281087D01*
X71165084Y-46144505D01*
X71082951Y-46021584D01*
X70978416Y-45917049D01*
X70978415Y-45917048D01*
X70855497Y-45834917D01*
X70855495Y-45834916D01*
X70718911Y-45778341D01*
X70573919Y-45749500D01*
X70573918Y-45749500D01*
X70426082Y-45749500D01*
X70426080Y-45749500D01*
X70281088Y-45778341D01*
X70281087Y-45778341D01*
X70144504Y-45834916D01*
X70144502Y-45834917D01*
X70021584Y-45917048D01*
X69917048Y-46021584D01*
X69834917Y-46144502D01*
X69834916Y-46144504D01*
X69778341Y-46281087D01*
X69778341Y-46281088D01*
X69749500Y-46426080D01*
X54187296Y-46426080D01*
X54281232Y-46296788D01*
X54359873Y-46142445D01*
X54413402Y-45977701D01*
X54440500Y-45806611D01*
X54440500Y-45633391D01*
X100499500Y-45633391D01*
X100499500Y-45806608D01*
X100499501Y-45806624D01*
X100526597Y-45977698D01*
X100526597Y-45977699D01*
X100580126Y-46142443D01*
X100580130Y-46142451D01*
X100658769Y-46296790D01*
X100760585Y-46436927D01*
X100760592Y-46436935D01*
X100883064Y-46559407D01*
X100883072Y-46559414D01*
X101023212Y-46661232D01*
X101177555Y-46739873D01*
X101342299Y-46793402D01*
X101414407Y-46804822D01*
X101513375Y-46820498D01*
X101513381Y-46820498D01*
X101513389Y-46820500D01*
X101513391Y-46820500D01*
X101686609Y-46820500D01*
X101686611Y-46820500D01*
X101857701Y-46793402D01*
X102022445Y-46739873D01*
X102176788Y-46661232D01*
X102316928Y-46559414D01*
X102439414Y-46436928D01*
X102541232Y-46296788D01*
X102619873Y-46142445D01*
X102673402Y-45977701D01*
X102700500Y-45806611D01*
X102700500Y-45633389D01*
X102673402Y-45462299D01*
X102619873Y-45297555D01*
X102541232Y-45143212D01*
X102439414Y-45003072D01*
X102439407Y-45003064D01*
X102316935Y-44880592D01*
X102316927Y-44880585D01*
X102176790Y-44778769D01*
X102022451Y-44700130D01*
X102022443Y-44700126D01*
X101857699Y-44646597D01*
X101686624Y-44619501D01*
X101686612Y-44619500D01*
X101686611Y-44619500D01*
X101513389Y-44619500D01*
X101513387Y-44619500D01*
X101513375Y-44619501D01*
X101342301Y-44646597D01*
X101342300Y-44646597D01*
X101177556Y-44700126D01*
X101177548Y-44700130D01*
X101023209Y-44778769D01*
X100883072Y-44880585D01*
X100883064Y-44880592D01*
X100760592Y-45003064D01*
X100760585Y-45003072D01*
X100658769Y-45143209D01*
X100580130Y-45297548D01*
X100580126Y-45297556D01*
X100526597Y-45462300D01*
X100526597Y-45462301D01*
X100499501Y-45633375D01*
X100499500Y-45633391D01*
X54440500Y-45633391D01*
X54440500Y-45633389D01*
X54413402Y-45462299D01*
X54359873Y-45297555D01*
X54281232Y-45143212D01*
X54179414Y-45003072D01*
X54179407Y-45003064D01*
X54056935Y-44880592D01*
X54056927Y-44880585D01*
X53916790Y-44778769D01*
X53762451Y-44700130D01*
X53762443Y-44700126D01*
X53597699Y-44646597D01*
X53426624Y-44619501D01*
X53426612Y-44619500D01*
X53426611Y-44619500D01*
X53253389Y-44619500D01*
X53253387Y-44619500D01*
X53253375Y-44619501D01*
X53082301Y-44646597D01*
X53082300Y-44646597D01*
X52917556Y-44700126D01*
X52917548Y-44700130D01*
X52763209Y-44778769D01*
X52623072Y-44880585D01*
X52623064Y-44880592D01*
X52500592Y-45003064D01*
X52500585Y-45003072D01*
X52398769Y-45143209D01*
X52320130Y-45297548D01*
X52320126Y-45297556D01*
X52266597Y-45462300D01*
X52266597Y-45462301D01*
X52239501Y-45633375D01*
X52239500Y-45633391D01*
X46355000Y-45633391D01*
X46355000Y-43093391D01*
X52239500Y-43093391D01*
X52239500Y-43266608D01*
X52239501Y-43266624D01*
X52266597Y-43437698D01*
X52266597Y-43437699D01*
X52320126Y-43602443D01*
X52320130Y-43602451D01*
X52398769Y-43756790D01*
X52500585Y-43896927D01*
X52500592Y-43896935D01*
X52623064Y-44019407D01*
X52623072Y-44019414D01*
X52763212Y-44121232D01*
X52917555Y-44199873D01*
X53082299Y-44253402D01*
X53154407Y-44264822D01*
X53253375Y-44280498D01*
X53253381Y-44280498D01*
X53253389Y-44280500D01*
X53253391Y-44280500D01*
X53426609Y-44280500D01*
X53426611Y-44280500D01*
X53597701Y-44253402D01*
X53762445Y-44199873D01*
X53916788Y-44121232D01*
X54056928Y-44019414D01*
X54150262Y-43926080D01*
X71749500Y-43926080D01*
X71749500Y-44073919D01*
X71778341Y-44218911D01*
X71778341Y-44218912D01*
X71803851Y-44280498D01*
X71834916Y-44355495D01*
X71917049Y-44478416D01*
X72021584Y-44582951D01*
X72144505Y-44665084D01*
X72281087Y-44721658D01*
X72426082Y-44750500D01*
X72573918Y-44750500D01*
X72718913Y-44721658D01*
X72855495Y-44665084D01*
X72978416Y-44582951D01*
X73082951Y-44478416D01*
X73165084Y-44355495D01*
X73221658Y-44218913D01*
X73250500Y-44073918D01*
X73250500Y-43926082D01*
X73221658Y-43781087D01*
X73165084Y-43644505D01*
X73082951Y-43521584D01*
X72987447Y-43426080D01*
X74749500Y-43426080D01*
X74749500Y-43573919D01*
X74778341Y-43718911D01*
X74778341Y-43718912D01*
X74834916Y-43855495D01*
X74834917Y-43855497D01*
X74917048Y-43978415D01*
X74917049Y-43978416D01*
X75021584Y-44082951D01*
X75144505Y-44165084D01*
X75281087Y-44221658D01*
X75426082Y-44250500D01*
X75573918Y-44250500D01*
X75718913Y-44221658D01*
X75855495Y-44165084D01*
X75978416Y-44082951D01*
X76082951Y-43978416D01*
X76165084Y-43855495D01*
X76221658Y-43718913D01*
X76250500Y-43573918D01*
X76250500Y-43426082D01*
X76221658Y-43281087D01*
X76165084Y-43144505D01*
X76130930Y-43093391D01*
X100499500Y-43093391D01*
X100499500Y-43266608D01*
X100499501Y-43266624D01*
X100526597Y-43437698D01*
X100526597Y-43437699D01*
X100580126Y-43602443D01*
X100580130Y-43602451D01*
X100658769Y-43756790D01*
X100760585Y-43896927D01*
X100760592Y-43896935D01*
X100883064Y-44019407D01*
X100883072Y-44019414D01*
X101023212Y-44121232D01*
X101177555Y-44199873D01*
X101342299Y-44253402D01*
X101414407Y-44264822D01*
X101513375Y-44280498D01*
X101513381Y-44280498D01*
X101513389Y-44280500D01*
X101513391Y-44280500D01*
X101686609Y-44280500D01*
X101686611Y-44280500D01*
X101857701Y-44253402D01*
X102022445Y-44199873D01*
X102176788Y-44121232D01*
X102316928Y-44019414D01*
X102439414Y-43896928D01*
X102541232Y-43756788D01*
X102619873Y-43602445D01*
X102673402Y-43437701D01*
X102700500Y-43266611D01*
X102700500Y-43093389D01*
X102673402Y-42922299D01*
X102619873Y-42757555D01*
X102541232Y-42603212D01*
X102439414Y-42463072D01*
X102439407Y-42463064D01*
X102316935Y-42340592D01*
X102316927Y-42340585D01*
X102176790Y-42238769D01*
X102022451Y-42160130D01*
X102022443Y-42160126D01*
X101857699Y-42106597D01*
X101686624Y-42079501D01*
X101686612Y-42079500D01*
X101686611Y-42079500D01*
X101513389Y-42079500D01*
X101513387Y-42079500D01*
X101513375Y-42079501D01*
X101342301Y-42106597D01*
X101342300Y-42106597D01*
X101177556Y-42160126D01*
X101177548Y-42160130D01*
X101023209Y-42238769D01*
X100883072Y-42340585D01*
X100883064Y-42340592D01*
X100760592Y-42463064D01*
X100760585Y-42463072D01*
X100658769Y-42603209D01*
X100580130Y-42757548D01*
X100580126Y-42757556D01*
X100526597Y-42922300D01*
X100526597Y-42922301D01*
X100499501Y-43093375D01*
X100499500Y-43093391D01*
X76130930Y-43093391D01*
X76130929Y-43093389D01*
X76082951Y-43021584D01*
X75978415Y-42917048D01*
X75855497Y-42834917D01*
X75855495Y-42834916D01*
X75718911Y-42778341D01*
X75573919Y-42749500D01*
X75573918Y-42749500D01*
X75426082Y-42749500D01*
X75426080Y-42749500D01*
X75281088Y-42778341D01*
X75281087Y-42778341D01*
X75144504Y-42834916D01*
X75144502Y-42834917D01*
X75021584Y-42917048D01*
X74917048Y-43021584D01*
X74834917Y-43144502D01*
X74834916Y-43144504D01*
X74778341Y-43281087D01*
X74778341Y-43281088D01*
X74749500Y-43426080D01*
X72987447Y-43426080D01*
X72978416Y-43417049D01*
X72978415Y-43417048D01*
X72855497Y-43334917D01*
X72855495Y-43334916D01*
X72718911Y-43278341D01*
X72573919Y-43249500D01*
X72573918Y-43249500D01*
X72426082Y-43249500D01*
X72426080Y-43249500D01*
X72281088Y-43278341D01*
X72281087Y-43278341D01*
X72144504Y-43334916D01*
X72144502Y-43334917D01*
X72021584Y-43417048D01*
X71917048Y-43521584D01*
X71834917Y-43644502D01*
X71834916Y-43644504D01*
X71778341Y-43781087D01*
X71778341Y-43781088D01*
X71749500Y-43926080D01*
X54150262Y-43926080D01*
X54179414Y-43896928D01*
X54281232Y-43756788D01*
X54359873Y-43602445D01*
X54413402Y-43437701D01*
X54440500Y-43266611D01*
X54440500Y-43093389D01*
X54413402Y-42922299D01*
X54359873Y-42757555D01*
X54281232Y-42603212D01*
X54179414Y-42463072D01*
X54179407Y-42463064D01*
X54056935Y-42340592D01*
X54056927Y-42340585D01*
X53916790Y-42238769D01*
X53762451Y-42160130D01*
X53762443Y-42160126D01*
X53597699Y-42106597D01*
X53426624Y-42079501D01*
X53426612Y-42079500D01*
X53426611Y-42079500D01*
X53253389Y-42079500D01*
X53253387Y-42079500D01*
X53253375Y-42079501D01*
X53082301Y-42106597D01*
X53082300Y-42106597D01*
X52917556Y-42160126D01*
X52917548Y-42160130D01*
X52763209Y-42238769D01*
X52623072Y-42340585D01*
X52623064Y-42340592D01*
X52500592Y-42463064D01*
X52500585Y-42463072D01*
X52398769Y-42603209D01*
X52320130Y-42757548D01*
X52320126Y-42757556D01*
X52266597Y-42922300D01*
X52266597Y-42922301D01*
X52239501Y-43093375D01*
X52239500Y-43093391D01*
X46355000Y-43093391D01*
X46355000Y-40553391D01*
X52239500Y-40553391D01*
X52239500Y-40726608D01*
X52239501Y-40726624D01*
X52266597Y-40897698D01*
X52266597Y-40897699D01*
X52320126Y-41062443D01*
X52320130Y-41062451D01*
X52398769Y-41216790D01*
X52500585Y-41356927D01*
X52500592Y-41356935D01*
X52623064Y-41479407D01*
X52623072Y-41479414D01*
X52763212Y-41581232D01*
X52917555Y-41659873D01*
X53082299Y-41713402D01*
X53154407Y-41724822D01*
X53253375Y-41740498D01*
X53253381Y-41740498D01*
X53253389Y-41740500D01*
X53253391Y-41740500D01*
X53426609Y-41740500D01*
X53426611Y-41740500D01*
X53597701Y-41713402D01*
X53762445Y-41659873D01*
X53916788Y-41581232D01*
X54056928Y-41479414D01*
X54179414Y-41356928D01*
X54281232Y-41216788D01*
X54359873Y-41062445D01*
X54413402Y-40897701D01*
X54440500Y-40726611D01*
X54440500Y-40553391D01*
X100499500Y-40553391D01*
X100499500Y-40726608D01*
X100499501Y-40726624D01*
X100526597Y-40897698D01*
X100526597Y-40897699D01*
X100580126Y-41062443D01*
X100580130Y-41062451D01*
X100658769Y-41216790D01*
X100760585Y-41356927D01*
X100760592Y-41356935D01*
X100883064Y-41479407D01*
X100883072Y-41479414D01*
X101023212Y-41581232D01*
X101177555Y-41659873D01*
X101342299Y-41713402D01*
X101414407Y-41724822D01*
X101513375Y-41740498D01*
X101513381Y-41740498D01*
X101513389Y-41740500D01*
X101513391Y-41740500D01*
X101686609Y-41740500D01*
X101686611Y-41740500D01*
X101857701Y-41713402D01*
X102022445Y-41659873D01*
X102176788Y-41581232D01*
X102316928Y-41479414D01*
X102439414Y-41356928D01*
X102541232Y-41216788D01*
X102619873Y-41062445D01*
X102673402Y-40897701D01*
X102700500Y-40726611D01*
X102700500Y-40553389D01*
X102673402Y-40382299D01*
X102619873Y-40217555D01*
X102541232Y-40063212D01*
X102439414Y-39923072D01*
X102439407Y-39923064D01*
X102316935Y-39800592D01*
X102316927Y-39800585D01*
X102176790Y-39698769D01*
X102022451Y-39620130D01*
X102022443Y-39620126D01*
X101857699Y-39566597D01*
X101686624Y-39539501D01*
X101686612Y-39539500D01*
X101686611Y-39539500D01*
X101513389Y-39539500D01*
X101513387Y-39539500D01*
X101513375Y-39539501D01*
X101342301Y-39566597D01*
X101342300Y-39566597D01*
X101177556Y-39620126D01*
X101177548Y-39620130D01*
X101023209Y-39698769D01*
X100883072Y-39800585D01*
X100883064Y-39800592D01*
X100760592Y-39923064D01*
X100760585Y-39923072D01*
X100658769Y-40063209D01*
X100580130Y-40217548D01*
X100580126Y-40217556D01*
X100526597Y-40382300D01*
X100526597Y-40382301D01*
X100499501Y-40553375D01*
X100499500Y-40553391D01*
X54440500Y-40553391D01*
X54440500Y-40553389D01*
X54413402Y-40382299D01*
X54359873Y-40217555D01*
X54281232Y-40063212D01*
X54179414Y-39923072D01*
X54179407Y-39923064D01*
X54056935Y-39800592D01*
X54056927Y-39800585D01*
X53916790Y-39698769D01*
X53762451Y-39620130D01*
X53762443Y-39620126D01*
X53597699Y-39566597D01*
X53426624Y-39539501D01*
X53426612Y-39539500D01*
X53426611Y-39539500D01*
X53253389Y-39539500D01*
X53253387Y-39539500D01*
X53253375Y-39539501D01*
X53082301Y-39566597D01*
X53082300Y-39566597D01*
X52917556Y-39620126D01*
X52917548Y-39620130D01*
X52763209Y-39698769D01*
X52623072Y-39800585D01*
X52623064Y-39800592D01*
X52500592Y-39923064D01*
X52500585Y-39923072D01*
X52398769Y-40063209D01*
X52320130Y-40217548D01*
X52320126Y-40217556D01*
X52266597Y-40382300D01*
X52266597Y-40382301D01*
X52239501Y-40553375D01*
X52239500Y-40553391D01*
X46355000Y-40553391D01*
X46355000Y-38013391D01*
X52239500Y-38013391D01*
X52239500Y-38186608D01*
X52239501Y-38186624D01*
X52266597Y-38357698D01*
X52266597Y-38357699D01*
X52320126Y-38522443D01*
X52320130Y-38522451D01*
X52398769Y-38676790D01*
X52500585Y-38816927D01*
X52500592Y-38816935D01*
X52623064Y-38939407D01*
X52623072Y-38939414D01*
X52763212Y-39041232D01*
X52917555Y-39119873D01*
X53082299Y-39173402D01*
X53154407Y-39184822D01*
X53253375Y-39200498D01*
X53253381Y-39200498D01*
X53253389Y-39200500D01*
X53253391Y-39200500D01*
X53426609Y-39200500D01*
X53426611Y-39200500D01*
X53597701Y-39173402D01*
X53762445Y-39119873D01*
X53916788Y-39041232D01*
X54056928Y-38939414D01*
X54179414Y-38816928D01*
X54281232Y-38676788D01*
X54359873Y-38522445D01*
X54413402Y-38357701D01*
X54440500Y-38186611D01*
X54440500Y-38013391D01*
X100499500Y-38013391D01*
X100499500Y-38186608D01*
X100499501Y-38186624D01*
X100526597Y-38357698D01*
X100526597Y-38357699D01*
X100580126Y-38522443D01*
X100580130Y-38522451D01*
X100658769Y-38676790D01*
X100760585Y-38816927D01*
X100760592Y-38816935D01*
X100883064Y-38939407D01*
X100883072Y-38939414D01*
X101023212Y-39041232D01*
X101177555Y-39119873D01*
X101342299Y-39173402D01*
X101414407Y-39184822D01*
X101513375Y-39200498D01*
X101513381Y-39200498D01*
X101513389Y-39200500D01*
X101513391Y-39200500D01*
X101686609Y-39200500D01*
X101686611Y-39200500D01*
X101857701Y-39173402D01*
X102022445Y-39119873D01*
X102176788Y-39041232D01*
X102316928Y-38939414D01*
X102439414Y-38816928D01*
X102541232Y-38676788D01*
X102619873Y-38522445D01*
X102673402Y-38357701D01*
X102700500Y-38186611D01*
X102700500Y-38013389D01*
X102673402Y-37842299D01*
X102619873Y-37677555D01*
X102541232Y-37523212D01*
X102439414Y-37383072D01*
X102439407Y-37383064D01*
X102316935Y-37260592D01*
X102316927Y-37260585D01*
X102176790Y-37158769D01*
X102022451Y-37080130D01*
X102022443Y-37080126D01*
X101857699Y-37026597D01*
X101686624Y-36999501D01*
X101686612Y-36999500D01*
X101686611Y-36999500D01*
X101513389Y-36999500D01*
X101513387Y-36999500D01*
X101513375Y-36999501D01*
X101342301Y-37026597D01*
X101342300Y-37026597D01*
X101177556Y-37080126D01*
X101177548Y-37080130D01*
X101023209Y-37158769D01*
X100883072Y-37260585D01*
X100883064Y-37260592D01*
X100760592Y-37383064D01*
X100760585Y-37383072D01*
X100658769Y-37523209D01*
X100580130Y-37677548D01*
X100580126Y-37677556D01*
X100526597Y-37842300D01*
X100526597Y-37842301D01*
X100499501Y-38013375D01*
X100499500Y-38013391D01*
X54440500Y-38013391D01*
X54440500Y-38013389D01*
X54413402Y-37842299D01*
X54359873Y-37677555D01*
X54281232Y-37523212D01*
X54179414Y-37383072D01*
X54179407Y-37383064D01*
X54056935Y-37260592D01*
X54056927Y-37260585D01*
X53916790Y-37158769D01*
X53762451Y-37080130D01*
X53762443Y-37080126D01*
X53597699Y-37026597D01*
X53426624Y-36999501D01*
X53426612Y-36999500D01*
X53426611Y-36999500D01*
X53253389Y-36999500D01*
X53253387Y-36999500D01*
X53253375Y-36999501D01*
X53082301Y-37026597D01*
X53082300Y-37026597D01*
X52917556Y-37080126D01*
X52917548Y-37080130D01*
X52763209Y-37158769D01*
X52623072Y-37260585D01*
X52623064Y-37260592D01*
X52500592Y-37383064D01*
X52500585Y-37383072D01*
X52398769Y-37523209D01*
X52320130Y-37677548D01*
X52320126Y-37677556D01*
X52266597Y-37842300D01*
X52266597Y-37842301D01*
X52239501Y-38013375D01*
X52239500Y-38013391D01*
X46355000Y-38013391D01*
X46355000Y-35473391D01*
X52239500Y-35473391D01*
X52239500Y-35646608D01*
X52239501Y-35646624D01*
X52266597Y-35817698D01*
X52266597Y-35817699D01*
X52320126Y-35982443D01*
X52320130Y-35982451D01*
X52398769Y-36136790D01*
X52500585Y-36276927D01*
X52500592Y-36276935D01*
X52623064Y-36399407D01*
X52623072Y-36399414D01*
X52763212Y-36501232D01*
X52917555Y-36579873D01*
X53082299Y-36633402D01*
X53154407Y-36644822D01*
X53253375Y-36660498D01*
X53253381Y-36660498D01*
X53253389Y-36660500D01*
X53253391Y-36660500D01*
X53426609Y-36660500D01*
X53426611Y-36660500D01*
X53597701Y-36633402D01*
X53762445Y-36579873D01*
X53916788Y-36501232D01*
X54056928Y-36399414D01*
X54179414Y-36276928D01*
X54281232Y-36136788D01*
X54359873Y-35982445D01*
X54413402Y-35817701D01*
X54440500Y-35646611D01*
X54440500Y-35473389D01*
X54438510Y-35460827D01*
X54413402Y-35302301D01*
X54413402Y-35302300D01*
X54406521Y-35281121D01*
X54359873Y-35137555D01*
X54281232Y-34983212D01*
X54224786Y-34905521D01*
X75799500Y-34905521D01*
X75799500Y-35094478D01*
X75799501Y-35094494D01*
X75829059Y-35281112D01*
X75829061Y-35281121D01*
X75887452Y-35460830D01*
X75887456Y-35460838D01*
X75973241Y-35629201D01*
X76084309Y-35782072D01*
X76084316Y-35782080D01*
X76217919Y-35915683D01*
X76217927Y-35915690D01*
X76370801Y-36026760D01*
X76539168Y-36112547D01*
X76718882Y-36170940D01*
X76865315Y-36194132D01*
X76905505Y-36200498D01*
X76905511Y-36200498D01*
X76905519Y-36200500D01*
X76905521Y-36200500D01*
X77094479Y-36200500D01*
X77094481Y-36200500D01*
X77281118Y-36170940D01*
X77460832Y-36112547D01*
X77629199Y-36026760D01*
X77782073Y-35915690D01*
X77915690Y-35782073D01*
X78026760Y-35629199D01*
X78106148Y-35473391D01*
X100499500Y-35473391D01*
X100499500Y-35646608D01*
X100499501Y-35646624D01*
X100526597Y-35817698D01*
X100526597Y-35817699D01*
X100580126Y-35982443D01*
X100580130Y-35982451D01*
X100658769Y-36136790D01*
X100760585Y-36276927D01*
X100760592Y-36276935D01*
X100883064Y-36399407D01*
X100883072Y-36399414D01*
X101023212Y-36501232D01*
X101177555Y-36579873D01*
X101342299Y-36633402D01*
X101414407Y-36644822D01*
X101513375Y-36660498D01*
X101513381Y-36660498D01*
X101513389Y-36660500D01*
X101513391Y-36660500D01*
X101686609Y-36660500D01*
X101686611Y-36660500D01*
X101857701Y-36633402D01*
X102022445Y-36579873D01*
X102176788Y-36501232D01*
X102316928Y-36399414D01*
X102439414Y-36276928D01*
X102541232Y-36136788D01*
X102619873Y-35982445D01*
X102673402Y-35817701D01*
X102700500Y-35646611D01*
X102700500Y-35473389D01*
X102698510Y-35460827D01*
X102673402Y-35302301D01*
X102673402Y-35302300D01*
X102666521Y-35281121D01*
X102619873Y-35137555D01*
X102541232Y-34983212D01*
X102439414Y-34843072D01*
X102439407Y-34843064D01*
X102316935Y-34720592D01*
X102316927Y-34720585D01*
X102176790Y-34618769D01*
X102022451Y-34540130D01*
X102022443Y-34540126D01*
X101857699Y-34486597D01*
X101686624Y-34459501D01*
X101686612Y-34459500D01*
X101686611Y-34459500D01*
X101513389Y-34459500D01*
X101513387Y-34459500D01*
X101513375Y-34459501D01*
X101342301Y-34486597D01*
X101342300Y-34486597D01*
X101177556Y-34540126D01*
X101177548Y-34540130D01*
X101023209Y-34618769D01*
X100883072Y-34720585D01*
X100883064Y-34720592D01*
X100760592Y-34843064D01*
X100760585Y-34843072D01*
X100658769Y-34983209D01*
X100580130Y-35137548D01*
X100580126Y-35137556D01*
X100526597Y-35302300D01*
X100526597Y-35302301D01*
X100499501Y-35473375D01*
X100499500Y-35473391D01*
X78106148Y-35473391D01*
X78112547Y-35460832D01*
X78170940Y-35281118D01*
X78200500Y-35094481D01*
X78200500Y-34905519D01*
X78170940Y-34718882D01*
X78112547Y-34539168D01*
X78026760Y-34370801D01*
X78015639Y-34355495D01*
X77915690Y-34217927D01*
X77915683Y-34217919D01*
X77782080Y-34084316D01*
X77782072Y-34084309D01*
X77629659Y-33973574D01*
X77629658Y-33973573D01*
X77629657Y-33973573D01*
X77629199Y-33973240D01*
X77536642Y-33926080D01*
X82749500Y-33926080D01*
X82749500Y-34073919D01*
X82778341Y-34218911D01*
X82778341Y-34218912D01*
X82834916Y-34355495D01*
X82834917Y-34355497D01*
X82904410Y-34459501D01*
X82917049Y-34478416D01*
X83021584Y-34582951D01*
X83144505Y-34665084D01*
X83281087Y-34721658D01*
X83426082Y-34750500D01*
X83573918Y-34750500D01*
X83718913Y-34721658D01*
X83855495Y-34665084D01*
X83978416Y-34582951D01*
X84082951Y-34478416D01*
X84165084Y-34355495D01*
X84221658Y-34218913D01*
X84250500Y-34073918D01*
X84250500Y-33926082D01*
X84221658Y-33781087D01*
X84165084Y-33644505D01*
X84082951Y-33521584D01*
X83978416Y-33417049D01*
X83978415Y-33417048D01*
X83855497Y-33334917D01*
X83855495Y-33334916D01*
X83718911Y-33278341D01*
X83573919Y-33249500D01*
X83573918Y-33249500D01*
X83426082Y-33249500D01*
X83426080Y-33249500D01*
X83281088Y-33278341D01*
X83281087Y-33278341D01*
X83144504Y-33334916D01*
X83144502Y-33334917D01*
X83021584Y-33417048D01*
X82917048Y-33521584D01*
X82834917Y-33644502D01*
X82834916Y-33644504D01*
X82778341Y-33781087D01*
X82778341Y-33781088D01*
X82749500Y-33926080D01*
X77536642Y-33926080D01*
X77460832Y-33887453D01*
X77460830Y-33887452D01*
X77281121Y-33829061D01*
X77281118Y-33829060D01*
X77281112Y-33829059D01*
X77094494Y-33799501D01*
X77094482Y-33799500D01*
X77094481Y-33799500D01*
X76905519Y-33799500D01*
X76905517Y-33799500D01*
X76905505Y-33799501D01*
X76718887Y-33829059D01*
X76718878Y-33829061D01*
X76539169Y-33887452D01*
X76539161Y-33887456D01*
X76370798Y-33973241D01*
X76217927Y-34084309D01*
X76217919Y-34084316D01*
X76084316Y-34217919D01*
X76084309Y-34217927D01*
X75973241Y-34370798D01*
X75887456Y-34539161D01*
X75887452Y-34539169D01*
X75829061Y-34718878D01*
X75829059Y-34718887D01*
X75799501Y-34905505D01*
X75799500Y-34905521D01*
X54224786Y-34905521D01*
X54179414Y-34843072D01*
X54179409Y-34843067D01*
X54179407Y-34843064D01*
X54056935Y-34720592D01*
X54056927Y-34720585D01*
X53916790Y-34618769D01*
X53762451Y-34540130D01*
X53762443Y-34540126D01*
X53597699Y-34486597D01*
X53426624Y-34459501D01*
X53426612Y-34459500D01*
X53426611Y-34459500D01*
X53253389Y-34459500D01*
X53253387Y-34459500D01*
X53253375Y-34459501D01*
X53082301Y-34486597D01*
X53082300Y-34486597D01*
X52917556Y-34540126D01*
X52917548Y-34540130D01*
X52763209Y-34618769D01*
X52623072Y-34720585D01*
X52623064Y-34720592D01*
X52500592Y-34843064D01*
X52500585Y-34843072D01*
X52398769Y-34983209D01*
X52320130Y-35137548D01*
X52320126Y-35137556D01*
X52266597Y-35302300D01*
X52266597Y-35302301D01*
X52239501Y-35473375D01*
X52239500Y-35473391D01*
X46355000Y-35473391D01*
X46355000Y-32933391D01*
X52239500Y-32933391D01*
X52239500Y-33106608D01*
X52239501Y-33106624D01*
X52266597Y-33277698D01*
X52266597Y-33277699D01*
X52320126Y-33442443D01*
X52320130Y-33442451D01*
X52398769Y-33596790D01*
X52500585Y-33736927D01*
X52500592Y-33736935D01*
X52623064Y-33859407D01*
X52623072Y-33859414D01*
X52714829Y-33926080D01*
X52763212Y-33961232D01*
X52917555Y-34039873D01*
X53082299Y-34093402D01*
X53154407Y-34104822D01*
X53253375Y-34120498D01*
X53253381Y-34120498D01*
X53253389Y-34120500D01*
X53253391Y-34120500D01*
X53426609Y-34120500D01*
X53426611Y-34120500D01*
X53597701Y-34093402D01*
X53762445Y-34039873D01*
X53916788Y-33961232D01*
X54056928Y-33859414D01*
X54179414Y-33736928D01*
X54281232Y-33596788D01*
X54359873Y-33442445D01*
X54413402Y-33277701D01*
X54440500Y-33106611D01*
X54440500Y-32933391D01*
X100499500Y-32933391D01*
X100499500Y-33106608D01*
X100499501Y-33106624D01*
X100526597Y-33277698D01*
X100526597Y-33277699D01*
X100580126Y-33442443D01*
X100580130Y-33442451D01*
X100658769Y-33596790D01*
X100760585Y-33736927D01*
X100760592Y-33736935D01*
X100883064Y-33859407D01*
X100883072Y-33859414D01*
X100974829Y-33926080D01*
X101023212Y-33961232D01*
X101177555Y-34039873D01*
X101342299Y-34093402D01*
X101414407Y-34104822D01*
X101513375Y-34120498D01*
X101513381Y-34120498D01*
X101513389Y-34120500D01*
X101513391Y-34120500D01*
X101686609Y-34120500D01*
X101686611Y-34120500D01*
X101857701Y-34093402D01*
X102022445Y-34039873D01*
X102176788Y-33961232D01*
X102316928Y-33859414D01*
X102439414Y-33736928D01*
X102541232Y-33596788D01*
X102619873Y-33442445D01*
X102673402Y-33277701D01*
X102700500Y-33106611D01*
X102700500Y-32933389D01*
X102673402Y-32762299D01*
X102619873Y-32597555D01*
X102541232Y-32443212D01*
X102439414Y-32303072D01*
X102439407Y-32303064D01*
X102316935Y-32180592D01*
X102316927Y-32180585D01*
X102176790Y-32078769D01*
X102022451Y-32000130D01*
X102022443Y-32000126D01*
X101857699Y-31946597D01*
X101686624Y-31919501D01*
X101686612Y-31919500D01*
X101686611Y-31919500D01*
X101513389Y-31919500D01*
X101513387Y-31919500D01*
X101513375Y-31919501D01*
X101342301Y-31946597D01*
X101342300Y-31946597D01*
X101177556Y-32000126D01*
X101177548Y-32000130D01*
X101023209Y-32078769D01*
X100883072Y-32180585D01*
X100883064Y-32180592D01*
X100760592Y-32303064D01*
X100760585Y-32303072D01*
X100658769Y-32443209D01*
X100580130Y-32597548D01*
X100580126Y-32597556D01*
X100526597Y-32762300D01*
X100526597Y-32762301D01*
X100499501Y-32933375D01*
X100499500Y-32933391D01*
X54440500Y-32933391D01*
X54440500Y-32933389D01*
X54413402Y-32762299D01*
X54359873Y-32597555D01*
X54281232Y-32443212D01*
X54179414Y-32303072D01*
X54179407Y-32303064D01*
X54056935Y-32180592D01*
X54056927Y-32180585D01*
X53916790Y-32078769D01*
X53762451Y-32000130D01*
X53762443Y-32000126D01*
X53597699Y-31946597D01*
X53426624Y-31919501D01*
X53426612Y-31919500D01*
X53426611Y-31919500D01*
X53253389Y-31919500D01*
X53253387Y-31919500D01*
X53253375Y-31919501D01*
X53082301Y-31946597D01*
X53082300Y-31946597D01*
X52917556Y-32000126D01*
X52917548Y-32000130D01*
X52763209Y-32078769D01*
X52623072Y-32180585D01*
X52623064Y-32180592D01*
X52500592Y-32303064D01*
X52500585Y-32303072D01*
X52398769Y-32443209D01*
X52320130Y-32597548D01*
X52320126Y-32597556D01*
X52266597Y-32762300D01*
X52266597Y-32762301D01*
X52239501Y-32933375D01*
X52239500Y-32933391D01*
X46355000Y-32933391D01*
X46355000Y-27833125D01*
X51982000Y-27833125D01*
X51982000Y-28046874D01*
X51982001Y-28046890D01*
X52015438Y-28257996D01*
X52015439Y-28258001D01*
X52081490Y-28461285D01*
X52081495Y-28461297D01*
X52178532Y-28651744D01*
X52178535Y-28651749D01*
X52216621Y-28704168D01*
X52855841Y-28064947D01*
X52874075Y-28132993D01*
X52939901Y-28247007D01*
X53032993Y-28340099D01*
X53147007Y-28405925D01*
X53215051Y-28424157D01*
X52575830Y-29063377D01*
X52628253Y-29101466D01*
X52818702Y-29198504D01*
X52818714Y-29198509D01*
X53021994Y-29264559D01*
X53110791Y-29278623D01*
X53151577Y-29303617D01*
X53162745Y-29350131D01*
X53137751Y-29390917D01*
X53110793Y-29402084D01*
X53082299Y-29406597D01*
X52917556Y-29460126D01*
X52917548Y-29460130D01*
X52763209Y-29538769D01*
X52623072Y-29640585D01*
X52623064Y-29640592D01*
X52500592Y-29763064D01*
X52500585Y-29763072D01*
X52398769Y-29903209D01*
X52320130Y-30057548D01*
X52320126Y-30057556D01*
X52266597Y-30222300D01*
X52266597Y-30222301D01*
X52239501Y-30393375D01*
X52239500Y-30393391D01*
X52239500Y-30566608D01*
X52239501Y-30566624D01*
X52266597Y-30737698D01*
X52266597Y-30737699D01*
X52320126Y-30902443D01*
X52320130Y-30902451D01*
X52398769Y-31056790D01*
X52500585Y-31196927D01*
X52500592Y-31196935D01*
X52623064Y-31319407D01*
X52623072Y-31319414D01*
X52763212Y-31421232D01*
X52917555Y-31499873D01*
X53082299Y-31553402D01*
X53154407Y-31564822D01*
X53253375Y-31580498D01*
X53253381Y-31580498D01*
X53253389Y-31580500D01*
X53253391Y-31580500D01*
X53426609Y-31580500D01*
X53426611Y-31580500D01*
X53597701Y-31553402D01*
X53762445Y-31499873D01*
X53916788Y-31421232D01*
X54056928Y-31319414D01*
X54179414Y-31196928D01*
X54281232Y-31056788D01*
X54359873Y-30902445D01*
X54413402Y-30737701D01*
X54440500Y-30566611D01*
X54440500Y-30393389D01*
X54413402Y-30222299D01*
X54359873Y-30057555D01*
X54281232Y-29903212D01*
X54179414Y-29763072D01*
X54179407Y-29763064D01*
X54056935Y-29640592D01*
X54056927Y-29640585D01*
X53916790Y-29538769D01*
X53762451Y-29460130D01*
X53762443Y-29460126D01*
X53597700Y-29406597D01*
X53569206Y-29402084D01*
X53528420Y-29377089D01*
X53517255Y-29330575D01*
X53542250Y-29289789D01*
X53569208Y-29278623D01*
X53658005Y-29264559D01*
X53861285Y-29198509D01*
X53861297Y-29198504D01*
X54051738Y-29101470D01*
X54051745Y-29101466D01*
X54104168Y-29063377D01*
X53464948Y-28424157D01*
X53532993Y-28405925D01*
X53647007Y-28340099D01*
X53740099Y-28247007D01*
X53805925Y-28132993D01*
X53824157Y-28064948D01*
X54463377Y-28704168D01*
X54501466Y-28651745D01*
X54501470Y-28651738D01*
X54598504Y-28461297D01*
X54598509Y-28461285D01*
X54664560Y-28258001D01*
X54664561Y-28257996D01*
X54697998Y-28046890D01*
X54698000Y-28046874D01*
X54698000Y-27905521D01*
X75799500Y-27905521D01*
X75799500Y-28094478D01*
X75799501Y-28094494D01*
X75829059Y-28281112D01*
X75829061Y-28281121D01*
X75887452Y-28460830D01*
X75887456Y-28460838D01*
X75973241Y-28629201D01*
X76084309Y-28782072D01*
X76084316Y-28782080D01*
X76217919Y-28915683D01*
X76217927Y-28915690D01*
X76370801Y-29026760D01*
X76539168Y-29112547D01*
X76718882Y-29170940D01*
X76865315Y-29194132D01*
X76905505Y-29200498D01*
X76905511Y-29200498D01*
X76905519Y-29200500D01*
X76905521Y-29200500D01*
X77094479Y-29200500D01*
X77094481Y-29200500D01*
X77281118Y-29170940D01*
X77460832Y-29112547D01*
X77629199Y-29026760D01*
X77767772Y-28926080D01*
X86249500Y-28926080D01*
X86249500Y-29073919D01*
X86278341Y-29218911D01*
X86278341Y-29218912D01*
X86334916Y-29355495D01*
X86334917Y-29355497D01*
X86417048Y-29478415D01*
X86417049Y-29478416D01*
X86521584Y-29582951D01*
X86644505Y-29665084D01*
X86781087Y-29721658D01*
X86926082Y-29750500D01*
X87073918Y-29750500D01*
X87218913Y-29721658D01*
X87355495Y-29665084D01*
X87478416Y-29582951D01*
X87582951Y-29478416D01*
X87665084Y-29355495D01*
X87721658Y-29218913D01*
X87750500Y-29073918D01*
X87750500Y-28926082D01*
X87721658Y-28781087D01*
X87665084Y-28644505D01*
X87582951Y-28521584D01*
X87478416Y-28417049D01*
X87363252Y-28340099D01*
X87355497Y-28334917D01*
X87355495Y-28334916D01*
X87218911Y-28278341D01*
X87073919Y-28249500D01*
X87073918Y-28249500D01*
X86926082Y-28249500D01*
X86926080Y-28249500D01*
X86781088Y-28278341D01*
X86781087Y-28278341D01*
X86644504Y-28334916D01*
X86644502Y-28334917D01*
X86521584Y-28417048D01*
X86417048Y-28521584D01*
X86334917Y-28644502D01*
X86334916Y-28644504D01*
X86278341Y-28781087D01*
X86278341Y-28781088D01*
X86249500Y-28926080D01*
X77767772Y-28926080D01*
X77782073Y-28915690D01*
X77782080Y-28915683D01*
X77818947Y-28878817D01*
X77915683Y-28782080D01*
X77915690Y-28782073D01*
X78026760Y-28629199D01*
X78112547Y-28460832D01*
X78170940Y-28281118D01*
X78200500Y-28094481D01*
X78200500Y-27905519D01*
X78189034Y-27833125D01*
X100242000Y-27833125D01*
X100242000Y-28046874D01*
X100242001Y-28046890D01*
X100275438Y-28257996D01*
X100275439Y-28258001D01*
X100341490Y-28461285D01*
X100341495Y-28461297D01*
X100438532Y-28651744D01*
X100438535Y-28651749D01*
X100476621Y-28704168D01*
X101115841Y-28064947D01*
X101134075Y-28132993D01*
X101199901Y-28247007D01*
X101292993Y-28340099D01*
X101407007Y-28405925D01*
X101475051Y-28424157D01*
X100835830Y-29063377D01*
X100888253Y-29101466D01*
X101078702Y-29198504D01*
X101078714Y-29198509D01*
X101281994Y-29264559D01*
X101370791Y-29278623D01*
X101411577Y-29303617D01*
X101422745Y-29350131D01*
X101397751Y-29390917D01*
X101370793Y-29402084D01*
X101342299Y-29406597D01*
X101177556Y-29460126D01*
X101177548Y-29460130D01*
X101023209Y-29538769D01*
X100883072Y-29640585D01*
X100883064Y-29640592D01*
X100760592Y-29763064D01*
X100760585Y-29763072D01*
X100658769Y-29903209D01*
X100580130Y-30057548D01*
X100580126Y-30057556D01*
X100526597Y-30222300D01*
X100526597Y-30222301D01*
X100499501Y-30393375D01*
X100499500Y-30393391D01*
X100499500Y-30566608D01*
X100499501Y-30566624D01*
X100526597Y-30737698D01*
X100526597Y-30737699D01*
X100580126Y-30902443D01*
X100580130Y-30902451D01*
X100658769Y-31056790D01*
X100760585Y-31196927D01*
X100760592Y-31196935D01*
X100883064Y-31319407D01*
X100883072Y-31319414D01*
X101023212Y-31421232D01*
X101177555Y-31499873D01*
X101342299Y-31553402D01*
X101414407Y-31564822D01*
X101513375Y-31580498D01*
X101513381Y-31580498D01*
X101513389Y-31580500D01*
X101513391Y-31580500D01*
X101686609Y-31580500D01*
X101686611Y-31580500D01*
X101857701Y-31553402D01*
X102022445Y-31499873D01*
X102176788Y-31421232D01*
X102316928Y-31319414D01*
X102439414Y-31196928D01*
X102541232Y-31056788D01*
X102619873Y-30902445D01*
X102673402Y-30737701D01*
X102700500Y-30566611D01*
X102700500Y-30393389D01*
X102673402Y-30222299D01*
X102619873Y-30057555D01*
X102541232Y-29903212D01*
X102439414Y-29763072D01*
X102439407Y-29763064D01*
X102316935Y-29640592D01*
X102316927Y-29640585D01*
X102176790Y-29538769D01*
X102022451Y-29460130D01*
X102022443Y-29460126D01*
X101857700Y-29406597D01*
X101829206Y-29402084D01*
X101788420Y-29377089D01*
X101777255Y-29330575D01*
X101802250Y-29289789D01*
X101829208Y-29278623D01*
X101918005Y-29264559D01*
X102121285Y-29198509D01*
X102121297Y-29198504D01*
X102311738Y-29101470D01*
X102311745Y-29101466D01*
X102364168Y-29063377D01*
X101724948Y-28424157D01*
X101792993Y-28405925D01*
X101907007Y-28340099D01*
X102000099Y-28247007D01*
X102065925Y-28132993D01*
X102084157Y-28064948D01*
X102723377Y-28704168D01*
X102761466Y-28651745D01*
X102761470Y-28651738D01*
X102858504Y-28461297D01*
X102858509Y-28461285D01*
X102924560Y-28258001D01*
X102924561Y-28257996D01*
X102957998Y-28046890D01*
X102958000Y-28046874D01*
X102958000Y-27833125D01*
X102957998Y-27833109D01*
X102924561Y-27622003D01*
X102924560Y-27621998D01*
X102858509Y-27418714D01*
X102858504Y-27418702D01*
X102761466Y-27228253D01*
X102723377Y-27175830D01*
X102084157Y-27815050D01*
X102065925Y-27747007D01*
X102000099Y-27632993D01*
X101907007Y-27539901D01*
X101792993Y-27474075D01*
X101724947Y-27455841D01*
X102364168Y-26816621D01*
X102311749Y-26778535D01*
X102311744Y-26778532D01*
X102121297Y-26681495D01*
X102121285Y-26681490D01*
X101918001Y-26615439D01*
X101917996Y-26615438D01*
X101706890Y-26582001D01*
X101706875Y-26582000D01*
X101493125Y-26582000D01*
X101493109Y-26582001D01*
X101282003Y-26615438D01*
X101281998Y-26615439D01*
X101078714Y-26681490D01*
X101078702Y-26681495D01*
X100888255Y-26778533D01*
X100835831Y-26816621D01*
X101475052Y-27455842D01*
X101407007Y-27474075D01*
X101292993Y-27539901D01*
X101199901Y-27632993D01*
X101134075Y-27747007D01*
X101115842Y-27815052D01*
X100476621Y-27175831D01*
X100438533Y-27228255D01*
X100341495Y-27418702D01*
X100341490Y-27418714D01*
X100275439Y-27621998D01*
X100275438Y-27622003D01*
X100242001Y-27833109D01*
X100242000Y-27833125D01*
X78189034Y-27833125D01*
X78170940Y-27718882D01*
X78112547Y-27539168D01*
X78026760Y-27370801D01*
X78015639Y-27355495D01*
X77915690Y-27217927D01*
X77915683Y-27217919D01*
X77782080Y-27084316D01*
X77782072Y-27084309D01*
X77629201Y-26973241D01*
X77477860Y-26896129D01*
X77460838Y-26887456D01*
X77460830Y-26887452D01*
X77281121Y-26829061D01*
X77281118Y-26829060D01*
X77281112Y-26829059D01*
X77094494Y-26799501D01*
X77094482Y-26799500D01*
X77094481Y-26799500D01*
X76905519Y-26799500D01*
X76905517Y-26799500D01*
X76905505Y-26799501D01*
X76718887Y-26829059D01*
X76718878Y-26829061D01*
X76539169Y-26887452D01*
X76539161Y-26887456D01*
X76370798Y-26973241D01*
X76217927Y-27084309D01*
X76217919Y-27084316D01*
X76084316Y-27217919D01*
X76084309Y-27217927D01*
X75973241Y-27370798D01*
X75887456Y-27539161D01*
X75887452Y-27539169D01*
X75829061Y-27718878D01*
X75829059Y-27718887D01*
X75799501Y-27905505D01*
X75799500Y-27905521D01*
X54698000Y-27905521D01*
X54698000Y-27833125D01*
X54697998Y-27833109D01*
X54664561Y-27622003D01*
X54664560Y-27621998D01*
X54598509Y-27418714D01*
X54598504Y-27418702D01*
X54501466Y-27228253D01*
X54463377Y-27175830D01*
X53824157Y-27815050D01*
X53805925Y-27747007D01*
X53740099Y-27632993D01*
X53647007Y-27539901D01*
X53532993Y-27474075D01*
X53464947Y-27455842D01*
X53994710Y-26926080D01*
X66249500Y-26926080D01*
X66249500Y-27073919D01*
X66278341Y-27218911D01*
X66278341Y-27218912D01*
X66334916Y-27355495D01*
X66417049Y-27478416D01*
X66521584Y-27582951D01*
X66644505Y-27665084D01*
X66781087Y-27721658D01*
X66926082Y-27750500D01*
X67073918Y-27750500D01*
X67218913Y-27721658D01*
X67355495Y-27665084D01*
X67478416Y-27582951D01*
X67582951Y-27478416D01*
X67665084Y-27355495D01*
X67721658Y-27218913D01*
X67750500Y-27073918D01*
X67750500Y-26926082D01*
X67721658Y-26781087D01*
X67665084Y-26644505D01*
X67582951Y-26521584D01*
X67478416Y-26417049D01*
X67478415Y-26417048D01*
X67355497Y-26334917D01*
X67355495Y-26334916D01*
X67218911Y-26278341D01*
X67073919Y-26249500D01*
X67073918Y-26249500D01*
X66926082Y-26249500D01*
X66926080Y-26249500D01*
X66781088Y-26278341D01*
X66781087Y-26278341D01*
X66644504Y-26334916D01*
X66644502Y-26334917D01*
X66521584Y-26417048D01*
X66417048Y-26521584D01*
X66334917Y-26644502D01*
X66334916Y-26644504D01*
X66278341Y-26781087D01*
X66278341Y-26781088D01*
X66249500Y-26926080D01*
X53994710Y-26926080D01*
X54041973Y-26878817D01*
X54104168Y-26816621D01*
X54051749Y-26778535D01*
X54051744Y-26778532D01*
X53861297Y-26681495D01*
X53861285Y-26681490D01*
X53658001Y-26615439D01*
X53657996Y-26615438D01*
X53446890Y-26582001D01*
X53446875Y-26582000D01*
X53233125Y-26582000D01*
X53233109Y-26582001D01*
X53022003Y-26615438D01*
X53021998Y-26615439D01*
X52818714Y-26681490D01*
X52818702Y-26681495D01*
X52628255Y-26778533D01*
X52575831Y-26816621D01*
X53215052Y-27455842D01*
X53147007Y-27474075D01*
X53032993Y-27539901D01*
X52939901Y-27632993D01*
X52874075Y-27747007D01*
X52855842Y-27815052D01*
X52216621Y-27175831D01*
X52178533Y-27228255D01*
X52081495Y-27418702D01*
X52081490Y-27418714D01*
X52015439Y-27621998D01*
X52015438Y-27622003D01*
X51982001Y-27833109D01*
X51982000Y-27833125D01*
X46355000Y-27833125D01*
X46355000Y-22287500D01*
X46373306Y-22243306D01*
X46417500Y-22225000D01*
X108522500Y-22225000D01*
X108566694Y-22243306D01*
G37*
%TD.AperFunction*%
%TD*%
M02*
