%TF.GenerationSoftware,KiCad,Pcbnew,9.0.4*%
%TF.CreationDate,2026-03-19T22:20:33+01:00*%
%TF.ProjectId,HW_template,48575f74-656d-4706-9c61-74652e6b6963,rev?*%
%TF.SameCoordinates,Original*%
%TF.FileFunction,Soldermask,Bot*%
%TF.FilePolarity,Negative*%
%FSLAX46Y46*%
G04 Gerber Fmt 4.6, Leading zero omitted, Abs format (unit mm)*
G04 Created by KiCad (PCBNEW 9.0.4) date 2026-03-19 22:20:33*
%MOMM*%
%LPD*%
G01*
G04 APERTURE LIST*
%ADD10C,0.150000*%
%ADD11R,1.700000X1.700000*%
%ADD12O,1.700000X1.700000*%
%ADD13C,3.000000*%
%ADD14C,1.700000*%
G04 APERTURE END LIST*
D10*
X46200000Y-137000000D02*
X108400000Y-137000000D01*
X108400000Y-138800000D01*
X46200000Y-138800000D01*
X46200000Y-137000000D01*
G36*
X46200000Y-137000000D02*
G01*
X108400000Y-137000000D01*
X108400000Y-138800000D01*
X46200000Y-138800000D01*
X46200000Y-137000000D01*
G37*
X46400000Y-137200000D02*
X108600000Y-137200000D01*
X108600000Y-139000000D01*
X46400000Y-139000000D01*
X46400000Y-137200000D01*
G36*
X46400000Y-137200000D02*
G01*
X108600000Y-137200000D01*
X108600000Y-139000000D01*
X46400000Y-139000000D01*
X46400000Y-137200000D01*
G37*
X46400000Y-22200000D02*
X108600000Y-22200000D01*
X108600000Y-24000000D01*
X46400000Y-24000000D01*
X46400000Y-22200000D01*
G36*
X46400000Y-22200000D02*
G01*
X108600000Y-22200000D01*
X108600000Y-24000000D01*
X46400000Y-24000000D01*
X46400000Y-22200000D01*
G37*
X46500000Y-22200000D02*
X48300000Y-22200000D01*
X48300000Y-139000000D01*
X46500000Y-139000000D01*
X46500000Y-22200000D01*
G36*
X46500000Y-22200000D02*
G01*
X48300000Y-22200000D01*
X48300000Y-139000000D01*
X46500000Y-139000000D01*
X46500000Y-22200000D01*
G37*
X106800000Y-22200000D02*
X108600000Y-22200000D01*
X108600000Y-139000000D01*
X106800000Y-139000000D01*
X106800000Y-22200000D01*
G36*
X106800000Y-22200000D02*
G01*
X108600000Y-22200000D01*
X108600000Y-139000000D01*
X106800000Y-139000000D01*
X106800000Y-22200000D01*
G37*
D11*
%TO.C,Y1*%
X61973562Y-94058478D03*
D12*
X61973562Y-91518478D03*
X61973562Y-88978478D03*
X61973562Y-86438478D03*
X61973562Y-83898478D03*
%TD*%
D13*
%TO.C,TP6*%
X55617500Y-124218246D03*
%TD*%
%TO.C,TP4*%
X72500000Y-113500000D03*
%TD*%
D14*
%TO.C,J1*%
X77000000Y-28000000D03*
X77000000Y-35000000D03*
%TD*%
D11*
%TO.C,Y2*%
X89880000Y-112500000D03*
D14*
X92420000Y-112500000D03*
X94960000Y-112500000D03*
X97500000Y-112500000D03*
X100040000Y-112500000D03*
X102580000Y-112500000D03*
%TD*%
D13*
%TO.C,TP3*%
X94500000Y-85500000D03*
%TD*%
%TO.C,TP7*%
X55000000Y-134500000D03*
%TD*%
%TO.C,TP2*%
X94500000Y-104500000D03*
%TD*%
%TO.C,TP1*%
X82500000Y-113500000D03*
%TD*%
%TO.C,TP5*%
X55767500Y-112218246D03*
%TD*%
D11*
%TO.C,P1*%
X53340000Y-106680000D03*
D14*
X53340000Y-104140000D03*
X53340000Y-101600000D03*
X53340000Y-99060000D03*
X53340000Y-96520000D03*
X53340000Y-93980000D03*
X53340000Y-91440000D03*
X53340000Y-88900000D03*
X53340000Y-86360000D03*
X53340000Y-83820000D03*
X53340000Y-81280000D03*
X53340000Y-78740000D03*
X53340000Y-76200000D03*
X53340000Y-73660000D03*
X53340000Y-71120000D03*
X53340000Y-68580000D03*
X53340000Y-66040000D03*
X53340000Y-63500000D03*
X53340000Y-60960000D03*
X53340000Y-58420000D03*
X53340000Y-55880000D03*
X53340000Y-53340000D03*
X53340000Y-50800000D03*
X53340000Y-48260000D03*
X53340000Y-45720000D03*
X53340000Y-43180000D03*
X53340000Y-40640000D03*
X53340000Y-38100000D03*
X53340000Y-35560000D03*
X53340000Y-33020000D03*
X53340000Y-30480000D03*
X53340000Y-27940000D03*
%TD*%
D11*
%TO.C,P2*%
X101600000Y-106680000D03*
D14*
X101600000Y-104140000D03*
X101600000Y-101600000D03*
X101600000Y-99060000D03*
X101600000Y-96520000D03*
X101600000Y-93980000D03*
X101600000Y-91440000D03*
X101600000Y-88900000D03*
X101600000Y-86360000D03*
X101600000Y-83820000D03*
X101600000Y-81280000D03*
X101600000Y-78740000D03*
X101600000Y-76200000D03*
X101600000Y-73660000D03*
X101600000Y-71120000D03*
X101600000Y-68580000D03*
X101600000Y-66040000D03*
X101600000Y-63500000D03*
X101600000Y-60960000D03*
X101600000Y-58420000D03*
X101600000Y-55880000D03*
X101600000Y-53340000D03*
X101600000Y-50800000D03*
X101600000Y-48260000D03*
X101600000Y-45720000D03*
X101600000Y-43180000D03*
X101600000Y-40640000D03*
X101600000Y-38100000D03*
X101600000Y-35560000D03*
X101600000Y-33020000D03*
X101600000Y-30480000D03*
X101600000Y-27940000D03*
%TD*%
M02*
