%TF.GenerationSoftware,KiCad,Pcbnew,9.0.5*%
%TF.CreationDate,2026-03-19T11:44:53+01:00*%
%TF.ProjectId,HW_template,48575f74-656d-4706-9c61-74652e6b6963,rev?*%
%TF.SameCoordinates,Original*%
%TF.FileFunction,Copper,L2,Inr*%
%TF.FilePolarity,Positive*%
%FSLAX46Y46*%
G04 Gerber Fmt 4.6, Leading zero omitted, Abs format (unit mm)*
G04 Created by KiCad (PCBNEW 9.0.5) date 2026-03-19 11:44:53*
%MOMM*%
%LPD*%
G01*
G04 APERTURE LIST*
%TA.AperFunction,ComponentPad*%
%ADD10R,1.700000X1.700000*%
%TD*%
%TA.AperFunction,ComponentPad*%
%ADD11O,1.700000X1.700000*%
%TD*%
%TA.AperFunction,ComponentPad*%
%ADD12C,3.000000*%
%TD*%
%TA.AperFunction,ComponentPad*%
%ADD13C,1.700000*%
%TD*%
%TA.AperFunction,ViaPad*%
%ADD14C,1.000000*%
%TD*%
%TA.AperFunction,Conductor*%
%ADD15C,0.609600*%
%TD*%
%TA.AperFunction,Conductor*%
%ADD16C,0.500000*%
%TD*%
%TA.AperFunction,Conductor*%
%ADD17C,0.250000*%
%TD*%
G04 APERTURE END LIST*
D10*
%TO.N,IF_Q*%
%TO.C,Y1*%
X61973562Y-94058478D03*
D11*
%TO.N,3V3_INT*%
X61973562Y-91518478D03*
%TO.N,IF_I*%
X61973562Y-88978478D03*
%TO.N,GND*%
X61973562Y-86438478D03*
%TO.N,/Analog/VCO_in*%
X61973562Y-83898478D03*
%TD*%
D12*
%TO.N,Net-(JP3-A)*%
%TO.C,TP6*%
X55617500Y-124218246D03*
%TD*%
%TO.N,Vref*%
%TO.C,TP4*%
X72500000Y-113500000D03*
%TD*%
D10*
%TO.N,unconnected-(Y2-GRN-Pad1)*%
%TO.C,Y2*%
X89880000Y-112500000D03*
D13*
%TO.N,PG14_*%
X92420000Y-112500000D03*
%TO.N,unconnected-(Y2-TXO-Pad3)*%
X94960000Y-112500000D03*
%TO.N,+5V*%
X97500000Y-112500000D03*
%TO.N,GND*%
X100040000Y-112500000D03*
X102580000Y-112500000D03*
%TD*%
D12*
%TO.N,PC3*%
%TO.C,TP3*%
X94500000Y-85500000D03*
%TD*%
%TO.N,GND*%
%TO.C,TP7*%
X55000000Y-134500000D03*
%TD*%
%TO.N,PC1*%
%TO.C,TP2*%
X94500000Y-104500000D03*
%TD*%
%TO.N,/Analog/VCO_in*%
%TO.C,TP1*%
X82500000Y-113500000D03*
%TD*%
%TO.N,+5V*%
%TO.C,TP5*%
X55767500Y-112218246D03*
%TD*%
D10*
%TO.N,+5V*%
%TO.C,P1*%
X53340000Y-106680000D03*
D13*
%TO.N,unconnected-(P1-Pin_2-Pad2)*%
X53340000Y-104140000D03*
%TO.N,unconnected-(P1-Pin_3-Pad3)*%
X53340000Y-101600000D03*
%TO.N,unconnected-(P1-Pin_4-Pad4)*%
X53340000Y-99060000D03*
%TO.N,unconnected-(P1-Pin_5-Pad5)*%
X53340000Y-96520000D03*
%TO.N,PC13*%
X53340000Y-93980000D03*
%TO.N,PE5*%
X53340000Y-91440000D03*
%TO.N,PE3*%
X53340000Y-88900000D03*
%TO.N,unconnected-(P1-Pin_9-Pad9)*%
X53340000Y-86360000D03*
%TO.N,unconnected-(P1-Pin_10-Pad10)*%
X53340000Y-83820000D03*
%TO.N,unconnected-(P1-Pin_11-Pad11)*%
X53340000Y-81280000D03*
%TO.N,PB7*%
X53340000Y-78740000D03*
%TO.N,unconnected-(P1-Pin_13-Pad13)*%
X53340000Y-76200000D03*
%TO.N,unconnected-(P1-Pin_14-Pad14)*%
X53340000Y-73660000D03*
%TO.N,PG14_*%
X53340000Y-71120000D03*
%TO.N,unconnected-(P1-Pin_16-Pad16)*%
X53340000Y-68580000D03*
%TO.N,unconnected-(P1-Pin_17-Pad17)*%
X53340000Y-66040000D03*
%TO.N,unconnected-(P1-Pin_18-Pad18)*%
X53340000Y-63500000D03*
%TO.N,PD4*%
X53340000Y-60960000D03*
%TO.N,PD2*%
X53340000Y-58420000D03*
%TO.N,PD0*%
X53340000Y-55880000D03*
%TO.N,PC11*%
X53340000Y-53340000D03*
%TO.N,unconnected-(P1-Pin_23-Pad23)*%
X53340000Y-50800000D03*
%TO.N,unconnected-(P1-Pin_24-Pad24)*%
X53340000Y-48260000D03*
%TO.N,unconnected-(P1-Pin_25-Pad25)*%
X53340000Y-45720000D03*
%TO.N,unconnected-(P1-Pin_26-Pad26)*%
X53340000Y-43180000D03*
%TO.N,unconnected-(P1-Pin_27-Pad27)*%
X53340000Y-40640000D03*
%TO.N,unconnected-(P1-Pin_28-Pad28)*%
X53340000Y-38100000D03*
%TO.N,unconnected-(P1-Pin_29-Pad29)*%
X53340000Y-35560000D03*
%TO.N,unconnected-(P1-Pin_30-Pad30)*%
X53340000Y-33020000D03*
%TO.N,unconnected-(P1-Pin_31-Pad31)*%
X53340000Y-30480000D03*
%TO.N,GND*%
X53340000Y-27940000D03*
%TD*%
D10*
%TO.N,+3V0*%
%TO.C,P2*%
X101600000Y-106680000D03*
D13*
%TO.N,PF6*%
X101600000Y-104140000D03*
%TO.N,PF8*%
X101600000Y-101600000D03*
%TO.N,unconnected-(P2-Pin_4-Pad4)*%
X101600000Y-99060000D03*
%TO.N,unconnected-(P2-Pin_5-Pad5)*%
X101600000Y-96520000D03*
%TO.N,GND*%
X101600000Y-93980000D03*
%TO.N,PC1*%
X101600000Y-91440000D03*
%TO.N,PC3*%
X101600000Y-88900000D03*
%TO.N,unconnected-(P2-Pin_9-Pad9)*%
X101600000Y-86360000D03*
%TO.N,unconnected-(P2-Pin_10-Pad10)*%
X101600000Y-83820000D03*
%TO.N,PA5*%
X101600000Y-81280000D03*
%TO.N,unconnected-(P2-Pin_12-Pad12)*%
X101600000Y-78740000D03*
%TO.N,unconnected-(P2-Pin_13-Pad13)*%
X101600000Y-76200000D03*
%TO.N,unconnected-(P2-Pin_14-Pad14)*%
X101600000Y-73660000D03*
%TO.N,GND*%
X101600000Y-71120000D03*
%TO.N,unconnected-(P2-Pin_16-Pad16)*%
X101600000Y-68580000D03*
%TO.N,unconnected-(P2-Pin_17-Pad17)*%
X101600000Y-66040000D03*
%TO.N,unconnected-(P2-Pin_18-Pad18)*%
X101600000Y-63500000D03*
%TO.N,PE7*%
X101600000Y-60960000D03*
%TO.N,PE9*%
X101600000Y-58420000D03*
%TO.N,PE11*%
X101600000Y-55880000D03*
%TO.N,PE13*%
X101600000Y-53340000D03*
%TO.N,PE15*%
X101600000Y-50800000D03*
%TO.N,unconnected-(P2-Pin_24-Pad24)*%
X101600000Y-48260000D03*
%TO.N,unconnected-(P2-Pin_25-Pad25)*%
X101600000Y-45720000D03*
%TO.N,unconnected-(P2-Pin_26-Pad26)*%
X101600000Y-43180000D03*
%TO.N,PD9*%
X101600000Y-40640000D03*
%TO.N,unconnected-(P2-Pin_28-Pad28)*%
X101600000Y-38100000D03*
%TO.N,unconnected-(P2-Pin_29-Pad29)*%
X101600000Y-35560000D03*
%TO.N,PD15*%
X101600000Y-33020000D03*
%TO.N,PG3*%
X101600000Y-30480000D03*
%TO.N,GND*%
X101600000Y-27940000D03*
%TD*%
D14*
%TO.N,GND*%
X75000000Y-85000000D03*
X80420000Y-23200000D03*
X47400000Y-135000000D03*
X88040000Y-23200000D03*
X76500000Y-53000000D03*
X83000000Y-55000000D03*
X47400000Y-99440000D03*
X79350000Y-54500000D03*
X47400000Y-23200000D03*
X107600000Y-61500000D03*
X98200000Y-23200000D03*
X59900000Y-138000000D03*
X107600000Y-89440000D03*
X47400000Y-25780000D03*
X74500000Y-75500000D03*
X52280000Y-138000000D03*
X85300000Y-138000000D03*
X100740000Y-23200000D03*
X107600000Y-28480000D03*
X47400000Y-129920000D03*
X107600000Y-38640000D03*
X74951438Y-103221522D03*
X107600000Y-41180000D03*
X77680000Y-138000000D03*
X65500000Y-123500000D03*
X107600000Y-48800000D03*
X65000000Y-111000000D03*
X107600000Y-76740000D03*
X47400000Y-101980000D03*
X107600000Y-112300000D03*
X47400000Y-58800000D03*
X107600000Y-130080000D03*
X47400000Y-79120000D03*
X107600000Y-84360000D03*
X65000000Y-113500000D03*
X47400000Y-89280000D03*
X107600000Y-99600000D03*
X65500000Y-128000000D03*
X47400000Y-112140000D03*
X47400000Y-81660000D03*
X107600000Y-64040000D03*
X107600000Y-114840000D03*
X107600000Y-94520000D03*
X47400000Y-109600000D03*
X49940000Y-23200000D03*
X47400000Y-41020000D03*
X89500000Y-103000000D03*
X64980000Y-138000000D03*
X107600000Y-25940000D03*
X60100000Y-23200000D03*
X92920000Y-138000000D03*
X55020000Y-23200000D03*
X103080000Y-138000000D03*
X47400000Y-46100000D03*
X107600000Y-58960000D03*
X65180000Y-23200000D03*
X47400000Y-137540000D03*
X107600000Y-102140000D03*
X47400000Y-28320000D03*
X80220000Y-138000000D03*
X47400000Y-35940000D03*
X80000000Y-78000000D03*
X107600000Y-117380000D03*
X77880000Y-23200000D03*
X47400000Y-68960000D03*
X105620000Y-138000000D03*
X47400000Y-61340000D03*
X47400000Y-53720000D03*
X72600000Y-138000000D03*
X62640000Y-23200000D03*
X67720000Y-23200000D03*
X47400000Y-71500000D03*
X107600000Y-43720000D03*
X47400000Y-30860000D03*
X47400000Y-76580000D03*
X47400000Y-119760000D03*
X90380000Y-138000000D03*
X49740000Y-138000000D03*
X79500000Y-96500000D03*
X107600000Y-71660000D03*
X107600000Y-46260000D03*
X105820000Y-23200000D03*
X47400000Y-63880000D03*
X107600000Y-33560000D03*
X107600000Y-137700000D03*
X107600000Y-97060000D03*
X65500000Y-120500000D03*
X107600000Y-69120000D03*
X65500000Y-125000000D03*
X95460000Y-138000000D03*
X74500000Y-94000000D03*
X91000000Y-103000000D03*
X54820000Y-138000000D03*
X78000000Y-53000000D03*
X75340000Y-23200000D03*
X78000000Y-56500000D03*
X90580000Y-23200000D03*
X52480000Y-23200000D03*
X107600000Y-122460000D03*
X98000000Y-138000000D03*
X47400000Y-117220000D03*
X47400000Y-56260000D03*
X47400000Y-51180000D03*
X93120000Y-23200000D03*
X57560000Y-23200000D03*
X47400000Y-66420000D03*
X100540000Y-138000000D03*
X82960000Y-23200000D03*
X107600000Y-132620000D03*
X87840000Y-138000000D03*
X47400000Y-91820000D03*
X107600000Y-79280000D03*
X95000000Y-130000000D03*
X47400000Y-114680000D03*
X75140000Y-138000000D03*
X47400000Y-84200000D03*
X47400000Y-86740000D03*
X47400000Y-38480000D03*
X47400000Y-124840000D03*
X62440000Y-138000000D03*
X107600000Y-107220000D03*
X84500000Y-95000000D03*
X47400000Y-132460000D03*
X47400000Y-33400000D03*
X47400000Y-104520000D03*
X58498562Y-86501438D03*
X107600000Y-23400000D03*
X47400000Y-74040000D03*
X79000000Y-129500000D03*
X107600000Y-109760000D03*
X107600000Y-74200000D03*
X78000000Y-52000000D03*
X47400000Y-107060000D03*
X107600000Y-81820000D03*
X107600000Y-91980000D03*
X95660000Y-23200000D03*
X107600000Y-36100000D03*
X107600000Y-66580000D03*
X82760000Y-138000000D03*
X57360000Y-138000000D03*
X107600000Y-135160000D03*
X101500000Y-130000000D03*
X107600000Y-119920000D03*
X47400000Y-127380000D03*
X47400000Y-94360000D03*
X107600000Y-53880000D03*
X107600000Y-31020000D03*
X47400000Y-48640000D03*
X76500000Y-117000000D03*
X70060000Y-138000000D03*
X76500000Y-52000000D03*
X74000000Y-125500000D03*
X107600000Y-86900000D03*
X69000000Y-126500000D03*
X72000000Y-126500000D03*
X107600000Y-127540000D03*
X47400000Y-122300000D03*
X47400000Y-96900000D03*
X107600000Y-125000000D03*
X107600000Y-56420000D03*
X103280000Y-23200000D03*
X72800000Y-23200000D03*
X107600000Y-104680000D03*
X85500000Y-23200000D03*
X85000000Y-121200000D03*
X107600000Y-51340000D03*
X67520000Y-138000000D03*
X70260000Y-23200000D03*
X47400000Y-43560000D03*
X56998562Y-86501438D03*
X84500000Y-77000000D03*
%TO.N,3V3_INT*%
X58500000Y-91518478D03*
X79500000Y-117000000D03*
X82000000Y-96500000D03*
X85000000Y-53500000D03*
X87000000Y-29000000D03*
X53200000Y-126500000D03*
X53200000Y-128200000D03*
X82000000Y-78000000D03*
X79500000Y-56000000D03*
X81000000Y-55000000D03*
X67000000Y-27000000D03*
X69500000Y-117000000D03*
X76500000Y-56000000D03*
X57018478Y-91518478D03*
%TO.N,PE5*%
X96767500Y-130000000D03*
%TO.N,PE3*%
X103250000Y-130250000D03*
%TO.N,PF6*%
X72500000Y-58000000D03*
%TO.N,PA5*%
X74200000Y-128300000D03*
%TO.N,IF_Q*%
X66000000Y-82500000D03*
%TO.N,Vref*%
X66500000Y-102000000D03*
X69000000Y-86000000D03*
%TO.N,Net-(U5-SW)*%
X74000000Y-50500000D03*
X76500000Y-46500000D03*
%TO.N,REFOUT*%
X75500000Y-43500000D03*
X69500000Y-49500000D03*
%TO.N,Net-(U5--IN)*%
X72500000Y-44000000D03*
X83500000Y-34000000D03*
%TO.N,Net-(U5-IAOUT)*%
X84000000Y-46500000D03*
X70500000Y-46500000D03*
%TD*%
D15*
%TO.N,+5V*%
X91544200Y-118455800D02*
X62005054Y-118455800D01*
X62005054Y-118455800D02*
X55767500Y-112218246D01*
X97500000Y-112500000D02*
X91544200Y-118455800D01*
D16*
%TO.N,PE5*%
X53260000Y-91440000D02*
X53340000Y-91440000D01*
X96767500Y-130000000D02*
X96767500Y-130232500D01*
X51500000Y-129900000D02*
X51500000Y-93200000D01*
X96767500Y-130232500D02*
X96000000Y-131000000D01*
X51500000Y-93200000D02*
X53260000Y-91440000D01*
X96000000Y-131000000D02*
X52600000Y-131000000D01*
X52600000Y-131000000D02*
X51500000Y-129900000D01*
%TO.N,PE3*%
X50400000Y-91800000D02*
X53300000Y-88900000D01*
X103250000Y-130250000D02*
X101500000Y-132000000D01*
X50400000Y-130600000D02*
X50400000Y-91800000D01*
X51800000Y-132000000D02*
X50400000Y-130600000D01*
X101500000Y-132000000D02*
X51800000Y-132000000D01*
X53300000Y-88900000D02*
X53340000Y-88900000D01*
%TO.N,PG14_*%
X92420000Y-112500000D02*
X88920000Y-116000000D01*
X55500000Y-73280000D02*
X53340000Y-71120000D01*
X88920000Y-116000000D02*
X64500000Y-116000000D01*
X55500000Y-107000000D02*
X55500000Y-73280000D01*
X64500000Y-116000000D02*
X55500000Y-107000000D01*
%TO.N,PF6*%
X100640000Y-104140000D02*
X101600000Y-104140000D01*
X72500000Y-58000000D02*
X72500000Y-76000000D01*
X72500000Y-76000000D02*
X100640000Y-104140000D01*
%TO.N,PA5*%
X101600000Y-81280000D02*
X101680000Y-81280000D01*
X92100000Y-128300000D02*
X74200000Y-128300000D01*
X105000000Y-115400000D02*
X92100000Y-128300000D01*
X105000000Y-84600000D02*
X105000000Y-115400000D01*
X101680000Y-81280000D02*
X105000000Y-84600000D01*
D15*
%TO.N,IF_Q*%
X62032040Y-94000000D02*
X65000000Y-94000000D01*
X66000000Y-93000000D02*
X66000000Y-82500000D01*
X61973562Y-94058478D02*
X62032040Y-94000000D01*
X65000000Y-94000000D02*
X66000000Y-93000000D01*
%TO.N,Vref*%
X69000000Y-86000000D02*
X69000000Y-92500000D01*
X66500000Y-95000000D02*
X66500000Y-102000000D01*
X69000000Y-92500000D02*
X66500000Y-95000000D01*
%TO.N,/Analog/VCO_in*%
X61101522Y-83898478D02*
X60000000Y-85000000D01*
X61973562Y-83898478D02*
X61101522Y-83898478D01*
X60000000Y-106500000D02*
X62000000Y-108500000D01*
X82500000Y-113500000D02*
X77500000Y-108500000D01*
X60000000Y-85000000D02*
X60000000Y-106500000D01*
X62000000Y-108500000D02*
X77500000Y-108500000D01*
D17*
%TO.N,Net-(U5-SW)*%
X74000000Y-49000000D02*
X76500000Y-46500000D01*
X74000000Y-50500000D02*
X74000000Y-49000000D01*
%TO.N,REFOUT*%
X69500000Y-46000000D02*
X69500000Y-49500000D01*
X70500000Y-45000000D02*
X74000000Y-45000000D01*
X70500000Y-45000000D02*
X69500000Y-46000000D01*
X74000000Y-45000000D02*
X75500000Y-43500000D01*
%TO.N,Net-(U5--IN)*%
X73500000Y-44000000D02*
X83500000Y-34000000D01*
X72500000Y-44000000D02*
X73500000Y-44000000D01*
%TO.N,Net-(U5-IAOUT)*%
X74500000Y-46500000D02*
X70500000Y-46500000D01*
X83000000Y-45500000D02*
X75500000Y-45500000D01*
X75500000Y-45500000D02*
X74500000Y-46500000D01*
X84000000Y-46500000D02*
X83000000Y-45500000D01*
%TD*%
M02*
