%TF.GenerationSoftware,KiCad,Pcbnew,9.0.4*%
%TF.CreationDate,2026-03-19T22:20:33+01:00*%
%TF.ProjectId,HW_template,48575f74-656d-4706-9c61-74652e6b6963,rev?*%
%TF.SameCoordinates,Original*%
%TF.FileFunction,Paste,Top*%
%TF.FilePolarity,Positive*%
%FSLAX46Y46*%
G04 Gerber Fmt 4.6, Leading zero omitted, Abs format (unit mm)*
G04 Created by KiCad (PCBNEW 9.0.4) date 2026-03-19 22:20:33*
%MOMM*%
%LPD*%
G01*
G04 APERTURE LIST*
G04 Aperture macros list*
%AMRoundRect*
0 Rectangle with rounded corners*
0 $1 Rounding radius*
0 $2 $3 $4 $5 $6 $7 $8 $9 X,Y pos of 4 corners*
0 Add a 4 corners polygon primitive as box body*
4,1,4,$2,$3,$4,$5,$6,$7,$8,$9,$2,$3,0*
0 Add four circle primitives for the rounded corners*
1,1,$1+$1,$2,$3*
1,1,$1+$1,$4,$5*
1,1,$1+$1,$6,$7*
1,1,$1+$1,$8,$9*
0 Add four rect primitives between the rounded corners*
20,1,$1+$1,$2,$3,$4,$5,0*
20,1,$1+$1,$4,$5,$6,$7,0*
20,1,$1+$1,$6,$7,$8,$9,0*
20,1,$1+$1,$8,$9,$2,$3,0*%
G04 Aperture macros list end*
%ADD10C,0.127000*%
%ADD11RoundRect,0.237500X-0.250000X-0.237500X0.250000X-0.237500X0.250000X0.237500X-0.250000X0.237500X0*%
%ADD12RoundRect,0.237500X0.237500X-0.250000X0.237500X0.250000X-0.237500X0.250000X-0.237500X-0.250000X0*%
%ADD13RoundRect,0.237500X-0.237500X0.300000X-0.237500X-0.300000X0.237500X-0.300000X0.237500X0.300000X0*%
%ADD14RoundRect,0.237500X0.237500X-0.300000X0.237500X0.300000X-0.237500X0.300000X-0.237500X-0.300000X0*%
%ADD15RoundRect,0.250000X-0.412500X-0.650000X0.412500X-0.650000X0.412500X0.650000X-0.412500X0.650000X0*%
%ADD16RoundRect,0.237500X-0.237500X0.250000X-0.237500X-0.250000X0.237500X-0.250000X0.237500X0.250000X0*%
%ADD17RoundRect,0.237500X0.300000X0.237500X-0.300000X0.237500X-0.300000X-0.237500X0.300000X-0.237500X0*%
%ADD18RoundRect,0.237500X-0.300000X-0.237500X0.300000X-0.237500X0.300000X0.237500X-0.300000X0.237500X0*%
%ADD19RoundRect,0.150000X-0.825000X-0.150000X0.825000X-0.150000X0.825000X0.150000X-0.825000X0.150000X0*%
%ADD20RoundRect,0.237500X0.250000X0.237500X-0.250000X0.237500X-0.250000X-0.237500X0.250000X-0.237500X0*%
%ADD21RoundRect,0.237500X0.237500X-0.287500X0.237500X0.287500X-0.237500X0.287500X-0.237500X-0.287500X0*%
%ADD22RoundRect,0.250000X-0.337500X-0.475000X0.337500X-0.475000X0.337500X0.475000X-0.337500X0.475000X0*%
%ADD23RoundRect,0.250000X0.412500X0.650000X-0.412500X0.650000X-0.412500X-0.650000X0.412500X-0.650000X0*%
%ADD24R,2.800000X2.200000*%
%ADD25R,2.800000X2.800000*%
%ADD26RoundRect,0.375000X0.625000X0.375000X-0.625000X0.375000X-0.625000X-0.375000X0.625000X-0.375000X0*%
%ADD27RoundRect,0.500000X0.500000X1.400000X-0.500000X1.400000X-0.500000X-1.400000X0.500000X-1.400000X0*%
%ADD28R,0.250000X0.500000*%
%ADD29R,0.500000X0.250000*%
%ADD30RoundRect,0.250000X-0.350000X-0.450000X0.350000X-0.450000X0.350000X0.450000X-0.350000X0.450000X0*%
G04 APERTURE END LIST*
D10*
%TO.C,U5*%
X77277000Y-51993000D02*
X77303000Y-51995000D01*
X77329000Y-51998000D01*
X77356000Y-52003000D01*
X77381000Y-52009000D01*
X77407000Y-52017000D01*
X77432000Y-52026000D01*
X77457000Y-52036000D01*
X77481000Y-52047000D01*
X77504000Y-52060000D01*
X77527000Y-52074000D01*
X77549000Y-52089000D01*
X77570000Y-52105000D01*
X77590000Y-52122000D01*
X77609000Y-52141000D01*
X77628000Y-52160000D01*
X77645000Y-52180000D01*
X77661000Y-52201000D01*
X77676000Y-52223000D01*
X77690000Y-52246000D01*
X77703000Y-52269000D01*
X77714000Y-52293000D01*
X77724000Y-52318000D01*
X77733000Y-52343000D01*
X77741000Y-52369000D01*
X77747000Y-52394000D01*
X77752000Y-52421000D01*
X77755000Y-52447000D01*
X77757000Y-52473000D01*
X77758000Y-52500000D01*
X77757000Y-52527000D01*
X77755000Y-52553000D01*
X77752000Y-52579000D01*
X77747000Y-52606000D01*
X77741000Y-52631000D01*
X77733000Y-52657000D01*
X77724000Y-52682000D01*
X77714000Y-52707000D01*
X77703000Y-52731000D01*
X77690000Y-52754000D01*
X77676000Y-52777000D01*
X77661000Y-52799000D01*
X77645000Y-52820000D01*
X77628000Y-52840000D01*
X77609000Y-52859000D01*
X77590000Y-52878000D01*
X77570000Y-52895000D01*
X77549000Y-52911000D01*
X77527000Y-52926000D01*
X77504000Y-52940000D01*
X77481000Y-52953000D01*
X77457000Y-52964000D01*
X77432000Y-52974000D01*
X77407000Y-52983000D01*
X77381000Y-52991000D01*
X77356000Y-52997000D01*
X77329000Y-53002000D01*
X77303000Y-53005000D01*
X77277000Y-53007000D01*
X77250000Y-53008000D01*
X77223000Y-53007000D01*
X77197000Y-53005000D01*
X77171000Y-53002000D01*
X77144000Y-52997000D01*
X77119000Y-52991000D01*
X77093000Y-52983000D01*
X77068000Y-52974000D01*
X77043000Y-52964000D01*
X77019000Y-52953000D01*
X76996000Y-52940000D01*
X76973000Y-52926000D01*
X76951000Y-52911000D01*
X76930000Y-52895000D01*
X76910000Y-52878000D01*
X76891000Y-52859000D01*
X76872000Y-52840000D01*
X76855000Y-52820000D01*
X76839000Y-52799000D01*
X76824000Y-52777000D01*
X76810000Y-52754000D01*
X76797000Y-52731000D01*
X76786000Y-52707000D01*
X76776000Y-52682000D01*
X76767000Y-52657000D01*
X76759000Y-52631000D01*
X76753000Y-52606000D01*
X76748000Y-52579000D01*
X76745000Y-52553000D01*
X76743000Y-52527000D01*
X76742000Y-52500000D01*
X76743000Y-52473000D01*
X76745000Y-52447000D01*
X76748000Y-52421000D01*
X76753000Y-52394000D01*
X76759000Y-52369000D01*
X76767000Y-52343000D01*
X76776000Y-52318000D01*
X76786000Y-52293000D01*
X76797000Y-52269000D01*
X76810000Y-52246000D01*
X76824000Y-52223000D01*
X76839000Y-52201000D01*
X76855000Y-52180000D01*
X76872000Y-52160000D01*
X76891000Y-52141000D01*
X76910000Y-52122000D01*
X76930000Y-52105000D01*
X76951000Y-52089000D01*
X76973000Y-52074000D01*
X76996000Y-52060000D01*
X77019000Y-52047000D01*
X77043000Y-52036000D01*
X77068000Y-52026000D01*
X77093000Y-52017000D01*
X77119000Y-52009000D01*
X77144000Y-52003000D01*
X77171000Y-51998000D01*
X77197000Y-51995000D01*
X77223000Y-51993000D01*
X77250000Y-51992000D01*
X77277000Y-51993000D01*
G36*
X77277000Y-51993000D02*
G01*
X77303000Y-51995000D01*
X77329000Y-51998000D01*
X77356000Y-52003000D01*
X77381000Y-52009000D01*
X77407000Y-52017000D01*
X77432000Y-52026000D01*
X77457000Y-52036000D01*
X77481000Y-52047000D01*
X77504000Y-52060000D01*
X77527000Y-52074000D01*
X77549000Y-52089000D01*
X77570000Y-52105000D01*
X77590000Y-52122000D01*
X77609000Y-52141000D01*
X77628000Y-52160000D01*
X77645000Y-52180000D01*
X77661000Y-52201000D01*
X77676000Y-52223000D01*
X77690000Y-52246000D01*
X77703000Y-52269000D01*
X77714000Y-52293000D01*
X77724000Y-52318000D01*
X77733000Y-52343000D01*
X77741000Y-52369000D01*
X77747000Y-52394000D01*
X77752000Y-52421000D01*
X77755000Y-52447000D01*
X77757000Y-52473000D01*
X77758000Y-52500000D01*
X77757000Y-52527000D01*
X77755000Y-52553000D01*
X77752000Y-52579000D01*
X77747000Y-52606000D01*
X77741000Y-52631000D01*
X77733000Y-52657000D01*
X77724000Y-52682000D01*
X77714000Y-52707000D01*
X77703000Y-52731000D01*
X77690000Y-52754000D01*
X77676000Y-52777000D01*
X77661000Y-52799000D01*
X77645000Y-52820000D01*
X77628000Y-52840000D01*
X77609000Y-52859000D01*
X77590000Y-52878000D01*
X77570000Y-52895000D01*
X77549000Y-52911000D01*
X77527000Y-52926000D01*
X77504000Y-52940000D01*
X77481000Y-52953000D01*
X77457000Y-52964000D01*
X77432000Y-52974000D01*
X77407000Y-52983000D01*
X77381000Y-52991000D01*
X77356000Y-52997000D01*
X77329000Y-53002000D01*
X77303000Y-53005000D01*
X77277000Y-53007000D01*
X77250000Y-53008000D01*
X77223000Y-53007000D01*
X77197000Y-53005000D01*
X77171000Y-53002000D01*
X77144000Y-52997000D01*
X77119000Y-52991000D01*
X77093000Y-52983000D01*
X77068000Y-52974000D01*
X77043000Y-52964000D01*
X77019000Y-52953000D01*
X76996000Y-52940000D01*
X76973000Y-52926000D01*
X76951000Y-52911000D01*
X76930000Y-52895000D01*
X76910000Y-52878000D01*
X76891000Y-52859000D01*
X76872000Y-52840000D01*
X76855000Y-52820000D01*
X76839000Y-52799000D01*
X76824000Y-52777000D01*
X76810000Y-52754000D01*
X76797000Y-52731000D01*
X76786000Y-52707000D01*
X76776000Y-52682000D01*
X76767000Y-52657000D01*
X76759000Y-52631000D01*
X76753000Y-52606000D01*
X76748000Y-52579000D01*
X76745000Y-52553000D01*
X76743000Y-52527000D01*
X76742000Y-52500000D01*
X76743000Y-52473000D01*
X76745000Y-52447000D01*
X76748000Y-52421000D01*
X76753000Y-52394000D01*
X76759000Y-52369000D01*
X76767000Y-52343000D01*
X76776000Y-52318000D01*
X76786000Y-52293000D01*
X76797000Y-52269000D01*
X76810000Y-52246000D01*
X76824000Y-52223000D01*
X76839000Y-52201000D01*
X76855000Y-52180000D01*
X76872000Y-52160000D01*
X76891000Y-52141000D01*
X76910000Y-52122000D01*
X76930000Y-52105000D01*
X76951000Y-52089000D01*
X76973000Y-52074000D01*
X76996000Y-52060000D01*
X77019000Y-52047000D01*
X77043000Y-52036000D01*
X77068000Y-52026000D01*
X77093000Y-52017000D01*
X77119000Y-52009000D01*
X77144000Y-52003000D01*
X77171000Y-51998000D01*
X77197000Y-51995000D01*
X77223000Y-51993000D01*
X77250000Y-51992000D01*
X77277000Y-51993000D01*
G37*
%TD*%
D11*
%TO.C,R32*%
X77862500Y-45000000D03*
X79687500Y-45000000D03*
%TD*%
D12*
%TO.C,R3*%
X71548562Y-82150978D03*
X71548562Y-80325978D03*
%TD*%
%TO.C,R35*%
X82000000Y-123112500D03*
X82000000Y-121287500D03*
%TD*%
D13*
%TO.C,C11*%
X74336062Y-98653478D03*
X74336062Y-100378478D03*
%TD*%
D14*
%TO.C,C14*%
X89547552Y-101634400D03*
X89547552Y-99909400D03*
%TD*%
D13*
%TO.C,C19*%
X78975000Y-126407500D03*
X78975000Y-128132500D03*
%TD*%
D15*
%TO.C,C3*%
X71486062Y-77738478D03*
X74611062Y-77738478D03*
%TD*%
D16*
%TO.C,R25*%
X70500000Y-28587500D03*
X70500000Y-30412500D03*
%TD*%
D12*
%TO.C,R5*%
X87548562Y-83650978D03*
X87548562Y-81825978D03*
%TD*%
D17*
%TO.C,C29*%
X76137500Y-45000000D03*
X74412500Y-45000000D03*
%TD*%
D14*
%TO.C,C7*%
X89522226Y-83604796D03*
X89522226Y-81879796D03*
%TD*%
D16*
%TO.C,R11*%
X86026336Y-99858682D03*
X86026336Y-101683682D03*
%TD*%
D18*
%TO.C,C27*%
X77912500Y-47000000D03*
X79637500Y-47000000D03*
%TD*%
D19*
%TO.C,U3*%
X74000000Y-120365000D03*
X74000000Y-121635000D03*
X74000000Y-122905000D03*
X74000000Y-124175000D03*
X78950000Y-124175000D03*
X78950000Y-122905000D03*
X78950000Y-121635000D03*
X78950000Y-120365000D03*
%TD*%
D20*
%TO.C,R27*%
X70412500Y-35500000D03*
X68587500Y-35500000D03*
%TD*%
D13*
%TO.C,C6*%
X84548562Y-81875978D03*
X84548562Y-83600978D03*
%TD*%
D12*
%TO.C,R17*%
X96767500Y-128655746D03*
X96767500Y-126830746D03*
%TD*%
D17*
%TO.C,C8*%
X81723562Y-97508478D03*
X79998562Y-97508478D03*
%TD*%
D12*
%TO.C,R31*%
X81275000Y-47000000D03*
X81275000Y-45175000D03*
%TD*%
D16*
%TO.C,R28*%
X71100000Y-51587500D03*
X71100000Y-53412500D03*
%TD*%
%TO.C,R14*%
X91047552Y-99859400D03*
X91047552Y-101684400D03*
%TD*%
%TO.C,R15*%
X69475000Y-119357500D03*
X69475000Y-121182500D03*
%TD*%
D21*
%TO.C,LED1*%
X95267500Y-128618246D03*
X95267500Y-126868246D03*
%TD*%
D22*
%TO.C,C23*%
X61730000Y-125218246D03*
X63805000Y-125218246D03*
%TD*%
D14*
%TO.C,C26*%
X71100000Y-49912500D03*
X71100000Y-48187500D03*
%TD*%
D20*
%TO.C,R8*%
X69748562Y-102428478D03*
X67923562Y-102428478D03*
%TD*%
D19*
%TO.C,U2*%
X76861062Y-99198478D03*
X76861062Y-100468478D03*
X76861062Y-101738478D03*
X76861062Y-103008478D03*
X81811062Y-103008478D03*
X81811062Y-101738478D03*
X81811062Y-100468478D03*
X81811062Y-99198478D03*
%TD*%
D17*
%TO.C,C2*%
X69911062Y-82738478D03*
X68186062Y-82738478D03*
%TD*%
D12*
%TO.C,R19*%
X76945000Y-128182500D03*
X76945000Y-126357500D03*
%TD*%
D16*
%TO.C,R6*%
X91022226Y-78467296D03*
X91022226Y-80292296D03*
%TD*%
D23*
%TO.C,C12*%
X87588836Y-97271182D03*
X84463836Y-97271182D03*
%TD*%
D17*
%TO.C,C28*%
X82862500Y-53500000D03*
X81137500Y-53500000D03*
%TD*%
D21*
%TO.C,LED2*%
X101767500Y-128618246D03*
X101767500Y-126868246D03*
%TD*%
D11*
%TO.C,R23*%
X67500000Y-46500000D03*
X69325000Y-46500000D03*
%TD*%
D16*
%TO.C,R4*%
X86048562Y-81825978D03*
X86048562Y-83650978D03*
%TD*%
D20*
%TO.C,R21*%
X85412500Y-29000000D03*
X83587500Y-29000000D03*
%TD*%
D24*
%TO.C,J1*%
X80700000Y-28900000D03*
X73300000Y-26900000D03*
D25*
X73300000Y-36300000D03*
%TD*%
D16*
%TO.C,R16*%
X69475000Y-123357500D03*
X69475000Y-125182500D03*
%TD*%
D26*
%TO.C,U4*%
X63417500Y-120518246D03*
X63417500Y-118218246D03*
D27*
X57117500Y-118218246D03*
D26*
X63417500Y-115918246D03*
%TD*%
D17*
%TO.C,C30*%
X84862500Y-49000000D03*
X83137500Y-49000000D03*
%TD*%
D23*
%TO.C,C5*%
X87611062Y-79238478D03*
X84486062Y-79238478D03*
%TD*%
D16*
%TO.C,R2*%
X73048562Y-80325978D03*
X73048562Y-82150978D03*
%TD*%
D14*
%TO.C,C18*%
X56998562Y-89870978D03*
X56998562Y-88145978D03*
%TD*%
D12*
%TO.C,R10*%
X71336062Y-100428478D03*
X71336062Y-98603478D03*
%TD*%
D15*
%TO.C,C10*%
X71273562Y-96015978D03*
X74398562Y-96015978D03*
%TD*%
D19*
%TO.C,U1*%
X77048562Y-80968478D03*
X77048562Y-82238478D03*
X77048562Y-83508478D03*
X77048562Y-84778478D03*
X81998562Y-84778478D03*
X81998562Y-83508478D03*
X81998562Y-82238478D03*
X81998562Y-80968478D03*
%TD*%
D28*
%TO.C,U5*%
X78250000Y-50650000D03*
X77750000Y-50650000D03*
X77250000Y-50650000D03*
X76750000Y-50650000D03*
X76250000Y-50650000D03*
D29*
X75400000Y-51500000D03*
X75400000Y-52000000D03*
X75400000Y-52500000D03*
X75400000Y-53000000D03*
X75400000Y-53500000D03*
D28*
X76250000Y-54350000D03*
X76750000Y-54350000D03*
X77250000Y-54350000D03*
X77750000Y-54350000D03*
X78250000Y-54350000D03*
D29*
X79100000Y-53500000D03*
X79100000Y-53000000D03*
X79100000Y-52500000D03*
X79100000Y-52000000D03*
X79100000Y-51500000D03*
%TD*%
D22*
%TO.C,C22*%
X61730000Y-123218246D03*
X63805000Y-123218246D03*
%TD*%
D13*
%TO.C,C4*%
X74548562Y-80375978D03*
X74548562Y-82100978D03*
%TD*%
D16*
%TO.C,R26*%
X83500000Y-30587500D03*
X83500000Y-32412500D03*
%TD*%
D12*
%TO.C,R18*%
X103267500Y-128655746D03*
X103267500Y-126830746D03*
%TD*%
D11*
%TO.C,R24*%
X67500000Y-48000000D03*
X69325000Y-48000000D03*
%TD*%
D18*
%TO.C,C25*%
X68637500Y-37000000D03*
X70362500Y-37000000D03*
%TD*%
D20*
%TO.C,R30*%
X84912500Y-52000000D03*
X83087500Y-52000000D03*
%TD*%
D11*
%TO.C,R22*%
X68587500Y-27000000D03*
X70412500Y-27000000D03*
%TD*%
D17*
%TO.C,C1*%
X81911062Y-79238478D03*
X80186062Y-79238478D03*
%TD*%
D20*
%TO.C,R34*%
X84912500Y-50500000D03*
X83087500Y-50500000D03*
%TD*%
D17*
%TO.C,C16*%
X78837500Y-118270000D03*
X77112500Y-118270000D03*
%TD*%
D20*
%TO.C,R1*%
X69961062Y-84238478D03*
X68136062Y-84238478D03*
%TD*%
D12*
%TO.C,R33*%
X82775000Y-47000000D03*
X82775000Y-45175000D03*
%TD*%
D22*
%TO.C,C20*%
X61730000Y-113218246D03*
X63805000Y-113218246D03*
%TD*%
D13*
%TO.C,C13*%
X84526336Y-99908682D03*
X84526336Y-101633682D03*
%TD*%
D30*
%TO.C,R20*%
X61767500Y-127718246D03*
X63767500Y-127718246D03*
%TD*%
D13*
%TO.C,C17*%
X71475000Y-123407500D03*
X71475000Y-125132500D03*
%TD*%
D16*
%TO.C,R13*%
X91047552Y-96534400D03*
X91047552Y-98359400D03*
%TD*%
D14*
%TO.C,C15*%
X58498562Y-89870978D03*
X58498562Y-88145978D03*
%TD*%
D16*
%TO.C,R9*%
X72836062Y-98603478D03*
X72836062Y-100428478D03*
%TD*%
D22*
%TO.C,C21*%
X61730000Y-111218246D03*
X63805000Y-111218246D03*
%TD*%
D16*
%TO.C,R29*%
X71100000Y-55000000D03*
X71100000Y-56825000D03*
%TD*%
%TO.C,R36*%
X83600000Y-121287500D03*
X83600000Y-123112500D03*
%TD*%
D12*
%TO.C,R12*%
X87526336Y-101683682D03*
X87526336Y-99858682D03*
%TD*%
D17*
%TO.C,C9*%
X69698562Y-100928478D03*
X67973562Y-100928478D03*
%TD*%
D14*
%TO.C,C24*%
X69600000Y-56775000D03*
X69600000Y-55050000D03*
%TD*%
D16*
%TO.C,R7*%
X91022226Y-81829796D03*
X91022226Y-83654796D03*
%TD*%
M02*
