%TF.GenerationSoftware,KiCad,Pcbnew,9.0.5*%
%TF.CreationDate,2026-03-19T11:44:53+01:00*%
%TF.ProjectId,HW_template,48575f74-656d-4706-9c61-74652e6b6963,rev?*%
%TF.SameCoordinates,Original*%
%TF.FileFunction,Legend,Top*%
%TF.FilePolarity,Positive*%
%FSLAX46Y46*%
G04 Gerber Fmt 4.6, Leading zero omitted, Abs format (unit mm)*
G04 Created by KiCad (PCBNEW 9.0.5) date 2026-03-19 11:44:53*
%MOMM*%
%LPD*%
G01*
G04 APERTURE LIST*
%ADD10C,0.150000*%
%ADD11C,0.200000*%
%ADD12C,0.120000*%
G04 APERTURE END LIST*
D10*
X68498562Y-80468478D02*
X67498562Y-81468478D01*
X54000000Y-116218246D02*
X53000000Y-117218246D01*
X67526336Y-99771182D02*
X67526336Y-97771182D01*
X54000000Y-118218246D02*
X53000000Y-119218246D01*
X53000000Y-120218246D02*
X52000000Y-119218246D01*
X50117500Y-109218246D02*
X65617500Y-109218246D01*
X65617500Y-130128296D01*
X50117500Y-130128296D01*
X50117500Y-109218246D01*
X99144123Y-115618246D02*
X105767500Y-115618246D01*
X105767500Y-130114285D01*
X99144123Y-130114285D01*
X99144123Y-115618246D01*
X67498562Y-79468478D02*
X68498562Y-80468478D01*
X53000000Y-117218246D02*
X52000000Y-116218246D01*
X64526336Y-89271182D02*
X97026336Y-89271182D01*
X97026336Y-107271182D01*
X64526336Y-107271182D01*
X64526336Y-89271182D01*
X93498562Y-82968478D02*
X92498562Y-83968478D01*
X54000000Y-119218246D02*
X53000000Y-120218246D01*
X64498562Y-70968478D02*
X96998562Y-70968478D01*
X96998562Y-88968478D01*
X64498562Y-88968478D01*
X64498562Y-70968478D01*
X52000000Y-116218246D02*
X54000000Y-116218246D01*
X67000000Y-109135000D02*
X86000000Y-109135000D01*
X86000000Y-130135000D01*
X67000000Y-130135000D01*
X67000000Y-109135000D01*
X52000000Y-117218246D02*
X54000000Y-117218246D01*
X86767500Y-125618246D02*
X105767500Y-125618246D01*
X105767500Y-130118246D01*
X86767500Y-130118246D01*
X86767500Y-125618246D01*
X92526336Y-100271182D02*
X93526336Y-101271182D01*
X53000000Y-119218246D02*
X52000000Y-118218246D01*
X92526336Y-102271182D02*
X92526336Y-100271182D01*
X52000000Y-119218246D02*
X54000000Y-119218246D01*
X53000000Y-118218246D02*
X52000000Y-117218246D01*
X68526336Y-98771182D02*
X67526336Y-99771182D01*
X92498562Y-81968478D02*
X93498562Y-82968478D01*
X93526336Y-101271182D02*
X92526336Y-102271182D01*
X52000000Y-118218246D02*
X54000000Y-118218246D01*
X67526336Y-97771182D02*
X68526336Y-98771182D01*
X54000000Y-117218246D02*
X53000000Y-118218246D01*
X92498562Y-83968478D02*
X92498562Y-81968478D01*
X86767500Y-118618246D02*
X105767500Y-118618246D01*
X105767500Y-125618246D01*
X86767500Y-125618246D01*
X86767500Y-118618246D01*
X92767500Y-115618246D02*
X105767500Y-115618246D01*
X105767500Y-130114285D01*
X92767500Y-130114285D01*
X92767500Y-115618246D01*
X67498562Y-81468478D02*
X67498562Y-79468478D01*
D11*
X94086485Y-100138401D02*
X94276961Y-100138401D01*
X94276961Y-100138401D02*
X94372199Y-100186020D01*
X94372199Y-100186020D02*
X94467437Y-100281258D01*
X94467437Y-100281258D02*
X94515056Y-100471734D01*
X94515056Y-100471734D02*
X94515056Y-100805067D01*
X94515056Y-100805067D02*
X94467437Y-100995543D01*
X94467437Y-100995543D02*
X94372199Y-101090782D01*
X94372199Y-101090782D02*
X94276961Y-101138401D01*
X94276961Y-101138401D02*
X94086485Y-101138401D01*
X94086485Y-101138401D02*
X93991247Y-101090782D01*
X93991247Y-101090782D02*
X93896009Y-100995543D01*
X93896009Y-100995543D02*
X93848390Y-100805067D01*
X93848390Y-100805067D02*
X93848390Y-100471734D01*
X93848390Y-100471734D02*
X93896009Y-100281258D01*
X93896009Y-100281258D02*
X93991247Y-100186020D01*
X93991247Y-100186020D02*
X94086485Y-100138401D01*
X94943628Y-100138401D02*
X94943628Y-100947924D01*
X94943628Y-100947924D02*
X94991247Y-101043162D01*
X94991247Y-101043162D02*
X95038866Y-101090782D01*
X95038866Y-101090782D02*
X95134104Y-101138401D01*
X95134104Y-101138401D02*
X95324580Y-101138401D01*
X95324580Y-101138401D02*
X95419818Y-101090782D01*
X95419818Y-101090782D02*
X95467437Y-101043162D01*
X95467437Y-101043162D02*
X95515056Y-100947924D01*
X95515056Y-100947924D02*
X95515056Y-100138401D01*
X95848390Y-100138401D02*
X96419818Y-100138401D01*
X96134104Y-101138401D02*
X96134104Y-100138401D01*
X78439663Y-73240458D02*
X78392044Y-73288078D01*
X78392044Y-73288078D02*
X78249187Y-73335697D01*
X78249187Y-73335697D02*
X78153949Y-73335697D01*
X78153949Y-73335697D02*
X78011092Y-73288078D01*
X78011092Y-73288078D02*
X77915854Y-73192839D01*
X77915854Y-73192839D02*
X77868235Y-73097601D01*
X77868235Y-73097601D02*
X77820616Y-72907125D01*
X77820616Y-72907125D02*
X77820616Y-72764268D01*
X77820616Y-72764268D02*
X77868235Y-72573792D01*
X77868235Y-72573792D02*
X77915854Y-72478554D01*
X77915854Y-72478554D02*
X78011092Y-72383316D01*
X78011092Y-72383316D02*
X78153949Y-72335697D01*
X78153949Y-72335697D02*
X78249187Y-72335697D01*
X78249187Y-72335697D02*
X78392044Y-72383316D01*
X78392044Y-72383316D02*
X78439663Y-72430935D01*
X78868235Y-73335697D02*
X78868235Y-72335697D01*
X78868235Y-72811887D02*
X79439663Y-72811887D01*
X79439663Y-73335697D02*
X79439663Y-72335697D01*
X80439663Y-73335697D02*
X79868235Y-73335697D01*
X80153949Y-73335697D02*
X80153949Y-72335697D01*
X80153949Y-72335697D02*
X80058711Y-72478554D01*
X80058711Y-72478554D02*
X79963473Y-72573792D01*
X79963473Y-72573792D02*
X79868235Y-72621411D01*
X81630140Y-72954744D02*
X82392045Y-72954744D01*
X83630140Y-73335697D02*
X83630140Y-72335697D01*
X84439663Y-72811887D02*
X84106330Y-72811887D01*
X84106330Y-73335697D02*
X84106330Y-72335697D01*
X84106330Y-72335697D02*
X84582520Y-72335697D01*
X84725378Y-73430935D02*
X85487282Y-73430935D01*
X86392044Y-73430935D02*
X86296806Y-73383316D01*
X86296806Y-73383316D02*
X86201568Y-73288078D01*
X86201568Y-73288078D02*
X86058711Y-73145220D01*
X86058711Y-73145220D02*
X85963473Y-73097601D01*
X85963473Y-73097601D02*
X85868235Y-73097601D01*
X85915854Y-73335697D02*
X85820616Y-73288078D01*
X85820616Y-73288078D02*
X85725378Y-73192839D01*
X85725378Y-73192839D02*
X85677759Y-73002363D01*
X85677759Y-73002363D02*
X85677759Y-72669030D01*
X85677759Y-72669030D02*
X85725378Y-72478554D01*
X85725378Y-72478554D02*
X85820616Y-72383316D01*
X85820616Y-72383316D02*
X85915854Y-72335697D01*
X85915854Y-72335697D02*
X86106330Y-72335697D01*
X86106330Y-72335697D02*
X86201568Y-72383316D01*
X86201568Y-72383316D02*
X86296806Y-72478554D01*
X86296806Y-72478554D02*
X86344425Y-72669030D01*
X86344425Y-72669030D02*
X86344425Y-73002363D01*
X86344425Y-73002363D02*
X86296806Y-73192839D01*
X86296806Y-73192839D02*
X86201568Y-73288078D01*
X86201568Y-73288078D02*
X86106330Y-73335697D01*
X86106330Y-73335697D02*
X85915854Y-73335697D01*
X68896009Y-98638401D02*
X68896009Y-97638401D01*
X69372199Y-98638401D02*
X69372199Y-97638401D01*
X69372199Y-97638401D02*
X69943627Y-98638401D01*
X69943627Y-98638401D02*
X69943627Y-97638401D01*
X78467437Y-91543162D02*
X78419818Y-91590782D01*
X78419818Y-91590782D02*
X78276961Y-91638401D01*
X78276961Y-91638401D02*
X78181723Y-91638401D01*
X78181723Y-91638401D02*
X78038866Y-91590782D01*
X78038866Y-91590782D02*
X77943628Y-91495543D01*
X77943628Y-91495543D02*
X77896009Y-91400305D01*
X77896009Y-91400305D02*
X77848390Y-91209829D01*
X77848390Y-91209829D02*
X77848390Y-91066972D01*
X77848390Y-91066972D02*
X77896009Y-90876496D01*
X77896009Y-90876496D02*
X77943628Y-90781258D01*
X77943628Y-90781258D02*
X78038866Y-90686020D01*
X78038866Y-90686020D02*
X78181723Y-90638401D01*
X78181723Y-90638401D02*
X78276961Y-90638401D01*
X78276961Y-90638401D02*
X78419818Y-90686020D01*
X78419818Y-90686020D02*
X78467437Y-90733639D01*
X78896009Y-91638401D02*
X78896009Y-90638401D01*
X78896009Y-91114591D02*
X79467437Y-91114591D01*
X79467437Y-91638401D02*
X79467437Y-90638401D01*
X79896009Y-90733639D02*
X79943628Y-90686020D01*
X79943628Y-90686020D02*
X80038866Y-90638401D01*
X80038866Y-90638401D02*
X80276961Y-90638401D01*
X80276961Y-90638401D02*
X80372199Y-90686020D01*
X80372199Y-90686020D02*
X80419818Y-90733639D01*
X80419818Y-90733639D02*
X80467437Y-90828877D01*
X80467437Y-90828877D02*
X80467437Y-90924115D01*
X80467437Y-90924115D02*
X80419818Y-91066972D01*
X80419818Y-91066972D02*
X79848390Y-91638401D01*
X79848390Y-91638401D02*
X80467437Y-91638401D01*
X81657914Y-91257448D02*
X82419819Y-91257448D01*
X83657914Y-91638401D02*
X83657914Y-90638401D01*
X84467437Y-91114591D02*
X84134104Y-91114591D01*
X84134104Y-91638401D02*
X84134104Y-90638401D01*
X84134104Y-90638401D02*
X84610294Y-90638401D01*
X84753152Y-91733639D02*
X85515056Y-91733639D01*
X85753152Y-91638401D02*
X85753152Y-90638401D01*
X87993549Y-128106115D02*
X87993549Y-127106115D01*
X87993549Y-127106115D02*
X88231644Y-127106115D01*
X88231644Y-127106115D02*
X88374501Y-127153734D01*
X88374501Y-127153734D02*
X88469739Y-127248972D01*
X88469739Y-127248972D02*
X88517358Y-127344210D01*
X88517358Y-127344210D02*
X88564977Y-127534686D01*
X88564977Y-127534686D02*
X88564977Y-127677543D01*
X88564977Y-127677543D02*
X88517358Y-127868019D01*
X88517358Y-127868019D02*
X88469739Y-127963257D01*
X88469739Y-127963257D02*
X88374501Y-128058496D01*
X88374501Y-128058496D02*
X88231644Y-128106115D01*
X88231644Y-128106115D02*
X87993549Y-128106115D01*
X89374501Y-128058496D02*
X89279263Y-128106115D01*
X89279263Y-128106115D02*
X89088787Y-128106115D01*
X89088787Y-128106115D02*
X88993549Y-128058496D01*
X88993549Y-128058496D02*
X88945930Y-127963257D01*
X88945930Y-127963257D02*
X88945930Y-127582305D01*
X88945930Y-127582305D02*
X88993549Y-127487067D01*
X88993549Y-127487067D02*
X89088787Y-127439448D01*
X89088787Y-127439448D02*
X89279263Y-127439448D01*
X89279263Y-127439448D02*
X89374501Y-127487067D01*
X89374501Y-127487067D02*
X89422120Y-127582305D01*
X89422120Y-127582305D02*
X89422120Y-127677543D01*
X89422120Y-127677543D02*
X88945930Y-127772781D01*
X89850692Y-128106115D02*
X89850692Y-127106115D01*
X89850692Y-127487067D02*
X89945930Y-127439448D01*
X89945930Y-127439448D02*
X90136406Y-127439448D01*
X90136406Y-127439448D02*
X90231644Y-127487067D01*
X90231644Y-127487067D02*
X90279263Y-127534686D01*
X90279263Y-127534686D02*
X90326882Y-127629924D01*
X90326882Y-127629924D02*
X90326882Y-127915638D01*
X90326882Y-127915638D02*
X90279263Y-128010876D01*
X90279263Y-128010876D02*
X90231644Y-128058496D01*
X90231644Y-128058496D02*
X90136406Y-128106115D01*
X90136406Y-128106115D02*
X89945930Y-128106115D01*
X89945930Y-128106115D02*
X89850692Y-128058496D01*
X91184025Y-127439448D02*
X91184025Y-128106115D01*
X90755454Y-127439448D02*
X90755454Y-127963257D01*
X90755454Y-127963257D02*
X90803073Y-128058496D01*
X90803073Y-128058496D02*
X90898311Y-128106115D01*
X90898311Y-128106115D02*
X91041168Y-128106115D01*
X91041168Y-128106115D02*
X91136406Y-128058496D01*
X91136406Y-128058496D02*
X91184025Y-128010876D01*
X92088787Y-127439448D02*
X92088787Y-128248972D01*
X92088787Y-128248972D02*
X92041168Y-128344210D01*
X92041168Y-128344210D02*
X91993549Y-128391829D01*
X91993549Y-128391829D02*
X91898311Y-128439448D01*
X91898311Y-128439448D02*
X91755454Y-128439448D01*
X91755454Y-128439448D02*
X91660216Y-128391829D01*
X92088787Y-128058496D02*
X91993549Y-128106115D01*
X91993549Y-128106115D02*
X91803073Y-128106115D01*
X91803073Y-128106115D02*
X91707835Y-128058496D01*
X91707835Y-128058496D02*
X91660216Y-128010876D01*
X91660216Y-128010876D02*
X91612597Y-127915638D01*
X91612597Y-127915638D02*
X91612597Y-127629924D01*
X91612597Y-127629924D02*
X91660216Y-127534686D01*
X91660216Y-127534686D02*
X91707835Y-127487067D01*
X91707835Y-127487067D02*
X91803073Y-127439448D01*
X91803073Y-127439448D02*
X91993549Y-127439448D01*
X91993549Y-127439448D02*
X92088787Y-127487067D01*
X70726816Y-109867219D02*
X71060149Y-110867219D01*
X71060149Y-110867219D02*
X71393482Y-109867219D01*
X72298244Y-110867219D02*
X71964911Y-110391028D01*
X71726816Y-110867219D02*
X71726816Y-109867219D01*
X71726816Y-109867219D02*
X72107768Y-109867219D01*
X72107768Y-109867219D02*
X72203006Y-109914838D01*
X72203006Y-109914838D02*
X72250625Y-109962457D01*
X72250625Y-109962457D02*
X72298244Y-110057695D01*
X72298244Y-110057695D02*
X72298244Y-110200552D01*
X72298244Y-110200552D02*
X72250625Y-110295790D01*
X72250625Y-110295790D02*
X72203006Y-110343409D01*
X72203006Y-110343409D02*
X72107768Y-110391028D01*
X72107768Y-110391028D02*
X71726816Y-110391028D01*
X72726816Y-110343409D02*
X73060149Y-110343409D01*
X73203006Y-110867219D02*
X72726816Y-110867219D01*
X72726816Y-110867219D02*
X72726816Y-109867219D01*
X72726816Y-109867219D02*
X73203006Y-109867219D01*
X73964911Y-110343409D02*
X73631578Y-110343409D01*
X73631578Y-110867219D02*
X73631578Y-109867219D01*
X73631578Y-109867219D02*
X74107768Y-109867219D01*
X79726816Y-109867219D02*
X80060149Y-110867219D01*
X80060149Y-110867219D02*
X80393482Y-109867219D01*
X81298244Y-110771980D02*
X81250625Y-110819600D01*
X81250625Y-110819600D02*
X81107768Y-110867219D01*
X81107768Y-110867219D02*
X81012530Y-110867219D01*
X81012530Y-110867219D02*
X80869673Y-110819600D01*
X80869673Y-110819600D02*
X80774435Y-110724361D01*
X80774435Y-110724361D02*
X80726816Y-110629123D01*
X80726816Y-110629123D02*
X80679197Y-110438647D01*
X80679197Y-110438647D02*
X80679197Y-110295790D01*
X80679197Y-110295790D02*
X80726816Y-110105314D01*
X80726816Y-110105314D02*
X80774435Y-110010076D01*
X80774435Y-110010076D02*
X80869673Y-109914838D01*
X80869673Y-109914838D02*
X81012530Y-109867219D01*
X81012530Y-109867219D02*
X81107768Y-109867219D01*
X81107768Y-109867219D02*
X81250625Y-109914838D01*
X81250625Y-109914838D02*
X81298244Y-109962457D01*
X81917292Y-109867219D02*
X82107768Y-109867219D01*
X82107768Y-109867219D02*
X82203006Y-109914838D01*
X82203006Y-109914838D02*
X82298244Y-110010076D01*
X82298244Y-110010076D02*
X82345863Y-110200552D01*
X82345863Y-110200552D02*
X82345863Y-110533885D01*
X82345863Y-110533885D02*
X82298244Y-110724361D01*
X82298244Y-110724361D02*
X82203006Y-110819600D01*
X82203006Y-110819600D02*
X82107768Y-110867219D01*
X82107768Y-110867219D02*
X81917292Y-110867219D01*
X81917292Y-110867219D02*
X81822054Y-110819600D01*
X81822054Y-110819600D02*
X81726816Y-110724361D01*
X81726816Y-110724361D02*
X81679197Y-110533885D01*
X81679197Y-110533885D02*
X81679197Y-110200552D01*
X81679197Y-110200552D02*
X81726816Y-110010076D01*
X81726816Y-110010076D02*
X81822054Y-109914838D01*
X81822054Y-109914838D02*
X81917292Y-109867219D01*
X82536340Y-110962457D02*
X83298244Y-110962457D01*
X83536340Y-110867219D02*
X83536340Y-109867219D01*
X84012530Y-110867219D02*
X84012530Y-109867219D01*
X84012530Y-109867219D02*
X84583958Y-110867219D01*
X84583958Y-110867219D02*
X84583958Y-109867219D01*
X50869673Y-121486266D02*
X51631578Y-121486266D01*
X51250625Y-121867219D02*
X51250625Y-121105314D01*
X52012530Y-120867219D02*
X52631577Y-120867219D01*
X52631577Y-120867219D02*
X52298244Y-121248171D01*
X52298244Y-121248171D02*
X52441101Y-121248171D01*
X52441101Y-121248171D02*
X52536339Y-121295790D01*
X52536339Y-121295790D02*
X52583958Y-121343409D01*
X52583958Y-121343409D02*
X52631577Y-121438647D01*
X52631577Y-121438647D02*
X52631577Y-121676742D01*
X52631577Y-121676742D02*
X52583958Y-121771980D01*
X52583958Y-121771980D02*
X52536339Y-121819600D01*
X52536339Y-121819600D02*
X52441101Y-121867219D01*
X52441101Y-121867219D02*
X52155387Y-121867219D01*
X52155387Y-121867219D02*
X52060149Y-121819600D01*
X52060149Y-121819600D02*
X52012530Y-121771980D01*
X52917292Y-120867219D02*
X53250625Y-121867219D01*
X53250625Y-121867219D02*
X53583958Y-120867219D01*
X53822054Y-120867219D02*
X54441101Y-120867219D01*
X54441101Y-120867219D02*
X54107768Y-121248171D01*
X54107768Y-121248171D02*
X54250625Y-121248171D01*
X54250625Y-121248171D02*
X54345863Y-121295790D01*
X54345863Y-121295790D02*
X54393482Y-121343409D01*
X54393482Y-121343409D02*
X54441101Y-121438647D01*
X54441101Y-121438647D02*
X54441101Y-121676742D01*
X54441101Y-121676742D02*
X54393482Y-121771980D01*
X54393482Y-121771980D02*
X54345863Y-121819600D01*
X54345863Y-121819600D02*
X54250625Y-121867219D01*
X54250625Y-121867219D02*
X53964911Y-121867219D01*
X53964911Y-121867219D02*
X53869673Y-121819600D01*
X53869673Y-121819600D02*
X53822054Y-121771980D01*
D10*
X87985231Y-120110614D02*
X87889993Y-120158233D01*
X87889993Y-120158233D02*
X87699517Y-120158233D01*
X87699517Y-120158233D02*
X87604279Y-120110614D01*
X87604279Y-120110614D02*
X87556660Y-120015375D01*
X87556660Y-120015375D02*
X87556660Y-119634423D01*
X87556660Y-119634423D02*
X87604279Y-119539185D01*
X87604279Y-119539185D02*
X87699517Y-119491566D01*
X87699517Y-119491566D02*
X87889993Y-119491566D01*
X87889993Y-119491566D02*
X87985231Y-119539185D01*
X87985231Y-119539185D02*
X88032850Y-119634423D01*
X88032850Y-119634423D02*
X88032850Y-119729661D01*
X88032850Y-119729661D02*
X87556660Y-119824899D01*
X88461422Y-120158233D02*
X88461422Y-119491566D01*
X88461422Y-119682042D02*
X88509041Y-119586804D01*
X88509041Y-119586804D02*
X88556660Y-119539185D01*
X88556660Y-119539185D02*
X88651898Y-119491566D01*
X88651898Y-119491566D02*
X88747136Y-119491566D01*
X89080470Y-120158233D02*
X89080470Y-119491566D01*
X89080470Y-119682042D02*
X89128089Y-119586804D01*
X89128089Y-119586804D02*
X89175708Y-119539185D01*
X89175708Y-119539185D02*
X89270946Y-119491566D01*
X89270946Y-119491566D02*
X89366184Y-119491566D01*
X89889994Y-119158233D02*
X89985232Y-119158233D01*
X89985232Y-119158233D02*
X90080470Y-119205852D01*
X90080470Y-119205852D02*
X90128089Y-119253471D01*
X90128089Y-119253471D02*
X90175708Y-119348709D01*
X90175708Y-119348709D02*
X90223327Y-119539185D01*
X90223327Y-119539185D02*
X90223327Y-119777280D01*
X90223327Y-119777280D02*
X90175708Y-119967756D01*
X90175708Y-119967756D02*
X90128089Y-120062994D01*
X90128089Y-120062994D02*
X90080470Y-120110614D01*
X90080470Y-120110614D02*
X89985232Y-120158233D01*
X89985232Y-120158233D02*
X89889994Y-120158233D01*
X89889994Y-120158233D02*
X89794756Y-120110614D01*
X89794756Y-120110614D02*
X89747137Y-120062994D01*
X89747137Y-120062994D02*
X89699518Y-119967756D01*
X89699518Y-119967756D02*
X89651899Y-119777280D01*
X89651899Y-119777280D02*
X89651899Y-119539185D01*
X89651899Y-119539185D02*
X89699518Y-119348709D01*
X89699518Y-119348709D02*
X89747137Y-119253471D01*
X89747137Y-119253471D02*
X89794756Y-119205852D01*
X89794756Y-119205852D02*
X89889994Y-119158233D01*
X90651899Y-120062994D02*
X90699518Y-120110614D01*
X90699518Y-120110614D02*
X90651899Y-120158233D01*
X90651899Y-120158233D02*
X90604280Y-120110614D01*
X90604280Y-120110614D02*
X90651899Y-120062994D01*
X90651899Y-120062994D02*
X90651899Y-120158233D01*
X90651899Y-119539185D02*
X90699518Y-119586804D01*
X90699518Y-119586804D02*
X90651899Y-119634423D01*
X90651899Y-119634423D02*
X90604280Y-119586804D01*
X90604280Y-119586804D02*
X90651899Y-119539185D01*
X90651899Y-119539185D02*
X90651899Y-119634423D01*
X95128090Y-119158233D02*
X95223328Y-119158233D01*
X95223328Y-119158233D02*
X95318566Y-119205852D01*
X95318566Y-119205852D02*
X95366185Y-119253471D01*
X95366185Y-119253471D02*
X95413804Y-119348709D01*
X95413804Y-119348709D02*
X95461423Y-119539185D01*
X95461423Y-119539185D02*
X95461423Y-119777280D01*
X95461423Y-119777280D02*
X95413804Y-119967756D01*
X95413804Y-119967756D02*
X95366185Y-120062994D01*
X95366185Y-120062994D02*
X95318566Y-120110614D01*
X95318566Y-120110614D02*
X95223328Y-120158233D01*
X95223328Y-120158233D02*
X95128090Y-120158233D01*
X95128090Y-120158233D02*
X95032852Y-120110614D01*
X95032852Y-120110614D02*
X94985233Y-120062994D01*
X94985233Y-120062994D02*
X94937614Y-119967756D01*
X94937614Y-119967756D02*
X94889995Y-119777280D01*
X94889995Y-119777280D02*
X94889995Y-119539185D01*
X94889995Y-119539185D02*
X94937614Y-119348709D01*
X94937614Y-119348709D02*
X94985233Y-119253471D01*
X94985233Y-119253471D02*
X95032852Y-119205852D01*
X95032852Y-119205852D02*
X95128090Y-119158233D01*
X102175711Y-119158233D02*
X102270949Y-119158233D01*
X102270949Y-119158233D02*
X102366187Y-119205852D01*
X102366187Y-119205852D02*
X102413806Y-119253471D01*
X102413806Y-119253471D02*
X102461425Y-119348709D01*
X102461425Y-119348709D02*
X102509044Y-119539185D01*
X102509044Y-119539185D02*
X102509044Y-119777280D01*
X102509044Y-119777280D02*
X102461425Y-119967756D01*
X102461425Y-119967756D02*
X102413806Y-120062994D01*
X102413806Y-120062994D02*
X102366187Y-120110614D01*
X102366187Y-120110614D02*
X102270949Y-120158233D01*
X102270949Y-120158233D02*
X102175711Y-120158233D01*
X102175711Y-120158233D02*
X102080473Y-120110614D01*
X102080473Y-120110614D02*
X102032854Y-120062994D01*
X102032854Y-120062994D02*
X101985235Y-119967756D01*
X101985235Y-119967756D02*
X101937616Y-119777280D01*
X101937616Y-119777280D02*
X101937616Y-119539185D01*
X101937616Y-119539185D02*
X101985235Y-119348709D01*
X101985235Y-119348709D02*
X102032854Y-119253471D01*
X102032854Y-119253471D02*
X102080473Y-119205852D01*
X102080473Y-119205852D02*
X102175711Y-119158233D01*
X87985231Y-121720558D02*
X87889993Y-121768177D01*
X87889993Y-121768177D02*
X87699517Y-121768177D01*
X87699517Y-121768177D02*
X87604279Y-121720558D01*
X87604279Y-121720558D02*
X87556660Y-121625319D01*
X87556660Y-121625319D02*
X87556660Y-121244367D01*
X87556660Y-121244367D02*
X87604279Y-121149129D01*
X87604279Y-121149129D02*
X87699517Y-121101510D01*
X87699517Y-121101510D02*
X87889993Y-121101510D01*
X87889993Y-121101510D02*
X87985231Y-121149129D01*
X87985231Y-121149129D02*
X88032850Y-121244367D01*
X88032850Y-121244367D02*
X88032850Y-121339605D01*
X88032850Y-121339605D02*
X87556660Y-121434843D01*
X88461422Y-121768177D02*
X88461422Y-121101510D01*
X88461422Y-121291986D02*
X88509041Y-121196748D01*
X88509041Y-121196748D02*
X88556660Y-121149129D01*
X88556660Y-121149129D02*
X88651898Y-121101510D01*
X88651898Y-121101510D02*
X88747136Y-121101510D01*
X89080470Y-121768177D02*
X89080470Y-121101510D01*
X89080470Y-121291986D02*
X89128089Y-121196748D01*
X89128089Y-121196748D02*
X89175708Y-121149129D01*
X89175708Y-121149129D02*
X89270946Y-121101510D01*
X89270946Y-121101510D02*
X89366184Y-121101510D01*
X90223327Y-121768177D02*
X89651899Y-121768177D01*
X89937613Y-121768177D02*
X89937613Y-120768177D01*
X89937613Y-120768177D02*
X89842375Y-120911034D01*
X89842375Y-120911034D02*
X89747137Y-121006272D01*
X89747137Y-121006272D02*
X89651899Y-121053891D01*
X90651899Y-121672938D02*
X90699518Y-121720558D01*
X90699518Y-121720558D02*
X90651899Y-121768177D01*
X90651899Y-121768177D02*
X90604280Y-121720558D01*
X90604280Y-121720558D02*
X90651899Y-121672938D01*
X90651899Y-121672938D02*
X90651899Y-121768177D01*
X90651899Y-121149129D02*
X90699518Y-121196748D01*
X90699518Y-121196748D02*
X90651899Y-121244367D01*
X90651899Y-121244367D02*
X90604280Y-121196748D01*
X90604280Y-121196748D02*
X90651899Y-121149129D01*
X90651899Y-121149129D02*
X90651899Y-121244367D01*
X95128090Y-120768177D02*
X95223328Y-120768177D01*
X95223328Y-120768177D02*
X95318566Y-120815796D01*
X95318566Y-120815796D02*
X95366185Y-120863415D01*
X95366185Y-120863415D02*
X95413804Y-120958653D01*
X95413804Y-120958653D02*
X95461423Y-121149129D01*
X95461423Y-121149129D02*
X95461423Y-121387224D01*
X95461423Y-121387224D02*
X95413804Y-121577700D01*
X95413804Y-121577700D02*
X95366185Y-121672938D01*
X95366185Y-121672938D02*
X95318566Y-121720558D01*
X95318566Y-121720558D02*
X95223328Y-121768177D01*
X95223328Y-121768177D02*
X95128090Y-121768177D01*
X95128090Y-121768177D02*
X95032852Y-121720558D01*
X95032852Y-121720558D02*
X94985233Y-121672938D01*
X94985233Y-121672938D02*
X94937614Y-121577700D01*
X94937614Y-121577700D02*
X94889995Y-121387224D01*
X94889995Y-121387224D02*
X94889995Y-121149129D01*
X94889995Y-121149129D02*
X94937614Y-120958653D01*
X94937614Y-120958653D02*
X94985233Y-120863415D01*
X94985233Y-120863415D02*
X95032852Y-120815796D01*
X95032852Y-120815796D02*
X95128090Y-120768177D01*
X102509044Y-121768177D02*
X101937616Y-121768177D01*
X102223330Y-121768177D02*
X102223330Y-120768177D01*
X102223330Y-120768177D02*
X102128092Y-120911034D01*
X102128092Y-120911034D02*
X102032854Y-121006272D01*
X102032854Y-121006272D02*
X101937616Y-121053891D01*
X87985231Y-123330502D02*
X87889993Y-123378121D01*
X87889993Y-123378121D02*
X87699517Y-123378121D01*
X87699517Y-123378121D02*
X87604279Y-123330502D01*
X87604279Y-123330502D02*
X87556660Y-123235263D01*
X87556660Y-123235263D02*
X87556660Y-122854311D01*
X87556660Y-122854311D02*
X87604279Y-122759073D01*
X87604279Y-122759073D02*
X87699517Y-122711454D01*
X87699517Y-122711454D02*
X87889993Y-122711454D01*
X87889993Y-122711454D02*
X87985231Y-122759073D01*
X87985231Y-122759073D02*
X88032850Y-122854311D01*
X88032850Y-122854311D02*
X88032850Y-122949549D01*
X88032850Y-122949549D02*
X87556660Y-123044787D01*
X88461422Y-123378121D02*
X88461422Y-122711454D01*
X88461422Y-122901930D02*
X88509041Y-122806692D01*
X88509041Y-122806692D02*
X88556660Y-122759073D01*
X88556660Y-122759073D02*
X88651898Y-122711454D01*
X88651898Y-122711454D02*
X88747136Y-122711454D01*
X89080470Y-123378121D02*
X89080470Y-122711454D01*
X89080470Y-122901930D02*
X89128089Y-122806692D01*
X89128089Y-122806692D02*
X89175708Y-122759073D01*
X89175708Y-122759073D02*
X89270946Y-122711454D01*
X89270946Y-122711454D02*
X89366184Y-122711454D01*
X89651899Y-122473359D02*
X89699518Y-122425740D01*
X89699518Y-122425740D02*
X89794756Y-122378121D01*
X89794756Y-122378121D02*
X90032851Y-122378121D01*
X90032851Y-122378121D02*
X90128089Y-122425740D01*
X90128089Y-122425740D02*
X90175708Y-122473359D01*
X90175708Y-122473359D02*
X90223327Y-122568597D01*
X90223327Y-122568597D02*
X90223327Y-122663835D01*
X90223327Y-122663835D02*
X90175708Y-122806692D01*
X90175708Y-122806692D02*
X89604280Y-123378121D01*
X89604280Y-123378121D02*
X90223327Y-123378121D01*
X90651899Y-123282882D02*
X90699518Y-123330502D01*
X90699518Y-123330502D02*
X90651899Y-123378121D01*
X90651899Y-123378121D02*
X90604280Y-123330502D01*
X90604280Y-123330502D02*
X90651899Y-123282882D01*
X90651899Y-123282882D02*
X90651899Y-123378121D01*
X90651899Y-122759073D02*
X90699518Y-122806692D01*
X90699518Y-122806692D02*
X90651899Y-122854311D01*
X90651899Y-122854311D02*
X90604280Y-122806692D01*
X90604280Y-122806692D02*
X90651899Y-122759073D01*
X90651899Y-122759073D02*
X90651899Y-122854311D01*
X95461423Y-123378121D02*
X94889995Y-123378121D01*
X95175709Y-123378121D02*
X95175709Y-122378121D01*
X95175709Y-122378121D02*
X95080471Y-122520978D01*
X95080471Y-122520978D02*
X94985233Y-122616216D01*
X94985233Y-122616216D02*
X94889995Y-122663835D01*
X102175711Y-122378121D02*
X102270949Y-122378121D01*
X102270949Y-122378121D02*
X102366187Y-122425740D01*
X102366187Y-122425740D02*
X102413806Y-122473359D01*
X102413806Y-122473359D02*
X102461425Y-122568597D01*
X102461425Y-122568597D02*
X102509044Y-122759073D01*
X102509044Y-122759073D02*
X102509044Y-122997168D01*
X102509044Y-122997168D02*
X102461425Y-123187644D01*
X102461425Y-123187644D02*
X102413806Y-123282882D01*
X102413806Y-123282882D02*
X102366187Y-123330502D01*
X102366187Y-123330502D02*
X102270949Y-123378121D01*
X102270949Y-123378121D02*
X102175711Y-123378121D01*
X102175711Y-123378121D02*
X102080473Y-123330502D01*
X102080473Y-123330502D02*
X102032854Y-123282882D01*
X102032854Y-123282882D02*
X101985235Y-123187644D01*
X101985235Y-123187644D02*
X101937616Y-122997168D01*
X101937616Y-122997168D02*
X101937616Y-122759073D01*
X101937616Y-122759073D02*
X101985235Y-122568597D01*
X101985235Y-122568597D02*
X102032854Y-122473359D01*
X102032854Y-122473359D02*
X102080473Y-122425740D01*
X102080473Y-122425740D02*
X102175711Y-122378121D01*
X87985231Y-124940446D02*
X87889993Y-124988065D01*
X87889993Y-124988065D02*
X87699517Y-124988065D01*
X87699517Y-124988065D02*
X87604279Y-124940446D01*
X87604279Y-124940446D02*
X87556660Y-124845207D01*
X87556660Y-124845207D02*
X87556660Y-124464255D01*
X87556660Y-124464255D02*
X87604279Y-124369017D01*
X87604279Y-124369017D02*
X87699517Y-124321398D01*
X87699517Y-124321398D02*
X87889993Y-124321398D01*
X87889993Y-124321398D02*
X87985231Y-124369017D01*
X87985231Y-124369017D02*
X88032850Y-124464255D01*
X88032850Y-124464255D02*
X88032850Y-124559493D01*
X88032850Y-124559493D02*
X87556660Y-124654731D01*
X88461422Y-124988065D02*
X88461422Y-124321398D01*
X88461422Y-124511874D02*
X88509041Y-124416636D01*
X88509041Y-124416636D02*
X88556660Y-124369017D01*
X88556660Y-124369017D02*
X88651898Y-124321398D01*
X88651898Y-124321398D02*
X88747136Y-124321398D01*
X89080470Y-124988065D02*
X89080470Y-124321398D01*
X89080470Y-124511874D02*
X89128089Y-124416636D01*
X89128089Y-124416636D02*
X89175708Y-124369017D01*
X89175708Y-124369017D02*
X89270946Y-124321398D01*
X89270946Y-124321398D02*
X89366184Y-124321398D01*
X89604280Y-123988065D02*
X90223327Y-123988065D01*
X90223327Y-123988065D02*
X89889994Y-124369017D01*
X89889994Y-124369017D02*
X90032851Y-124369017D01*
X90032851Y-124369017D02*
X90128089Y-124416636D01*
X90128089Y-124416636D02*
X90175708Y-124464255D01*
X90175708Y-124464255D02*
X90223327Y-124559493D01*
X90223327Y-124559493D02*
X90223327Y-124797588D01*
X90223327Y-124797588D02*
X90175708Y-124892826D01*
X90175708Y-124892826D02*
X90128089Y-124940446D01*
X90128089Y-124940446D02*
X90032851Y-124988065D01*
X90032851Y-124988065D02*
X89747137Y-124988065D01*
X89747137Y-124988065D02*
X89651899Y-124940446D01*
X89651899Y-124940446D02*
X89604280Y-124892826D01*
X90651899Y-124892826D02*
X90699518Y-124940446D01*
X90699518Y-124940446D02*
X90651899Y-124988065D01*
X90651899Y-124988065D02*
X90604280Y-124940446D01*
X90604280Y-124940446D02*
X90651899Y-124892826D01*
X90651899Y-124892826D02*
X90651899Y-124988065D01*
X90651899Y-124369017D02*
X90699518Y-124416636D01*
X90699518Y-124416636D02*
X90651899Y-124464255D01*
X90651899Y-124464255D02*
X90604280Y-124416636D01*
X90604280Y-124416636D02*
X90651899Y-124369017D01*
X90651899Y-124369017D02*
X90651899Y-124464255D01*
X95461423Y-124988065D02*
X94889995Y-124988065D01*
X95175709Y-124988065D02*
X95175709Y-123988065D01*
X95175709Y-123988065D02*
X95080471Y-124130922D01*
X95080471Y-124130922D02*
X94985233Y-124226160D01*
X94985233Y-124226160D02*
X94889995Y-124273779D01*
X102509044Y-124988065D02*
X101937616Y-124988065D01*
X102223330Y-124988065D02*
X102223330Y-123988065D01*
X102223330Y-123988065D02*
X102128092Y-124130922D01*
X102128092Y-124130922D02*
X102032854Y-124226160D01*
X102032854Y-124226160D02*
X101937616Y-124273779D01*
D11*
X68868235Y-80335697D02*
X68868235Y-79335697D01*
X69344425Y-80335697D02*
X69344425Y-79335697D01*
X69344425Y-79335697D02*
X69915853Y-80335697D01*
X69915853Y-80335697D02*
X69915853Y-79335697D01*
D10*
X94604279Y-117488065D02*
X94604279Y-116488065D01*
X94604279Y-116488065D02*
X94842374Y-116488065D01*
X94842374Y-116488065D02*
X94985231Y-116535684D01*
X94985231Y-116535684D02*
X95080469Y-116630922D01*
X95080469Y-116630922D02*
X95128088Y-116726160D01*
X95128088Y-116726160D02*
X95175707Y-116916636D01*
X95175707Y-116916636D02*
X95175707Y-117059493D01*
X95175707Y-117059493D02*
X95128088Y-117249969D01*
X95128088Y-117249969D02*
X95080469Y-117345207D01*
X95080469Y-117345207D02*
X94985231Y-117440446D01*
X94985231Y-117440446D02*
X94842374Y-117488065D01*
X94842374Y-117488065D02*
X94604279Y-117488065D01*
X95794755Y-116488065D02*
X95889993Y-116488065D01*
X95889993Y-116488065D02*
X95985231Y-116535684D01*
X95985231Y-116535684D02*
X96032850Y-116583303D01*
X96032850Y-116583303D02*
X96080469Y-116678541D01*
X96080469Y-116678541D02*
X96128088Y-116869017D01*
X96128088Y-116869017D02*
X96128088Y-117107112D01*
X96128088Y-117107112D02*
X96080469Y-117297588D01*
X96080469Y-117297588D02*
X96032850Y-117392826D01*
X96032850Y-117392826D02*
X95985231Y-117440446D01*
X95985231Y-117440446D02*
X95889993Y-117488065D01*
X95889993Y-117488065D02*
X95794755Y-117488065D01*
X95794755Y-117488065D02*
X95699517Y-117440446D01*
X95699517Y-117440446D02*
X95651898Y-117392826D01*
X95651898Y-117392826D02*
X95604279Y-117297588D01*
X95604279Y-117297588D02*
X95556660Y-117107112D01*
X95556660Y-117107112D02*
X95556660Y-116869017D01*
X95556660Y-116869017D02*
X95604279Y-116678541D01*
X95604279Y-116678541D02*
X95651898Y-116583303D01*
X95651898Y-116583303D02*
X95699517Y-116535684D01*
X95699517Y-116535684D02*
X95794755Y-116488065D01*
X101413803Y-117488065D02*
X101413803Y-116488065D01*
X101413803Y-116488065D02*
X101651898Y-116488065D01*
X101651898Y-116488065D02*
X101794755Y-116535684D01*
X101794755Y-116535684D02*
X101889993Y-116630922D01*
X101889993Y-116630922D02*
X101937612Y-116726160D01*
X101937612Y-116726160D02*
X101985231Y-116916636D01*
X101985231Y-116916636D02*
X101985231Y-117059493D01*
X101985231Y-117059493D02*
X101937612Y-117249969D01*
X101937612Y-117249969D02*
X101889993Y-117345207D01*
X101889993Y-117345207D02*
X101794755Y-117440446D01*
X101794755Y-117440446D02*
X101651898Y-117488065D01*
X101651898Y-117488065D02*
X101413803Y-117488065D01*
X102937612Y-117488065D02*
X102366184Y-117488065D01*
X102651898Y-117488065D02*
X102651898Y-116488065D01*
X102651898Y-116488065D02*
X102556660Y-116630922D01*
X102556660Y-116630922D02*
X102461422Y-116726160D01*
X102461422Y-116726160D02*
X102366184Y-116773779D01*
D11*
X50869673Y-114986266D02*
X51631578Y-114986266D01*
X51250625Y-115367219D02*
X51250625Y-114605314D01*
X52583958Y-114367219D02*
X52107768Y-114367219D01*
X52107768Y-114367219D02*
X52060149Y-114843409D01*
X52060149Y-114843409D02*
X52107768Y-114795790D01*
X52107768Y-114795790D02*
X52203006Y-114748171D01*
X52203006Y-114748171D02*
X52441101Y-114748171D01*
X52441101Y-114748171D02*
X52536339Y-114795790D01*
X52536339Y-114795790D02*
X52583958Y-114843409D01*
X52583958Y-114843409D02*
X52631577Y-114938647D01*
X52631577Y-114938647D02*
X52631577Y-115176742D01*
X52631577Y-115176742D02*
X52583958Y-115271980D01*
X52583958Y-115271980D02*
X52536339Y-115319600D01*
X52536339Y-115319600D02*
X52441101Y-115367219D01*
X52441101Y-115367219D02*
X52203006Y-115367219D01*
X52203006Y-115367219D02*
X52107768Y-115319600D01*
X52107768Y-115319600D02*
X52060149Y-115271980D01*
X52917292Y-114367219D02*
X53250625Y-115367219D01*
X53250625Y-115367219D02*
X53583958Y-114367219D01*
X94058711Y-81835697D02*
X94249187Y-81835697D01*
X94249187Y-81835697D02*
X94344425Y-81883316D01*
X94344425Y-81883316D02*
X94439663Y-81978554D01*
X94439663Y-81978554D02*
X94487282Y-82169030D01*
X94487282Y-82169030D02*
X94487282Y-82502363D01*
X94487282Y-82502363D02*
X94439663Y-82692839D01*
X94439663Y-82692839D02*
X94344425Y-82788078D01*
X94344425Y-82788078D02*
X94249187Y-82835697D01*
X94249187Y-82835697D02*
X94058711Y-82835697D01*
X94058711Y-82835697D02*
X93963473Y-82788078D01*
X93963473Y-82788078D02*
X93868235Y-82692839D01*
X93868235Y-82692839D02*
X93820616Y-82502363D01*
X93820616Y-82502363D02*
X93820616Y-82169030D01*
X93820616Y-82169030D02*
X93868235Y-81978554D01*
X93868235Y-81978554D02*
X93963473Y-81883316D01*
X93963473Y-81883316D02*
X94058711Y-81835697D01*
X94915854Y-81835697D02*
X94915854Y-82645220D01*
X94915854Y-82645220D02*
X94963473Y-82740458D01*
X94963473Y-82740458D02*
X95011092Y-82788078D01*
X95011092Y-82788078D02*
X95106330Y-82835697D01*
X95106330Y-82835697D02*
X95296806Y-82835697D01*
X95296806Y-82835697D02*
X95392044Y-82788078D01*
X95392044Y-82788078D02*
X95439663Y-82740458D01*
X95439663Y-82740458D02*
X95487282Y-82645220D01*
X95487282Y-82645220D02*
X95487282Y-81835697D01*
X95820616Y-81835697D02*
X96392044Y-81835697D01*
X96106330Y-82835697D02*
X96106330Y-81835697D01*
D10*
X82454819Y-126042857D02*
X81978628Y-126376190D01*
X82454819Y-126614285D02*
X81454819Y-126614285D01*
X81454819Y-126614285D02*
X81454819Y-126233333D01*
X81454819Y-126233333D02*
X81502438Y-126138095D01*
X81502438Y-126138095D02*
X81550057Y-126090476D01*
X81550057Y-126090476D02*
X81645295Y-126042857D01*
X81645295Y-126042857D02*
X81788152Y-126042857D01*
X81788152Y-126042857D02*
X81883390Y-126090476D01*
X81883390Y-126090476D02*
X81931009Y-126138095D01*
X81931009Y-126138095D02*
X81978628Y-126233333D01*
X81978628Y-126233333D02*
X81978628Y-126614285D01*
X81454819Y-125709523D02*
X81454819Y-125090476D01*
X81454819Y-125090476D02*
X81835771Y-125423809D01*
X81835771Y-125423809D02*
X81835771Y-125280952D01*
X81835771Y-125280952D02*
X81883390Y-125185714D01*
X81883390Y-125185714D02*
X81931009Y-125138095D01*
X81931009Y-125138095D02*
X82026247Y-125090476D01*
X82026247Y-125090476D02*
X82264342Y-125090476D01*
X82264342Y-125090476D02*
X82359580Y-125138095D01*
X82359580Y-125138095D02*
X82407200Y-125185714D01*
X82407200Y-125185714D02*
X82454819Y-125280952D01*
X82454819Y-125280952D02*
X82454819Y-125566666D01*
X82454819Y-125566666D02*
X82407200Y-125661904D01*
X82407200Y-125661904D02*
X82359580Y-125709523D01*
X81454819Y-124185714D02*
X81454819Y-124661904D01*
X81454819Y-124661904D02*
X81931009Y-124709523D01*
X81931009Y-124709523D02*
X81883390Y-124661904D01*
X81883390Y-124661904D02*
X81835771Y-124566666D01*
X81835771Y-124566666D02*
X81835771Y-124328571D01*
X81835771Y-124328571D02*
X81883390Y-124233333D01*
X81883390Y-124233333D02*
X81931009Y-124185714D01*
X81931009Y-124185714D02*
X82026247Y-124138095D01*
X82026247Y-124138095D02*
X82264342Y-124138095D01*
X82264342Y-124138095D02*
X82359580Y-124185714D01*
X82359580Y-124185714D02*
X82407200Y-124233333D01*
X82407200Y-124233333D02*
X82454819Y-124328571D01*
X82454819Y-124328571D02*
X82454819Y-124566666D01*
X82454819Y-124566666D02*
X82407200Y-124661904D01*
X82407200Y-124661904D02*
X82359580Y-124709523D01*
X84054819Y-126042857D02*
X83578628Y-126376190D01*
X84054819Y-126614285D02*
X83054819Y-126614285D01*
X83054819Y-126614285D02*
X83054819Y-126233333D01*
X83054819Y-126233333D02*
X83102438Y-126138095D01*
X83102438Y-126138095D02*
X83150057Y-126090476D01*
X83150057Y-126090476D02*
X83245295Y-126042857D01*
X83245295Y-126042857D02*
X83388152Y-126042857D01*
X83388152Y-126042857D02*
X83483390Y-126090476D01*
X83483390Y-126090476D02*
X83531009Y-126138095D01*
X83531009Y-126138095D02*
X83578628Y-126233333D01*
X83578628Y-126233333D02*
X83578628Y-126614285D01*
X83054819Y-125709523D02*
X83054819Y-125090476D01*
X83054819Y-125090476D02*
X83435771Y-125423809D01*
X83435771Y-125423809D02*
X83435771Y-125280952D01*
X83435771Y-125280952D02*
X83483390Y-125185714D01*
X83483390Y-125185714D02*
X83531009Y-125138095D01*
X83531009Y-125138095D02*
X83626247Y-125090476D01*
X83626247Y-125090476D02*
X83864342Y-125090476D01*
X83864342Y-125090476D02*
X83959580Y-125138095D01*
X83959580Y-125138095D02*
X84007200Y-125185714D01*
X84007200Y-125185714D02*
X84054819Y-125280952D01*
X84054819Y-125280952D02*
X84054819Y-125566666D01*
X84054819Y-125566666D02*
X84007200Y-125661904D01*
X84007200Y-125661904D02*
X83959580Y-125709523D01*
X83054819Y-124233333D02*
X83054819Y-124423809D01*
X83054819Y-124423809D02*
X83102438Y-124519047D01*
X83102438Y-124519047D02*
X83150057Y-124566666D01*
X83150057Y-124566666D02*
X83292914Y-124661904D01*
X83292914Y-124661904D02*
X83483390Y-124709523D01*
X83483390Y-124709523D02*
X83864342Y-124709523D01*
X83864342Y-124709523D02*
X83959580Y-124661904D01*
X83959580Y-124661904D02*
X84007200Y-124614285D01*
X84007200Y-124614285D02*
X84054819Y-124519047D01*
X84054819Y-124519047D02*
X84054819Y-124328571D01*
X84054819Y-124328571D02*
X84007200Y-124233333D01*
X84007200Y-124233333D02*
X83959580Y-124185714D01*
X83959580Y-124185714D02*
X83864342Y-124138095D01*
X83864342Y-124138095D02*
X83626247Y-124138095D01*
X83626247Y-124138095D02*
X83531009Y-124185714D01*
X83531009Y-124185714D02*
X83483390Y-124233333D01*
X83483390Y-124233333D02*
X83435771Y-124328571D01*
X83435771Y-124328571D02*
X83435771Y-124519047D01*
X83435771Y-124519047D02*
X83483390Y-124614285D01*
X83483390Y-124614285D02*
X83531009Y-124661904D01*
X83531009Y-124661904D02*
X83626247Y-124709523D01*
X78132142Y-44024819D02*
X77798809Y-43548628D01*
X77560714Y-44024819D02*
X77560714Y-43024819D01*
X77560714Y-43024819D02*
X77941666Y-43024819D01*
X77941666Y-43024819D02*
X78036904Y-43072438D01*
X78036904Y-43072438D02*
X78084523Y-43120057D01*
X78084523Y-43120057D02*
X78132142Y-43215295D01*
X78132142Y-43215295D02*
X78132142Y-43358152D01*
X78132142Y-43358152D02*
X78084523Y-43453390D01*
X78084523Y-43453390D02*
X78036904Y-43501009D01*
X78036904Y-43501009D02*
X77941666Y-43548628D01*
X77941666Y-43548628D02*
X77560714Y-43548628D01*
X78465476Y-43024819D02*
X79084523Y-43024819D01*
X79084523Y-43024819D02*
X78751190Y-43405771D01*
X78751190Y-43405771D02*
X78894047Y-43405771D01*
X78894047Y-43405771D02*
X78989285Y-43453390D01*
X78989285Y-43453390D02*
X79036904Y-43501009D01*
X79036904Y-43501009D02*
X79084523Y-43596247D01*
X79084523Y-43596247D02*
X79084523Y-43834342D01*
X79084523Y-43834342D02*
X79036904Y-43929580D01*
X79036904Y-43929580D02*
X78989285Y-43977200D01*
X78989285Y-43977200D02*
X78894047Y-44024819D01*
X78894047Y-44024819D02*
X78608333Y-44024819D01*
X78608333Y-44024819D02*
X78513095Y-43977200D01*
X78513095Y-43977200D02*
X78465476Y-43929580D01*
X79465476Y-43120057D02*
X79513095Y-43072438D01*
X79513095Y-43072438D02*
X79608333Y-43024819D01*
X79608333Y-43024819D02*
X79846428Y-43024819D01*
X79846428Y-43024819D02*
X79941666Y-43072438D01*
X79941666Y-43072438D02*
X79989285Y-43120057D01*
X79989285Y-43120057D02*
X80036904Y-43215295D01*
X80036904Y-43215295D02*
X80036904Y-43310533D01*
X80036904Y-43310533D02*
X79989285Y-43453390D01*
X79989285Y-43453390D02*
X79417857Y-44024819D01*
X79417857Y-44024819D02*
X80036904Y-44024819D01*
X72003381Y-84405144D02*
X71527190Y-84738477D01*
X72003381Y-84976572D02*
X71003381Y-84976572D01*
X71003381Y-84976572D02*
X71003381Y-84595620D01*
X71003381Y-84595620D02*
X71051000Y-84500382D01*
X71051000Y-84500382D02*
X71098619Y-84452763D01*
X71098619Y-84452763D02*
X71193857Y-84405144D01*
X71193857Y-84405144D02*
X71336714Y-84405144D01*
X71336714Y-84405144D02*
X71431952Y-84452763D01*
X71431952Y-84452763D02*
X71479571Y-84500382D01*
X71479571Y-84500382D02*
X71527190Y-84595620D01*
X71527190Y-84595620D02*
X71527190Y-84976572D01*
X71003381Y-84071810D02*
X71003381Y-83452763D01*
X71003381Y-83452763D02*
X71384333Y-83786096D01*
X71384333Y-83786096D02*
X71384333Y-83643239D01*
X71384333Y-83643239D02*
X71431952Y-83548001D01*
X71431952Y-83548001D02*
X71479571Y-83500382D01*
X71479571Y-83500382D02*
X71574809Y-83452763D01*
X71574809Y-83452763D02*
X71812904Y-83452763D01*
X71812904Y-83452763D02*
X71908142Y-83500382D01*
X71908142Y-83500382D02*
X71955762Y-83548001D01*
X71955762Y-83548001D02*
X72003381Y-83643239D01*
X72003381Y-83643239D02*
X72003381Y-83928953D01*
X72003381Y-83928953D02*
X71955762Y-84024191D01*
X71955762Y-84024191D02*
X71908142Y-84071810D01*
X61497371Y-96807106D02*
X61497371Y-97283297D01*
X61164038Y-96283297D02*
X61497371Y-96807106D01*
X61497371Y-96807106D02*
X61830704Y-96283297D01*
X62687847Y-97283297D02*
X62116419Y-97283297D01*
X62402133Y-97283297D02*
X62402133Y-96283297D01*
X62402133Y-96283297D02*
X62306895Y-96426154D01*
X62306895Y-96426154D02*
X62211657Y-96521392D01*
X62211657Y-96521392D02*
X62116419Y-96569011D01*
X74695642Y-103658835D02*
X74743262Y-103706454D01*
X74743262Y-103706454D02*
X74790881Y-103849311D01*
X74790881Y-103849311D02*
X74790881Y-103944549D01*
X74790881Y-103944549D02*
X74743262Y-104087406D01*
X74743262Y-104087406D02*
X74648023Y-104182644D01*
X74648023Y-104182644D02*
X74552785Y-104230263D01*
X74552785Y-104230263D02*
X74362309Y-104277882D01*
X74362309Y-104277882D02*
X74219452Y-104277882D01*
X74219452Y-104277882D02*
X74028976Y-104230263D01*
X74028976Y-104230263D02*
X73933738Y-104182644D01*
X73933738Y-104182644D02*
X73838500Y-104087406D01*
X73838500Y-104087406D02*
X73790881Y-103944549D01*
X73790881Y-103944549D02*
X73790881Y-103849311D01*
X73790881Y-103849311D02*
X73838500Y-103706454D01*
X73838500Y-103706454D02*
X73886119Y-103658835D01*
X74790881Y-102706454D02*
X74790881Y-103277882D01*
X74790881Y-102992168D02*
X73790881Y-102992168D01*
X73790881Y-102992168D02*
X73933738Y-103087406D01*
X73933738Y-103087406D02*
X74028976Y-103182644D01*
X74028976Y-103182644D02*
X74076595Y-103277882D01*
X74790881Y-101754073D02*
X74790881Y-102325501D01*
X74790881Y-102039787D02*
X73790881Y-102039787D01*
X73790881Y-102039787D02*
X73933738Y-102135025D01*
X73933738Y-102135025D02*
X74028976Y-102230263D01*
X74028976Y-102230263D02*
X74076595Y-102325501D01*
X89907132Y-104652257D02*
X89954752Y-104699876D01*
X89954752Y-104699876D02*
X90002371Y-104842733D01*
X90002371Y-104842733D02*
X90002371Y-104937971D01*
X90002371Y-104937971D02*
X89954752Y-105080828D01*
X89954752Y-105080828D02*
X89859513Y-105176066D01*
X89859513Y-105176066D02*
X89764275Y-105223685D01*
X89764275Y-105223685D02*
X89573799Y-105271304D01*
X89573799Y-105271304D02*
X89430942Y-105271304D01*
X89430942Y-105271304D02*
X89240466Y-105223685D01*
X89240466Y-105223685D02*
X89145228Y-105176066D01*
X89145228Y-105176066D02*
X89049990Y-105080828D01*
X89049990Y-105080828D02*
X89002371Y-104937971D01*
X89002371Y-104937971D02*
X89002371Y-104842733D01*
X89002371Y-104842733D02*
X89049990Y-104699876D01*
X89049990Y-104699876D02*
X89097609Y-104652257D01*
X90002371Y-103699876D02*
X90002371Y-104271304D01*
X90002371Y-103985590D02*
X89002371Y-103985590D01*
X89002371Y-103985590D02*
X89145228Y-104080828D01*
X89145228Y-104080828D02*
X89240466Y-104176066D01*
X89240466Y-104176066D02*
X89288085Y-104271304D01*
X89335704Y-102842733D02*
X90002371Y-102842733D01*
X88954752Y-103080828D02*
X89669037Y-103318923D01*
X89669037Y-103318923D02*
X89669037Y-102699876D01*
X80764580Y-127912857D02*
X80812200Y-127960476D01*
X80812200Y-127960476D02*
X80859819Y-128103333D01*
X80859819Y-128103333D02*
X80859819Y-128198571D01*
X80859819Y-128198571D02*
X80812200Y-128341428D01*
X80812200Y-128341428D02*
X80716961Y-128436666D01*
X80716961Y-128436666D02*
X80621723Y-128484285D01*
X80621723Y-128484285D02*
X80431247Y-128531904D01*
X80431247Y-128531904D02*
X80288390Y-128531904D01*
X80288390Y-128531904D02*
X80097914Y-128484285D01*
X80097914Y-128484285D02*
X80002676Y-128436666D01*
X80002676Y-128436666D02*
X79907438Y-128341428D01*
X79907438Y-128341428D02*
X79859819Y-128198571D01*
X79859819Y-128198571D02*
X79859819Y-128103333D01*
X79859819Y-128103333D02*
X79907438Y-127960476D01*
X79907438Y-127960476D02*
X79955057Y-127912857D01*
X80859819Y-126960476D02*
X80859819Y-127531904D01*
X80859819Y-127246190D02*
X79859819Y-127246190D01*
X79859819Y-127246190D02*
X80002676Y-127341428D01*
X80002676Y-127341428D02*
X80097914Y-127436666D01*
X80097914Y-127436666D02*
X80145533Y-127531904D01*
X80859819Y-126484285D02*
X80859819Y-126293809D01*
X80859819Y-126293809D02*
X80812200Y-126198571D01*
X80812200Y-126198571D02*
X80764580Y-126150952D01*
X80764580Y-126150952D02*
X80621723Y-126055714D01*
X80621723Y-126055714D02*
X80431247Y-126008095D01*
X80431247Y-126008095D02*
X80050295Y-126008095D01*
X80050295Y-126008095D02*
X79955057Y-126055714D01*
X79955057Y-126055714D02*
X79907438Y-126103333D01*
X79907438Y-126103333D02*
X79859819Y-126198571D01*
X79859819Y-126198571D02*
X79859819Y-126389047D01*
X79859819Y-126389047D02*
X79907438Y-126484285D01*
X79907438Y-126484285D02*
X79955057Y-126531904D01*
X79955057Y-126531904D02*
X80050295Y-126579523D01*
X80050295Y-126579523D02*
X80288390Y-126579523D01*
X80288390Y-126579523D02*
X80383628Y-126531904D01*
X80383628Y-126531904D02*
X80431247Y-126484285D01*
X80431247Y-126484285D02*
X80478866Y-126389047D01*
X80478866Y-126389047D02*
X80478866Y-126198571D01*
X80478866Y-126198571D02*
X80431247Y-126103333D01*
X80431247Y-126103333D02*
X80383628Y-126055714D01*
X80383628Y-126055714D02*
X80288390Y-126008095D01*
X72881895Y-76248058D02*
X72834276Y-76295678D01*
X72834276Y-76295678D02*
X72691419Y-76343297D01*
X72691419Y-76343297D02*
X72596181Y-76343297D01*
X72596181Y-76343297D02*
X72453324Y-76295678D01*
X72453324Y-76295678D02*
X72358086Y-76200439D01*
X72358086Y-76200439D02*
X72310467Y-76105201D01*
X72310467Y-76105201D02*
X72262848Y-75914725D01*
X72262848Y-75914725D02*
X72262848Y-75771868D01*
X72262848Y-75771868D02*
X72310467Y-75581392D01*
X72310467Y-75581392D02*
X72358086Y-75486154D01*
X72358086Y-75486154D02*
X72453324Y-75390916D01*
X72453324Y-75390916D02*
X72596181Y-75343297D01*
X72596181Y-75343297D02*
X72691419Y-75343297D01*
X72691419Y-75343297D02*
X72834276Y-75390916D01*
X72834276Y-75390916D02*
X72881895Y-75438535D01*
X73215229Y-75343297D02*
X73834276Y-75343297D01*
X73834276Y-75343297D02*
X73500943Y-75724249D01*
X73500943Y-75724249D02*
X73643800Y-75724249D01*
X73643800Y-75724249D02*
X73739038Y-75771868D01*
X73739038Y-75771868D02*
X73786657Y-75819487D01*
X73786657Y-75819487D02*
X73834276Y-75914725D01*
X73834276Y-75914725D02*
X73834276Y-76152820D01*
X73834276Y-76152820D02*
X73786657Y-76248058D01*
X73786657Y-76248058D02*
X73739038Y-76295678D01*
X73739038Y-76295678D02*
X73643800Y-76343297D01*
X73643800Y-76343297D02*
X73358086Y-76343297D01*
X73358086Y-76343297D02*
X73262848Y-76295678D01*
X73262848Y-76295678D02*
X73215229Y-76248058D01*
X69454819Y-30142857D02*
X68978628Y-30476190D01*
X69454819Y-30714285D02*
X68454819Y-30714285D01*
X68454819Y-30714285D02*
X68454819Y-30333333D01*
X68454819Y-30333333D02*
X68502438Y-30238095D01*
X68502438Y-30238095D02*
X68550057Y-30190476D01*
X68550057Y-30190476D02*
X68645295Y-30142857D01*
X68645295Y-30142857D02*
X68788152Y-30142857D01*
X68788152Y-30142857D02*
X68883390Y-30190476D01*
X68883390Y-30190476D02*
X68931009Y-30238095D01*
X68931009Y-30238095D02*
X68978628Y-30333333D01*
X68978628Y-30333333D02*
X68978628Y-30714285D01*
X68550057Y-29761904D02*
X68502438Y-29714285D01*
X68502438Y-29714285D02*
X68454819Y-29619047D01*
X68454819Y-29619047D02*
X68454819Y-29380952D01*
X68454819Y-29380952D02*
X68502438Y-29285714D01*
X68502438Y-29285714D02*
X68550057Y-29238095D01*
X68550057Y-29238095D02*
X68645295Y-29190476D01*
X68645295Y-29190476D02*
X68740533Y-29190476D01*
X68740533Y-29190476D02*
X68883390Y-29238095D01*
X68883390Y-29238095D02*
X69454819Y-29809523D01*
X69454819Y-29809523D02*
X69454819Y-29190476D01*
X68454819Y-28285714D02*
X68454819Y-28761904D01*
X68454819Y-28761904D02*
X68931009Y-28809523D01*
X68931009Y-28809523D02*
X68883390Y-28761904D01*
X68883390Y-28761904D02*
X68835771Y-28666666D01*
X68835771Y-28666666D02*
X68835771Y-28428571D01*
X68835771Y-28428571D02*
X68883390Y-28333333D01*
X68883390Y-28333333D02*
X68931009Y-28285714D01*
X68931009Y-28285714D02*
X69026247Y-28238095D01*
X69026247Y-28238095D02*
X69264342Y-28238095D01*
X69264342Y-28238095D02*
X69359580Y-28285714D01*
X69359580Y-28285714D02*
X69407200Y-28333333D01*
X69407200Y-28333333D02*
X69454819Y-28428571D01*
X69454819Y-28428571D02*
X69454819Y-28666666D01*
X69454819Y-28666666D02*
X69407200Y-28761904D01*
X69407200Y-28761904D02*
X69359580Y-28809523D01*
X88003381Y-85905144D02*
X87527190Y-86238477D01*
X88003381Y-86476572D02*
X87003381Y-86476572D01*
X87003381Y-86476572D02*
X87003381Y-86095620D01*
X87003381Y-86095620D02*
X87051000Y-86000382D01*
X87051000Y-86000382D02*
X87098619Y-85952763D01*
X87098619Y-85952763D02*
X87193857Y-85905144D01*
X87193857Y-85905144D02*
X87336714Y-85905144D01*
X87336714Y-85905144D02*
X87431952Y-85952763D01*
X87431952Y-85952763D02*
X87479571Y-86000382D01*
X87479571Y-86000382D02*
X87527190Y-86095620D01*
X87527190Y-86095620D02*
X87527190Y-86476572D01*
X87003381Y-85000382D02*
X87003381Y-85476572D01*
X87003381Y-85476572D02*
X87479571Y-85524191D01*
X87479571Y-85524191D02*
X87431952Y-85476572D01*
X87431952Y-85476572D02*
X87384333Y-85381334D01*
X87384333Y-85381334D02*
X87384333Y-85143239D01*
X87384333Y-85143239D02*
X87431952Y-85048001D01*
X87431952Y-85048001D02*
X87479571Y-85000382D01*
X87479571Y-85000382D02*
X87574809Y-84952763D01*
X87574809Y-84952763D02*
X87812904Y-84952763D01*
X87812904Y-84952763D02*
X87908142Y-85000382D01*
X87908142Y-85000382D02*
X87955762Y-85048001D01*
X87955762Y-85048001D02*
X88003381Y-85143239D01*
X88003381Y-85143239D02*
X88003381Y-85381334D01*
X88003381Y-85381334D02*
X87955762Y-85476572D01*
X87955762Y-85476572D02*
X87908142Y-85524191D01*
X74632142Y-43859580D02*
X74584523Y-43907200D01*
X74584523Y-43907200D02*
X74441666Y-43954819D01*
X74441666Y-43954819D02*
X74346428Y-43954819D01*
X74346428Y-43954819D02*
X74203571Y-43907200D01*
X74203571Y-43907200D02*
X74108333Y-43811961D01*
X74108333Y-43811961D02*
X74060714Y-43716723D01*
X74060714Y-43716723D02*
X74013095Y-43526247D01*
X74013095Y-43526247D02*
X74013095Y-43383390D01*
X74013095Y-43383390D02*
X74060714Y-43192914D01*
X74060714Y-43192914D02*
X74108333Y-43097676D01*
X74108333Y-43097676D02*
X74203571Y-43002438D01*
X74203571Y-43002438D02*
X74346428Y-42954819D01*
X74346428Y-42954819D02*
X74441666Y-42954819D01*
X74441666Y-42954819D02*
X74584523Y-43002438D01*
X74584523Y-43002438D02*
X74632142Y-43050057D01*
X75013095Y-43050057D02*
X75060714Y-43002438D01*
X75060714Y-43002438D02*
X75155952Y-42954819D01*
X75155952Y-42954819D02*
X75394047Y-42954819D01*
X75394047Y-42954819D02*
X75489285Y-43002438D01*
X75489285Y-43002438D02*
X75536904Y-43050057D01*
X75536904Y-43050057D02*
X75584523Y-43145295D01*
X75584523Y-43145295D02*
X75584523Y-43240533D01*
X75584523Y-43240533D02*
X75536904Y-43383390D01*
X75536904Y-43383390D02*
X74965476Y-43954819D01*
X74965476Y-43954819D02*
X75584523Y-43954819D01*
X76060714Y-43954819D02*
X76251190Y-43954819D01*
X76251190Y-43954819D02*
X76346428Y-43907200D01*
X76346428Y-43907200D02*
X76394047Y-43859580D01*
X76394047Y-43859580D02*
X76489285Y-43716723D01*
X76489285Y-43716723D02*
X76536904Y-43526247D01*
X76536904Y-43526247D02*
X76536904Y-43145295D01*
X76536904Y-43145295D02*
X76489285Y-43050057D01*
X76489285Y-43050057D02*
X76441666Y-43002438D01*
X76441666Y-43002438D02*
X76346428Y-42954819D01*
X76346428Y-42954819D02*
X76155952Y-42954819D01*
X76155952Y-42954819D02*
X76060714Y-43002438D01*
X76060714Y-43002438D02*
X76013095Y-43050057D01*
X76013095Y-43050057D02*
X75965476Y-43145295D01*
X75965476Y-43145295D02*
X75965476Y-43383390D01*
X75965476Y-43383390D02*
X76013095Y-43478628D01*
X76013095Y-43478628D02*
X76060714Y-43526247D01*
X76060714Y-43526247D02*
X76155952Y-43573866D01*
X76155952Y-43573866D02*
X76346428Y-43573866D01*
X76346428Y-43573866D02*
X76441666Y-43526247D01*
X76441666Y-43526247D02*
X76489285Y-43478628D01*
X76489285Y-43478628D02*
X76536904Y-43383390D01*
X89881806Y-85546462D02*
X89929426Y-85594081D01*
X89929426Y-85594081D02*
X89977045Y-85736938D01*
X89977045Y-85736938D02*
X89977045Y-85832176D01*
X89977045Y-85832176D02*
X89929426Y-85975033D01*
X89929426Y-85975033D02*
X89834187Y-86070271D01*
X89834187Y-86070271D02*
X89738949Y-86117890D01*
X89738949Y-86117890D02*
X89548473Y-86165509D01*
X89548473Y-86165509D02*
X89405616Y-86165509D01*
X89405616Y-86165509D02*
X89215140Y-86117890D01*
X89215140Y-86117890D02*
X89119902Y-86070271D01*
X89119902Y-86070271D02*
X89024664Y-85975033D01*
X89024664Y-85975033D02*
X88977045Y-85832176D01*
X88977045Y-85832176D02*
X88977045Y-85736938D01*
X88977045Y-85736938D02*
X89024664Y-85594081D01*
X89024664Y-85594081D02*
X89072283Y-85546462D01*
X88977045Y-85213128D02*
X88977045Y-84546462D01*
X88977045Y-84546462D02*
X89977045Y-84975033D01*
X86481155Y-104914039D02*
X86004964Y-105247372D01*
X86481155Y-105485467D02*
X85481155Y-105485467D01*
X85481155Y-105485467D02*
X85481155Y-105104515D01*
X85481155Y-105104515D02*
X85528774Y-105009277D01*
X85528774Y-105009277D02*
X85576393Y-104961658D01*
X85576393Y-104961658D02*
X85671631Y-104914039D01*
X85671631Y-104914039D02*
X85814488Y-104914039D01*
X85814488Y-104914039D02*
X85909726Y-104961658D01*
X85909726Y-104961658D02*
X85957345Y-105009277D01*
X85957345Y-105009277D02*
X86004964Y-105104515D01*
X86004964Y-105104515D02*
X86004964Y-105485467D01*
X86481155Y-103961658D02*
X86481155Y-104533086D01*
X86481155Y-104247372D02*
X85481155Y-104247372D01*
X85481155Y-104247372D02*
X85624012Y-104342610D01*
X85624012Y-104342610D02*
X85719250Y-104437848D01*
X85719250Y-104437848D02*
X85766869Y-104533086D01*
X86481155Y-103009277D02*
X86481155Y-103580705D01*
X86481155Y-103294991D02*
X85481155Y-103294991D01*
X85481155Y-103294991D02*
X85624012Y-103390229D01*
X85624012Y-103390229D02*
X85719250Y-103485467D01*
X85719250Y-103485467D02*
X85766869Y-103580705D01*
X78132142Y-48859580D02*
X78084523Y-48907200D01*
X78084523Y-48907200D02*
X77941666Y-48954819D01*
X77941666Y-48954819D02*
X77846428Y-48954819D01*
X77846428Y-48954819D02*
X77703571Y-48907200D01*
X77703571Y-48907200D02*
X77608333Y-48811961D01*
X77608333Y-48811961D02*
X77560714Y-48716723D01*
X77560714Y-48716723D02*
X77513095Y-48526247D01*
X77513095Y-48526247D02*
X77513095Y-48383390D01*
X77513095Y-48383390D02*
X77560714Y-48192914D01*
X77560714Y-48192914D02*
X77608333Y-48097676D01*
X77608333Y-48097676D02*
X77703571Y-48002438D01*
X77703571Y-48002438D02*
X77846428Y-47954819D01*
X77846428Y-47954819D02*
X77941666Y-47954819D01*
X77941666Y-47954819D02*
X78084523Y-48002438D01*
X78084523Y-48002438D02*
X78132142Y-48050057D01*
X78513095Y-48050057D02*
X78560714Y-48002438D01*
X78560714Y-48002438D02*
X78655952Y-47954819D01*
X78655952Y-47954819D02*
X78894047Y-47954819D01*
X78894047Y-47954819D02*
X78989285Y-48002438D01*
X78989285Y-48002438D02*
X79036904Y-48050057D01*
X79036904Y-48050057D02*
X79084523Y-48145295D01*
X79084523Y-48145295D02*
X79084523Y-48240533D01*
X79084523Y-48240533D02*
X79036904Y-48383390D01*
X79036904Y-48383390D02*
X78465476Y-48954819D01*
X78465476Y-48954819D02*
X79084523Y-48954819D01*
X79417857Y-47954819D02*
X80084523Y-47954819D01*
X80084523Y-47954819D02*
X79655952Y-48954819D01*
X73960815Y-118132985D02*
X73960815Y-118942508D01*
X73960815Y-118942508D02*
X74008434Y-119037746D01*
X74008434Y-119037746D02*
X74056053Y-119085366D01*
X74056053Y-119085366D02*
X74151291Y-119132985D01*
X74151291Y-119132985D02*
X74341767Y-119132985D01*
X74341767Y-119132985D02*
X74437005Y-119085366D01*
X74437005Y-119085366D02*
X74484624Y-119037746D01*
X74484624Y-119037746D02*
X74532243Y-118942508D01*
X74532243Y-118942508D02*
X74532243Y-118132985D01*
X74913196Y-118132985D02*
X75532243Y-118132985D01*
X75532243Y-118132985D02*
X75198910Y-118513937D01*
X75198910Y-118513937D02*
X75341767Y-118513937D01*
X75341767Y-118513937D02*
X75437005Y-118561556D01*
X75437005Y-118561556D02*
X75484624Y-118609175D01*
X75484624Y-118609175D02*
X75532243Y-118704413D01*
X75532243Y-118704413D02*
X75532243Y-118942508D01*
X75532243Y-118942508D02*
X75484624Y-119037746D01*
X75484624Y-119037746D02*
X75437005Y-119085366D01*
X75437005Y-119085366D02*
X75341767Y-119132985D01*
X75341767Y-119132985D02*
X75056053Y-119132985D01*
X75056053Y-119132985D02*
X74960815Y-119085366D01*
X74960815Y-119085366D02*
X74913196Y-119037746D01*
X68857142Y-34454819D02*
X68523809Y-33978628D01*
X68285714Y-34454819D02*
X68285714Y-33454819D01*
X68285714Y-33454819D02*
X68666666Y-33454819D01*
X68666666Y-33454819D02*
X68761904Y-33502438D01*
X68761904Y-33502438D02*
X68809523Y-33550057D01*
X68809523Y-33550057D02*
X68857142Y-33645295D01*
X68857142Y-33645295D02*
X68857142Y-33788152D01*
X68857142Y-33788152D02*
X68809523Y-33883390D01*
X68809523Y-33883390D02*
X68761904Y-33931009D01*
X68761904Y-33931009D02*
X68666666Y-33978628D01*
X68666666Y-33978628D02*
X68285714Y-33978628D01*
X69238095Y-33550057D02*
X69285714Y-33502438D01*
X69285714Y-33502438D02*
X69380952Y-33454819D01*
X69380952Y-33454819D02*
X69619047Y-33454819D01*
X69619047Y-33454819D02*
X69714285Y-33502438D01*
X69714285Y-33502438D02*
X69761904Y-33550057D01*
X69761904Y-33550057D02*
X69809523Y-33645295D01*
X69809523Y-33645295D02*
X69809523Y-33740533D01*
X69809523Y-33740533D02*
X69761904Y-33883390D01*
X69761904Y-33883390D02*
X69190476Y-34454819D01*
X69190476Y-34454819D02*
X69809523Y-34454819D01*
X70142857Y-33454819D02*
X70809523Y-33454819D01*
X70809523Y-33454819D02*
X70380952Y-34454819D01*
X84908142Y-85905144D02*
X84955762Y-85952763D01*
X84955762Y-85952763D02*
X85003381Y-86095620D01*
X85003381Y-86095620D02*
X85003381Y-86190858D01*
X85003381Y-86190858D02*
X84955762Y-86333715D01*
X84955762Y-86333715D02*
X84860523Y-86428953D01*
X84860523Y-86428953D02*
X84765285Y-86476572D01*
X84765285Y-86476572D02*
X84574809Y-86524191D01*
X84574809Y-86524191D02*
X84431952Y-86524191D01*
X84431952Y-86524191D02*
X84241476Y-86476572D01*
X84241476Y-86476572D02*
X84146238Y-86428953D01*
X84146238Y-86428953D02*
X84051000Y-86333715D01*
X84051000Y-86333715D02*
X84003381Y-86190858D01*
X84003381Y-86190858D02*
X84003381Y-86095620D01*
X84003381Y-86095620D02*
X84051000Y-85952763D01*
X84051000Y-85952763D02*
X84098619Y-85905144D01*
X84003381Y-85048001D02*
X84003381Y-85238477D01*
X84003381Y-85238477D02*
X84051000Y-85333715D01*
X84051000Y-85333715D02*
X84098619Y-85381334D01*
X84098619Y-85381334D02*
X84241476Y-85476572D01*
X84241476Y-85476572D02*
X84431952Y-85524191D01*
X84431952Y-85524191D02*
X84812904Y-85524191D01*
X84812904Y-85524191D02*
X84908142Y-85476572D01*
X84908142Y-85476572D02*
X84955762Y-85428953D01*
X84955762Y-85428953D02*
X85003381Y-85333715D01*
X85003381Y-85333715D02*
X85003381Y-85143239D01*
X85003381Y-85143239D02*
X84955762Y-85048001D01*
X84955762Y-85048001D02*
X84908142Y-85000382D01*
X84908142Y-85000382D02*
X84812904Y-84952763D01*
X84812904Y-84952763D02*
X84574809Y-84952763D01*
X84574809Y-84952763D02*
X84479571Y-85000382D01*
X84479571Y-85000382D02*
X84431952Y-85048001D01*
X84431952Y-85048001D02*
X84384333Y-85143239D01*
X84384333Y-85143239D02*
X84384333Y-85333715D01*
X84384333Y-85333715D02*
X84431952Y-85428953D01*
X84431952Y-85428953D02*
X84479571Y-85476572D01*
X84479571Y-85476572D02*
X84574809Y-85524191D01*
X98722319Y-128386103D02*
X98246128Y-128719436D01*
X98722319Y-128957531D02*
X97722319Y-128957531D01*
X97722319Y-128957531D02*
X97722319Y-128576579D01*
X97722319Y-128576579D02*
X97769938Y-128481341D01*
X97769938Y-128481341D02*
X97817557Y-128433722D01*
X97817557Y-128433722D02*
X97912795Y-128386103D01*
X97912795Y-128386103D02*
X98055652Y-128386103D01*
X98055652Y-128386103D02*
X98150890Y-128433722D01*
X98150890Y-128433722D02*
X98198509Y-128481341D01*
X98198509Y-128481341D02*
X98246128Y-128576579D01*
X98246128Y-128576579D02*
X98246128Y-128957531D01*
X98722319Y-127433722D02*
X98722319Y-128005150D01*
X98722319Y-127719436D02*
X97722319Y-127719436D01*
X97722319Y-127719436D02*
X97865176Y-127814674D01*
X97865176Y-127814674D02*
X97960414Y-127909912D01*
X97960414Y-127909912D02*
X98008033Y-128005150D01*
X97722319Y-127100388D02*
X97722319Y-126433722D01*
X97722319Y-126433722D02*
X98722319Y-126862293D01*
X80694395Y-96368058D02*
X80646776Y-96415678D01*
X80646776Y-96415678D02*
X80503919Y-96463297D01*
X80503919Y-96463297D02*
X80408681Y-96463297D01*
X80408681Y-96463297D02*
X80265824Y-96415678D01*
X80265824Y-96415678D02*
X80170586Y-96320439D01*
X80170586Y-96320439D02*
X80122967Y-96225201D01*
X80122967Y-96225201D02*
X80075348Y-96034725D01*
X80075348Y-96034725D02*
X80075348Y-95891868D01*
X80075348Y-95891868D02*
X80122967Y-95701392D01*
X80122967Y-95701392D02*
X80170586Y-95606154D01*
X80170586Y-95606154D02*
X80265824Y-95510916D01*
X80265824Y-95510916D02*
X80408681Y-95463297D01*
X80408681Y-95463297D02*
X80503919Y-95463297D01*
X80503919Y-95463297D02*
X80646776Y-95510916D01*
X80646776Y-95510916D02*
X80694395Y-95558535D01*
X81265824Y-95891868D02*
X81170586Y-95844249D01*
X81170586Y-95844249D02*
X81122967Y-95796630D01*
X81122967Y-95796630D02*
X81075348Y-95701392D01*
X81075348Y-95701392D02*
X81075348Y-95653773D01*
X81075348Y-95653773D02*
X81122967Y-95558535D01*
X81122967Y-95558535D02*
X81170586Y-95510916D01*
X81170586Y-95510916D02*
X81265824Y-95463297D01*
X81265824Y-95463297D02*
X81456300Y-95463297D01*
X81456300Y-95463297D02*
X81551538Y-95510916D01*
X81551538Y-95510916D02*
X81599157Y-95558535D01*
X81599157Y-95558535D02*
X81646776Y-95653773D01*
X81646776Y-95653773D02*
X81646776Y-95701392D01*
X81646776Y-95701392D02*
X81599157Y-95796630D01*
X81599157Y-95796630D02*
X81551538Y-95844249D01*
X81551538Y-95844249D02*
X81456300Y-95891868D01*
X81456300Y-95891868D02*
X81265824Y-95891868D01*
X81265824Y-95891868D02*
X81170586Y-95939487D01*
X81170586Y-95939487D02*
X81122967Y-95987106D01*
X81122967Y-95987106D02*
X81075348Y-96082344D01*
X81075348Y-96082344D02*
X81075348Y-96272820D01*
X81075348Y-96272820D02*
X81122967Y-96368058D01*
X81122967Y-96368058D02*
X81170586Y-96415678D01*
X81170586Y-96415678D02*
X81265824Y-96463297D01*
X81265824Y-96463297D02*
X81456300Y-96463297D01*
X81456300Y-96463297D02*
X81551538Y-96415678D01*
X81551538Y-96415678D02*
X81599157Y-96368058D01*
X81599157Y-96368058D02*
X81646776Y-96272820D01*
X81646776Y-96272820D02*
X81646776Y-96082344D01*
X81646776Y-96082344D02*
X81599157Y-95987106D01*
X81599157Y-95987106D02*
X81551538Y-95939487D01*
X81551538Y-95939487D02*
X81456300Y-95891868D01*
X81729819Y-43642857D02*
X81253628Y-43976190D01*
X81729819Y-44214285D02*
X80729819Y-44214285D01*
X80729819Y-44214285D02*
X80729819Y-43833333D01*
X80729819Y-43833333D02*
X80777438Y-43738095D01*
X80777438Y-43738095D02*
X80825057Y-43690476D01*
X80825057Y-43690476D02*
X80920295Y-43642857D01*
X80920295Y-43642857D02*
X81063152Y-43642857D01*
X81063152Y-43642857D02*
X81158390Y-43690476D01*
X81158390Y-43690476D02*
X81206009Y-43738095D01*
X81206009Y-43738095D02*
X81253628Y-43833333D01*
X81253628Y-43833333D02*
X81253628Y-44214285D01*
X80729819Y-43309523D02*
X80729819Y-42690476D01*
X80729819Y-42690476D02*
X81110771Y-43023809D01*
X81110771Y-43023809D02*
X81110771Y-42880952D01*
X81110771Y-42880952D02*
X81158390Y-42785714D01*
X81158390Y-42785714D02*
X81206009Y-42738095D01*
X81206009Y-42738095D02*
X81301247Y-42690476D01*
X81301247Y-42690476D02*
X81539342Y-42690476D01*
X81539342Y-42690476D02*
X81634580Y-42738095D01*
X81634580Y-42738095D02*
X81682200Y-42785714D01*
X81682200Y-42785714D02*
X81729819Y-42880952D01*
X81729819Y-42880952D02*
X81729819Y-43166666D01*
X81729819Y-43166666D02*
X81682200Y-43261904D01*
X81682200Y-43261904D02*
X81634580Y-43309523D01*
X81729819Y-41738095D02*
X81729819Y-42309523D01*
X81729819Y-42023809D02*
X80729819Y-42023809D01*
X80729819Y-42023809D02*
X80872676Y-42119047D01*
X80872676Y-42119047D02*
X80967914Y-42214285D01*
X80967914Y-42214285D02*
X81015533Y-42309523D01*
X73054819Y-53142857D02*
X72578628Y-53476190D01*
X73054819Y-53714285D02*
X72054819Y-53714285D01*
X72054819Y-53714285D02*
X72054819Y-53333333D01*
X72054819Y-53333333D02*
X72102438Y-53238095D01*
X72102438Y-53238095D02*
X72150057Y-53190476D01*
X72150057Y-53190476D02*
X72245295Y-53142857D01*
X72245295Y-53142857D02*
X72388152Y-53142857D01*
X72388152Y-53142857D02*
X72483390Y-53190476D01*
X72483390Y-53190476D02*
X72531009Y-53238095D01*
X72531009Y-53238095D02*
X72578628Y-53333333D01*
X72578628Y-53333333D02*
X72578628Y-53714285D01*
X72150057Y-52761904D02*
X72102438Y-52714285D01*
X72102438Y-52714285D02*
X72054819Y-52619047D01*
X72054819Y-52619047D02*
X72054819Y-52380952D01*
X72054819Y-52380952D02*
X72102438Y-52285714D01*
X72102438Y-52285714D02*
X72150057Y-52238095D01*
X72150057Y-52238095D02*
X72245295Y-52190476D01*
X72245295Y-52190476D02*
X72340533Y-52190476D01*
X72340533Y-52190476D02*
X72483390Y-52238095D01*
X72483390Y-52238095D02*
X73054819Y-52809523D01*
X73054819Y-52809523D02*
X73054819Y-52190476D01*
X72483390Y-51619047D02*
X72435771Y-51714285D01*
X72435771Y-51714285D02*
X72388152Y-51761904D01*
X72388152Y-51761904D02*
X72292914Y-51809523D01*
X72292914Y-51809523D02*
X72245295Y-51809523D01*
X72245295Y-51809523D02*
X72150057Y-51761904D01*
X72150057Y-51761904D02*
X72102438Y-51714285D01*
X72102438Y-51714285D02*
X72054819Y-51619047D01*
X72054819Y-51619047D02*
X72054819Y-51428571D01*
X72054819Y-51428571D02*
X72102438Y-51333333D01*
X72102438Y-51333333D02*
X72150057Y-51285714D01*
X72150057Y-51285714D02*
X72245295Y-51238095D01*
X72245295Y-51238095D02*
X72292914Y-51238095D01*
X72292914Y-51238095D02*
X72388152Y-51285714D01*
X72388152Y-51285714D02*
X72435771Y-51333333D01*
X72435771Y-51333333D02*
X72483390Y-51428571D01*
X72483390Y-51428571D02*
X72483390Y-51619047D01*
X72483390Y-51619047D02*
X72531009Y-51714285D01*
X72531009Y-51714285D02*
X72578628Y-51761904D01*
X72578628Y-51761904D02*
X72673866Y-51809523D01*
X72673866Y-51809523D02*
X72864342Y-51809523D01*
X72864342Y-51809523D02*
X72959580Y-51761904D01*
X72959580Y-51761904D02*
X73007200Y-51714285D01*
X73007200Y-51714285D02*
X73054819Y-51619047D01*
X73054819Y-51619047D02*
X73054819Y-51428571D01*
X73054819Y-51428571D02*
X73007200Y-51333333D01*
X73007200Y-51333333D02*
X72959580Y-51285714D01*
X72959580Y-51285714D02*
X72864342Y-51238095D01*
X72864342Y-51238095D02*
X72673866Y-51238095D01*
X72673866Y-51238095D02*
X72578628Y-51285714D01*
X72578628Y-51285714D02*
X72531009Y-51333333D01*
X72531009Y-51333333D02*
X72483390Y-51428571D01*
X91502371Y-104652257D02*
X91026180Y-104985590D01*
X91502371Y-105223685D02*
X90502371Y-105223685D01*
X90502371Y-105223685D02*
X90502371Y-104842733D01*
X90502371Y-104842733D02*
X90549990Y-104747495D01*
X90549990Y-104747495D02*
X90597609Y-104699876D01*
X90597609Y-104699876D02*
X90692847Y-104652257D01*
X90692847Y-104652257D02*
X90835704Y-104652257D01*
X90835704Y-104652257D02*
X90930942Y-104699876D01*
X90930942Y-104699876D02*
X90978561Y-104747495D01*
X90978561Y-104747495D02*
X91026180Y-104842733D01*
X91026180Y-104842733D02*
X91026180Y-105223685D01*
X91502371Y-103699876D02*
X91502371Y-104271304D01*
X91502371Y-103985590D02*
X90502371Y-103985590D01*
X90502371Y-103985590D02*
X90645228Y-104080828D01*
X90645228Y-104080828D02*
X90740466Y-104176066D01*
X90740466Y-104176066D02*
X90788085Y-104271304D01*
X90835704Y-102842733D02*
X91502371Y-102842733D01*
X90454752Y-103080828D02*
X91169037Y-103318923D01*
X91169037Y-103318923D02*
X91169037Y-102699876D01*
X71359819Y-120912857D02*
X70883628Y-121246190D01*
X71359819Y-121484285D02*
X70359819Y-121484285D01*
X70359819Y-121484285D02*
X70359819Y-121103333D01*
X70359819Y-121103333D02*
X70407438Y-121008095D01*
X70407438Y-121008095D02*
X70455057Y-120960476D01*
X70455057Y-120960476D02*
X70550295Y-120912857D01*
X70550295Y-120912857D02*
X70693152Y-120912857D01*
X70693152Y-120912857D02*
X70788390Y-120960476D01*
X70788390Y-120960476D02*
X70836009Y-121008095D01*
X70836009Y-121008095D02*
X70883628Y-121103333D01*
X70883628Y-121103333D02*
X70883628Y-121484285D01*
X71359819Y-119960476D02*
X71359819Y-120531904D01*
X71359819Y-120246190D02*
X70359819Y-120246190D01*
X70359819Y-120246190D02*
X70502676Y-120341428D01*
X70502676Y-120341428D02*
X70597914Y-120436666D01*
X70597914Y-120436666D02*
X70645533Y-120531904D01*
X70359819Y-119055714D02*
X70359819Y-119531904D01*
X70359819Y-119531904D02*
X70836009Y-119579523D01*
X70836009Y-119579523D02*
X70788390Y-119531904D01*
X70788390Y-119531904D02*
X70740771Y-119436666D01*
X70740771Y-119436666D02*
X70740771Y-119198571D01*
X70740771Y-119198571D02*
X70788390Y-119103333D01*
X70788390Y-119103333D02*
X70836009Y-119055714D01*
X70836009Y-119055714D02*
X70931247Y-119008095D01*
X70931247Y-119008095D02*
X71169342Y-119008095D01*
X71169342Y-119008095D02*
X71264580Y-119055714D01*
X71264580Y-119055714D02*
X71312200Y-119103333D01*
X71312200Y-119103333D02*
X71359819Y-119198571D01*
X71359819Y-119198571D02*
X71359819Y-119436666D01*
X71359819Y-119436666D02*
X71312200Y-119531904D01*
X71312200Y-119531904D02*
X71264580Y-119579523D01*
X94222319Y-128862293D02*
X94222319Y-129338483D01*
X94222319Y-129338483D02*
X93222319Y-129338483D01*
X93698509Y-128528959D02*
X93698509Y-128195626D01*
X94222319Y-128052769D02*
X94222319Y-128528959D01*
X94222319Y-128528959D02*
X93222319Y-128528959D01*
X93222319Y-128528959D02*
X93222319Y-128052769D01*
X94222319Y-127624197D02*
X93222319Y-127624197D01*
X93222319Y-127624197D02*
X93222319Y-127386102D01*
X93222319Y-127386102D02*
X93269938Y-127243245D01*
X93269938Y-127243245D02*
X93365176Y-127148007D01*
X93365176Y-127148007D02*
X93460414Y-127100388D01*
X93460414Y-127100388D02*
X93650890Y-127052769D01*
X93650890Y-127052769D02*
X93793747Y-127052769D01*
X93793747Y-127052769D02*
X93984223Y-127100388D01*
X93984223Y-127100388D02*
X94079461Y-127148007D01*
X94079461Y-127148007D02*
X94174700Y-127243245D01*
X94174700Y-127243245D02*
X94222319Y-127386102D01*
X94222319Y-127386102D02*
X94222319Y-127624197D01*
X94222319Y-126100388D02*
X94222319Y-126671816D01*
X94222319Y-126386102D02*
X93222319Y-126386102D01*
X93222319Y-126386102D02*
X93365176Y-126481340D01*
X93365176Y-126481340D02*
X93460414Y-126576578D01*
X93460414Y-126576578D02*
X93508033Y-126671816D01*
X58624642Y-125567826D02*
X58577023Y-125615446D01*
X58577023Y-125615446D02*
X58434166Y-125663065D01*
X58434166Y-125663065D02*
X58338928Y-125663065D01*
X58338928Y-125663065D02*
X58196071Y-125615446D01*
X58196071Y-125615446D02*
X58100833Y-125520207D01*
X58100833Y-125520207D02*
X58053214Y-125424969D01*
X58053214Y-125424969D02*
X58005595Y-125234493D01*
X58005595Y-125234493D02*
X58005595Y-125091636D01*
X58005595Y-125091636D02*
X58053214Y-124901160D01*
X58053214Y-124901160D02*
X58100833Y-124805922D01*
X58100833Y-124805922D02*
X58196071Y-124710684D01*
X58196071Y-124710684D02*
X58338928Y-124663065D01*
X58338928Y-124663065D02*
X58434166Y-124663065D01*
X58434166Y-124663065D02*
X58577023Y-124710684D01*
X58577023Y-124710684D02*
X58624642Y-124758303D01*
X59005595Y-124758303D02*
X59053214Y-124710684D01*
X59053214Y-124710684D02*
X59148452Y-124663065D01*
X59148452Y-124663065D02*
X59386547Y-124663065D01*
X59386547Y-124663065D02*
X59481785Y-124710684D01*
X59481785Y-124710684D02*
X59529404Y-124758303D01*
X59529404Y-124758303D02*
X59577023Y-124853541D01*
X59577023Y-124853541D02*
X59577023Y-124948779D01*
X59577023Y-124948779D02*
X59529404Y-125091636D01*
X59529404Y-125091636D02*
X58957976Y-125663065D01*
X58957976Y-125663065D02*
X59577023Y-125663065D01*
X59910357Y-124663065D02*
X60529404Y-124663065D01*
X60529404Y-124663065D02*
X60196071Y-125044017D01*
X60196071Y-125044017D02*
X60338928Y-125044017D01*
X60338928Y-125044017D02*
X60434166Y-125091636D01*
X60434166Y-125091636D02*
X60481785Y-125139255D01*
X60481785Y-125139255D02*
X60529404Y-125234493D01*
X60529404Y-125234493D02*
X60529404Y-125472588D01*
X60529404Y-125472588D02*
X60481785Y-125567826D01*
X60481785Y-125567826D02*
X60434166Y-125615446D01*
X60434166Y-125615446D02*
X60338928Y-125663065D01*
X60338928Y-125663065D02*
X60053214Y-125663065D01*
X60053214Y-125663065D02*
X59957976Y-125615446D01*
X59957976Y-125615446D02*
X59910357Y-125567826D01*
X72959580Y-49692857D02*
X73007200Y-49740476D01*
X73007200Y-49740476D02*
X73054819Y-49883333D01*
X73054819Y-49883333D02*
X73054819Y-49978571D01*
X73054819Y-49978571D02*
X73007200Y-50121428D01*
X73007200Y-50121428D02*
X72911961Y-50216666D01*
X72911961Y-50216666D02*
X72816723Y-50264285D01*
X72816723Y-50264285D02*
X72626247Y-50311904D01*
X72626247Y-50311904D02*
X72483390Y-50311904D01*
X72483390Y-50311904D02*
X72292914Y-50264285D01*
X72292914Y-50264285D02*
X72197676Y-50216666D01*
X72197676Y-50216666D02*
X72102438Y-50121428D01*
X72102438Y-50121428D02*
X72054819Y-49978571D01*
X72054819Y-49978571D02*
X72054819Y-49883333D01*
X72054819Y-49883333D02*
X72102438Y-49740476D01*
X72102438Y-49740476D02*
X72150057Y-49692857D01*
X72150057Y-49311904D02*
X72102438Y-49264285D01*
X72102438Y-49264285D02*
X72054819Y-49169047D01*
X72054819Y-49169047D02*
X72054819Y-48930952D01*
X72054819Y-48930952D02*
X72102438Y-48835714D01*
X72102438Y-48835714D02*
X72150057Y-48788095D01*
X72150057Y-48788095D02*
X72245295Y-48740476D01*
X72245295Y-48740476D02*
X72340533Y-48740476D01*
X72340533Y-48740476D02*
X72483390Y-48788095D01*
X72483390Y-48788095D02*
X73054819Y-49359523D01*
X73054819Y-49359523D02*
X73054819Y-48740476D01*
X72054819Y-47883333D02*
X72054819Y-48073809D01*
X72054819Y-48073809D02*
X72102438Y-48169047D01*
X72102438Y-48169047D02*
X72150057Y-48216666D01*
X72150057Y-48216666D02*
X72292914Y-48311904D01*
X72292914Y-48311904D02*
X72483390Y-48359523D01*
X72483390Y-48359523D02*
X72864342Y-48359523D01*
X72864342Y-48359523D02*
X72959580Y-48311904D01*
X72959580Y-48311904D02*
X73007200Y-48264285D01*
X73007200Y-48264285D02*
X73054819Y-48169047D01*
X73054819Y-48169047D02*
X73054819Y-47978571D01*
X73054819Y-47978571D02*
X73007200Y-47883333D01*
X73007200Y-47883333D02*
X72959580Y-47835714D01*
X72959580Y-47835714D02*
X72864342Y-47788095D01*
X72864342Y-47788095D02*
X72626247Y-47788095D01*
X72626247Y-47788095D02*
X72531009Y-47835714D01*
X72531009Y-47835714D02*
X72483390Y-47883333D01*
X72483390Y-47883333D02*
X72435771Y-47978571D01*
X72435771Y-47978571D02*
X72435771Y-48169047D01*
X72435771Y-48169047D02*
X72483390Y-48264285D01*
X72483390Y-48264285D02*
X72531009Y-48311904D01*
X72531009Y-48311904D02*
X72626247Y-48359523D01*
X65669395Y-102883297D02*
X65336062Y-102407106D01*
X65097967Y-102883297D02*
X65097967Y-101883297D01*
X65097967Y-101883297D02*
X65478919Y-101883297D01*
X65478919Y-101883297D02*
X65574157Y-101930916D01*
X65574157Y-101930916D02*
X65621776Y-101978535D01*
X65621776Y-101978535D02*
X65669395Y-102073773D01*
X65669395Y-102073773D02*
X65669395Y-102216630D01*
X65669395Y-102216630D02*
X65621776Y-102311868D01*
X65621776Y-102311868D02*
X65574157Y-102359487D01*
X65574157Y-102359487D02*
X65478919Y-102407106D01*
X65478919Y-102407106D02*
X65097967Y-102407106D01*
X66240824Y-102311868D02*
X66145586Y-102264249D01*
X66145586Y-102264249D02*
X66097967Y-102216630D01*
X66097967Y-102216630D02*
X66050348Y-102121392D01*
X66050348Y-102121392D02*
X66050348Y-102073773D01*
X66050348Y-102073773D02*
X66097967Y-101978535D01*
X66097967Y-101978535D02*
X66145586Y-101930916D01*
X66145586Y-101930916D02*
X66240824Y-101883297D01*
X66240824Y-101883297D02*
X66431300Y-101883297D01*
X66431300Y-101883297D02*
X66526538Y-101930916D01*
X66526538Y-101930916D02*
X66574157Y-101978535D01*
X66574157Y-101978535D02*
X66621776Y-102073773D01*
X66621776Y-102073773D02*
X66621776Y-102121392D01*
X66621776Y-102121392D02*
X66574157Y-102216630D01*
X66574157Y-102216630D02*
X66526538Y-102264249D01*
X66526538Y-102264249D02*
X66431300Y-102311868D01*
X66431300Y-102311868D02*
X66240824Y-102311868D01*
X66240824Y-102311868D02*
X66145586Y-102359487D01*
X66145586Y-102359487D02*
X66097967Y-102407106D01*
X66097967Y-102407106D02*
X66050348Y-102502344D01*
X66050348Y-102502344D02*
X66050348Y-102692820D01*
X66050348Y-102692820D02*
X66097967Y-102788058D01*
X66097967Y-102788058D02*
X66145586Y-102835678D01*
X66145586Y-102835678D02*
X66240824Y-102883297D01*
X66240824Y-102883297D02*
X66431300Y-102883297D01*
X66431300Y-102883297D02*
X66526538Y-102835678D01*
X66526538Y-102835678D02*
X66574157Y-102788058D01*
X66574157Y-102788058D02*
X66621776Y-102692820D01*
X66621776Y-102692820D02*
X66621776Y-102502344D01*
X66621776Y-102502344D02*
X66574157Y-102407106D01*
X66574157Y-102407106D02*
X66526538Y-102359487D01*
X66526538Y-102359487D02*
X66431300Y-102311868D01*
X76099157Y-97158297D02*
X76099157Y-97967820D01*
X76099157Y-97967820D02*
X76146776Y-98063058D01*
X76146776Y-98063058D02*
X76194395Y-98110678D01*
X76194395Y-98110678D02*
X76289633Y-98158297D01*
X76289633Y-98158297D02*
X76480109Y-98158297D01*
X76480109Y-98158297D02*
X76575347Y-98110678D01*
X76575347Y-98110678D02*
X76622966Y-98063058D01*
X76622966Y-98063058D02*
X76670585Y-97967820D01*
X76670585Y-97967820D02*
X76670585Y-97158297D01*
X77099157Y-97253535D02*
X77146776Y-97205916D01*
X77146776Y-97205916D02*
X77242014Y-97158297D01*
X77242014Y-97158297D02*
X77480109Y-97158297D01*
X77480109Y-97158297D02*
X77575347Y-97205916D01*
X77575347Y-97205916D02*
X77622966Y-97253535D01*
X77622966Y-97253535D02*
X77670585Y-97348773D01*
X77670585Y-97348773D02*
X77670585Y-97444011D01*
X77670585Y-97444011D02*
X77622966Y-97586868D01*
X77622966Y-97586868D02*
X77051538Y-98158297D01*
X77051538Y-98158297D02*
X77670585Y-98158297D01*
X65881895Y-83098058D02*
X65834276Y-83145678D01*
X65834276Y-83145678D02*
X65691419Y-83193297D01*
X65691419Y-83193297D02*
X65596181Y-83193297D01*
X65596181Y-83193297D02*
X65453324Y-83145678D01*
X65453324Y-83145678D02*
X65358086Y-83050439D01*
X65358086Y-83050439D02*
X65310467Y-82955201D01*
X65310467Y-82955201D02*
X65262848Y-82764725D01*
X65262848Y-82764725D02*
X65262848Y-82621868D01*
X65262848Y-82621868D02*
X65310467Y-82431392D01*
X65310467Y-82431392D02*
X65358086Y-82336154D01*
X65358086Y-82336154D02*
X65453324Y-82240916D01*
X65453324Y-82240916D02*
X65596181Y-82193297D01*
X65596181Y-82193297D02*
X65691419Y-82193297D01*
X65691419Y-82193297D02*
X65834276Y-82240916D01*
X65834276Y-82240916D02*
X65881895Y-82288535D01*
X66262848Y-82288535D02*
X66310467Y-82240916D01*
X66310467Y-82240916D02*
X66405705Y-82193297D01*
X66405705Y-82193297D02*
X66643800Y-82193297D01*
X66643800Y-82193297D02*
X66739038Y-82240916D01*
X66739038Y-82240916D02*
X66786657Y-82288535D01*
X66786657Y-82288535D02*
X66834276Y-82383773D01*
X66834276Y-82383773D02*
X66834276Y-82479011D01*
X66834276Y-82479011D02*
X66786657Y-82621868D01*
X66786657Y-82621868D02*
X66215229Y-83193297D01*
X66215229Y-83193297D02*
X66834276Y-83193297D01*
X75969819Y-127912857D02*
X75493628Y-128246190D01*
X75969819Y-128484285D02*
X74969819Y-128484285D01*
X74969819Y-128484285D02*
X74969819Y-128103333D01*
X74969819Y-128103333D02*
X75017438Y-128008095D01*
X75017438Y-128008095D02*
X75065057Y-127960476D01*
X75065057Y-127960476D02*
X75160295Y-127912857D01*
X75160295Y-127912857D02*
X75303152Y-127912857D01*
X75303152Y-127912857D02*
X75398390Y-127960476D01*
X75398390Y-127960476D02*
X75446009Y-128008095D01*
X75446009Y-128008095D02*
X75493628Y-128103333D01*
X75493628Y-128103333D02*
X75493628Y-128484285D01*
X75969819Y-126960476D02*
X75969819Y-127531904D01*
X75969819Y-127246190D02*
X74969819Y-127246190D01*
X74969819Y-127246190D02*
X75112676Y-127341428D01*
X75112676Y-127341428D02*
X75207914Y-127436666D01*
X75207914Y-127436666D02*
X75255533Y-127531904D01*
X75969819Y-126484285D02*
X75969819Y-126293809D01*
X75969819Y-126293809D02*
X75922200Y-126198571D01*
X75922200Y-126198571D02*
X75874580Y-126150952D01*
X75874580Y-126150952D02*
X75731723Y-126055714D01*
X75731723Y-126055714D02*
X75541247Y-126008095D01*
X75541247Y-126008095D02*
X75160295Y-126008095D01*
X75160295Y-126008095D02*
X75065057Y-126055714D01*
X75065057Y-126055714D02*
X75017438Y-126103333D01*
X75017438Y-126103333D02*
X74969819Y-126198571D01*
X74969819Y-126198571D02*
X74969819Y-126389047D01*
X74969819Y-126389047D02*
X75017438Y-126484285D01*
X75017438Y-126484285D02*
X75065057Y-126531904D01*
X75065057Y-126531904D02*
X75160295Y-126579523D01*
X75160295Y-126579523D02*
X75398390Y-126579523D01*
X75398390Y-126579523D02*
X75493628Y-126531904D01*
X75493628Y-126531904D02*
X75541247Y-126484285D01*
X75541247Y-126484285D02*
X75588866Y-126389047D01*
X75588866Y-126389047D02*
X75588866Y-126198571D01*
X75588866Y-126198571D02*
X75541247Y-126103333D01*
X75541247Y-126103333D02*
X75493628Y-126055714D01*
X75493628Y-126055714D02*
X75398390Y-126008095D01*
X89977045Y-79546462D02*
X89500854Y-79879795D01*
X89977045Y-80117890D02*
X88977045Y-80117890D01*
X88977045Y-80117890D02*
X88977045Y-79736938D01*
X88977045Y-79736938D02*
X89024664Y-79641700D01*
X89024664Y-79641700D02*
X89072283Y-79594081D01*
X89072283Y-79594081D02*
X89167521Y-79546462D01*
X89167521Y-79546462D02*
X89310378Y-79546462D01*
X89310378Y-79546462D02*
X89405616Y-79594081D01*
X89405616Y-79594081D02*
X89453235Y-79641700D01*
X89453235Y-79641700D02*
X89500854Y-79736938D01*
X89500854Y-79736938D02*
X89500854Y-80117890D01*
X88977045Y-78689319D02*
X88977045Y-78879795D01*
X88977045Y-78879795D02*
X89024664Y-78975033D01*
X89024664Y-78975033D02*
X89072283Y-79022652D01*
X89072283Y-79022652D02*
X89215140Y-79117890D01*
X89215140Y-79117890D02*
X89405616Y-79165509D01*
X89405616Y-79165509D02*
X89786568Y-79165509D01*
X89786568Y-79165509D02*
X89881806Y-79117890D01*
X89881806Y-79117890D02*
X89929426Y-79070271D01*
X89929426Y-79070271D02*
X89977045Y-78975033D01*
X89977045Y-78975033D02*
X89977045Y-78784557D01*
X89977045Y-78784557D02*
X89929426Y-78689319D01*
X89929426Y-78689319D02*
X89881806Y-78641700D01*
X89881806Y-78641700D02*
X89786568Y-78594081D01*
X89786568Y-78594081D02*
X89548473Y-78594081D01*
X89548473Y-78594081D02*
X89453235Y-78641700D01*
X89453235Y-78641700D02*
X89405616Y-78689319D01*
X89405616Y-78689319D02*
X89357997Y-78784557D01*
X89357997Y-78784557D02*
X89357997Y-78975033D01*
X89357997Y-78975033D02*
X89405616Y-79070271D01*
X89405616Y-79070271D02*
X89453235Y-79117890D01*
X89453235Y-79117890D02*
X89548473Y-79165509D01*
X86357142Y-95859580D02*
X86309523Y-95907200D01*
X86309523Y-95907200D02*
X86166666Y-95954819D01*
X86166666Y-95954819D02*
X86071428Y-95954819D01*
X86071428Y-95954819D02*
X85928571Y-95907200D01*
X85928571Y-95907200D02*
X85833333Y-95811961D01*
X85833333Y-95811961D02*
X85785714Y-95716723D01*
X85785714Y-95716723D02*
X85738095Y-95526247D01*
X85738095Y-95526247D02*
X85738095Y-95383390D01*
X85738095Y-95383390D02*
X85785714Y-95192914D01*
X85785714Y-95192914D02*
X85833333Y-95097676D01*
X85833333Y-95097676D02*
X85928571Y-95002438D01*
X85928571Y-95002438D02*
X86071428Y-94954819D01*
X86071428Y-94954819D02*
X86166666Y-94954819D01*
X86166666Y-94954819D02*
X86309523Y-95002438D01*
X86309523Y-95002438D02*
X86357142Y-95050057D01*
X87309523Y-95954819D02*
X86738095Y-95954819D01*
X87023809Y-95954819D02*
X87023809Y-94954819D01*
X87023809Y-94954819D02*
X86928571Y-95097676D01*
X86928571Y-95097676D02*
X86833333Y-95192914D01*
X86833333Y-95192914D02*
X86738095Y-95240533D01*
X87690476Y-95050057D02*
X87738095Y-95002438D01*
X87738095Y-95002438D02*
X87833333Y-94954819D01*
X87833333Y-94954819D02*
X88071428Y-94954819D01*
X88071428Y-94954819D02*
X88166666Y-95002438D01*
X88166666Y-95002438D02*
X88214285Y-95050057D01*
X88214285Y-95050057D02*
X88261904Y-95145295D01*
X88261904Y-95145295D02*
X88261904Y-95240533D01*
X88261904Y-95240533D02*
X88214285Y-95383390D01*
X88214285Y-95383390D02*
X87642857Y-95954819D01*
X87642857Y-95954819D02*
X88261904Y-95954819D01*
X84607142Y-53859580D02*
X84559523Y-53907200D01*
X84559523Y-53907200D02*
X84416666Y-53954819D01*
X84416666Y-53954819D02*
X84321428Y-53954819D01*
X84321428Y-53954819D02*
X84178571Y-53907200D01*
X84178571Y-53907200D02*
X84083333Y-53811961D01*
X84083333Y-53811961D02*
X84035714Y-53716723D01*
X84035714Y-53716723D02*
X83988095Y-53526247D01*
X83988095Y-53526247D02*
X83988095Y-53383390D01*
X83988095Y-53383390D02*
X84035714Y-53192914D01*
X84035714Y-53192914D02*
X84083333Y-53097676D01*
X84083333Y-53097676D02*
X84178571Y-53002438D01*
X84178571Y-53002438D02*
X84321428Y-52954819D01*
X84321428Y-52954819D02*
X84416666Y-52954819D01*
X84416666Y-52954819D02*
X84559523Y-53002438D01*
X84559523Y-53002438D02*
X84607142Y-53050057D01*
X84988095Y-53050057D02*
X85035714Y-53002438D01*
X85035714Y-53002438D02*
X85130952Y-52954819D01*
X85130952Y-52954819D02*
X85369047Y-52954819D01*
X85369047Y-52954819D02*
X85464285Y-53002438D01*
X85464285Y-53002438D02*
X85511904Y-53050057D01*
X85511904Y-53050057D02*
X85559523Y-53145295D01*
X85559523Y-53145295D02*
X85559523Y-53240533D01*
X85559523Y-53240533D02*
X85511904Y-53383390D01*
X85511904Y-53383390D02*
X84940476Y-53954819D01*
X84940476Y-53954819D02*
X85559523Y-53954819D01*
X86130952Y-53383390D02*
X86035714Y-53335771D01*
X86035714Y-53335771D02*
X85988095Y-53288152D01*
X85988095Y-53288152D02*
X85940476Y-53192914D01*
X85940476Y-53192914D02*
X85940476Y-53145295D01*
X85940476Y-53145295D02*
X85988095Y-53050057D01*
X85988095Y-53050057D02*
X86035714Y-53002438D01*
X86035714Y-53002438D02*
X86130952Y-52954819D01*
X86130952Y-52954819D02*
X86321428Y-52954819D01*
X86321428Y-52954819D02*
X86416666Y-53002438D01*
X86416666Y-53002438D02*
X86464285Y-53050057D01*
X86464285Y-53050057D02*
X86511904Y-53145295D01*
X86511904Y-53145295D02*
X86511904Y-53192914D01*
X86511904Y-53192914D02*
X86464285Y-53288152D01*
X86464285Y-53288152D02*
X86416666Y-53335771D01*
X86416666Y-53335771D02*
X86321428Y-53383390D01*
X86321428Y-53383390D02*
X86130952Y-53383390D01*
X86130952Y-53383390D02*
X86035714Y-53431009D01*
X86035714Y-53431009D02*
X85988095Y-53478628D01*
X85988095Y-53478628D02*
X85940476Y-53573866D01*
X85940476Y-53573866D02*
X85940476Y-53764342D01*
X85940476Y-53764342D02*
X85988095Y-53859580D01*
X85988095Y-53859580D02*
X86035714Y-53907200D01*
X86035714Y-53907200D02*
X86130952Y-53954819D01*
X86130952Y-53954819D02*
X86321428Y-53954819D01*
X86321428Y-53954819D02*
X86416666Y-53907200D01*
X86416666Y-53907200D02*
X86464285Y-53859580D01*
X86464285Y-53859580D02*
X86511904Y-53764342D01*
X86511904Y-53764342D02*
X86511904Y-53573866D01*
X86511904Y-53573866D02*
X86464285Y-53478628D01*
X86464285Y-53478628D02*
X86416666Y-53431009D01*
X86416666Y-53431009D02*
X86321428Y-53383390D01*
X100722319Y-128862293D02*
X100722319Y-129338483D01*
X100722319Y-129338483D02*
X99722319Y-129338483D01*
X100198509Y-128528959D02*
X100198509Y-128195626D01*
X100722319Y-128052769D02*
X100722319Y-128528959D01*
X100722319Y-128528959D02*
X99722319Y-128528959D01*
X99722319Y-128528959D02*
X99722319Y-128052769D01*
X100722319Y-127624197D02*
X99722319Y-127624197D01*
X99722319Y-127624197D02*
X99722319Y-127386102D01*
X99722319Y-127386102D02*
X99769938Y-127243245D01*
X99769938Y-127243245D02*
X99865176Y-127148007D01*
X99865176Y-127148007D02*
X99960414Y-127100388D01*
X99960414Y-127100388D02*
X100150890Y-127052769D01*
X100150890Y-127052769D02*
X100293747Y-127052769D01*
X100293747Y-127052769D02*
X100484223Y-127100388D01*
X100484223Y-127100388D02*
X100579461Y-127148007D01*
X100579461Y-127148007D02*
X100674700Y-127243245D01*
X100674700Y-127243245D02*
X100722319Y-127386102D01*
X100722319Y-127386102D02*
X100722319Y-127624197D01*
X99817557Y-126671816D02*
X99769938Y-126624197D01*
X99769938Y-126624197D02*
X99722319Y-126528959D01*
X99722319Y-126528959D02*
X99722319Y-126290864D01*
X99722319Y-126290864D02*
X99769938Y-126195626D01*
X99769938Y-126195626D02*
X99817557Y-126148007D01*
X99817557Y-126148007D02*
X99912795Y-126100388D01*
X99912795Y-126100388D02*
X100008033Y-126100388D01*
X100008033Y-126100388D02*
X100150890Y-126148007D01*
X100150890Y-126148007D02*
X100722319Y-126719435D01*
X100722319Y-126719435D02*
X100722319Y-126100388D01*
X67769642Y-45524819D02*
X67436309Y-45048628D01*
X67198214Y-45524819D02*
X67198214Y-44524819D01*
X67198214Y-44524819D02*
X67579166Y-44524819D01*
X67579166Y-44524819D02*
X67674404Y-44572438D01*
X67674404Y-44572438D02*
X67722023Y-44620057D01*
X67722023Y-44620057D02*
X67769642Y-44715295D01*
X67769642Y-44715295D02*
X67769642Y-44858152D01*
X67769642Y-44858152D02*
X67722023Y-44953390D01*
X67722023Y-44953390D02*
X67674404Y-45001009D01*
X67674404Y-45001009D02*
X67579166Y-45048628D01*
X67579166Y-45048628D02*
X67198214Y-45048628D01*
X68150595Y-44620057D02*
X68198214Y-44572438D01*
X68198214Y-44572438D02*
X68293452Y-44524819D01*
X68293452Y-44524819D02*
X68531547Y-44524819D01*
X68531547Y-44524819D02*
X68626785Y-44572438D01*
X68626785Y-44572438D02*
X68674404Y-44620057D01*
X68674404Y-44620057D02*
X68722023Y-44715295D01*
X68722023Y-44715295D02*
X68722023Y-44810533D01*
X68722023Y-44810533D02*
X68674404Y-44953390D01*
X68674404Y-44953390D02*
X68102976Y-45524819D01*
X68102976Y-45524819D02*
X68722023Y-45524819D01*
X69055357Y-44524819D02*
X69674404Y-44524819D01*
X69674404Y-44524819D02*
X69341071Y-44905771D01*
X69341071Y-44905771D02*
X69483928Y-44905771D01*
X69483928Y-44905771D02*
X69579166Y-44953390D01*
X69579166Y-44953390D02*
X69626785Y-45001009D01*
X69626785Y-45001009D02*
X69674404Y-45096247D01*
X69674404Y-45096247D02*
X69674404Y-45334342D01*
X69674404Y-45334342D02*
X69626785Y-45429580D01*
X69626785Y-45429580D02*
X69579166Y-45477200D01*
X69579166Y-45477200D02*
X69483928Y-45524819D01*
X69483928Y-45524819D02*
X69198214Y-45524819D01*
X69198214Y-45524819D02*
X69102976Y-45477200D01*
X69102976Y-45477200D02*
X69055357Y-45429580D01*
X86503381Y-85905144D02*
X86027190Y-86238477D01*
X86503381Y-86476572D02*
X85503381Y-86476572D01*
X85503381Y-86476572D02*
X85503381Y-86095620D01*
X85503381Y-86095620D02*
X85551000Y-86000382D01*
X85551000Y-86000382D02*
X85598619Y-85952763D01*
X85598619Y-85952763D02*
X85693857Y-85905144D01*
X85693857Y-85905144D02*
X85836714Y-85905144D01*
X85836714Y-85905144D02*
X85931952Y-85952763D01*
X85931952Y-85952763D02*
X85979571Y-86000382D01*
X85979571Y-86000382D02*
X86027190Y-86095620D01*
X86027190Y-86095620D02*
X86027190Y-86476572D01*
X85836714Y-85048001D02*
X86503381Y-85048001D01*
X85455762Y-85286096D02*
X86170047Y-85524191D01*
X86170047Y-85524191D02*
X86170047Y-84905144D01*
X83857142Y-27954819D02*
X83523809Y-27478628D01*
X83285714Y-27954819D02*
X83285714Y-26954819D01*
X83285714Y-26954819D02*
X83666666Y-26954819D01*
X83666666Y-26954819D02*
X83761904Y-27002438D01*
X83761904Y-27002438D02*
X83809523Y-27050057D01*
X83809523Y-27050057D02*
X83857142Y-27145295D01*
X83857142Y-27145295D02*
X83857142Y-27288152D01*
X83857142Y-27288152D02*
X83809523Y-27383390D01*
X83809523Y-27383390D02*
X83761904Y-27431009D01*
X83761904Y-27431009D02*
X83666666Y-27478628D01*
X83666666Y-27478628D02*
X83285714Y-27478628D01*
X84238095Y-27050057D02*
X84285714Y-27002438D01*
X84285714Y-27002438D02*
X84380952Y-26954819D01*
X84380952Y-26954819D02*
X84619047Y-26954819D01*
X84619047Y-26954819D02*
X84714285Y-27002438D01*
X84714285Y-27002438D02*
X84761904Y-27050057D01*
X84761904Y-27050057D02*
X84809523Y-27145295D01*
X84809523Y-27145295D02*
X84809523Y-27240533D01*
X84809523Y-27240533D02*
X84761904Y-27383390D01*
X84761904Y-27383390D02*
X84190476Y-27954819D01*
X84190476Y-27954819D02*
X84809523Y-27954819D01*
X85761904Y-27954819D02*
X85190476Y-27954819D01*
X85476190Y-27954819D02*
X85476190Y-26954819D01*
X85476190Y-26954819D02*
X85380952Y-27097676D01*
X85380952Y-27097676D02*
X85285714Y-27192914D01*
X85285714Y-27192914D02*
X85190476Y-27240533D01*
X76666666Y-39454819D02*
X76666666Y-40169104D01*
X76666666Y-40169104D02*
X76619047Y-40311961D01*
X76619047Y-40311961D02*
X76523809Y-40407200D01*
X76523809Y-40407200D02*
X76380952Y-40454819D01*
X76380952Y-40454819D02*
X76285714Y-40454819D01*
X77666666Y-40454819D02*
X77095238Y-40454819D01*
X77380952Y-40454819D02*
X77380952Y-39454819D01*
X77380952Y-39454819D02*
X77285714Y-39597676D01*
X77285714Y-39597676D02*
X77190476Y-39692914D01*
X77190476Y-39692914D02*
X77095238Y-39740533D01*
X70488718Y-128662177D02*
X70012527Y-128995510D01*
X70488718Y-129233605D02*
X69488718Y-129233605D01*
X69488718Y-129233605D02*
X69488718Y-128852653D01*
X69488718Y-128852653D02*
X69536337Y-128757415D01*
X69536337Y-128757415D02*
X69583956Y-128709796D01*
X69583956Y-128709796D02*
X69679194Y-128662177D01*
X69679194Y-128662177D02*
X69822051Y-128662177D01*
X69822051Y-128662177D02*
X69917289Y-128709796D01*
X69917289Y-128709796D02*
X69964908Y-128757415D01*
X69964908Y-128757415D02*
X70012527Y-128852653D01*
X70012527Y-128852653D02*
X70012527Y-129233605D01*
X70488718Y-127709796D02*
X70488718Y-128281224D01*
X70488718Y-127995510D02*
X69488718Y-127995510D01*
X69488718Y-127995510D02*
X69631575Y-128090748D01*
X69631575Y-128090748D02*
X69726813Y-128185986D01*
X69726813Y-128185986D02*
X69774432Y-128281224D01*
X69488718Y-126852653D02*
X69488718Y-127043129D01*
X69488718Y-127043129D02*
X69536337Y-127138367D01*
X69536337Y-127138367D02*
X69583956Y-127185986D01*
X69583956Y-127185986D02*
X69726813Y-127281224D01*
X69726813Y-127281224D02*
X69917289Y-127328843D01*
X69917289Y-127328843D02*
X70298241Y-127328843D01*
X70298241Y-127328843D02*
X70393479Y-127281224D01*
X70393479Y-127281224D02*
X70441099Y-127233605D01*
X70441099Y-127233605D02*
X70488718Y-127138367D01*
X70488718Y-127138367D02*
X70488718Y-126947891D01*
X70488718Y-126947891D02*
X70441099Y-126852653D01*
X70441099Y-126852653D02*
X70393479Y-126805034D01*
X70393479Y-126805034D02*
X70298241Y-126757415D01*
X70298241Y-126757415D02*
X70060146Y-126757415D01*
X70060146Y-126757415D02*
X69964908Y-126805034D01*
X69964908Y-126805034D02*
X69917289Y-126852653D01*
X69917289Y-126852653D02*
X69869670Y-126947891D01*
X69869670Y-126947891D02*
X69869670Y-127138367D01*
X69869670Y-127138367D02*
X69917289Y-127233605D01*
X69917289Y-127233605D02*
X69964908Y-127281224D01*
X69964908Y-127281224D02*
X70060146Y-127328843D01*
X86494642Y-49359580D02*
X86447023Y-49407200D01*
X86447023Y-49407200D02*
X86304166Y-49454819D01*
X86304166Y-49454819D02*
X86208928Y-49454819D01*
X86208928Y-49454819D02*
X86066071Y-49407200D01*
X86066071Y-49407200D02*
X85970833Y-49311961D01*
X85970833Y-49311961D02*
X85923214Y-49216723D01*
X85923214Y-49216723D02*
X85875595Y-49026247D01*
X85875595Y-49026247D02*
X85875595Y-48883390D01*
X85875595Y-48883390D02*
X85923214Y-48692914D01*
X85923214Y-48692914D02*
X85970833Y-48597676D01*
X85970833Y-48597676D02*
X86066071Y-48502438D01*
X86066071Y-48502438D02*
X86208928Y-48454819D01*
X86208928Y-48454819D02*
X86304166Y-48454819D01*
X86304166Y-48454819D02*
X86447023Y-48502438D01*
X86447023Y-48502438D02*
X86494642Y-48550057D01*
X86827976Y-48454819D02*
X87447023Y-48454819D01*
X87447023Y-48454819D02*
X87113690Y-48835771D01*
X87113690Y-48835771D02*
X87256547Y-48835771D01*
X87256547Y-48835771D02*
X87351785Y-48883390D01*
X87351785Y-48883390D02*
X87399404Y-48931009D01*
X87399404Y-48931009D02*
X87447023Y-49026247D01*
X87447023Y-49026247D02*
X87447023Y-49264342D01*
X87447023Y-49264342D02*
X87399404Y-49359580D01*
X87399404Y-49359580D02*
X87351785Y-49407200D01*
X87351785Y-49407200D02*
X87256547Y-49454819D01*
X87256547Y-49454819D02*
X86970833Y-49454819D01*
X86970833Y-49454819D02*
X86875595Y-49407200D01*
X86875595Y-49407200D02*
X86827976Y-49359580D01*
X88066071Y-48454819D02*
X88161309Y-48454819D01*
X88161309Y-48454819D02*
X88256547Y-48502438D01*
X88256547Y-48502438D02*
X88304166Y-48550057D01*
X88304166Y-48550057D02*
X88351785Y-48645295D01*
X88351785Y-48645295D02*
X88399404Y-48835771D01*
X88399404Y-48835771D02*
X88399404Y-49073866D01*
X88399404Y-49073866D02*
X88351785Y-49264342D01*
X88351785Y-49264342D02*
X88304166Y-49359580D01*
X88304166Y-49359580D02*
X88256547Y-49407200D01*
X88256547Y-49407200D02*
X88161309Y-49454819D01*
X88161309Y-49454819D02*
X88066071Y-49454819D01*
X88066071Y-49454819D02*
X87970833Y-49407200D01*
X87970833Y-49407200D02*
X87923214Y-49359580D01*
X87923214Y-49359580D02*
X87875595Y-49264342D01*
X87875595Y-49264342D02*
X87827976Y-49073866D01*
X87827976Y-49073866D02*
X87827976Y-48835771D01*
X87827976Y-48835771D02*
X87875595Y-48645295D01*
X87875595Y-48645295D02*
X87923214Y-48550057D01*
X87923214Y-48550057D02*
X87970833Y-48502438D01*
X87970833Y-48502438D02*
X88066071Y-48454819D01*
X85833333Y-77859580D02*
X85785714Y-77907200D01*
X85785714Y-77907200D02*
X85642857Y-77954819D01*
X85642857Y-77954819D02*
X85547619Y-77954819D01*
X85547619Y-77954819D02*
X85404762Y-77907200D01*
X85404762Y-77907200D02*
X85309524Y-77811961D01*
X85309524Y-77811961D02*
X85261905Y-77716723D01*
X85261905Y-77716723D02*
X85214286Y-77526247D01*
X85214286Y-77526247D02*
X85214286Y-77383390D01*
X85214286Y-77383390D02*
X85261905Y-77192914D01*
X85261905Y-77192914D02*
X85309524Y-77097676D01*
X85309524Y-77097676D02*
X85404762Y-77002438D01*
X85404762Y-77002438D02*
X85547619Y-76954819D01*
X85547619Y-76954819D02*
X85642857Y-76954819D01*
X85642857Y-76954819D02*
X85785714Y-77002438D01*
X85785714Y-77002438D02*
X85833333Y-77050057D01*
X86738095Y-76954819D02*
X86261905Y-76954819D01*
X86261905Y-76954819D02*
X86214286Y-77431009D01*
X86214286Y-77431009D02*
X86261905Y-77383390D01*
X86261905Y-77383390D02*
X86357143Y-77335771D01*
X86357143Y-77335771D02*
X86595238Y-77335771D01*
X86595238Y-77335771D02*
X86690476Y-77383390D01*
X86690476Y-77383390D02*
X86738095Y-77431009D01*
X86738095Y-77431009D02*
X86785714Y-77526247D01*
X86785714Y-77526247D02*
X86785714Y-77764342D01*
X86785714Y-77764342D02*
X86738095Y-77859580D01*
X86738095Y-77859580D02*
X86690476Y-77907200D01*
X86690476Y-77907200D02*
X86595238Y-77954819D01*
X86595238Y-77954819D02*
X86357143Y-77954819D01*
X86357143Y-77954819D02*
X86261905Y-77907200D01*
X86261905Y-77907200D02*
X86214286Y-77859580D01*
X73503381Y-84405144D02*
X73027190Y-84738477D01*
X73503381Y-84976572D02*
X72503381Y-84976572D01*
X72503381Y-84976572D02*
X72503381Y-84595620D01*
X72503381Y-84595620D02*
X72551000Y-84500382D01*
X72551000Y-84500382D02*
X72598619Y-84452763D01*
X72598619Y-84452763D02*
X72693857Y-84405144D01*
X72693857Y-84405144D02*
X72836714Y-84405144D01*
X72836714Y-84405144D02*
X72931952Y-84452763D01*
X72931952Y-84452763D02*
X72979571Y-84500382D01*
X72979571Y-84500382D02*
X73027190Y-84595620D01*
X73027190Y-84595620D02*
X73027190Y-84976572D01*
X72598619Y-84024191D02*
X72551000Y-83976572D01*
X72551000Y-83976572D02*
X72503381Y-83881334D01*
X72503381Y-83881334D02*
X72503381Y-83643239D01*
X72503381Y-83643239D02*
X72551000Y-83548001D01*
X72551000Y-83548001D02*
X72598619Y-83500382D01*
X72598619Y-83500382D02*
X72693857Y-83452763D01*
X72693857Y-83452763D02*
X72789095Y-83452763D01*
X72789095Y-83452763D02*
X72931952Y-83500382D01*
X72931952Y-83500382D02*
X73503381Y-84071810D01*
X73503381Y-84071810D02*
X73503381Y-83452763D01*
X92688892Y-76334615D02*
X92688892Y-77048900D01*
X92688892Y-77048900D02*
X92641273Y-77191757D01*
X92641273Y-77191757D02*
X92546035Y-77286996D01*
X92546035Y-77286996D02*
X92403178Y-77334615D01*
X92403178Y-77334615D02*
X92307940Y-77334615D01*
X93165083Y-77334615D02*
X93165083Y-76334615D01*
X93165083Y-76334615D02*
X93546035Y-76334615D01*
X93546035Y-76334615D02*
X93641273Y-76382234D01*
X93641273Y-76382234D02*
X93688892Y-76429853D01*
X93688892Y-76429853D02*
X93736511Y-76525091D01*
X93736511Y-76525091D02*
X93736511Y-76667948D01*
X93736511Y-76667948D02*
X93688892Y-76763186D01*
X93688892Y-76763186D02*
X93641273Y-76810805D01*
X93641273Y-76810805D02*
X93546035Y-76858424D01*
X93546035Y-76858424D02*
X93165083Y-76858424D01*
X94688892Y-77334615D02*
X94117464Y-77334615D01*
X94403178Y-77334615D02*
X94403178Y-76334615D01*
X94403178Y-76334615D02*
X94307940Y-76477472D01*
X94307940Y-76477472D02*
X94212702Y-76572710D01*
X94212702Y-76572710D02*
X94117464Y-76620329D01*
X57358142Y-86151335D02*
X57405762Y-86198954D01*
X57405762Y-86198954D02*
X57453381Y-86341811D01*
X57453381Y-86341811D02*
X57453381Y-86437049D01*
X57453381Y-86437049D02*
X57405762Y-86579906D01*
X57405762Y-86579906D02*
X57310523Y-86675144D01*
X57310523Y-86675144D02*
X57215285Y-86722763D01*
X57215285Y-86722763D02*
X57024809Y-86770382D01*
X57024809Y-86770382D02*
X56881952Y-86770382D01*
X56881952Y-86770382D02*
X56691476Y-86722763D01*
X56691476Y-86722763D02*
X56596238Y-86675144D01*
X56596238Y-86675144D02*
X56501000Y-86579906D01*
X56501000Y-86579906D02*
X56453381Y-86437049D01*
X56453381Y-86437049D02*
X56453381Y-86341811D01*
X56453381Y-86341811D02*
X56501000Y-86198954D01*
X56501000Y-86198954D02*
X56548619Y-86151335D01*
X57453381Y-85198954D02*
X57453381Y-85770382D01*
X57453381Y-85484668D02*
X56453381Y-85484668D01*
X56453381Y-85484668D02*
X56596238Y-85579906D01*
X56596238Y-85579906D02*
X56691476Y-85675144D01*
X56691476Y-85675144D02*
X56739095Y-85770382D01*
X56881952Y-84627525D02*
X56834333Y-84722763D01*
X56834333Y-84722763D02*
X56786714Y-84770382D01*
X56786714Y-84770382D02*
X56691476Y-84818001D01*
X56691476Y-84818001D02*
X56643857Y-84818001D01*
X56643857Y-84818001D02*
X56548619Y-84770382D01*
X56548619Y-84770382D02*
X56501000Y-84722763D01*
X56501000Y-84722763D02*
X56453381Y-84627525D01*
X56453381Y-84627525D02*
X56453381Y-84437049D01*
X56453381Y-84437049D02*
X56501000Y-84341811D01*
X56501000Y-84341811D02*
X56548619Y-84294192D01*
X56548619Y-84294192D02*
X56643857Y-84246573D01*
X56643857Y-84246573D02*
X56691476Y-84246573D01*
X56691476Y-84246573D02*
X56786714Y-84294192D01*
X56786714Y-84294192D02*
X56834333Y-84341811D01*
X56834333Y-84341811D02*
X56881952Y-84437049D01*
X56881952Y-84437049D02*
X56881952Y-84627525D01*
X56881952Y-84627525D02*
X56929571Y-84722763D01*
X56929571Y-84722763D02*
X56977190Y-84770382D01*
X56977190Y-84770382D02*
X57072428Y-84818001D01*
X57072428Y-84818001D02*
X57262904Y-84818001D01*
X57262904Y-84818001D02*
X57358142Y-84770382D01*
X57358142Y-84770382D02*
X57405762Y-84722763D01*
X57405762Y-84722763D02*
X57453381Y-84627525D01*
X57453381Y-84627525D02*
X57453381Y-84437049D01*
X57453381Y-84437049D02*
X57405762Y-84341811D01*
X57405762Y-84341811D02*
X57358142Y-84294192D01*
X57358142Y-84294192D02*
X57262904Y-84246573D01*
X57262904Y-84246573D02*
X57072428Y-84246573D01*
X57072428Y-84246573D02*
X56977190Y-84294192D01*
X56977190Y-84294192D02*
X56929571Y-84341811D01*
X56929571Y-84341811D02*
X56881952Y-84437049D01*
X71790881Y-103658835D02*
X71314690Y-103992168D01*
X71790881Y-104230263D02*
X70790881Y-104230263D01*
X70790881Y-104230263D02*
X70790881Y-103849311D01*
X70790881Y-103849311D02*
X70838500Y-103754073D01*
X70838500Y-103754073D02*
X70886119Y-103706454D01*
X70886119Y-103706454D02*
X70981357Y-103658835D01*
X70981357Y-103658835D02*
X71124214Y-103658835D01*
X71124214Y-103658835D02*
X71219452Y-103706454D01*
X71219452Y-103706454D02*
X71267071Y-103754073D01*
X71267071Y-103754073D02*
X71314690Y-103849311D01*
X71314690Y-103849311D02*
X71314690Y-104230263D01*
X71790881Y-102706454D02*
X71790881Y-103277882D01*
X71790881Y-102992168D02*
X70790881Y-102992168D01*
X70790881Y-102992168D02*
X70933738Y-103087406D01*
X70933738Y-103087406D02*
X71028976Y-103182644D01*
X71028976Y-103182644D02*
X71076595Y-103277882D01*
X70790881Y-102087406D02*
X70790881Y-101992168D01*
X70790881Y-101992168D02*
X70838500Y-101896930D01*
X70838500Y-101896930D02*
X70886119Y-101849311D01*
X70886119Y-101849311D02*
X70981357Y-101801692D01*
X70981357Y-101801692D02*
X71171833Y-101754073D01*
X71171833Y-101754073D02*
X71409928Y-101754073D01*
X71409928Y-101754073D02*
X71600404Y-101801692D01*
X71600404Y-101801692D02*
X71695642Y-101849311D01*
X71695642Y-101849311D02*
X71743262Y-101896930D01*
X71743262Y-101896930D02*
X71790881Y-101992168D01*
X71790881Y-101992168D02*
X71790881Y-102087406D01*
X71790881Y-102087406D02*
X71743262Y-102182644D01*
X71743262Y-102182644D02*
X71695642Y-102230263D01*
X71695642Y-102230263D02*
X71600404Y-102277882D01*
X71600404Y-102277882D02*
X71409928Y-102325501D01*
X71409928Y-102325501D02*
X71171833Y-102325501D01*
X71171833Y-102325501D02*
X70981357Y-102277882D01*
X70981357Y-102277882D02*
X70886119Y-102230263D01*
X70886119Y-102230263D02*
X70838500Y-102182644D01*
X70838500Y-102182644D02*
X70790881Y-102087406D01*
X72193204Y-94525558D02*
X72145585Y-94573178D01*
X72145585Y-94573178D02*
X72002728Y-94620797D01*
X72002728Y-94620797D02*
X71907490Y-94620797D01*
X71907490Y-94620797D02*
X71764633Y-94573178D01*
X71764633Y-94573178D02*
X71669395Y-94477939D01*
X71669395Y-94477939D02*
X71621776Y-94382701D01*
X71621776Y-94382701D02*
X71574157Y-94192225D01*
X71574157Y-94192225D02*
X71574157Y-94049368D01*
X71574157Y-94049368D02*
X71621776Y-93858892D01*
X71621776Y-93858892D02*
X71669395Y-93763654D01*
X71669395Y-93763654D02*
X71764633Y-93668416D01*
X71764633Y-93668416D02*
X71907490Y-93620797D01*
X71907490Y-93620797D02*
X72002728Y-93620797D01*
X72002728Y-93620797D02*
X72145585Y-93668416D01*
X72145585Y-93668416D02*
X72193204Y-93716035D01*
X73145585Y-94620797D02*
X72574157Y-94620797D01*
X72859871Y-94620797D02*
X72859871Y-93620797D01*
X72859871Y-93620797D02*
X72764633Y-93763654D01*
X72764633Y-93763654D02*
X72669395Y-93858892D01*
X72669395Y-93858892D02*
X72574157Y-93906511D01*
X73764633Y-93620797D02*
X73859871Y-93620797D01*
X73859871Y-93620797D02*
X73955109Y-93668416D01*
X73955109Y-93668416D02*
X74002728Y-93716035D01*
X74002728Y-93716035D02*
X74050347Y-93811273D01*
X74050347Y-93811273D02*
X74097966Y-94001749D01*
X74097966Y-94001749D02*
X74097966Y-94239844D01*
X74097966Y-94239844D02*
X74050347Y-94430320D01*
X74050347Y-94430320D02*
X74002728Y-94525558D01*
X74002728Y-94525558D02*
X73955109Y-94573178D01*
X73955109Y-94573178D02*
X73859871Y-94620797D01*
X73859871Y-94620797D02*
X73764633Y-94620797D01*
X73764633Y-94620797D02*
X73669395Y-94573178D01*
X73669395Y-94573178D02*
X73621776Y-94525558D01*
X73621776Y-94525558D02*
X73574157Y-94430320D01*
X73574157Y-94430320D02*
X73526538Y-94239844D01*
X73526538Y-94239844D02*
X73526538Y-94001749D01*
X73526538Y-94001749D02*
X73574157Y-93811273D01*
X73574157Y-93811273D02*
X73621776Y-93716035D01*
X73621776Y-93716035D02*
X73669395Y-93668416D01*
X73669395Y-93668416D02*
X73764633Y-93620797D01*
X87088628Y-112976190D02*
X87564819Y-112976190D01*
X86564819Y-113309523D02*
X87088628Y-112976190D01*
X87088628Y-112976190D02*
X86564819Y-112642857D01*
X86660057Y-112357142D02*
X86612438Y-112309523D01*
X86612438Y-112309523D02*
X86564819Y-112214285D01*
X86564819Y-112214285D02*
X86564819Y-111976190D01*
X86564819Y-111976190D02*
X86612438Y-111880952D01*
X86612438Y-111880952D02*
X86660057Y-111833333D01*
X86660057Y-111833333D02*
X86755295Y-111785714D01*
X86755295Y-111785714D02*
X86850533Y-111785714D01*
X86850533Y-111785714D02*
X86993390Y-111833333D01*
X86993390Y-111833333D02*
X87564819Y-112404761D01*
X87564819Y-112404761D02*
X87564819Y-111785714D01*
X76286657Y-78928297D02*
X76286657Y-79737820D01*
X76286657Y-79737820D02*
X76334276Y-79833058D01*
X76334276Y-79833058D02*
X76381895Y-79880678D01*
X76381895Y-79880678D02*
X76477133Y-79928297D01*
X76477133Y-79928297D02*
X76667609Y-79928297D01*
X76667609Y-79928297D02*
X76762847Y-79880678D01*
X76762847Y-79880678D02*
X76810466Y-79833058D01*
X76810466Y-79833058D02*
X76858085Y-79737820D01*
X76858085Y-79737820D02*
X76858085Y-78928297D01*
X77858085Y-79928297D02*
X77286657Y-79928297D01*
X77572371Y-79928297D02*
X77572371Y-78928297D01*
X77572371Y-78928297D02*
X77477133Y-79071154D01*
X77477133Y-79071154D02*
X77381895Y-79166392D01*
X77381895Y-79166392D02*
X77286657Y-79214011D01*
X73994523Y-53109523D02*
X74642142Y-53109523D01*
X74642142Y-53109523D02*
X74718332Y-53071428D01*
X74718332Y-53071428D02*
X74756428Y-53033333D01*
X74756428Y-53033333D02*
X74794523Y-52957142D01*
X74794523Y-52957142D02*
X74794523Y-52804761D01*
X74794523Y-52804761D02*
X74756428Y-52728571D01*
X74756428Y-52728571D02*
X74718332Y-52690476D01*
X74718332Y-52690476D02*
X74642142Y-52652380D01*
X74642142Y-52652380D02*
X73994523Y-52652380D01*
X73994523Y-51890476D02*
X73994523Y-52271428D01*
X73994523Y-52271428D02*
X74375475Y-52309524D01*
X74375475Y-52309524D02*
X74337380Y-52271428D01*
X74337380Y-52271428D02*
X74299285Y-52195238D01*
X74299285Y-52195238D02*
X74299285Y-52004762D01*
X74299285Y-52004762D02*
X74337380Y-51928571D01*
X74337380Y-51928571D02*
X74375475Y-51890476D01*
X74375475Y-51890476D02*
X74451666Y-51852381D01*
X74451666Y-51852381D02*
X74642142Y-51852381D01*
X74642142Y-51852381D02*
X74718332Y-51890476D01*
X74718332Y-51890476D02*
X74756428Y-51928571D01*
X74756428Y-51928571D02*
X74794523Y-52004762D01*
X74794523Y-52004762D02*
X74794523Y-52195238D01*
X74794523Y-52195238D02*
X74756428Y-52271428D01*
X74756428Y-52271428D02*
X74718332Y-52309524D01*
X58624642Y-123577826D02*
X58577023Y-123625446D01*
X58577023Y-123625446D02*
X58434166Y-123673065D01*
X58434166Y-123673065D02*
X58338928Y-123673065D01*
X58338928Y-123673065D02*
X58196071Y-123625446D01*
X58196071Y-123625446D02*
X58100833Y-123530207D01*
X58100833Y-123530207D02*
X58053214Y-123434969D01*
X58053214Y-123434969D02*
X58005595Y-123244493D01*
X58005595Y-123244493D02*
X58005595Y-123101636D01*
X58005595Y-123101636D02*
X58053214Y-122911160D01*
X58053214Y-122911160D02*
X58100833Y-122815922D01*
X58100833Y-122815922D02*
X58196071Y-122720684D01*
X58196071Y-122720684D02*
X58338928Y-122673065D01*
X58338928Y-122673065D02*
X58434166Y-122673065D01*
X58434166Y-122673065D02*
X58577023Y-122720684D01*
X58577023Y-122720684D02*
X58624642Y-122768303D01*
X59005595Y-122768303D02*
X59053214Y-122720684D01*
X59053214Y-122720684D02*
X59148452Y-122673065D01*
X59148452Y-122673065D02*
X59386547Y-122673065D01*
X59386547Y-122673065D02*
X59481785Y-122720684D01*
X59481785Y-122720684D02*
X59529404Y-122768303D01*
X59529404Y-122768303D02*
X59577023Y-122863541D01*
X59577023Y-122863541D02*
X59577023Y-122958779D01*
X59577023Y-122958779D02*
X59529404Y-123101636D01*
X59529404Y-123101636D02*
X58957976Y-123673065D01*
X58957976Y-123673065D02*
X59577023Y-123673065D01*
X59957976Y-122768303D02*
X60005595Y-122720684D01*
X60005595Y-122720684D02*
X60100833Y-122673065D01*
X60100833Y-122673065D02*
X60338928Y-122673065D01*
X60338928Y-122673065D02*
X60434166Y-122720684D01*
X60434166Y-122720684D02*
X60481785Y-122768303D01*
X60481785Y-122768303D02*
X60529404Y-122863541D01*
X60529404Y-122863541D02*
X60529404Y-122958779D01*
X60529404Y-122958779D02*
X60481785Y-123101636D01*
X60481785Y-123101636D02*
X59910357Y-123673065D01*
X59910357Y-123673065D02*
X60529404Y-123673065D01*
X92714218Y-94464219D02*
X92714218Y-95178504D01*
X92714218Y-95178504D02*
X92666599Y-95321361D01*
X92666599Y-95321361D02*
X92571361Y-95416600D01*
X92571361Y-95416600D02*
X92428504Y-95464219D01*
X92428504Y-95464219D02*
X92333266Y-95464219D01*
X93190409Y-95464219D02*
X93190409Y-94464219D01*
X93190409Y-94464219D02*
X93571361Y-94464219D01*
X93571361Y-94464219D02*
X93666599Y-94511838D01*
X93666599Y-94511838D02*
X93714218Y-94559457D01*
X93714218Y-94559457D02*
X93761837Y-94654695D01*
X93761837Y-94654695D02*
X93761837Y-94797552D01*
X93761837Y-94797552D02*
X93714218Y-94892790D01*
X93714218Y-94892790D02*
X93666599Y-94940409D01*
X93666599Y-94940409D02*
X93571361Y-94988028D01*
X93571361Y-94988028D02*
X93190409Y-94988028D01*
X94142790Y-94559457D02*
X94190409Y-94511838D01*
X94190409Y-94511838D02*
X94285647Y-94464219D01*
X94285647Y-94464219D02*
X94523742Y-94464219D01*
X94523742Y-94464219D02*
X94618980Y-94511838D01*
X94618980Y-94511838D02*
X94666599Y-94559457D01*
X94666599Y-94559457D02*
X94714218Y-94654695D01*
X94714218Y-94654695D02*
X94714218Y-94749933D01*
X94714218Y-94749933D02*
X94666599Y-94892790D01*
X94666599Y-94892790D02*
X94095171Y-95464219D01*
X94095171Y-95464219D02*
X94714218Y-95464219D01*
X74908142Y-84405144D02*
X74955762Y-84452763D01*
X74955762Y-84452763D02*
X75003381Y-84595620D01*
X75003381Y-84595620D02*
X75003381Y-84690858D01*
X75003381Y-84690858D02*
X74955762Y-84833715D01*
X74955762Y-84833715D02*
X74860523Y-84928953D01*
X74860523Y-84928953D02*
X74765285Y-84976572D01*
X74765285Y-84976572D02*
X74574809Y-85024191D01*
X74574809Y-85024191D02*
X74431952Y-85024191D01*
X74431952Y-85024191D02*
X74241476Y-84976572D01*
X74241476Y-84976572D02*
X74146238Y-84928953D01*
X74146238Y-84928953D02*
X74051000Y-84833715D01*
X74051000Y-84833715D02*
X74003381Y-84690858D01*
X74003381Y-84690858D02*
X74003381Y-84595620D01*
X74003381Y-84595620D02*
X74051000Y-84452763D01*
X74051000Y-84452763D02*
X74098619Y-84405144D01*
X74336714Y-83548001D02*
X75003381Y-83548001D01*
X73955762Y-83786096D02*
X74670047Y-84024191D01*
X74670047Y-84024191D02*
X74670047Y-83405144D01*
X85454819Y-32142857D02*
X84978628Y-32476190D01*
X85454819Y-32714285D02*
X84454819Y-32714285D01*
X84454819Y-32714285D02*
X84454819Y-32333333D01*
X84454819Y-32333333D02*
X84502438Y-32238095D01*
X84502438Y-32238095D02*
X84550057Y-32190476D01*
X84550057Y-32190476D02*
X84645295Y-32142857D01*
X84645295Y-32142857D02*
X84788152Y-32142857D01*
X84788152Y-32142857D02*
X84883390Y-32190476D01*
X84883390Y-32190476D02*
X84931009Y-32238095D01*
X84931009Y-32238095D02*
X84978628Y-32333333D01*
X84978628Y-32333333D02*
X84978628Y-32714285D01*
X84550057Y-31761904D02*
X84502438Y-31714285D01*
X84502438Y-31714285D02*
X84454819Y-31619047D01*
X84454819Y-31619047D02*
X84454819Y-31380952D01*
X84454819Y-31380952D02*
X84502438Y-31285714D01*
X84502438Y-31285714D02*
X84550057Y-31238095D01*
X84550057Y-31238095D02*
X84645295Y-31190476D01*
X84645295Y-31190476D02*
X84740533Y-31190476D01*
X84740533Y-31190476D02*
X84883390Y-31238095D01*
X84883390Y-31238095D02*
X85454819Y-31809523D01*
X85454819Y-31809523D02*
X85454819Y-31190476D01*
X84454819Y-30333333D02*
X84454819Y-30523809D01*
X84454819Y-30523809D02*
X84502438Y-30619047D01*
X84502438Y-30619047D02*
X84550057Y-30666666D01*
X84550057Y-30666666D02*
X84692914Y-30761904D01*
X84692914Y-30761904D02*
X84883390Y-30809523D01*
X84883390Y-30809523D02*
X85264342Y-30809523D01*
X85264342Y-30809523D02*
X85359580Y-30761904D01*
X85359580Y-30761904D02*
X85407200Y-30714285D01*
X85407200Y-30714285D02*
X85454819Y-30619047D01*
X85454819Y-30619047D02*
X85454819Y-30428571D01*
X85454819Y-30428571D02*
X85407200Y-30333333D01*
X85407200Y-30333333D02*
X85359580Y-30285714D01*
X85359580Y-30285714D02*
X85264342Y-30238095D01*
X85264342Y-30238095D02*
X85026247Y-30238095D01*
X85026247Y-30238095D02*
X84931009Y-30285714D01*
X84931009Y-30285714D02*
X84883390Y-30333333D01*
X84883390Y-30333333D02*
X84835771Y-30428571D01*
X84835771Y-30428571D02*
X84835771Y-30619047D01*
X84835771Y-30619047D02*
X84883390Y-30714285D01*
X84883390Y-30714285D02*
X84931009Y-30761904D01*
X84931009Y-30761904D02*
X85026247Y-30809523D01*
X105222319Y-128386103D02*
X104746128Y-128719436D01*
X105222319Y-128957531D02*
X104222319Y-128957531D01*
X104222319Y-128957531D02*
X104222319Y-128576579D01*
X104222319Y-128576579D02*
X104269938Y-128481341D01*
X104269938Y-128481341D02*
X104317557Y-128433722D01*
X104317557Y-128433722D02*
X104412795Y-128386103D01*
X104412795Y-128386103D02*
X104555652Y-128386103D01*
X104555652Y-128386103D02*
X104650890Y-128433722D01*
X104650890Y-128433722D02*
X104698509Y-128481341D01*
X104698509Y-128481341D02*
X104746128Y-128576579D01*
X104746128Y-128576579D02*
X104746128Y-128957531D01*
X105222319Y-127433722D02*
X105222319Y-128005150D01*
X105222319Y-127719436D02*
X104222319Y-127719436D01*
X104222319Y-127719436D02*
X104365176Y-127814674D01*
X104365176Y-127814674D02*
X104460414Y-127909912D01*
X104460414Y-127909912D02*
X104508033Y-128005150D01*
X104650890Y-126862293D02*
X104603271Y-126957531D01*
X104603271Y-126957531D02*
X104555652Y-127005150D01*
X104555652Y-127005150D02*
X104460414Y-127052769D01*
X104460414Y-127052769D02*
X104412795Y-127052769D01*
X104412795Y-127052769D02*
X104317557Y-127005150D01*
X104317557Y-127005150D02*
X104269938Y-126957531D01*
X104269938Y-126957531D02*
X104222319Y-126862293D01*
X104222319Y-126862293D02*
X104222319Y-126671817D01*
X104222319Y-126671817D02*
X104269938Y-126576579D01*
X104269938Y-126576579D02*
X104317557Y-126528960D01*
X104317557Y-126528960D02*
X104412795Y-126481341D01*
X104412795Y-126481341D02*
X104460414Y-126481341D01*
X104460414Y-126481341D02*
X104555652Y-126528960D01*
X104555652Y-126528960D02*
X104603271Y-126576579D01*
X104603271Y-126576579D02*
X104650890Y-126671817D01*
X104650890Y-126671817D02*
X104650890Y-126862293D01*
X104650890Y-126862293D02*
X104698509Y-126957531D01*
X104698509Y-126957531D02*
X104746128Y-127005150D01*
X104746128Y-127005150D02*
X104841366Y-127052769D01*
X104841366Y-127052769D02*
X105031842Y-127052769D01*
X105031842Y-127052769D02*
X105127080Y-127005150D01*
X105127080Y-127005150D02*
X105174700Y-126957531D01*
X105174700Y-126957531D02*
X105222319Y-126862293D01*
X105222319Y-126862293D02*
X105222319Y-126671817D01*
X105222319Y-126671817D02*
X105174700Y-126576579D01*
X105174700Y-126576579D02*
X105127080Y-126528960D01*
X105127080Y-126528960D02*
X105031842Y-126481341D01*
X105031842Y-126481341D02*
X104841366Y-126481341D01*
X104841366Y-126481341D02*
X104746128Y-126528960D01*
X104746128Y-126528960D02*
X104698509Y-126576579D01*
X104698509Y-126576579D02*
X104650890Y-126671817D01*
X67769642Y-49954819D02*
X67436309Y-49478628D01*
X67198214Y-49954819D02*
X67198214Y-48954819D01*
X67198214Y-48954819D02*
X67579166Y-48954819D01*
X67579166Y-48954819D02*
X67674404Y-49002438D01*
X67674404Y-49002438D02*
X67722023Y-49050057D01*
X67722023Y-49050057D02*
X67769642Y-49145295D01*
X67769642Y-49145295D02*
X67769642Y-49288152D01*
X67769642Y-49288152D02*
X67722023Y-49383390D01*
X67722023Y-49383390D02*
X67674404Y-49431009D01*
X67674404Y-49431009D02*
X67579166Y-49478628D01*
X67579166Y-49478628D02*
X67198214Y-49478628D01*
X68150595Y-49050057D02*
X68198214Y-49002438D01*
X68198214Y-49002438D02*
X68293452Y-48954819D01*
X68293452Y-48954819D02*
X68531547Y-48954819D01*
X68531547Y-48954819D02*
X68626785Y-49002438D01*
X68626785Y-49002438D02*
X68674404Y-49050057D01*
X68674404Y-49050057D02*
X68722023Y-49145295D01*
X68722023Y-49145295D02*
X68722023Y-49240533D01*
X68722023Y-49240533D02*
X68674404Y-49383390D01*
X68674404Y-49383390D02*
X68102976Y-49954819D01*
X68102976Y-49954819D02*
X68722023Y-49954819D01*
X69579166Y-49288152D02*
X69579166Y-49954819D01*
X69341071Y-48907200D02*
X69102976Y-49621485D01*
X69102976Y-49621485D02*
X69722023Y-49621485D01*
X68994642Y-38859580D02*
X68947023Y-38907200D01*
X68947023Y-38907200D02*
X68804166Y-38954819D01*
X68804166Y-38954819D02*
X68708928Y-38954819D01*
X68708928Y-38954819D02*
X68566071Y-38907200D01*
X68566071Y-38907200D02*
X68470833Y-38811961D01*
X68470833Y-38811961D02*
X68423214Y-38716723D01*
X68423214Y-38716723D02*
X68375595Y-38526247D01*
X68375595Y-38526247D02*
X68375595Y-38383390D01*
X68375595Y-38383390D02*
X68423214Y-38192914D01*
X68423214Y-38192914D02*
X68470833Y-38097676D01*
X68470833Y-38097676D02*
X68566071Y-38002438D01*
X68566071Y-38002438D02*
X68708928Y-37954819D01*
X68708928Y-37954819D02*
X68804166Y-37954819D01*
X68804166Y-37954819D02*
X68947023Y-38002438D01*
X68947023Y-38002438D02*
X68994642Y-38050057D01*
X69375595Y-38050057D02*
X69423214Y-38002438D01*
X69423214Y-38002438D02*
X69518452Y-37954819D01*
X69518452Y-37954819D02*
X69756547Y-37954819D01*
X69756547Y-37954819D02*
X69851785Y-38002438D01*
X69851785Y-38002438D02*
X69899404Y-38050057D01*
X69899404Y-38050057D02*
X69947023Y-38145295D01*
X69947023Y-38145295D02*
X69947023Y-38240533D01*
X69947023Y-38240533D02*
X69899404Y-38383390D01*
X69899404Y-38383390D02*
X69327976Y-38954819D01*
X69327976Y-38954819D02*
X69947023Y-38954819D01*
X70851785Y-37954819D02*
X70375595Y-37954819D01*
X70375595Y-37954819D02*
X70327976Y-38431009D01*
X70327976Y-38431009D02*
X70375595Y-38383390D01*
X70375595Y-38383390D02*
X70470833Y-38335771D01*
X70470833Y-38335771D02*
X70708928Y-38335771D01*
X70708928Y-38335771D02*
X70804166Y-38383390D01*
X70804166Y-38383390D02*
X70851785Y-38431009D01*
X70851785Y-38431009D02*
X70899404Y-38526247D01*
X70899404Y-38526247D02*
X70899404Y-38764342D01*
X70899404Y-38764342D02*
X70851785Y-38859580D01*
X70851785Y-38859580D02*
X70804166Y-38907200D01*
X70804166Y-38907200D02*
X70708928Y-38954819D01*
X70708928Y-38954819D02*
X70470833Y-38954819D01*
X70470833Y-38954819D02*
X70375595Y-38907200D01*
X70375595Y-38907200D02*
X70327976Y-38859580D01*
X86444642Y-52454819D02*
X86111309Y-51978628D01*
X85873214Y-52454819D02*
X85873214Y-51454819D01*
X85873214Y-51454819D02*
X86254166Y-51454819D01*
X86254166Y-51454819D02*
X86349404Y-51502438D01*
X86349404Y-51502438D02*
X86397023Y-51550057D01*
X86397023Y-51550057D02*
X86444642Y-51645295D01*
X86444642Y-51645295D02*
X86444642Y-51788152D01*
X86444642Y-51788152D02*
X86397023Y-51883390D01*
X86397023Y-51883390D02*
X86349404Y-51931009D01*
X86349404Y-51931009D02*
X86254166Y-51978628D01*
X86254166Y-51978628D02*
X85873214Y-51978628D01*
X86777976Y-51454819D02*
X87397023Y-51454819D01*
X87397023Y-51454819D02*
X87063690Y-51835771D01*
X87063690Y-51835771D02*
X87206547Y-51835771D01*
X87206547Y-51835771D02*
X87301785Y-51883390D01*
X87301785Y-51883390D02*
X87349404Y-51931009D01*
X87349404Y-51931009D02*
X87397023Y-52026247D01*
X87397023Y-52026247D02*
X87397023Y-52264342D01*
X87397023Y-52264342D02*
X87349404Y-52359580D01*
X87349404Y-52359580D02*
X87301785Y-52407200D01*
X87301785Y-52407200D02*
X87206547Y-52454819D01*
X87206547Y-52454819D02*
X86920833Y-52454819D01*
X86920833Y-52454819D02*
X86825595Y-52407200D01*
X86825595Y-52407200D02*
X86777976Y-52359580D01*
X88016071Y-51454819D02*
X88111309Y-51454819D01*
X88111309Y-51454819D02*
X88206547Y-51502438D01*
X88206547Y-51502438D02*
X88254166Y-51550057D01*
X88254166Y-51550057D02*
X88301785Y-51645295D01*
X88301785Y-51645295D02*
X88349404Y-51835771D01*
X88349404Y-51835771D02*
X88349404Y-52073866D01*
X88349404Y-52073866D02*
X88301785Y-52264342D01*
X88301785Y-52264342D02*
X88254166Y-52359580D01*
X88254166Y-52359580D02*
X88206547Y-52407200D01*
X88206547Y-52407200D02*
X88111309Y-52454819D01*
X88111309Y-52454819D02*
X88016071Y-52454819D01*
X88016071Y-52454819D02*
X87920833Y-52407200D01*
X87920833Y-52407200D02*
X87873214Y-52359580D01*
X87873214Y-52359580D02*
X87825595Y-52264342D01*
X87825595Y-52264342D02*
X87777976Y-52073866D01*
X87777976Y-52073866D02*
X87777976Y-51835771D01*
X87777976Y-51835771D02*
X87825595Y-51645295D01*
X87825595Y-51645295D02*
X87873214Y-51550057D01*
X87873214Y-51550057D02*
X87920833Y-51502438D01*
X87920833Y-51502438D02*
X88016071Y-51454819D01*
X68857142Y-26024819D02*
X68523809Y-25548628D01*
X68285714Y-26024819D02*
X68285714Y-25024819D01*
X68285714Y-25024819D02*
X68666666Y-25024819D01*
X68666666Y-25024819D02*
X68761904Y-25072438D01*
X68761904Y-25072438D02*
X68809523Y-25120057D01*
X68809523Y-25120057D02*
X68857142Y-25215295D01*
X68857142Y-25215295D02*
X68857142Y-25358152D01*
X68857142Y-25358152D02*
X68809523Y-25453390D01*
X68809523Y-25453390D02*
X68761904Y-25501009D01*
X68761904Y-25501009D02*
X68666666Y-25548628D01*
X68666666Y-25548628D02*
X68285714Y-25548628D01*
X69238095Y-25120057D02*
X69285714Y-25072438D01*
X69285714Y-25072438D02*
X69380952Y-25024819D01*
X69380952Y-25024819D02*
X69619047Y-25024819D01*
X69619047Y-25024819D02*
X69714285Y-25072438D01*
X69714285Y-25072438D02*
X69761904Y-25120057D01*
X69761904Y-25120057D02*
X69809523Y-25215295D01*
X69809523Y-25215295D02*
X69809523Y-25310533D01*
X69809523Y-25310533D02*
X69761904Y-25453390D01*
X69761904Y-25453390D02*
X69190476Y-26024819D01*
X69190476Y-26024819D02*
X69809523Y-26024819D01*
X70190476Y-25120057D02*
X70238095Y-25072438D01*
X70238095Y-25072438D02*
X70333333Y-25024819D01*
X70333333Y-25024819D02*
X70571428Y-25024819D01*
X70571428Y-25024819D02*
X70666666Y-25072438D01*
X70666666Y-25072438D02*
X70714285Y-25120057D01*
X70714285Y-25120057D02*
X70761904Y-25215295D01*
X70761904Y-25215295D02*
X70761904Y-25310533D01*
X70761904Y-25310533D02*
X70714285Y-25453390D01*
X70714285Y-25453390D02*
X70142857Y-26024819D01*
X70142857Y-26024819D02*
X70761904Y-26024819D01*
X80735628Y-78098058D02*
X80688009Y-78145678D01*
X80688009Y-78145678D02*
X80545152Y-78193297D01*
X80545152Y-78193297D02*
X80449914Y-78193297D01*
X80449914Y-78193297D02*
X80307057Y-78145678D01*
X80307057Y-78145678D02*
X80211819Y-78050439D01*
X80211819Y-78050439D02*
X80164200Y-77955201D01*
X80164200Y-77955201D02*
X80116581Y-77764725D01*
X80116581Y-77764725D02*
X80116581Y-77621868D01*
X80116581Y-77621868D02*
X80164200Y-77431392D01*
X80164200Y-77431392D02*
X80211819Y-77336154D01*
X80211819Y-77336154D02*
X80307057Y-77240916D01*
X80307057Y-77240916D02*
X80449914Y-77193297D01*
X80449914Y-77193297D02*
X80545152Y-77193297D01*
X80545152Y-77193297D02*
X80688009Y-77240916D01*
X80688009Y-77240916D02*
X80735628Y-77288535D01*
X81688009Y-78193297D02*
X81116581Y-78193297D01*
X81402295Y-78193297D02*
X81402295Y-77193297D01*
X81402295Y-77193297D02*
X81307057Y-77336154D01*
X81307057Y-77336154D02*
X81211819Y-77431392D01*
X81211819Y-77431392D02*
X81116581Y-77479011D01*
X86444642Y-50954819D02*
X86111309Y-50478628D01*
X85873214Y-50954819D02*
X85873214Y-49954819D01*
X85873214Y-49954819D02*
X86254166Y-49954819D01*
X86254166Y-49954819D02*
X86349404Y-50002438D01*
X86349404Y-50002438D02*
X86397023Y-50050057D01*
X86397023Y-50050057D02*
X86444642Y-50145295D01*
X86444642Y-50145295D02*
X86444642Y-50288152D01*
X86444642Y-50288152D02*
X86397023Y-50383390D01*
X86397023Y-50383390D02*
X86349404Y-50431009D01*
X86349404Y-50431009D02*
X86254166Y-50478628D01*
X86254166Y-50478628D02*
X85873214Y-50478628D01*
X86777976Y-49954819D02*
X87397023Y-49954819D01*
X87397023Y-49954819D02*
X87063690Y-50335771D01*
X87063690Y-50335771D02*
X87206547Y-50335771D01*
X87206547Y-50335771D02*
X87301785Y-50383390D01*
X87301785Y-50383390D02*
X87349404Y-50431009D01*
X87349404Y-50431009D02*
X87397023Y-50526247D01*
X87397023Y-50526247D02*
X87397023Y-50764342D01*
X87397023Y-50764342D02*
X87349404Y-50859580D01*
X87349404Y-50859580D02*
X87301785Y-50907200D01*
X87301785Y-50907200D02*
X87206547Y-50954819D01*
X87206547Y-50954819D02*
X86920833Y-50954819D01*
X86920833Y-50954819D02*
X86825595Y-50907200D01*
X86825595Y-50907200D02*
X86777976Y-50859580D01*
X88254166Y-50288152D02*
X88254166Y-50954819D01*
X88016071Y-49907200D02*
X87777976Y-50621485D01*
X87777976Y-50621485D02*
X88397023Y-50621485D01*
X80435197Y-118577541D02*
X80387578Y-118625161D01*
X80387578Y-118625161D02*
X80244721Y-118672780D01*
X80244721Y-118672780D02*
X80149483Y-118672780D01*
X80149483Y-118672780D02*
X80006626Y-118625161D01*
X80006626Y-118625161D02*
X79911388Y-118529922D01*
X79911388Y-118529922D02*
X79863769Y-118434684D01*
X79863769Y-118434684D02*
X79816150Y-118244208D01*
X79816150Y-118244208D02*
X79816150Y-118101351D01*
X79816150Y-118101351D02*
X79863769Y-117910875D01*
X79863769Y-117910875D02*
X79911388Y-117815637D01*
X79911388Y-117815637D02*
X80006626Y-117720399D01*
X80006626Y-117720399D02*
X80149483Y-117672780D01*
X80149483Y-117672780D02*
X80244721Y-117672780D01*
X80244721Y-117672780D02*
X80387578Y-117720399D01*
X80387578Y-117720399D02*
X80435197Y-117768018D01*
X81387578Y-118672780D02*
X80816150Y-118672780D01*
X81101864Y-118672780D02*
X81101864Y-117672780D01*
X81101864Y-117672780D02*
X81006626Y-117815637D01*
X81006626Y-117815637D02*
X80911388Y-117910875D01*
X80911388Y-117910875D02*
X80816150Y-117958494D01*
X82244721Y-117672780D02*
X82054245Y-117672780D01*
X82054245Y-117672780D02*
X81959007Y-117720399D01*
X81959007Y-117720399D02*
X81911388Y-117768018D01*
X81911388Y-117768018D02*
X81816150Y-117910875D01*
X81816150Y-117910875D02*
X81768531Y-118101351D01*
X81768531Y-118101351D02*
X81768531Y-118482303D01*
X81768531Y-118482303D02*
X81816150Y-118577541D01*
X81816150Y-118577541D02*
X81863769Y-118625161D01*
X81863769Y-118625161D02*
X81959007Y-118672780D01*
X81959007Y-118672780D02*
X82149483Y-118672780D01*
X82149483Y-118672780D02*
X82244721Y-118625161D01*
X82244721Y-118625161D02*
X82292340Y-118577541D01*
X82292340Y-118577541D02*
X82339959Y-118482303D01*
X82339959Y-118482303D02*
X82339959Y-118244208D01*
X82339959Y-118244208D02*
X82292340Y-118148970D01*
X82292340Y-118148970D02*
X82244721Y-118101351D01*
X82244721Y-118101351D02*
X82149483Y-118053732D01*
X82149483Y-118053732D02*
X81959007Y-118053732D01*
X81959007Y-118053732D02*
X81863769Y-118101351D01*
X81863769Y-118101351D02*
X81816150Y-118148970D01*
X81816150Y-118148970D02*
X81768531Y-118244208D01*
X65881895Y-84693297D02*
X65548562Y-84217106D01*
X65310467Y-84693297D02*
X65310467Y-83693297D01*
X65310467Y-83693297D02*
X65691419Y-83693297D01*
X65691419Y-83693297D02*
X65786657Y-83740916D01*
X65786657Y-83740916D02*
X65834276Y-83788535D01*
X65834276Y-83788535D02*
X65881895Y-83883773D01*
X65881895Y-83883773D02*
X65881895Y-84026630D01*
X65881895Y-84026630D02*
X65834276Y-84121868D01*
X65834276Y-84121868D02*
X65786657Y-84169487D01*
X65786657Y-84169487D02*
X65691419Y-84217106D01*
X65691419Y-84217106D02*
X65310467Y-84217106D01*
X66834276Y-84693297D02*
X66262848Y-84693297D01*
X66548562Y-84693297D02*
X66548562Y-83693297D01*
X66548562Y-83693297D02*
X66453324Y-83836154D01*
X66453324Y-83836154D02*
X66358086Y-83931392D01*
X66358086Y-83931392D02*
X66262848Y-83979011D01*
X83229819Y-43642857D02*
X82753628Y-43976190D01*
X83229819Y-44214285D02*
X82229819Y-44214285D01*
X82229819Y-44214285D02*
X82229819Y-43833333D01*
X82229819Y-43833333D02*
X82277438Y-43738095D01*
X82277438Y-43738095D02*
X82325057Y-43690476D01*
X82325057Y-43690476D02*
X82420295Y-43642857D01*
X82420295Y-43642857D02*
X82563152Y-43642857D01*
X82563152Y-43642857D02*
X82658390Y-43690476D01*
X82658390Y-43690476D02*
X82706009Y-43738095D01*
X82706009Y-43738095D02*
X82753628Y-43833333D01*
X82753628Y-43833333D02*
X82753628Y-44214285D01*
X82229819Y-43309523D02*
X82229819Y-42690476D01*
X82229819Y-42690476D02*
X82610771Y-43023809D01*
X82610771Y-43023809D02*
X82610771Y-42880952D01*
X82610771Y-42880952D02*
X82658390Y-42785714D01*
X82658390Y-42785714D02*
X82706009Y-42738095D01*
X82706009Y-42738095D02*
X82801247Y-42690476D01*
X82801247Y-42690476D02*
X83039342Y-42690476D01*
X83039342Y-42690476D02*
X83134580Y-42738095D01*
X83134580Y-42738095D02*
X83182200Y-42785714D01*
X83182200Y-42785714D02*
X83229819Y-42880952D01*
X83229819Y-42880952D02*
X83229819Y-43166666D01*
X83229819Y-43166666D02*
X83182200Y-43261904D01*
X83182200Y-43261904D02*
X83134580Y-43309523D01*
X82229819Y-42357142D02*
X82229819Y-41738095D01*
X82229819Y-41738095D02*
X82610771Y-42071428D01*
X82610771Y-42071428D02*
X82610771Y-41928571D01*
X82610771Y-41928571D02*
X82658390Y-41833333D01*
X82658390Y-41833333D02*
X82706009Y-41785714D01*
X82706009Y-41785714D02*
X82801247Y-41738095D01*
X82801247Y-41738095D02*
X83039342Y-41738095D01*
X83039342Y-41738095D02*
X83134580Y-41785714D01*
X83134580Y-41785714D02*
X83182200Y-41833333D01*
X83182200Y-41833333D02*
X83229819Y-41928571D01*
X83229819Y-41928571D02*
X83229819Y-42214285D01*
X83229819Y-42214285D02*
X83182200Y-42309523D01*
X83182200Y-42309523D02*
X83134580Y-42357142D01*
X58624642Y-113577826D02*
X58577023Y-113625446D01*
X58577023Y-113625446D02*
X58434166Y-113673065D01*
X58434166Y-113673065D02*
X58338928Y-113673065D01*
X58338928Y-113673065D02*
X58196071Y-113625446D01*
X58196071Y-113625446D02*
X58100833Y-113530207D01*
X58100833Y-113530207D02*
X58053214Y-113434969D01*
X58053214Y-113434969D02*
X58005595Y-113244493D01*
X58005595Y-113244493D02*
X58005595Y-113101636D01*
X58005595Y-113101636D02*
X58053214Y-112911160D01*
X58053214Y-112911160D02*
X58100833Y-112815922D01*
X58100833Y-112815922D02*
X58196071Y-112720684D01*
X58196071Y-112720684D02*
X58338928Y-112673065D01*
X58338928Y-112673065D02*
X58434166Y-112673065D01*
X58434166Y-112673065D02*
X58577023Y-112720684D01*
X58577023Y-112720684D02*
X58624642Y-112768303D01*
X59005595Y-112768303D02*
X59053214Y-112720684D01*
X59053214Y-112720684D02*
X59148452Y-112673065D01*
X59148452Y-112673065D02*
X59386547Y-112673065D01*
X59386547Y-112673065D02*
X59481785Y-112720684D01*
X59481785Y-112720684D02*
X59529404Y-112768303D01*
X59529404Y-112768303D02*
X59577023Y-112863541D01*
X59577023Y-112863541D02*
X59577023Y-112958779D01*
X59577023Y-112958779D02*
X59529404Y-113101636D01*
X59529404Y-113101636D02*
X58957976Y-113673065D01*
X58957976Y-113673065D02*
X59577023Y-113673065D01*
X60196071Y-112673065D02*
X60291309Y-112673065D01*
X60291309Y-112673065D02*
X60386547Y-112720684D01*
X60386547Y-112720684D02*
X60434166Y-112768303D01*
X60434166Y-112768303D02*
X60481785Y-112863541D01*
X60481785Y-112863541D02*
X60529404Y-113054017D01*
X60529404Y-113054017D02*
X60529404Y-113292112D01*
X60529404Y-113292112D02*
X60481785Y-113482588D01*
X60481785Y-113482588D02*
X60434166Y-113577826D01*
X60434166Y-113577826D02*
X60386547Y-113625446D01*
X60386547Y-113625446D02*
X60291309Y-113673065D01*
X60291309Y-113673065D02*
X60196071Y-113673065D01*
X60196071Y-113673065D02*
X60100833Y-113625446D01*
X60100833Y-113625446D02*
X60053214Y-113577826D01*
X60053214Y-113577826D02*
X60005595Y-113482588D01*
X60005595Y-113482588D02*
X59957976Y-113292112D01*
X59957976Y-113292112D02*
X59957976Y-113054017D01*
X59957976Y-113054017D02*
X60005595Y-112863541D01*
X60005595Y-112863541D02*
X60053214Y-112768303D01*
X60053214Y-112768303D02*
X60100833Y-112720684D01*
X60100833Y-112720684D02*
X60196071Y-112673065D01*
X49538095Y-133854819D02*
X50109523Y-133854819D01*
X49823809Y-134854819D02*
X49823809Y-133854819D01*
X50442857Y-134854819D02*
X50442857Y-133854819D01*
X50442857Y-133854819D02*
X50823809Y-133854819D01*
X50823809Y-133854819D02*
X50919047Y-133902438D01*
X50919047Y-133902438D02*
X50966666Y-133950057D01*
X50966666Y-133950057D02*
X51014285Y-134045295D01*
X51014285Y-134045295D02*
X51014285Y-134188152D01*
X51014285Y-134188152D02*
X50966666Y-134283390D01*
X50966666Y-134283390D02*
X50919047Y-134331009D01*
X50919047Y-134331009D02*
X50823809Y-134378628D01*
X50823809Y-134378628D02*
X50442857Y-134378628D01*
X51347619Y-133854819D02*
X52014285Y-133854819D01*
X52014285Y-133854819D02*
X51585714Y-134854819D01*
X84885916Y-104914039D02*
X84933536Y-104961658D01*
X84933536Y-104961658D02*
X84981155Y-105104515D01*
X84981155Y-105104515D02*
X84981155Y-105199753D01*
X84981155Y-105199753D02*
X84933536Y-105342610D01*
X84933536Y-105342610D02*
X84838297Y-105437848D01*
X84838297Y-105437848D02*
X84743059Y-105485467D01*
X84743059Y-105485467D02*
X84552583Y-105533086D01*
X84552583Y-105533086D02*
X84409726Y-105533086D01*
X84409726Y-105533086D02*
X84219250Y-105485467D01*
X84219250Y-105485467D02*
X84124012Y-105437848D01*
X84124012Y-105437848D02*
X84028774Y-105342610D01*
X84028774Y-105342610D02*
X83981155Y-105199753D01*
X83981155Y-105199753D02*
X83981155Y-105104515D01*
X83981155Y-105104515D02*
X84028774Y-104961658D01*
X84028774Y-104961658D02*
X84076393Y-104914039D01*
X84981155Y-103961658D02*
X84981155Y-104533086D01*
X84981155Y-104247372D02*
X83981155Y-104247372D01*
X83981155Y-104247372D02*
X84124012Y-104342610D01*
X84124012Y-104342610D02*
X84219250Y-104437848D01*
X84219250Y-104437848D02*
X84266869Y-104533086D01*
X83981155Y-103628324D02*
X83981155Y-103009277D01*
X83981155Y-103009277D02*
X84362107Y-103342610D01*
X84362107Y-103342610D02*
X84362107Y-103199753D01*
X84362107Y-103199753D02*
X84409726Y-103104515D01*
X84409726Y-103104515D02*
X84457345Y-103056896D01*
X84457345Y-103056896D02*
X84552583Y-103009277D01*
X84552583Y-103009277D02*
X84790678Y-103009277D01*
X84790678Y-103009277D02*
X84885916Y-103056896D01*
X84885916Y-103056896D02*
X84933536Y-103104515D01*
X84933536Y-103104515D02*
X84981155Y-103199753D01*
X84981155Y-103199753D02*
X84981155Y-103485467D01*
X84981155Y-103485467D02*
X84933536Y-103580705D01*
X84933536Y-103580705D02*
X84885916Y-103628324D01*
X62124642Y-129864987D02*
X61791309Y-129388796D01*
X61553214Y-129864987D02*
X61553214Y-128864987D01*
X61553214Y-128864987D02*
X61934166Y-128864987D01*
X61934166Y-128864987D02*
X62029404Y-128912606D01*
X62029404Y-128912606D02*
X62077023Y-128960225D01*
X62077023Y-128960225D02*
X62124642Y-129055463D01*
X62124642Y-129055463D02*
X62124642Y-129198320D01*
X62124642Y-129198320D02*
X62077023Y-129293558D01*
X62077023Y-129293558D02*
X62029404Y-129341177D01*
X62029404Y-129341177D02*
X61934166Y-129388796D01*
X61934166Y-129388796D02*
X61553214Y-129388796D01*
X62505595Y-128960225D02*
X62553214Y-128912606D01*
X62553214Y-128912606D02*
X62648452Y-128864987D01*
X62648452Y-128864987D02*
X62886547Y-128864987D01*
X62886547Y-128864987D02*
X62981785Y-128912606D01*
X62981785Y-128912606D02*
X63029404Y-128960225D01*
X63029404Y-128960225D02*
X63077023Y-129055463D01*
X63077023Y-129055463D02*
X63077023Y-129150701D01*
X63077023Y-129150701D02*
X63029404Y-129293558D01*
X63029404Y-129293558D02*
X62457976Y-129864987D01*
X62457976Y-129864987D02*
X63077023Y-129864987D01*
X63696071Y-128864987D02*
X63791309Y-128864987D01*
X63791309Y-128864987D02*
X63886547Y-128912606D01*
X63886547Y-128912606D02*
X63934166Y-128960225D01*
X63934166Y-128960225D02*
X63981785Y-129055463D01*
X63981785Y-129055463D02*
X64029404Y-129245939D01*
X64029404Y-129245939D02*
X64029404Y-129484034D01*
X64029404Y-129484034D02*
X63981785Y-129674510D01*
X63981785Y-129674510D02*
X63934166Y-129769748D01*
X63934166Y-129769748D02*
X63886547Y-129817368D01*
X63886547Y-129817368D02*
X63791309Y-129864987D01*
X63791309Y-129864987D02*
X63696071Y-129864987D01*
X63696071Y-129864987D02*
X63600833Y-129817368D01*
X63600833Y-129817368D02*
X63553214Y-129769748D01*
X63553214Y-129769748D02*
X63505595Y-129674510D01*
X63505595Y-129674510D02*
X63457976Y-129484034D01*
X63457976Y-129484034D02*
X63457976Y-129245939D01*
X63457976Y-129245939D02*
X63505595Y-129055463D01*
X63505595Y-129055463D02*
X63553214Y-128960225D01*
X63553214Y-128960225D02*
X63600833Y-128912606D01*
X63600833Y-128912606D02*
X63696071Y-128864987D01*
X72053319Y-128749537D02*
X72100939Y-128797156D01*
X72100939Y-128797156D02*
X72148558Y-128940013D01*
X72148558Y-128940013D02*
X72148558Y-129035251D01*
X72148558Y-129035251D02*
X72100939Y-129178108D01*
X72100939Y-129178108D02*
X72005700Y-129273346D01*
X72005700Y-129273346D02*
X71910462Y-129320965D01*
X71910462Y-129320965D02*
X71719986Y-129368584D01*
X71719986Y-129368584D02*
X71577129Y-129368584D01*
X71577129Y-129368584D02*
X71386653Y-129320965D01*
X71386653Y-129320965D02*
X71291415Y-129273346D01*
X71291415Y-129273346D02*
X71196177Y-129178108D01*
X71196177Y-129178108D02*
X71148558Y-129035251D01*
X71148558Y-129035251D02*
X71148558Y-128940013D01*
X71148558Y-128940013D02*
X71196177Y-128797156D01*
X71196177Y-128797156D02*
X71243796Y-128749537D01*
X72148558Y-127797156D02*
X72148558Y-128368584D01*
X72148558Y-128082870D02*
X71148558Y-128082870D01*
X71148558Y-128082870D02*
X71291415Y-128178108D01*
X71291415Y-128178108D02*
X71386653Y-128273346D01*
X71386653Y-128273346D02*
X71434272Y-128368584D01*
X71148558Y-127463822D02*
X71148558Y-126797156D01*
X71148558Y-126797156D02*
X72148558Y-127225727D01*
X90002371Y-98089757D02*
X89526180Y-98423090D01*
X90002371Y-98661185D02*
X89002371Y-98661185D01*
X89002371Y-98661185D02*
X89002371Y-98280233D01*
X89002371Y-98280233D02*
X89049990Y-98184995D01*
X89049990Y-98184995D02*
X89097609Y-98137376D01*
X89097609Y-98137376D02*
X89192847Y-98089757D01*
X89192847Y-98089757D02*
X89335704Y-98089757D01*
X89335704Y-98089757D02*
X89430942Y-98137376D01*
X89430942Y-98137376D02*
X89478561Y-98184995D01*
X89478561Y-98184995D02*
X89526180Y-98280233D01*
X89526180Y-98280233D02*
X89526180Y-98661185D01*
X90002371Y-97137376D02*
X90002371Y-97708804D01*
X90002371Y-97423090D02*
X89002371Y-97423090D01*
X89002371Y-97423090D02*
X89145228Y-97518328D01*
X89145228Y-97518328D02*
X89240466Y-97613566D01*
X89240466Y-97613566D02*
X89288085Y-97708804D01*
X89002371Y-96804042D02*
X89002371Y-96184995D01*
X89002371Y-96184995D02*
X89383323Y-96518328D01*
X89383323Y-96518328D02*
X89383323Y-96375471D01*
X89383323Y-96375471D02*
X89430942Y-96280233D01*
X89430942Y-96280233D02*
X89478561Y-96232614D01*
X89478561Y-96232614D02*
X89573799Y-96184995D01*
X89573799Y-96184995D02*
X89811894Y-96184995D01*
X89811894Y-96184995D02*
X89907132Y-96232614D01*
X89907132Y-96232614D02*
X89954752Y-96280233D01*
X89954752Y-96280233D02*
X90002371Y-96375471D01*
X90002371Y-96375471D02*
X90002371Y-96661185D01*
X90002371Y-96661185D02*
X89954752Y-96756423D01*
X89954752Y-96756423D02*
X89907132Y-96804042D01*
X58858142Y-86151335D02*
X58905762Y-86198954D01*
X58905762Y-86198954D02*
X58953381Y-86341811D01*
X58953381Y-86341811D02*
X58953381Y-86437049D01*
X58953381Y-86437049D02*
X58905762Y-86579906D01*
X58905762Y-86579906D02*
X58810523Y-86675144D01*
X58810523Y-86675144D02*
X58715285Y-86722763D01*
X58715285Y-86722763D02*
X58524809Y-86770382D01*
X58524809Y-86770382D02*
X58381952Y-86770382D01*
X58381952Y-86770382D02*
X58191476Y-86722763D01*
X58191476Y-86722763D02*
X58096238Y-86675144D01*
X58096238Y-86675144D02*
X58001000Y-86579906D01*
X58001000Y-86579906D02*
X57953381Y-86437049D01*
X57953381Y-86437049D02*
X57953381Y-86341811D01*
X57953381Y-86341811D02*
X58001000Y-86198954D01*
X58001000Y-86198954D02*
X58048619Y-86151335D01*
X58953381Y-85198954D02*
X58953381Y-85770382D01*
X58953381Y-85484668D02*
X57953381Y-85484668D01*
X57953381Y-85484668D02*
X58096238Y-85579906D01*
X58096238Y-85579906D02*
X58191476Y-85675144D01*
X58191476Y-85675144D02*
X58239095Y-85770382D01*
X57953381Y-84294192D02*
X57953381Y-84770382D01*
X57953381Y-84770382D02*
X58429571Y-84818001D01*
X58429571Y-84818001D02*
X58381952Y-84770382D01*
X58381952Y-84770382D02*
X58334333Y-84675144D01*
X58334333Y-84675144D02*
X58334333Y-84437049D01*
X58334333Y-84437049D02*
X58381952Y-84341811D01*
X58381952Y-84341811D02*
X58429571Y-84294192D01*
X58429571Y-84294192D02*
X58524809Y-84246573D01*
X58524809Y-84246573D02*
X58762904Y-84246573D01*
X58762904Y-84246573D02*
X58858142Y-84294192D01*
X58858142Y-84294192D02*
X58905762Y-84341811D01*
X58905762Y-84341811D02*
X58953381Y-84437049D01*
X58953381Y-84437049D02*
X58953381Y-84675144D01*
X58953381Y-84675144D02*
X58905762Y-84770382D01*
X58905762Y-84770382D02*
X58858142Y-84818001D01*
X73290881Y-102682644D02*
X72814690Y-103015977D01*
X73290881Y-103254072D02*
X72290881Y-103254072D01*
X72290881Y-103254072D02*
X72290881Y-102873120D01*
X72290881Y-102873120D02*
X72338500Y-102777882D01*
X72338500Y-102777882D02*
X72386119Y-102730263D01*
X72386119Y-102730263D02*
X72481357Y-102682644D01*
X72481357Y-102682644D02*
X72624214Y-102682644D01*
X72624214Y-102682644D02*
X72719452Y-102730263D01*
X72719452Y-102730263D02*
X72767071Y-102777882D01*
X72767071Y-102777882D02*
X72814690Y-102873120D01*
X72814690Y-102873120D02*
X72814690Y-103254072D01*
X73290881Y-102206453D02*
X73290881Y-102015977D01*
X73290881Y-102015977D02*
X73243262Y-101920739D01*
X73243262Y-101920739D02*
X73195642Y-101873120D01*
X73195642Y-101873120D02*
X73052785Y-101777882D01*
X73052785Y-101777882D02*
X72862309Y-101730263D01*
X72862309Y-101730263D02*
X72481357Y-101730263D01*
X72481357Y-101730263D02*
X72386119Y-101777882D01*
X72386119Y-101777882D02*
X72338500Y-101825501D01*
X72338500Y-101825501D02*
X72290881Y-101920739D01*
X72290881Y-101920739D02*
X72290881Y-102111215D01*
X72290881Y-102111215D02*
X72338500Y-102206453D01*
X72338500Y-102206453D02*
X72386119Y-102254072D01*
X72386119Y-102254072D02*
X72481357Y-102301691D01*
X72481357Y-102301691D02*
X72719452Y-102301691D01*
X72719452Y-102301691D02*
X72814690Y-102254072D01*
X72814690Y-102254072D02*
X72862309Y-102206453D01*
X72862309Y-102206453D02*
X72909928Y-102111215D01*
X72909928Y-102111215D02*
X72909928Y-101920739D01*
X72909928Y-101920739D02*
X72862309Y-101825501D01*
X72862309Y-101825501D02*
X72814690Y-101777882D01*
X72814690Y-101777882D02*
X72719452Y-101730263D01*
X58624642Y-111567826D02*
X58577023Y-111615446D01*
X58577023Y-111615446D02*
X58434166Y-111663065D01*
X58434166Y-111663065D02*
X58338928Y-111663065D01*
X58338928Y-111663065D02*
X58196071Y-111615446D01*
X58196071Y-111615446D02*
X58100833Y-111520207D01*
X58100833Y-111520207D02*
X58053214Y-111424969D01*
X58053214Y-111424969D02*
X58005595Y-111234493D01*
X58005595Y-111234493D02*
X58005595Y-111091636D01*
X58005595Y-111091636D02*
X58053214Y-110901160D01*
X58053214Y-110901160D02*
X58100833Y-110805922D01*
X58100833Y-110805922D02*
X58196071Y-110710684D01*
X58196071Y-110710684D02*
X58338928Y-110663065D01*
X58338928Y-110663065D02*
X58434166Y-110663065D01*
X58434166Y-110663065D02*
X58577023Y-110710684D01*
X58577023Y-110710684D02*
X58624642Y-110758303D01*
X59005595Y-110758303D02*
X59053214Y-110710684D01*
X59053214Y-110710684D02*
X59148452Y-110663065D01*
X59148452Y-110663065D02*
X59386547Y-110663065D01*
X59386547Y-110663065D02*
X59481785Y-110710684D01*
X59481785Y-110710684D02*
X59529404Y-110758303D01*
X59529404Y-110758303D02*
X59577023Y-110853541D01*
X59577023Y-110853541D02*
X59577023Y-110948779D01*
X59577023Y-110948779D02*
X59529404Y-111091636D01*
X59529404Y-111091636D02*
X58957976Y-111663065D01*
X58957976Y-111663065D02*
X59577023Y-111663065D01*
X60529404Y-111663065D02*
X59957976Y-111663065D01*
X60243690Y-111663065D02*
X60243690Y-110663065D01*
X60243690Y-110663065D02*
X60148452Y-110805922D01*
X60148452Y-110805922D02*
X60053214Y-110901160D01*
X60053214Y-110901160D02*
X59957976Y-110948779D01*
X73554819Y-56467857D02*
X73078628Y-56801190D01*
X73554819Y-57039285D02*
X72554819Y-57039285D01*
X72554819Y-57039285D02*
X72554819Y-56658333D01*
X72554819Y-56658333D02*
X72602438Y-56563095D01*
X72602438Y-56563095D02*
X72650057Y-56515476D01*
X72650057Y-56515476D02*
X72745295Y-56467857D01*
X72745295Y-56467857D02*
X72888152Y-56467857D01*
X72888152Y-56467857D02*
X72983390Y-56515476D01*
X72983390Y-56515476D02*
X73031009Y-56563095D01*
X73031009Y-56563095D02*
X73078628Y-56658333D01*
X73078628Y-56658333D02*
X73078628Y-57039285D01*
X72650057Y-56086904D02*
X72602438Y-56039285D01*
X72602438Y-56039285D02*
X72554819Y-55944047D01*
X72554819Y-55944047D02*
X72554819Y-55705952D01*
X72554819Y-55705952D02*
X72602438Y-55610714D01*
X72602438Y-55610714D02*
X72650057Y-55563095D01*
X72650057Y-55563095D02*
X72745295Y-55515476D01*
X72745295Y-55515476D02*
X72840533Y-55515476D01*
X72840533Y-55515476D02*
X72983390Y-55563095D01*
X72983390Y-55563095D02*
X73554819Y-56134523D01*
X73554819Y-56134523D02*
X73554819Y-55515476D01*
X73554819Y-55039285D02*
X73554819Y-54848809D01*
X73554819Y-54848809D02*
X73507200Y-54753571D01*
X73507200Y-54753571D02*
X73459580Y-54705952D01*
X73459580Y-54705952D02*
X73316723Y-54610714D01*
X73316723Y-54610714D02*
X73126247Y-54563095D01*
X73126247Y-54563095D02*
X72745295Y-54563095D01*
X72745295Y-54563095D02*
X72650057Y-54610714D01*
X72650057Y-54610714D02*
X72602438Y-54658333D01*
X72602438Y-54658333D02*
X72554819Y-54753571D01*
X72554819Y-54753571D02*
X72554819Y-54944047D01*
X72554819Y-54944047D02*
X72602438Y-55039285D01*
X72602438Y-55039285D02*
X72650057Y-55086904D01*
X72650057Y-55086904D02*
X72745295Y-55134523D01*
X72745295Y-55134523D02*
X72983390Y-55134523D01*
X72983390Y-55134523D02*
X73078628Y-55086904D01*
X73078628Y-55086904D02*
X73126247Y-55039285D01*
X73126247Y-55039285D02*
X73173866Y-54944047D01*
X73173866Y-54944047D02*
X73173866Y-54753571D01*
X73173866Y-54753571D02*
X73126247Y-54658333D01*
X73126247Y-54658333D02*
X73078628Y-54610714D01*
X73078628Y-54610714D02*
X72983390Y-54563095D01*
X87981155Y-104914039D02*
X87504964Y-105247372D01*
X87981155Y-105485467D02*
X86981155Y-105485467D01*
X86981155Y-105485467D02*
X86981155Y-105104515D01*
X86981155Y-105104515D02*
X87028774Y-105009277D01*
X87028774Y-105009277D02*
X87076393Y-104961658D01*
X87076393Y-104961658D02*
X87171631Y-104914039D01*
X87171631Y-104914039D02*
X87314488Y-104914039D01*
X87314488Y-104914039D02*
X87409726Y-104961658D01*
X87409726Y-104961658D02*
X87457345Y-105009277D01*
X87457345Y-105009277D02*
X87504964Y-105104515D01*
X87504964Y-105104515D02*
X87504964Y-105485467D01*
X87981155Y-103961658D02*
X87981155Y-104533086D01*
X87981155Y-104247372D02*
X86981155Y-104247372D01*
X86981155Y-104247372D02*
X87124012Y-104342610D01*
X87124012Y-104342610D02*
X87219250Y-104437848D01*
X87219250Y-104437848D02*
X87266869Y-104533086D01*
X87076393Y-103580705D02*
X87028774Y-103533086D01*
X87028774Y-103533086D02*
X86981155Y-103437848D01*
X86981155Y-103437848D02*
X86981155Y-103199753D01*
X86981155Y-103199753D02*
X87028774Y-103104515D01*
X87028774Y-103104515D02*
X87076393Y-103056896D01*
X87076393Y-103056896D02*
X87171631Y-103009277D01*
X87171631Y-103009277D02*
X87266869Y-103009277D01*
X87266869Y-103009277D02*
X87409726Y-103056896D01*
X87409726Y-103056896D02*
X87981155Y-103628324D01*
X87981155Y-103628324D02*
X87981155Y-103009277D01*
X65669395Y-101288058D02*
X65621776Y-101335678D01*
X65621776Y-101335678D02*
X65478919Y-101383297D01*
X65478919Y-101383297D02*
X65383681Y-101383297D01*
X65383681Y-101383297D02*
X65240824Y-101335678D01*
X65240824Y-101335678D02*
X65145586Y-101240439D01*
X65145586Y-101240439D02*
X65097967Y-101145201D01*
X65097967Y-101145201D02*
X65050348Y-100954725D01*
X65050348Y-100954725D02*
X65050348Y-100811868D01*
X65050348Y-100811868D02*
X65097967Y-100621392D01*
X65097967Y-100621392D02*
X65145586Y-100526154D01*
X65145586Y-100526154D02*
X65240824Y-100430916D01*
X65240824Y-100430916D02*
X65383681Y-100383297D01*
X65383681Y-100383297D02*
X65478919Y-100383297D01*
X65478919Y-100383297D02*
X65621776Y-100430916D01*
X65621776Y-100430916D02*
X65669395Y-100478535D01*
X66145586Y-101383297D02*
X66336062Y-101383297D01*
X66336062Y-101383297D02*
X66431300Y-101335678D01*
X66431300Y-101335678D02*
X66478919Y-101288058D01*
X66478919Y-101288058D02*
X66574157Y-101145201D01*
X66574157Y-101145201D02*
X66621776Y-100954725D01*
X66621776Y-100954725D02*
X66621776Y-100573773D01*
X66621776Y-100573773D02*
X66574157Y-100478535D01*
X66574157Y-100478535D02*
X66526538Y-100430916D01*
X66526538Y-100430916D02*
X66431300Y-100383297D01*
X66431300Y-100383297D02*
X66240824Y-100383297D01*
X66240824Y-100383297D02*
X66145586Y-100430916D01*
X66145586Y-100430916D02*
X66097967Y-100478535D01*
X66097967Y-100478535D02*
X66050348Y-100573773D01*
X66050348Y-100573773D02*
X66050348Y-100811868D01*
X66050348Y-100811868D02*
X66097967Y-100907106D01*
X66097967Y-100907106D02*
X66145586Y-100954725D01*
X66145586Y-100954725D02*
X66240824Y-101002344D01*
X66240824Y-101002344D02*
X66431300Y-101002344D01*
X66431300Y-101002344D02*
X66526538Y-100954725D01*
X66526538Y-100954725D02*
X66574157Y-100907106D01*
X66574157Y-100907106D02*
X66621776Y-100811868D01*
X68529580Y-56555357D02*
X68577200Y-56602976D01*
X68577200Y-56602976D02*
X68624819Y-56745833D01*
X68624819Y-56745833D02*
X68624819Y-56841071D01*
X68624819Y-56841071D02*
X68577200Y-56983928D01*
X68577200Y-56983928D02*
X68481961Y-57079166D01*
X68481961Y-57079166D02*
X68386723Y-57126785D01*
X68386723Y-57126785D02*
X68196247Y-57174404D01*
X68196247Y-57174404D02*
X68053390Y-57174404D01*
X68053390Y-57174404D02*
X67862914Y-57126785D01*
X67862914Y-57126785D02*
X67767676Y-57079166D01*
X67767676Y-57079166D02*
X67672438Y-56983928D01*
X67672438Y-56983928D02*
X67624819Y-56841071D01*
X67624819Y-56841071D02*
X67624819Y-56745833D01*
X67624819Y-56745833D02*
X67672438Y-56602976D01*
X67672438Y-56602976D02*
X67720057Y-56555357D01*
X67720057Y-56174404D02*
X67672438Y-56126785D01*
X67672438Y-56126785D02*
X67624819Y-56031547D01*
X67624819Y-56031547D02*
X67624819Y-55793452D01*
X67624819Y-55793452D02*
X67672438Y-55698214D01*
X67672438Y-55698214D02*
X67720057Y-55650595D01*
X67720057Y-55650595D02*
X67815295Y-55602976D01*
X67815295Y-55602976D02*
X67910533Y-55602976D01*
X67910533Y-55602976D02*
X68053390Y-55650595D01*
X68053390Y-55650595D02*
X68624819Y-56222023D01*
X68624819Y-56222023D02*
X68624819Y-55602976D01*
X67958152Y-54745833D02*
X68624819Y-54745833D01*
X67577200Y-54983928D02*
X68291485Y-55222023D01*
X68291485Y-55222023D02*
X68291485Y-54602976D01*
X91477045Y-85546462D02*
X91000854Y-85879795D01*
X91477045Y-86117890D02*
X90477045Y-86117890D01*
X90477045Y-86117890D02*
X90477045Y-85736938D01*
X90477045Y-85736938D02*
X90524664Y-85641700D01*
X90524664Y-85641700D02*
X90572283Y-85594081D01*
X90572283Y-85594081D02*
X90667521Y-85546462D01*
X90667521Y-85546462D02*
X90810378Y-85546462D01*
X90810378Y-85546462D02*
X90905616Y-85594081D01*
X90905616Y-85594081D02*
X90953235Y-85641700D01*
X90953235Y-85641700D02*
X91000854Y-85736938D01*
X91000854Y-85736938D02*
X91000854Y-86117890D01*
X90477045Y-85213128D02*
X90477045Y-84546462D01*
X90477045Y-84546462D02*
X91477045Y-84975033D01*
D12*
%TO.C,R35*%
X81477500Y-122454724D02*
X81477500Y-121945276D01*
X82522500Y-122454724D02*
X82522500Y-121945276D01*
%TO.C,R36*%
X84122500Y-121945276D02*
X84122500Y-122454724D01*
X83077500Y-121945276D02*
X83077500Y-122454724D01*
%TO.C,R32*%
X78520276Y-44477500D02*
X79029724Y-44477500D01*
X78520276Y-45522500D02*
X79029724Y-45522500D01*
%TO.C,R3*%
X71026062Y-81493202D02*
X71026062Y-80983754D01*
X72071062Y-81493202D02*
X72071062Y-80983754D01*
%TO.C,Y1*%
X60643562Y-92788478D02*
X60643562Y-82568478D01*
X60643562Y-95388478D02*
X60643562Y-94058478D01*
X61973562Y-95388478D02*
X60643562Y-95388478D01*
X63303562Y-82568478D02*
X60643562Y-82568478D01*
X63303562Y-92788478D02*
X60643562Y-92788478D01*
X63303562Y-92788478D02*
X63303562Y-82568478D01*
%TO.C,C11*%
X73826062Y-99369711D02*
X73826062Y-99662245D01*
X74846062Y-99369711D02*
X74846062Y-99662245D01*
%TO.C,C14*%
X89037552Y-100918167D02*
X89037552Y-100625633D01*
X90057552Y-100918167D02*
X90057552Y-100625633D01*
%TO.C,C19*%
X78465000Y-127123733D02*
X78465000Y-127416267D01*
X79485000Y-127123733D02*
X79485000Y-127416267D01*
%TO.C,C3*%
X72337310Y-76828478D02*
X73759814Y-76828478D01*
X72337310Y-78648478D02*
X73759814Y-78648478D01*
%TO.C,R25*%
X69977500Y-29245276D02*
X69977500Y-29754724D01*
X71022500Y-29245276D02*
X71022500Y-29754724D01*
%TO.C,R5*%
X87026062Y-82993202D02*
X87026062Y-82483754D01*
X88071062Y-82993202D02*
X88071062Y-82483754D01*
%TO.C,C29*%
X75421267Y-44490000D02*
X75128733Y-44490000D01*
X75421267Y-45510000D02*
X75128733Y-45510000D01*
%TO.C,C7*%
X89012226Y-82888563D02*
X89012226Y-82596029D01*
X90032226Y-82888563D02*
X90032226Y-82596029D01*
%TO.C,R11*%
X85503836Y-100516458D02*
X85503836Y-101025906D01*
X86548836Y-100516458D02*
X86548836Y-101025906D01*
%TO.C,C27*%
X78628733Y-46490000D02*
X78921267Y-46490000D01*
X78628733Y-47510000D02*
X78921267Y-47510000D01*
%TO.C,U3*%
X76475000Y-119710000D02*
X74525000Y-119710000D01*
X76475000Y-119710000D02*
X78425000Y-119710000D01*
X76475000Y-124830000D02*
X74525000Y-124830000D01*
X76475000Y-124830000D02*
X78425000Y-124830000D01*
X73775000Y-119805000D02*
X73535000Y-119475000D01*
X74015000Y-119475000D01*
X73775000Y-119805000D01*
G36*
X73775000Y-119805000D02*
G01*
X73535000Y-119475000D01*
X74015000Y-119475000D01*
X73775000Y-119805000D01*
G37*
%TO.C,R27*%
X69754724Y-34977500D02*
X69245276Y-34977500D01*
X69754724Y-36022500D02*
X69245276Y-36022500D01*
%TO.C,C6*%
X84038562Y-82592211D02*
X84038562Y-82884745D01*
X85058562Y-82592211D02*
X85058562Y-82884745D01*
%TO.C,R17*%
X96245000Y-127997970D02*
X96245000Y-127488522D01*
X97290000Y-127997970D02*
X97290000Y-127488522D01*
%TO.C,JP3*%
X54217500Y-128518246D02*
X54217500Y-127918246D01*
X54917500Y-127218246D02*
X56317500Y-127218246D01*
X56317500Y-129218246D02*
X54917500Y-129218246D01*
X57017500Y-127918246D02*
X57017500Y-128518246D01*
X54217500Y-127918246D02*
G75*
G02*
X54917500Y-127218246I700000J0D01*
G01*
X54917500Y-129218246D02*
G75*
G02*
X54217500Y-128518246I0J700000D01*
G01*
X56317500Y-127218246D02*
G75*
G02*
X57017500Y-127918246I1J-699999D01*
G01*
X57017500Y-128518246D02*
G75*
G02*
X56317500Y-129218246I-699999J-1D01*
G01*
%TO.C,C8*%
X81007329Y-96998478D02*
X80714795Y-96998478D01*
X81007329Y-98018478D02*
X80714795Y-98018478D01*
%TO.C,R31*%
X80752500Y-46342224D02*
X80752500Y-45832776D01*
X81797500Y-46342224D02*
X81797500Y-45832776D01*
%TO.C,R28*%
X70577500Y-52245276D02*
X70577500Y-52754724D01*
X71622500Y-52245276D02*
X71622500Y-52754724D01*
%TO.C,R14*%
X90525052Y-100517176D02*
X90525052Y-101026624D01*
X91570052Y-100517176D02*
X91570052Y-101026624D01*
%TO.C,R15*%
X68952500Y-120015276D02*
X68952500Y-120524724D01*
X69997500Y-120015276D02*
X69997500Y-120524724D01*
%TO.C,TP6*%
X57317500Y-124218246D02*
G75*
G02*
X53917500Y-124218246I-1700000J0D01*
G01*
X53917500Y-124218246D02*
G75*
G02*
X57317500Y-124218246I1700000J0D01*
G01*
%TO.C,LED1*%
X94532500Y-126943246D02*
X94532500Y-129403246D01*
X94532500Y-129403246D02*
X96002500Y-129403246D01*
X96002500Y-129403246D02*
X96002500Y-126943246D01*
%TO.C,C23*%
X62506248Y-124483246D02*
X63028752Y-124483246D01*
X62506248Y-125953246D02*
X63028752Y-125953246D01*
%TO.C,C26*%
X70590000Y-49196267D02*
X70590000Y-48903733D01*
X71610000Y-49196267D02*
X71610000Y-48903733D01*
%TO.C,R8*%
X69090786Y-101905978D02*
X68581338Y-101905978D01*
X69090786Y-102950978D02*
X68581338Y-102950978D01*
%TO.C,U2*%
X79336062Y-98543478D02*
X77386062Y-98543478D01*
X79336062Y-98543478D02*
X81286062Y-98543478D01*
X79336062Y-103663478D02*
X77386062Y-103663478D01*
X79336062Y-103663478D02*
X81286062Y-103663478D01*
X76636062Y-98638478D02*
X76396062Y-98308478D01*
X76876062Y-98308478D01*
X76636062Y-98638478D01*
G36*
X76636062Y-98638478D02*
G01*
X76396062Y-98308478D01*
X76876062Y-98308478D01*
X76636062Y-98638478D01*
G37*
%TO.C,C2*%
X69194829Y-82228478D02*
X68902295Y-82228478D01*
X69194829Y-83248478D02*
X68902295Y-83248478D01*
%TO.C,R19*%
X76422500Y-127524724D02*
X76422500Y-127015276D01*
X77467500Y-127524724D02*
X77467500Y-127015276D01*
%TO.C,R6*%
X90499726Y-79125072D02*
X90499726Y-79634520D01*
X91544726Y-79125072D02*
X91544726Y-79634520D01*
%TO.C,C12*%
X86737588Y-96361182D02*
X85315084Y-96361182D01*
X86737588Y-98181182D02*
X85315084Y-98181182D01*
%TO.C,C28*%
X82146267Y-52990000D02*
X81853733Y-52990000D01*
X82146267Y-54010000D02*
X81853733Y-54010000D01*
%TO.C,LED2*%
X101032500Y-126943246D02*
X101032500Y-129403246D01*
X101032500Y-129403246D02*
X102502500Y-129403246D01*
X102502500Y-129403246D02*
X102502500Y-126943246D01*
%TO.C,R23*%
X68157776Y-45977500D02*
X68667224Y-45977500D01*
X68157776Y-47022500D02*
X68667224Y-47022500D01*
%TO.C,R4*%
X85526062Y-82483754D02*
X85526062Y-82993202D01*
X86571062Y-82483754D02*
X86571062Y-82993202D01*
%TO.C,TP4*%
X74200000Y-113500000D02*
G75*
G02*
X70800000Y-113500000I-1700000J0D01*
G01*
X70800000Y-113500000D02*
G75*
G02*
X74200000Y-113500000I1700000J0D01*
G01*
%TO.C,R21*%
X84754724Y-28477500D02*
X84245276Y-28477500D01*
X84754724Y-29522500D02*
X84245276Y-29522500D01*
%TO.C,J1*%
X73900000Y-24400000D02*
X74400000Y-24400000D01*
X73900000Y-25600000D02*
X71900000Y-25600000D01*
X73900000Y-25600000D02*
X73900000Y-24400000D01*
X73900000Y-28200000D02*
X71900000Y-28200000D01*
X73900000Y-34700000D02*
X73900000Y-28200000D01*
X73900000Y-39100000D02*
X73900000Y-37900000D01*
X74400000Y-21900000D02*
X79600000Y-21900000D01*
X74400000Y-24400000D02*
X74400000Y-21900000D01*
X79600000Y-21900000D02*
X79600000Y-24400000D01*
X79600000Y-24400000D02*
X80100000Y-24400000D01*
X80100000Y-24400000D02*
X80100000Y-27600000D01*
X80100000Y-30200000D02*
X80100000Y-39100000D01*
X80100000Y-39100000D02*
X73900000Y-39100000D01*
%TO.C,R16*%
X68952500Y-124015276D02*
X68952500Y-124524724D01*
X69997500Y-124015276D02*
X69997500Y-124524724D01*
%TO.C,U4*%
X58357500Y-114808246D02*
X58357500Y-116068246D01*
X58357500Y-121628246D02*
X58357500Y-120368246D01*
X62117500Y-114808246D02*
X58357500Y-114808246D01*
X62117500Y-121628246D02*
X58357500Y-121628246D01*
X63637500Y-121858246D02*
X63157500Y-121858246D01*
X63397500Y-121528246D01*
X63637500Y-121858246D01*
G36*
X63637500Y-121858246D02*
G01*
X63157500Y-121858246D01*
X63397500Y-121528246D01*
X63637500Y-121858246D01*
G37*
%TO.C,C30*%
X84146267Y-48490000D02*
X83853733Y-48490000D01*
X84146267Y-49510000D02*
X83853733Y-49510000D01*
%TO.C,C5*%
X86759814Y-78328478D02*
X85337310Y-78328478D01*
X86759814Y-80148478D02*
X85337310Y-80148478D01*
%TO.C,R2*%
X72526062Y-80983754D02*
X72526062Y-81493202D01*
X73571062Y-80983754D02*
X73571062Y-81493202D01*
%TO.C,JP1*%
X92266979Y-80078442D02*
X92266979Y-78678442D01*
X92966979Y-77978442D02*
X93566979Y-77978442D01*
X93566979Y-80778442D02*
X92966979Y-80778442D01*
X94266979Y-78678442D02*
X94266979Y-80078442D01*
X92266979Y-78678442D02*
G75*
G02*
X92966979Y-77978442I699999J1D01*
G01*
X92966979Y-80778442D02*
G75*
G02*
X92266979Y-80078442I0J700000D01*
G01*
X93566979Y-77978442D02*
G75*
G02*
X94266979Y-78678442I1J-699999D01*
G01*
X94266979Y-80078442D02*
G75*
G02*
X93566979Y-80778442I-700000J0D01*
G01*
%TO.C,C18*%
X56488562Y-89154745D02*
X56488562Y-88862211D01*
X57508562Y-89154745D02*
X57508562Y-88862211D01*
%TO.C,R10*%
X70813562Y-99770702D02*
X70813562Y-99261254D01*
X71858562Y-99770702D02*
X71858562Y-99261254D01*
%TO.C,C10*%
X72124810Y-95105978D02*
X73547314Y-95105978D01*
X72124810Y-96925978D02*
X73547314Y-96925978D01*
%TO.C,Y2*%
X88550000Y-111170000D02*
X89880000Y-111170000D01*
X88550000Y-112500000D02*
X88550000Y-111170000D01*
X91150000Y-111170000D02*
X103910000Y-111170000D01*
X91150000Y-113830000D02*
X91150000Y-111170000D01*
X91150000Y-113830000D02*
X103910000Y-113830000D01*
X103910000Y-113830000D02*
X103910000Y-111170000D01*
%TO.C,U1*%
X79523562Y-80313478D02*
X77573562Y-80313478D01*
X79523562Y-80313478D02*
X81473562Y-80313478D01*
X79523562Y-85433478D02*
X77573562Y-85433478D01*
X79523562Y-85433478D02*
X81473562Y-85433478D01*
X76823562Y-80408478D02*
X76583562Y-80078478D01*
X77063562Y-80078478D01*
X76823562Y-80408478D01*
G36*
X76823562Y-80408478D02*
G01*
X76583562Y-80078478D01*
X77063562Y-80078478D01*
X76823562Y-80408478D01*
G37*
%TO.C,C22*%
X62506248Y-122483246D02*
X63028752Y-122483246D01*
X62506248Y-123953246D02*
X63028752Y-123953246D01*
%TO.C,JP2*%
X92199813Y-98134969D02*
X92199813Y-96734969D01*
X92899813Y-96034969D02*
X93499813Y-96034969D01*
X93499813Y-98834969D02*
X92899813Y-98834969D01*
X94199813Y-96734969D02*
X94199813Y-98134969D01*
X92199813Y-96734969D02*
G75*
G02*
X92899813Y-96034969I699999J1D01*
G01*
X92899813Y-98834969D02*
G75*
G02*
X92199813Y-98134969I0J700000D01*
G01*
X93499813Y-96034969D02*
G75*
G02*
X94199813Y-96734969I1J-699999D01*
G01*
X94199813Y-98134969D02*
G75*
G02*
X93499813Y-98834969I-700000J0D01*
G01*
%TO.C,C4*%
X74038562Y-81092211D02*
X74038562Y-81384745D01*
X75058562Y-81092211D02*
X75058562Y-81384745D01*
%TO.C,R26*%
X82977500Y-31245276D02*
X82977500Y-31754724D01*
X84022500Y-31245276D02*
X84022500Y-31754724D01*
%TO.C,TP3*%
X96200000Y-85500000D02*
G75*
G02*
X92800000Y-85500000I-1700000J0D01*
G01*
X92800000Y-85500000D02*
G75*
G02*
X96200000Y-85500000I1700000J0D01*
G01*
%TO.C,R18*%
X102745000Y-127997970D02*
X102745000Y-127488522D01*
X103790000Y-127997970D02*
X103790000Y-127488522D01*
%TO.C,R24*%
X68157776Y-47477500D02*
X68667224Y-47477500D01*
X68157776Y-48522500D02*
X68667224Y-48522500D01*
%TO.C,C25*%
X69353733Y-36490000D02*
X69646267Y-36490000D01*
X69353733Y-37510000D02*
X69646267Y-37510000D01*
%TO.C,R30*%
X84254724Y-51477500D02*
X83745276Y-51477500D01*
X84254724Y-52522500D02*
X83745276Y-52522500D01*
%TO.C,R22*%
X69245276Y-26477500D02*
X69754724Y-26477500D01*
X69245276Y-27522500D02*
X69754724Y-27522500D01*
%TO.C,C1*%
X81194829Y-78728478D02*
X80902295Y-78728478D01*
X81194829Y-79748478D02*
X80902295Y-79748478D01*
%TO.C,R34*%
X84254724Y-49977500D02*
X83745276Y-49977500D01*
X84254724Y-51022500D02*
X83745276Y-51022500D01*
%TO.C,C16*%
X78121267Y-117760000D02*
X77828733Y-117760000D01*
X78121267Y-118780000D02*
X77828733Y-118780000D01*
%TO.C,R1*%
X69303286Y-83715978D02*
X68793838Y-83715978D01*
X69303286Y-84760978D02*
X68793838Y-84760978D01*
%TO.C,R33*%
X82252500Y-46342224D02*
X82252500Y-45832776D01*
X83297500Y-46342224D02*
X83297500Y-45832776D01*
%TO.C,C20*%
X62506248Y-112483246D02*
X63028752Y-112483246D01*
X62506248Y-113953246D02*
X63028752Y-113953246D01*
%TO.C,TP7*%
X56700000Y-134500000D02*
G75*
G02*
X53300000Y-134500000I-1700000J0D01*
G01*
X53300000Y-134500000D02*
G75*
G02*
X56700000Y-134500000I1700000J0D01*
G01*
%TO.C,C13*%
X84016336Y-100624915D02*
X84016336Y-100917449D01*
X85036336Y-100624915D02*
X85036336Y-100917449D01*
%TO.C,R20*%
X62540436Y-126983246D02*
X62994564Y-126983246D01*
X62540436Y-128453246D02*
X62994564Y-128453246D01*
%TO.C,C17*%
X70965000Y-124123733D02*
X70965000Y-124416267D01*
X71985000Y-124123733D02*
X71985000Y-124416267D01*
%TO.C,TP2*%
X96200000Y-104500000D02*
G75*
G02*
X92800000Y-104500000I-1700000J0D01*
G01*
X92800000Y-104500000D02*
G75*
G02*
X96200000Y-104500000I1700000J0D01*
G01*
%TO.C,TP1*%
X84200000Y-113500000D02*
G75*
G02*
X80800000Y-113500000I-1700000J0D01*
G01*
X80800000Y-113500000D02*
G75*
G02*
X84200000Y-113500000I1700000J0D01*
G01*
%TO.C,TP5*%
X57467500Y-112218246D02*
G75*
G02*
X54067500Y-112218246I-1700000J0D01*
G01*
X54067500Y-112218246D02*
G75*
G02*
X57467500Y-112218246I1700000J0D01*
G01*
%TO.C,R13*%
X90525052Y-97192176D02*
X90525052Y-97701624D01*
X91570052Y-97192176D02*
X91570052Y-97701624D01*
%TO.C,C15*%
X57988562Y-89154745D02*
X57988562Y-88862211D01*
X59008562Y-89154745D02*
X59008562Y-88862211D01*
%TO.C,R9*%
X72313562Y-99261254D02*
X72313562Y-99770702D01*
X73358562Y-99261254D02*
X73358562Y-99770702D01*
%TO.C,C21*%
X62506248Y-110483246D02*
X63028752Y-110483246D01*
X62506248Y-111953246D02*
X63028752Y-111953246D01*
%TO.C,R29*%
X70577500Y-55657776D02*
X70577500Y-56167224D01*
X71622500Y-55657776D02*
X71622500Y-56167224D01*
%TO.C,R12*%
X87003836Y-101025906D02*
X87003836Y-100516458D01*
X88048836Y-101025906D02*
X88048836Y-100516458D01*
%TO.C,C9*%
X68982329Y-100418478D02*
X68689795Y-100418478D01*
X68982329Y-101438478D02*
X68689795Y-101438478D01*
%TO.C,C24*%
X69090000Y-56058767D02*
X69090000Y-55766233D01*
X70110000Y-56058767D02*
X70110000Y-55766233D01*
%TO.C,R7*%
X90499726Y-82487572D02*
X90499726Y-82997020D01*
X91544726Y-82487572D02*
X91544726Y-82997020D01*
%TD*%
M02*
